<?xml version="1.0" encoding="UTF-8" standalone="no"?>
<!-- Created with Inkscape (http://www.inkscape.org/) -->

<svg
   xmlns:dc="http://purl.org/dc/elements/1.1/"
   xmlns:cc="http://creativecommons.org/ns#"
   xmlns:rdf="http://www.w3.org/1999/02/22-rdf-syntax-ns#"
   xmlns:svg="http://www.w3.org/2000/svg"
   xmlns="http://www.w3.org/2000/svg"
   xmlns:sodipodi="http://sodipodi.sourceforge.net/DTD/sodipodi-0.dtd"
   xmlns:inkscape="http://www.inkscape.org/namespaces/inkscape"
   version="1.1"
   id="svg2"
   width="64"
   height="64"
   viewBox="0 0 64 64"
   sodipodi:docname="academic-approach-logo.svg"
   inkscape:version="0.92.4 (unknown)">
  <metadata
     id="metadata8">
    <rdf:RDF>
      <cc:Work
         rdf:about="">
        <dc:format>image/svg+xml</dc:format>
        <dc:type
           rdf:resource="http://purl.org/dc/dcmitype/StillImage" />
        <dc:title></dc:title>
      </cc:Work>
    </rdf:RDF>
  </metadata>
  <defs
     id="defs6" />
  <sodipodi:namedview
     pagecolor="#ffffff"
     bordercolor="#666666"
     borderopacity="1"
     objecttolerance="10"
     gridtolerance="10"
     guidetolerance="10"
     inkscape:pageopacity="0"
     inkscape:pageshadow="2"
     inkscape:window-width="1853"
     inkscape:window-height="1136"
     id="namedview4"
     showgrid="false"
     inkscape:zoom="3.6875"
     inkscape:cx="33.898305"
     inkscape:cy="34.169491"
     inkscape:window-x="67"
     inkscape:window-y="27"
     inkscape:window-maximized="1"
     inkscape:current-layer="g817" />
  <g
     id="g817"
     transform="translate(-3.7966102,-4.6101695)">
    <path
       style="fill:#ffffff;stroke-width:0.31999999;fill-opacity:1"
       d="M 3.7966102,4.6101695 V 4.930482 h 31.9999998 32 V 4.6101695 h -32 z M 35.648172,10.709779 c -0.388602,-0.0042 -0.773083,0.06923 -1.011718,0.224609 -0.492949,0.320969 -16.470441,39.126204 -16.253906,39.476562 0.09499,0.153702 1.233977,0.279297 2.533203,0.279297 3.009733,0 2.976891,-0.120695 1.230468,4.361328 -1.806327,4.635763 -1.735399,4.54339 -3.574218,4.66211 -1.538726,0.09935 -2.078414,0.932305 -1.529297,2.363281 0.197763,0.515364 11.506145,0.675163 12.296875,0.173828 1.493326,-0.94679 0.254647,-2.439591 -2.103516,-2.535156 -1.901296,-0.07705 -2.320312,-0.187912 -2.320312,-0.619141 0,-0.657532 2.239744,-7.142197 2.654297,-7.685547 0.227671,-0.298406 2.074301,-0.40039 7.271484,-0.40039 h 6.966797 l 1.484375,4.052734 c 1.673712,4.570755 1.685288,4.515254 -0.935547,4.648437 -1.92,0.09757 -1.919922,0.09891 -1.919922,1.378907 0,1.28 -0.0014,1.279984 6.037109,1.367187 6.641024,0.0959 7.021763,0.0039 6.859375,-1.660156 -0.09096,-0.932134 -0.180731,-0.99288 -1.591797,-1.083984 C 49.718963,59.583074 50.22829,60.652003 43.775126,42.965638 36.9127,24.157602 37.264975,24.960286 35.79661,24.836731 c -1.777809,-0.149594 -1.947245,0.158153 -6.400391,11.613282 -2.326261,5.984 -4.376569,11.059297 -4.554687,11.279297 -0.428251,0.528947 -2.140627,0.514894 -2.345703,-0.01953 -0.199099,-0.51884 12.699243,-31.960107 13.134765,-32.01758 0.172488,-0.02276 3.267396,7.517813 6.878907,16.757813 3.611513,9.24 6.678565,16.972152 6.814453,17.18164 0.253814,0.39128 1.97987,-9.22e-4 2.302734,-0.523437 0.218538,-0.3536 -14.470108,-37.848755 -14.945312,-38.15039 -0.253136,-0.160678 -0.644601,-0.243861 -1.033204,-0.248047 z m -0.701171,21.189452 c 0.35081,0.116936 5.611399,14.748496 5.634765,15.671876 0.01558,0.616208 -11.265156,0.886816 -11.640625,0.279296 -0.260971,-0.422262 5.632755,-16.07554 6.00586,-15.951172 z M 3.7966102,68.289857 v 0.320312 h 31.9999998 32 v -0.320312 h -32 z"
       id="path821"
       inkscape:connector-curvature="0" />
  </g>
</svg>
