<?xml version="1.0" encoding="UTF-8" standalone="no"?>
<!-- Created with Inkscape (http://www.inkscape.org/) -->

<svg
   xmlns:dc="http://purl.org/dc/elements/1.1/"
   xmlns:cc="http://creativecommons.org/ns#"
   xmlns:rdf="http://www.w3.org/1999/02/22-rdf-syntax-ns#"
   xmlns:svg="http://www.w3.org/2000/svg"
   xmlns="http://www.w3.org/2000/svg"
   xmlns:sodipodi="http://sodipodi.sourceforge.net/DTD/sodipodi-0.dtd"
   xmlns:inkscape="http://www.inkscape.org/namespaces/inkscape"
   version="1.1"
   id="svg7601"
   width="261.16092"
   height="174.3483"
   viewBox="0 0 261.16092 174.3483"
   sodipodi:docname="american-flag-logo.svg"
   inkscape:version="0.92.4 (unknown)">
  <metadata
     id="metadata7607">
    <rdf:RDF>
      <cc:Work
         rdf:about="">
        <dc:format>image/svg+xml</dc:format>
        <dc:type
           rdf:resource="http://purl.org/dc/dcmitype/StillImage" />
        <dc:title></dc:title>
      </cc:Work>
    </rdf:RDF>
  </metadata>
  <defs
     id="defs7605" />
  <sodipodi:namedview
     pagecolor="#ffffff"
     bordercolor="#666666"
     borderopacity="1"
     objecttolerance="10"
     gridtolerance="10"
     guidetolerance="10"
     inkscape:pageopacity="0"
     inkscape:pageshadow="2"
     inkscape:window-width="773"
     inkscape:window-height="480"
     id="namedview7603"
     showgrid="false"
     inkscape:zoom="0.88500003"
     inkscape:cx="107.93781"
     inkscape:cy="182.28849"
     inkscape:window-x="67"
     inkscape:window-y="27"
     inkscape:window-maximized="0"
     inkscape:current-layer="svg7601" />
  <g
     id="g8154"
     transform="translate(-2.7966456,-44.098383)"
     style="fill:#ffffff;fill-opacity:1">
    <path
       style="fill:#ffffff;stroke-width:1.33333325;fill-opacity:1"
       d="m 3.2051751,216.81347 c -0.3939104,-1.0265 -0.52622,-4.17948 -0.2940213,-7.0066 l 0.4221794,-5.14021 h 129.9999968 130 v 6.66667 6.66666 l -129.70597,0.33994 C 23.464922,218.62865 3.8134619,218.39859 3.2051751,216.81347 Z m 0,-26.66666 c -0.3939104,-1.02651 -0.52622,-4.17948 -0.2940213,-7.0066 L 3.3333332,178 h 129.9999968 130 v 6.66666 6.66667 l -129.70597,0.33993 C 23.464922,191.96198 3.8134619,191.73193 3.2051751,190.14681 Z m 0,-26.66667 c -0.3939104,-1.0265 -0.52622,-4.17948 -0.2940213,-7.0066 l 0.4221794,-5.14021 h 129.9999968 130 V 158 164.66666 L 133.62736,165.0066 C 23.464922,165.29532 3.8134619,165.06526 3.2051751,163.48014 Z m 0.073252,-26.47577 C 2.9220179,136.07558 2.7885679,114.91964 2.9818718,89.991167 L 3.3333332,44.666666 H 65.999998 128.66666 V 91.333331 138 l -62.370106,0.34654 c -49.354697,0.27423 -62.5053382,-0.005 -63.0181269,-1.34217 z M 17.082454,128.34864 C 16.413105,124.87299 12,124.48537 12,127.90223 c 0,1.90813 0.8563,2.76443 2.764432,2.76443 1.908132,0 2.626154,-0.71802 2.318022,-2.31802 z M 37.999999,128 c 0,-1.07992 -1.05,-2.1657 -2.333333,-2.41284 -1.637132,-0.31528 -2.333334,0.40464 -2.333334,2.41284 0,2.0082 0.696202,2.72812 2.333334,2.41284 1.283333,-0.24715 2.333333,-1.33293 2.333333,-2.41284 z m 21.019242,1.86964 c 1.272417,-1.27242 -0.466292,-4.53631 -2.416538,-4.53631 -2.233563,0 -3.690752,2.2395 -2.602704,4 0.910672,1.4735 3.775904,1.77965 5.019242,0.53631 z m 20.980757,-1.96741 c 0,-3.41686 -4.413105,-3.02924 -5.082455,0.44641 -0.308132,1.6 0.409891,2.31802 2.318023,2.31802 1.908132,0 2.764432,-0.8563 2.764432,-2.76443 z m 21.082452,0.44641 c -0.66935,-3.47565 -5.082452,-3.86327 -5.082452,-0.44641 0,1.90813 0.8563,2.76443 2.764432,2.76443 1.90813,0 2.62615,-0.71802 2.31802,-2.31802 z M 122,128 c 0,-1.07992 -1.05,-2.1657 -2.33334,-2.41284 -1.63713,-0.31528 -2.33333,0.40464 -2.33333,2.41284 0,2.0082 0.6962,2.72812 2.33333,2.41284 C 120.95,130.16569 122,129.07991 122,128 Z M 25.999999,116 c 0,-1.07992 -1.05,-2.16569 -2.333333,-2.41284 -1.637132,-0.31528 -2.333333,0.40464 -2.333333,2.41284 0,2.0082 0.696201,2.72812 2.333333,2.41284 1.283333,-0.24715 2.333333,-1.33293 2.333333,-2.41284 z m 22,0 c 0,-1.77778 -0.88889,-2.66667 -2.666667,-2.66667 -1.777777,0 -2.666666,0.88889 -2.666666,2.66667 0,1.77777 0.888889,2.66666 2.666666,2.66666 1.777777,0 2.666667,-0.88889 2.666667,-2.66666 z m 21.333333,0 c 0,-1.46667 -0.86459,-2.66667 -1.921311,-2.66667 -2.355453,0 -3.861409,2.19419 -2.745356,4 1.449987,2.34613 4.666667,1.42708 4.666667,-1.33333 z m 22.333722,0.33403 c 0.729014,-2.1895 -3.448638,-3.75245 -5.240503,-1.96059 -0.76681,0.76681 -0.970537,2.07971 -0.452728,2.91754 1.178069,1.90616 4.951092,1.27197 5.693231,-0.95695 z M 112.66666,116 c 0,-1.07992 -1.05,-2.16569 -2.33333,-2.41284 C 108.6962,113.27188 108,113.9918 108,116 c 0,2.0082 0.6962,2.72812 2.33333,2.41284 1.28333,-0.24715 2.33333,-1.33293 2.33333,-2.41284 z M 17.097765,103.55618 c 0.290673,-1.49878 -0.469384,-2.22285 -2.333333,-2.22285 -1.520438,0 -2.764432,0.8 -2.764432,1.77778 0,4.08366 4.318966,4.46073 5.097765,0.44507 z M 37.999999,104 c 0,-1.07992 -1.05,-2.16569 -2.333333,-2.41284 -1.637132,-0.31528 -2.333334,0.40464 -2.333334,2.41284 0,2.0082 0.696202,2.72812 2.333334,2.41284 1.283333,-0.24715 2.333333,-1.33293 2.333333,-2.41284 z m 21.168202,0.61619 c 0.455963,-1.18822 -0.08243,-2.38404 -1.280304,-2.84371 -2.489814,-0.95543 -5.214298,1.41469 -3.9597,3.44467 1.308374,2.117 4.33001,1.77045 5.240004,-0.60096 z M 79.999998,104 c 0,-1.77778 -0.888889,-2.66667 -2.666667,-2.66667 -2.569586,0 -3.613196,2.60903 -1.777777,4.44444 1.835419,1.83542 4.444444,0.79181 4.444444,-1.77777 z m 21.097762,-0.44382 c 0.29068,-1.49878 -0.46938,-2.22285 -2.33333,-2.22285 -1.520438,0 -2.764432,0.8 -2.764432,1.77778 0,4.08366 4.318962,4.46073 5.097762,0.44507 z M 122,104 c 0,-1.07992 -1.05,-2.16569 -2.33334,-2.41284 -1.63713,-0.31528 -2.33333,0.40464 -2.33333,2.41284 0,2.0082 0.6962,2.72812 2.33333,2.41284 C 120.95,106.16569 122,105.07991 122,104 Z M 26.218889,92.577042 c 1.11128,-2.89595 -1.709914,-5.619354 -3.729267,-3.6 -1.706711,1.70671 -0.649401,5.689622 1.510377,5.689622 0.779364,0 1.777866,-0.94033 2.21889,-2.089622 z m 21.333332,0 c 1.11128,-2.89595 -1.709913,-5.619354 -3.729266,-3.6 -1.706711,1.70671 -0.649401,5.689622 1.510377,5.689622 0.779364,0 1.777865,-0.94033 2.218889,-2.089622 z m 21.333333,0 c 1.050847,-2.738463 -1.058294,-4.785043 -3.424324,-3.322756 -2.015036,1.24536 -1.086965,5.412378 1.205435,5.412378 0.779364,0 1.777865,-0.94033 2.218889,-2.089622 z m 22.200932,0.252096 c 0.387818,-1.01064 0.04629,-2.496364 -0.758956,-3.301608 -1.922599,-1.922599 -5.118576,0.596912 -4.105625,3.236618 0.930842,2.425739 3.943233,2.465984 4.864581,0.06499 z m 21.816314,-0.29704 c 0.94328,-2.458147 -2.28128,-5.020288 -4.0687,-3.23287 -1.45533,1.455327 -0.11964,5.367436 1.83256,5.367436 0.77937,0 1.78563,-0.960554 2.23614,-2.134566 z M 16.885556,80.577042 c 1.11128,-2.895949 -1.709914,-5.619353 -3.729266,-3.6 -1.706712,1.706711 -0.649402,5.689623 1.510376,5.689623 0.779364,0 1.777866,-0.940331 2.21889,-2.089623 z m 21.78111,-1.307673 c 0,-2.695831 -2.541091,-3.700108 -4.741515,-1.873919 -1.439705,1.194849 -1.574917,2.086652 -0.510776,3.368865 1.710185,2.060647 5.252291,1.052467 5.252291,-1.494946 z m 19.853181,-1.446276 c -2.007168,-2.41849 -3.752256,-2.304204 -4.755984,0.311472 -1.047067,2.728612 2.236402,4.858397 4.541193,2.945592 1.3014,-1.080067 1.354411,-1.883907 0.214791,-3.257064 z m 21.032374,2.753949 c 1.11128,-2.895949 -1.709914,-5.619353 -3.729267,-3.6 -1.706711,1.706711 -0.649401,5.689623 1.510377,5.689623 0.779364,0 1.777866,-0.940331 2.21889,-2.089623 z m 21.333329,0 c 1.11128,-2.895949 -1.70991,-5.619353 -3.729263,-3.6 -1.706711,1.706711 -0.649401,5.689623 1.510377,5.689623 0.779364,0 1.777866,-0.940331 2.218886,-2.089623 z m 21.78111,-1.307673 c 0,-2.695831 -2.54109,-3.700108 -4.74151,-1.873919 -1.43971,1.194849 -1.57492,2.086652 -0.51078,3.368865 1.71019,2.060647 5.25229,1.052467 5.25229,-1.494946 z M 26.412838,66.999998 c -0.247147,-1.283333 -1.332925,-2.333333 -2.412839,-2.333333 -1.079913,0 -2.165692,1.05 -2.412838,2.333333 -0.315283,1.637132 0.40464,2.333334 2.412838,2.333334 2.008199,0 2.728122,-0.696202 2.412839,-2.333334 z m 21.333333,0 c -0.247147,-1.283333 -1.332925,-2.333333 -2.412839,-2.333333 -1.079913,0 -2.165692,1.05 -2.412838,2.333333 -0.315283,1.637132 0.40464,2.333334 2.412838,2.333334 2.008199,0 2.728121,-0.696202 2.412839,-2.333334 z m 21.587161,-0.333333 c 0,-1.466667 -0.86459,-2.666667 -1.921311,-2.666667 -2.355453,0 -3.861409,2.194187 -2.745356,4 1.449987,2.346127 4.666667,1.427075 4.666667,-1.333333 z M 91.667054,67.0007 c 0.729014,-2.189502 -3.448638,-3.752454 -5.240503,-1.960588 -0.76681,0.76681 -0.970537,2.079701 -0.452728,2.917534 1.178069,1.906158 4.951092,1.271968 5.693231,-0.956946 z m 20.999606,-0.334035 c 0,-1.079913 -1.05,-2.165692 -2.33333,-2.412839 C 108.6962,63.938544 108,64.658466 108,66.666665 c 0,2.008199 0.6962,2.728121 2.33333,2.412839 1.28333,-0.247147 2.33333,-1.332926 2.33333,-2.412839 z M 17.082454,55.015311 C 16.413105,51.539661 12,51.152043 12,54.5689 c 0,1.908132 0.8563,2.764432 2.764432,2.764432 1.908132,0 2.626154,-0.718021 2.318022,-2.318021 z m 20.917545,-0.348646 c 0,-1.079913 -1.05,-2.165692 -2.333333,-2.412838 -1.637132,-0.315283 -2.333334,0.40464 -2.333334,2.412838 0,2.008199 0.696202,2.728122 2.333334,2.412839 1.283333,-0.247147 2.333333,-1.332925 2.333333,-2.412839 z m 21.168202,0.616195 c 0.455963,-1.18822 -0.08243,-2.38404 -1.280304,-2.843711 -2.489814,-0.95543 -5.214298,1.414688 -3.9597,3.444674 1.308374,2.116992 4.33001,1.770448 5.240004,-0.600963 z m 20.831797,-0.616195 c 0,-1.466666 -0.864589,-2.666666 -1.921311,-2.666666 -2.355453,0 -3.861409,2.194186 -2.745356,4 1.449987,2.346126 4.666667,1.427074 4.666667,-1.333334 z m 21.082452,0.348646 c -0.66935,-3.47565 -5.082452,-3.863268 -5.082452,-0.446411 0,1.908132 0.8563,2.764432 2.764432,2.764432 1.90813,0 2.62615,-0.718021 2.31802,-2.318021 z M 122,54.666665 c 0,-1.079913 -1.05,-2.165692 -2.33334,-2.412838 -1.63713,-0.315283 -2.33333,0.40464 -2.33333,2.412838 0,2.008199 0.6962,2.728122 2.33333,2.412839 C 120.95,56.832357 122,55.746579 122,54.666665 Z m 19.87453,82.153825 c -0.39539,-1.03037 -0.52891,-4.18649 -0.29671,-7.01361 L 142,124.66666 h 60.66666 60.66667 V 131.33333 138 l -60.36996,0.34694 c -50.84896,0.29223 -60.48333,0.0515 -61.08884,-1.52645 z m 0,-26.66666 c -0.39539,-1.03037 -0.52891,-4.1865 -0.29671,-7.01362 L 142,97.999998 h 60.66666 60.66667 v 6.666662 6.66667 l -60.36996,0.34695 c -50.84896,0.29223 -60.48333,0.0515 -61.08884,-1.52645 z m 0,-26.666671 c -0.39539,-1.030369 -0.52891,-4.186494 -0.29671,-7.013613 L 142,71.333332 h 60.66666 60.66667 v 6.666666 6.666667 l -60.36996,0.346945 c -50.84896,0.292229 -60.48333,0.05149 -61.08884,-1.526451 z M 141.59652,51.680163 142,44.666666 199.99999,44.296394 c 68.25426,-0.435735 64.27267,-0.898846 63.73796,7.413566 l -0.40462,6.290039 -61.07015,0.34683 -61.07014,0.346831 z"
       id="path8156"
       inkscape:connector-curvature="0" />
  </g>
</svg>
