<?xml version="1.0" encoding="UTF-8" standalone="no"?>
<!-- Created with Inkscape (http://www.inkscape.org/) -->

<svg
   xmlns:dc="http://purl.org/dc/elements/1.1/"
   xmlns:cc="http://creativecommons.org/ns#"
   xmlns:rdf="http://www.w3.org/1999/02/22-rdf-syntax-ns#"
   xmlns:svg="http://www.w3.org/2000/svg"
   xmlns="http://www.w3.org/2000/svg"
   xmlns:sodipodi="http://sodipodi.sourceforge.net/DTD/sodipodi-0.dtd"
   xmlns:inkscape="http://www.inkscape.org/namespaces/inkscape"
   version="1.1"
   id="svg9957"
   width="992.8551"
   height="745.66644"
   viewBox="0 0 992.8551 745.66644"
   sodipodi:docname="aws-logo.svg"
   inkscape:version="0.92.4 (unknown)">
  <metadata
     id="metadata9963">
    <rdf:RDF>
      <cc:Work
         rdf:about="">
        <dc:format>image/svg+xml</dc:format>
        <dc:type
           rdf:resource="http://purl.org/dc/dcmitype/StillImage" />
        <dc:title></dc:title>
      </cc:Work>
    </rdf:RDF>
  </metadata>
  <defs
     id="defs9961" />
  <sodipodi:namedview
     pagecolor="#ffffff"
     bordercolor="#666666"
     borderopacity="1"
     objecttolerance="10"
     gridtolerance="10"
     guidetolerance="10"
     inkscape:pageopacity="0"
     inkscape:pageshadow="2"
     inkscape:window-width="1299"
     inkscape:window-height="704"
     id="namedview9959"
     showgrid="false"
     inkscape:zoom="0.1755"
     inkscape:cx="925.94701"
     inkscape:cy="376.48646"
     inkscape:window-x="67"
     inkscape:window-y="27"
     inkscape:window-maximized="1"
     inkscape:current-layer="g10510" />
  <g
     id="g10510"
     transform="translate(0.02108337,-1.1220288)">
    <path
       style="fill:#ffffef;stroke-width:0.8624531;fill-opacity:1"
       d="m 244.52922,690.915 -47.65054,-15.88465 v -70.28658 -70.28658 l 2.37175,0.53051 c 1.30446,0.29178 22.94125,6.63501 48.08176,14.09607 l 45.71001,13.56556 0.20579,36.64158 c 0.11319,20.15286 -0.0809,52.58669 -0.43122,72.07516 l -0.63702,35.4336 z m 78.47829,-55.92051 0.22055,-72.27871 45.71002,-13.58322 c 25.1405,-7.47077 46.7773,-13.82896 48.08176,-14.1293 l 2.37174,-0.54607 v 70.14719 70.14719 l -47.2193,15.88551 c -25.97062,8.73702 -47.70667,16.05438 -48.30232,16.26081 -0.86457,0.29961 -1.03853,-14.2039 -0.86245,-71.9034 z M 264.86497,526.95038 c -22.13837,-5.99439 -40.44375,-11.09293 -40.67864,-11.33011 -0.23489,-0.23717 18.44578,-6.33978 41.51262,-13.56134 l 41.93969,-13.13011 42.47476,13.12068 c 23.36112,7.21637 42.19885,13.36511 41.86161,13.66387 -1.03324,0.91535 -82.85729,22.33726 -84.92323,22.23329 -1.06438,-0.0536 -20.04844,-5.00189 -42.18681,-10.99628 z M 117.96481,478.89662 c -26.08888,-8.73924 -47.564768,-15.49821 -47.724194,-15.01993 -0.159426,0.47828 -0.644822,0.65022 -1.078657,0.38209 -1.123696,-0.69448 -1.050388,-144.41536 0.07366,-144.41536 0.474349,0 0.862453,0.49697 0.862453,1.10438 0,0.71399 16.996561,6.13989 48.081765,15.34938 l 48.08176,14.24499 0.22053,72.18961 c 0.1213,39.70429 -0.0728,72.15919 -0.43122,72.12199 -0.35847,-0.0372 -21.99722,-7.2179 -48.0861,-15.95715 z m 79.12454,-56.08153 0.22056,-72.22568 47.43492,-14.07248 c 26.08921,-7.73987 47.67592,-14.07556 47.97046,-14.07931 0.53508,-0.007 -0.0697,139.85477 -0.6074,140.46355 -0.23008,0.2605 -86.45634,29.40568 -93.29363,31.53401 l -1.94545,0.60559 z m 173.35802,56.01097 -47.65053,-15.95917 v -70.28658 -70.28658 l 2.37174,0.54015 c 1.30446,0.29708 22.94125,6.65703 48.08176,14.13322 l 45.71002,13.59307 0.22053,72.18061 c 0.1213,39.69934 -0.0728,72.14998 -0.43122,72.11253 -0.35847,-0.0374 -22.09451,-7.24971 -48.3023,-16.02725 z m 79.34074,-55.97308 0.22056,-72.25676 47.43492,-14.06627 c 26.08921,-7.73644 47.77115,-14.07366 48.18209,-14.08272 1.17871,-0.026 -0.31376,139.99418 -1.50032,140.75646 -0.53447,0.34336 -21.54126,7.48515 -46.68177,15.87063 -25.14051,8.38548 -46.19737,15.42388 -46.79302,15.64087 -0.86469,0.31501 -1.03855,-14.17221 -0.86246,-71.86221 z M 138.01626,314.85444 c -22.17583,-5.98423 -40.314665,-11.09381 -40.308528,-11.35464 0.01822,-0.77421 82.916368,-26.37292 84.421868,-26.06922 3.79969,0.7665 83.72295,25.6633 83.7333,26.08367 0.0193,0.78569 -82.35322,22.3737 -85.06439,22.29347 -1.35441,-0.0401 -20.60643,-4.96906 -42.78225,-10.95328 z m 252.69876,-0.0264 c -22.17583,-5.98814 -40.31273,-11.09338 -40.30421,-11.34499 0.009,-0.25161 18.82529,-6.32254 41.81506,-13.49095 l 41.79958,-13.03348 42.26896,13.03348 c 23.24792,7.16841 42.27128,13.25493 42.27411,13.5256 0.009,0.80525 -82.27851,22.37016 -85.01699,22.28037 -1.38426,-0.0454 -20.66069,-4.98191 -42.83651,-10.97003 z M 497.01236,266.87823 450.00867,251.13469 449.788,180.64128 c -0.20938,-66.88697 -0.14319,-70.4694 1.29368,-70.02399 0.83289,0.25818 21.30765,6.31672 45.49946,13.46342 24.19181,7.14669 45.24644,13.39614 46.78808,13.88765 l 2.80297,0.89367 v 71.94794 c 0,57.0197 -0.22369,71.93383 -1.07807,71.87988 -0.59293,-0.0374 -22.22973,-7.15267 -48.08176,-15.81162 z m 79.55636,-56.16862 0.22055,-72.16768 45.71002,-13.56844 c 25.14051,-7.46264 46.58552,-13.85131 47.65559,-14.19703 l 1.94557,-0.6286 -0.22067,70.49243 -0.22066,70.49243 -46.14125,15.38757 c -25.37768,8.46316 -46.82264,15.60568 -47.65547,15.87228 -1.43699,0.46 -1.50298,-3.19646 -1.29368,-71.68296 z m 173.1424,56.16862 -47.00369,-15.74354 -0.22067,-70.49341 c -0.20937,-66.88283 -0.14311,-70.47003 1.29368,-70.03678 0.83289,0.25115 21.30765,6.30777 45.49945,13.45915 24.19181,7.15138 45.24645,13.40658 46.78809,13.90045 l 2.80297,0.89793 v 71.94794 c 0,57.0197 -0.22369,71.93383 -1.07807,71.87988 -0.59293,-0.0374 -22.22973,-7.15267 -48.08176,-15.81162 z m 79.34569,-56.0981 v -71.9778 l 8.40891,-2.56785 c 4.62491,-1.41231 25.64362,-7.67426 46.70823,-13.91545 21.06462,-6.24118 38.82265,-11.54843 39.46229,-11.79388 0.97094,-0.37258 1.12655,11.19903 0.94231,70.07333 l -0.22068,70.51959 -47.38341,15.81993 c -26.06088,8.70096 -47.50362,15.81993 -47.65053,15.81993 -0.14692,0 -0.26712,-32.39002 -0.26712,-71.9778 z M 518.3184,103.15113 c -23.14633,-6.22247 -41.58127,-11.58962 -40.96652,-11.92698 1.94708,-1.06853 81.63004,-25.8044 83.12507,-25.8044 1.21649,0 84.88746,25.59623 85.42363,26.1324 0.10405,0.10405 -18.70231,5.18897 -41.79191,11.29983 -23.08961,6.11086 -42.3692,11.22363 -42.84355,11.3617 -0.47435,0.13807 -19.80037,-4.84008 -42.94672,-11.06255 z m 252.71355,-0.0111 C 747.89373,96.91455 729.45879,91.5562 730.06542,91.23258 c 2.05799,-1.09787 81.65328,-25.81285 83.13104,-25.81285 1.32071,0 80.55307,24.1527 84.2225,25.67386 0.9768,0.40493 -13.54409,4.61942 -40.53529,11.7648 -23.13154,6.12362 -42.44544,11.23889 -42.91979,11.36727 -0.47435,0.12839 -19.79372,-4.86014 -42.93193,-11.08562 z M 559.3246,63.96279 c 0.83011,-0.21693 2.18847,-0.21693 3.01858,0 0.83012,0.21693 0.15093,0.39442 -1.50929,0.39442 -1.66022,0 -2.3394,-0.17749 -1.50929,-0.39442 z m 252.69876,0 c 0.83011,-0.21693 2.18847,-0.21693 3.01858,0 0.83011,0.21693 0.15093,0.39442 -1.50929,0.39442 -1.66022,0 -2.3394,-0.17749 -1.50929,-0.39442 z"
       id="path10512"
       inkscape:connector-curvature="0"
       sodipodi:nodetypes="cccccscscccscsccccscsssscsccssccssscscsccscccccsccccscscsscscsscssccccsscscsccsscsssscscsscsscccscsscscsscscsscsscscsssscscscsccscssccssssssss" />
  </g>
</svg>
