<?xml version="1.0" encoding="UTF-8" standalone="no"?>
<!-- Created with Inkscape (http://www.inkscape.org/) -->

<svg
   xmlns:dc="http://purl.org/dc/elements/1.1/"
   xmlns:cc="http://creativecommons.org/ns#"
   xmlns:rdf="http://www.w3.org/1999/02/22-rdf-syntax-ns#"
   xmlns:svg="http://www.w3.org/2000/svg"
   xmlns="http://www.w3.org/2000/svg"
   xmlns:sodipodi="http://sodipodi.sourceforge.net/DTD/sodipodi-0.dtd"
   xmlns:inkscape="http://www.inkscape.org/namespaces/inkscape"
   version="1.1"
   id="svg2265"
   width="230.0394"
   height="229.9249"
   viewBox="0 0 230.0394 229.9249"
   sodipodi:docname="backend-development-logo.svg"
   inkscape:version="0.92.4 (unknown)">
  <metadata
     id="metadata2271">
    <rdf:RDF>
      <cc:Work
         rdf:about="">
        <dc:format>image/svg+xml</dc:format>
        <dc:type
           rdf:resource="http://purl.org/dc/dcmitype/StillImage" />
        <dc:title></dc:title>
      </cc:Work>
    </rdf:RDF>
  </metadata>
  <defs
     id="defs2269" />
  <sodipodi:namedview
     pagecolor="#ffffff"
     bordercolor="#666666"
     borderopacity="1"
     objecttolerance="10"
     gridtolerance="10"
     guidetolerance="10"
     inkscape:pageopacity="0"
     inkscape:pageshadow="2"
     inkscape:window-width="1920"
     inkscape:window-height="1163"
     id="namedview2267"
     showgrid="false"
     inkscape:zoom="1.0488889"
     inkscape:cx="112.17922"
     inkscape:cy="119.74432"
     inkscape:window-x="1920"
     inkscape:window-y="0"
     inkscape:window-maximized="1"
     inkscape:current-layer="svg2265" />
  <path
     style="fill:#fffff0;fill-opacity:1;stroke:#ffffff;stroke-width:5;stroke-miterlimit:4;stroke-dasharray:none;stroke-opacity:1"
     d="m 66.75757,225.78444 c -6.38324,-3.14618 -7.67574,-6.36338 -8.07109,-20.09013 -0.30702,-10.65961 -0.0946,-12.7753 1.63323,-16.26758 1.9539,-3.94918 1.95558,-4.07435 0.10292,-7.70823 -1.52244,-2.98618 -1.88294,-5.90447 -1.88168,-15.23242 0.002,-13.21092 1.26628,-17.00741 6.92359,-20.787 l 3.42515,-2.28831 75.24462,0.26838 75.24463,0.26837 2.67524,2.5 c 4.80124,4.48674 5.48521,6.9806 5.48521,20 0,9.00088 -0.3991,12.8711 -1.55848,15.11309 -1.41834,2.74276 -1.41075,3.40062 0.0844,7.31566 1.28903,3.37529 1.57087,7.00837 1.30848,16.86722 -0.37457,14.07407 -1.38666,16.62844 -7.9055,19.95248 -3.17293,1.61791 -8.87884,1.74686 -76.42892,1.72723 -65.19959,-0.019 -73.35068,-0.19406 -76.28182,-1.63876 z m 149.55931,-8.89362 c 2.07541,-1.45368 2.22251,-2.31034 2.22251,-12.9433 0,-10.63296 -0.1471,-11.48962 -2.22251,-12.9433 -1.96076,-1.37337 -10.56555,-1.5567 -73.06574,-1.5567 -46.92169,0 -71.49637,0.34955 -72.77749,1.03518 -1.75289,0.93812 -1.93426,2.1993 -1.93426,13.45031 0,10.76897 0.23204,12.55028 1.75,13.43441 1.14275,0.66559 26.39677,1.02983 72.77749,1.04969 62.69955,0.0268 71.28809,-0.15211 73.25,-1.52629 z M 79.11082,206.87609 c -0.86429,-0.86428 -1.57143,-2.18214 -1.57143,-2.92857 0,-0.74643 0.70714,-2.06429 1.57143,-2.92857 3.02041,-3.02042 7.42857,-1.28258 7.42857,2.92857 0,4.21115 -4.40816,5.94899 -7.42857,2.92857 z m 84.85563,0.80612 c -1.9541,-1.33805 -2.29671,-3.97577 -0.79492,-6.11989 1.42712,-2.03749 2.23953,-2.1148 22.22456,-2.1148 21.77204,0 23.1433,0.26663 23.1433,4.5 0,4.23169 -1.37693,4.50076 -22.95,4.48469 -11.3025,-0.008 -21.03282,-0.34592 -21.62294,-0.75 z m 53.00151,-28.80612 c 2.28141,-2.28141 2.28141,-22.57573 0,-24.85714 -1.39956,-1.39956 -9.47099,-1.57143 -73.8,-1.57143 -54.84444,0 -72.51739,0.28882 -73.42857,1.2 -1.65487,1.65487 -1.65487,23.94513 0,25.6 0.91118,0.91118 18.58413,1.2 73.42857,1.2 64.32901,0 72.40044,-0.17187 73.8,-1.57143 z M 79.53939,169.44752 c -2.50202,-2.50202 -2.50578,-3.49421 -0.0227,-5.97732 2.8587,-2.8587 6.96939,-1.00738 7.00737,3.15589 0.0164,1.79898 -2.52628,4.82143 -4.05612,4.82143 -0.51071,0 -1.82857,-0.9 -2.92857,-2 z m 84,0 c -2.37884,-2.37884 -2.44472,-3.00955 -0.58061,-5.55887 1.32746,-1.81541 2.78701,-1.94113 22.53647,-1.94113 17.68265,0 21.2713,0.24396 22.0653,1.5 1.40446,2.22175 1.18008,4.6559 -0.59259,6.42857 -1.32343,1.32344 -4.71645,1.57143 -21.5,1.57143 -18.59524,0 -20.06238,-0.13381 -21.92857,-2 z M 34.3165,216.95856 C 19.6893,211.2322 9.1767598,203.32574 5.0062298,194.91436 c -1.89529,-3.82254 -1.97661,-6.69031 -2.23555,-78.8361 l -0.26871,-74.869257 2.3658,-5.130744 C 15.39837,13.240315 65.85692,-1.590604 115.68344,3.5070041 151.96982,7.2193611 179.147,19.071804 187.12579,34.664272 l 2.4136,4.716757 v 45.833243 c 0,48.496148 0.0254,48.233248 -4.66482,48.233248 -3.46086,0 -4.47385,-3.16789 -4.25125,-13.29488 0.11209,-5.0999 -0.19598,-9.03834 -0.6908,-8.83116 -0.49122,0.20568 -2.83862,1.7125 -5.21644,3.34848 -11.68591,8.04012 -30.60412,14.20739 -53.43769,17.4205 -16.38142,2.30518 -45.89705,1.36449 -62.239,-1.9836 -18.84977,-3.86189 -32.27078,-8.98814 -42,-16.04221 l -5,-3.6252 -0.28429,14.25403 c -0.4004,20.07533 1.06184,23.28337 14.2112,31.17832 3.2598,1.9572 9.6314,4.95671 14.15911,6.66558 5.04134,1.90272 8.38441,3.74719 8.62487,4.75859 0.6971,2.93203 -0.30312,5.13659 -2.59102,5.71082 -4.47321,1.1227 -27.5181,-9.11694 -31.60742,-14.04427 -0.68148,-0.82114 -1.63807,-1.24638 -2.12575,-0.94497 -0.48769,0.3014 -0.8867,7.06437 -0.8867,15.02883 0,17.55565 0.97848,20.18095 9.99568,26.81904 5.5694,4.09996 16.98303,9.54499 23.3343,11.13195 3.55461,0.88817 5.32519,4.35744 3.73772,7.32366 -1.54683,2.89027 -4.03302,2.65323 -14.29059,-1.36247 z m 94.22289,-94.99827 c 20.11879,-3.78986 37.42803,-10.79655 45.33242,-18.35034 6.32852,-6.047812 6.66758,-7.299352 6.66758,-24.611111 V 63.450842 l -4.75,3.382555 c -8.99809,6.40769 -23.98322,12.620839 -37.75,15.651935 -23.99627,5.283371 -63.7104,5.050502 -85.5,-0.501342 C 36.97183,78.01748 21.40253,71.361616 15.97494,66.352713 11.9007,62.592765 11.5381,63.60697 11.56135,78.697516 c 0.0253,16.433594 1.16518,20.285791 7.56288,25.559324 11.03415,9.09528 33.53773,16.8804 55.42398,19.17395 12.34662,1.29385 43.87486,0.43515 53.99118,-1.4705 z m 1.99548,-47.463928 c 19.43468,-3.654615 33.59712,-9.417157 42.58239,-17.326307 10.1953,-8.974258 9.96591,-17.271307 -0.71741,-25.949785 C 143.06002,7.3864061 63.45975,5.0653061 25.9614,26.950206 20.92984,29.886742 14.00777,36.902541 12.4634,40.63098 7.1854598,53.373044 29.38734,68.588986 61.63939,74.333489 c 16.5015,2.939127 16.57289,2.944063 37.9,2.620446 14.77743,-0.224232 22.28401,-0.819415 30.99548,-2.457573 z"
     id="path2818"
     inkscape:connector-curvature="0" />
</svg>
