<?xml version="1.0" encoding="UTF-8" standalone="no"?>
<!-- Created with Inkscape (http://www.inkscape.org/) -->

<svg
   xmlns:dc="http://purl.org/dc/elements/1.1/"
   xmlns:cc="http://creativecommons.org/ns#"
   xmlns:rdf="http://www.w3.org/1999/02/22-rdf-syntax-ns#"
   xmlns:svg="http://www.w3.org/2000/svg"
   xmlns="http://www.w3.org/2000/svg"
   xmlns:sodipodi="http://sodipodi.sourceforge.net/DTD/sodipodi-0.dtd"
   xmlns:inkscape="http://www.inkscape.org/namespaces/inkscape"
   version="1.1"
   id="svg4519"
   width="561.8858"
   height="561.92206"
   viewBox="0 0 561.8858 561.92206"
   sodipodi:docname="center-for-leadership-logo.svg"
   inkscape:version="0.92.4 (unknown)">
  <metadata
     id="metadata4525">
    <rdf:RDF>
      <cc:Work
         rdf:about="">
        <dc:format>image/svg+xml</dc:format>
        <dc:type
           rdf:resource="http://purl.org/dc/dcmitype/StillImage" />
        <dc:title></dc:title>
      </cc:Work>
    </rdf:RDF>
  </metadata>
  <defs
     id="defs4523" />
  <sodipodi:namedview
     pagecolor="#ffffff"
     bordercolor="#666666"
     borderopacity="1"
     objecttolerance="10"
     gridtolerance="10"
     guidetolerance="10"
     inkscape:pageopacity="0"
     inkscape:pageshadow="2"
     inkscape:window-width="1299"
     inkscape:window-height="704"
     id="namedview4521"
     showgrid="false"
     inkscape:zoom="0.585"
     inkscape:cx="304.28227"
     inkscape:cy="256.03355"
     inkscape:window-x="67"
     inkscape:window-y="27"
     inkscape:window-maximized="1"
     inkscape:current-layer="g5072" />
  <g
     id="g5072"
     transform="translate(-957.32343,-150.47639)">
    <path
       style="fill:#fffff5;stroke-width:0.94220084;fill-opacity:1"
       d="m 1233.4225,697.10126 c -0.2582,-0.90687 -2.053,-10.64321 -3.9885,-21.63631 -4.0084,-22.76707 -1.2112,-19.79303 -20.6155,-21.9189 -98.7153,-10.8149 -181.5913,-94.09304 -191.771,-192.70165 -1.6813,-16.28704 -1.7126,-16.41842 -4.0343,-16.9431 -1.1432,-0.25838 -10.3454,-1.96249 -20.44911,-3.78689 -21.76556,-3.93014 -21.86303,-3.95721 -21.48657,-5.96768 0.30072,-1.60602 0.96855,-1.76464 33.26158,-7.90004 11.3064,-2.14812 11.3064,-2.14812 11.5345,-5.91692 6.3441,-104.79893 91.2738,-194.03108 194.2704,-204.11181 17.2583,-1.68915 15.0103,1.05243 19.4611,-23.73323 5.5495,-30.90322 6.808,-30.92057 12.1517,-0.16756 4.2498,24.45781 2.8512,22.19002 14.321,23.22139 105.0262,9.444 189.5224,93.92685 198.9638,198.9324 1.0073,11.2029 -2.2005,9.2473 22.5543,13.75016 22.2159,4.04105 22.812,4.20393 22.812,6.23377 0,1.71434 -0.394,1.81721 -21.6731,5.65952 -10.1038,1.8244 -19.2987,3.52671 -20.4332,3.78289 -2.2352,0.50471 -2.0756,-0.20253 -4.0376,17.8893 -10.6734,98.42407 -93.221,180.96129 -191.7836,191.75945 -19.3473,2.11963 -16.5379,-0.92607 -20.6495,22.38578 -1.9849,11.25453 -3.8091,20.99277 -4.0538,21.64053 -0.6652,1.761 -3.8161,1.42012 -4.3546,-0.4711 z m 21.9688,-128.39697 c 8.834,-48.98305 16.0618,-90.11466 16.0618,-91.40358 0,-2.57528 -31.9878,-35.50439 -33.2568,-34.23542 -0.3644,0.36436 -0.6337,49.66868 -0.5987,109.56518 0.038,64.03697 0.4073,108.12637 0.8978,107.01831 0.4587,-1.03642 8.0619,-41.96144 16.8959,-90.94449 z m -33.9096,62.91401 c -0.056,-1.92627 -2.4688,-13.8892 -2.882,-14.29265 -0.2095,-0.20467 -5.8425,-1.29237 -12.5178,-2.41711 -80.9518,-13.64002 -140.9635,-76.643 -151.785,-159.35081 -0.5684,-4.34446 -0.5684,-4.34446 -8.3034,-5.68607 -9.1725,-1.5909 -9.429,-0.98779 -6.7763,15.92915 12.1523,77.49671 70.2579,141.81637 145.8549,161.45319 17.8781,4.64397 36.4835,6.87413 36.4096,4.3643 z m 47.706,-0.72207 c 72.4346,-12.38331 132.4783,-64.16833 155.3561,-133.9879 5.9476,-18.15091 11.2559,-48.56049 8.4148,-48.20485 -14.3717,1.79895 -15.3336,2.2682 -15.968,7.78981 -9.1736,79.85012 -71.4604,144.88265 -151.7178,158.40581 -6.7059,1.12993 -12.3428,2.20062 -12.5265,2.37931 -0.3321,0.32326 -2.9607,13.46331 -2.9627,14.81099 0,1.2492 7.9937,0.75754 19.4041,-1.19317 z m -52.3892,-24.24625 c -0.01,-2.5463 -18.5131,-103.8677 -19.0689,-104.42351 -0.2699,-0.26988 -11.6699,7.28699 -25.3333,16.79303 -13.6634,9.50604 -32.3685,22.48505 -41.5667,28.84222 -19.2905,13.33225 -17.9329,11.48129 -12.2012,16.63458 24.08,21.64996 54.5446,36.61015 86.3995,42.42792 9.5757,1.74885 11.7788,1.69752 11.7706,-0.27424 z m 52.4867,-0.31206 c 21.9008,-4.22006 44.2406,-13.53425 63.4109,-26.43804 11.3591,-7.64594 24.0261,-18.11018 24.0261,-19.84792 0,-1.13626 -82.4381,-58.54035 -83.1079,-57.87052 -0.4528,0.45286 -19.1209,102.87749 -19.1209,104.90933 0,1.67257 2.9962,1.52008 14.7918,-0.75285 z m -153.0528,-58.57549 c 2.8799,-4.27524 7.4601,-10.95309 10.1782,-14.83966 36.318,-51.93026 42.519,-61.23993 40.7945,-61.24581 -0.4441,-0.002 -24.0959,-4.23711 -52.5595,-9.41244 -28.4637,-5.17533 -51.9622,-9.19967 -52.2188,-8.94297 -0.8292,0.82911 1.7617,15.70925 4.6357,26.62457 6.1846,23.4892 18.1906,46.96358 33.2778,65.06564 3.166,3.79878 6.3925,7.70487 7.1698,8.68019 2.2899,2.87325 3.2169,2.24313 8.7223,-5.92952 z m 249.113,4.2399 c 20.7913,-23.17676 35.9197,-53.4529 41.715,-83.48416 1.7179,-8.90154 2.4563,-15.68247 1.7076,-15.68247 -0.1354,0 -23.5561,4.2399 -52.0458,9.422 -28.4897,5.18211 -52.1676,9.42201 -52.6176,9.42201 -1.5691,0 0.4384,3.0831 25.9255,39.81761 14.1084,20.33446 26.7338,38.54563 28.0564,40.46926 3.0027,4.36764 3.3711,4.36945 7.2589,0.0358 z m -187.8565,-43.18982 c 10.2459,-7.08478 18.7884,-13.1441 18.9834,-13.46515 0.4332,-0.7132 -2.1035,-14.3835 -2.7979,-15.07792 -0.5688,-0.56877 -55.0717,53.66516 -55.0717,54.79988 0,0.40999 4.5579,-2.43176 10.1287,-6.31498 5.5708,-3.88323 18.5116,-12.85705 28.7575,-19.94183 z m 158.3941,21.0481 c -0.5819,-0.98896 -37.7641,-55.00001 -38.7172,-56.24084 -0.3629,-0.47251 -14.649,1.79502 -15.3062,2.42946 -0.3799,0.36668 53.6765,54.98913 54.4192,54.98913 0.1636,0 -0.014,-0.52998 -0.3958,-1.17775 z m -125.2019,-76.08271 16.94,-16.95962 -109.2855,0.10851 c -109.2854,0.1085 -109.2854,0.1085 -99.8635,1.91503 11.0186,2.11265 172.9108,31.63845 174.317,31.79185 0.5236,0.0571 8.5751,-7.52798 17.892,-16.85577 z m 251.5676,-22.21243 c -0.8295,-0.34603 -79.0247,-14.6035 -158.1125,-28.82894 l -27.1467,-4.88283 -16.4301,16.41004 c -9.0366,9.02553 -16.4302,16.73258 -16.4302,17.12679 0,0.39421 49.2889,0.68327 109.5309,0.64236 60.242,-0.0409 109.1068,-0.25125 108.5886,-0.46742 z M 1233.765,316.53064 c 0,-60.45788 -0.2258,-109.6976 -0.5018,-109.42158 -0.276,0.27602 -2.7877,13.17239 -5.5813,28.65861 -2.7937,15.48622 -10.1997,56.42417 -16.4578,90.97321 -6.2581,34.54906 -11.3783,63.5881 -11.3783,64.53121 0,1.30275 32.427,35.18198 33.6739,35.18198 0.1349,0 0.2453,-49.46554 0.2453,-109.92343 z m -186.5772,102.1028 c 7.0855,-1.32038 6.4288,-0.10395 9.3621,-17.34224 12.5659,-73.84699 73.5311,-133.52601 149.4762,-146.32254 6.7059,-1.12993 12.2907,-2.14851 12.4106,-2.2635 0.1812,-0.17383 3.0791,-14.66297 3.0795,-15.3979 5e-4,-0.70239 -9.1503,-0.0428 -16.9463,1.2215 -85.2763,13.82951 -151.4961,80.04928 -165.3256,165.32563 -2.7639,17.04277 -2.895,16.79881 7.9435,14.77905 z m 386.3238,-2.95195 c 0,-57.82655 -49.4084,-129.12918 -110.3431,-159.23913 -24.959,-12.33312 -74.9624,-24.55498 -73.1086,-17.86928 0.2739,0.98798 1.0076,4.65827 1.6303,8.15619 0.6227,3.49792 1.4022,6.36746 1.7322,6.37676 72.3337,2.03752 147.2837,70.40724 161.2859,147.12593 3.522,19.29727 2.4649,17.12058 8.9102,18.34626 9.8822,1.87927 9.8931,1.87608 9.8931,-2.89673 z M 1123.762,404.72002 c 24.2257,-4.3699 44.0473,-8.31368 44.0478,-8.76396 10e-4,-0.69291 -15.4731,-23.22138 -49.7728,-72.46342 -3.8902,-5.58507 -7.377,-10.03697 -7.7483,-9.89311 -15.0428,5.82777 -47.9811,74.93446 -48.0029,100.71339 0,1.39498 0.7196,1.38973 8.714,-0.0634 4.7935,-0.87131 28.5365,-5.15958 52.7622,-9.52947 z m 283.3619,-3.01266 c -5.4795,-28.64171 -18.6994,-56.20299 -38.1816,-79.60203 -8.5826,-10.30806 -7.6352,-10.05437 -12.3152,-3.2977 -2.0639,2.97971 -14.8975,21.47503 -28.5193,41.10071 -13.6218,19.62569 -24.4158,36.01348 -23.9867,36.41733 2.2904,2.15586 104.4235,19.41117 104.7251,17.69322 0.1666,-0.94915 -0.6085,-6.48934 -1.7223,-12.31153 z m -224.4145,-7.66206 c 3.7894,-0.72266 7.0589,-1.48313 7.2657,-1.68994 0.2068,-0.2068 -12.3819,-13.07673 -27.9751,-28.59983 -15.5931,-15.52311 -28.0137,-27.58785 -27.6014,-26.81053 1.8157,3.42264 40.2096,58.41633 40.7827,58.41533 0.3511,-6.1e-4 3.7388,-0.59238 7.5281,-1.31503 z m 122.8578,-32.58929 c 24.9303,-25.09671 29.2396,-29.69083 25.9512,-27.66577 -4.5634,2.81008 -54.2493,37.60033 -55.4537,38.82877 -1.5064,1.53655 0.117,16.14703 1.7941,16.14703 0.3188,0 12.7876,-12.28951 27.7084,-27.31003 z m -97.7585,-48.27195 c 4.9482,-27.3193 8.9967,-50.15041 8.9967,-50.7358 0,-2.99999 -30.35,3.98283 -47.11,10.83891 -17.4412,7.13473 -35.8276,18.48013 -48.3585,29.83981 -7.842,7.10915 -11.3117,3.32961 28.1012,30.61129 53.3011,36.89526 47.9563,33.47746 48.7131,31.14985 0.3635,-1.11793 4.7094,-24.38476 9.6575,-51.70406 z m 78.7419,45.03286 c 6.0394,-4.18551 24.1797,-16.72581 40.3118,-27.86733 16.1321,-11.14153 29.344,-20.63638 29.3599,-21.09966 0.1269,-3.70546 -30.6625,-25.26616 -46.6583,-32.67308 -17.606,-8.15248 -55.0706,-18.00343 -55.0706,-14.48026 0,0.74032 17.4305,97.44931 18.4591,102.416 0.3256,1.57225 0.9491,2.34543 1.5778,1.95681 0.5717,-0.35335 5.9809,-4.06697 12.0203,-8.25248 z"
       id="path5084"
       inkscape:connector-curvature="0"
       sodipodi:nodetypes="cssscscscsccscssscsscccsscccsccssccccssccsccsccssccccsscsccccscccccccsssscccsccssscccscccsscccsccsscsccssssccscccccsscscccsccccccccccsscccsssccscccscssccscssscssccs" />
  </g>
</svg>
