<?xml version="1.0" encoding="UTF-8" standalone="no"?>
<!-- Created with Inkscape (http://www.inkscape.org/) -->

<svg
   xmlns:dc="http://purl.org/dc/elements/1.1/"
   xmlns:cc="http://creativecommons.org/ns#"
   xmlns:rdf="http://www.w3.org/1999/02/22-rdf-syntax-ns#"
   xmlns:svg="http://www.w3.org/2000/svg"
   xmlns="http://www.w3.org/2000/svg"
   xmlns:sodipodi="http://sodipodi.sourceforge.net/DTD/sodipodi-0.dtd"
   xmlns:inkscape="http://www.inkscape.org/namespaces/inkscape"
   version="1.1"
   id="svg946"
   width="451.26633"
   height="519.26624"
   viewBox="0 0 451.26633 519.26621"
   sodipodi:docname="chi-hack-night-logo.svg"
   inkscape:version="0.92.4 (unknown)">
  <metadata
     id="metadata952">
    <rdf:RDF>
      <cc:Work
         rdf:about="">
        <dc:format>image/svg+xml</dc:format>
        <dc:type
           rdf:resource="http://purl.org/dc/dcmitype/StillImage" />
        <dc:title></dc:title>
      </cc:Work>
    </rdf:RDF>
  </metadata>
  <defs
     id="defs950" />
  <sodipodi:namedview
     pagecolor="#ffffff"
     bordercolor="#666666"
     borderopacity="1"
     objecttolerance="10"
     gridtolerance="10"
     guidetolerance="10"
     inkscape:pageopacity="0"
     inkscape:pageshadow="2"
     inkscape:window-width="1920"
     inkscape:window-height="1163"
     id="namedview948"
     showgrid="false"
     inkscape:zoom="1.31625"
     inkscape:cx="189.96232"
     inkscape:cy="282.75263"
     inkscape:window-x="1920"
     inkscape:window-y="0"
     inkscape:window-maximized="1"
     inkscape:current-layer="g1499" />
  <g
     id="g1499"
     transform="translate(-73.033499,-266.4304)">
    <path
       style="fill:none;stroke:#ffffff;stroke-width:20;stroke-miterlimit:4;stroke-dasharray:none;stroke-opacity:1"
       d="M 290.19733,754.33336 C 267.47277,669.01153 252.00236,611.74921 251.42209,610.8103 c -0.36107,-0.58421 -18.22875,3.656 -39.70595,9.42269 -21.47721,5.7667 -60.22329,16.17338 -86.10238,23.12596 -25.879102,6.95259 -47.629101,12.64107 -48.333336,12.64107 -0.704233,0 -1.280425,-0.51928 -1.280425,-1.15396 0,-0.63467 28.472051,-29.88467 63.271211,-65 l 63.27123,-63.84604 -62.60456,-62.67189 C 105.50538,428.8586 77.333332,400.2086 77.333332,399.66147 c 0,-0.54714 0.803204,-0.99479 1.784899,-0.99479 1.559224,0 70.880619,18.40464 146.060019,38.77853 13.48139,3.6535 24.70817,6.44615 24.94844,6.20588 0.24027,-0.24025 10.85401,-39.25401 23.58612,-86.69723 12.73211,-47.44322 23.55532,-86.66642 24.05157,-87.16268 0.49626,-0.49625 1.26992,-0.53465 1.71924,-0.0853 0.44934,0.44933 11.2353,39.63528 23.96879,87.07989 12.7335,47.44462 23.40324,86.51437 23.71053,86.82165 0.46696,0.46696 60.73487,-15.46008 150.20453,-39.69467 10.65211,-2.88533 20.54974,-5.24605 21.99474,-5.24605 1.76245,0 -18.10859,20.73929 -60.36748,63.00521 -34.64711,34.65288 -62.99474,63.60527 -62.99474,64.33867 0,0.73339 28.2,29.52865 62.66667,63.98947 34.46667,34.46081 62.66667,63.40843 62.66667,64.32801 0,0.91959 -0.555,1.67199 -1.23335,1.67199 -0.67833,0 -39.43047,-10.24419 -86.11585,-22.76487 -46.68538,-12.52066 -85.61128,-22.4852 -86.502,-22.1434 -0.89072,0.3418 -6.59626,19.13599 -12.67898,41.76487 -6.08272,22.62887 -16.1277,60.0434 -22.32218,83.1434 -13.48584,50.29036 -12.42211,46.66667 -13.69901,46.66667 -0.5711,0 -4.43418,-12.75 -8.58463,-28.33333 z"
       id="path1503"
       inkscape:connector-curvature="0" />
    <path
       style="fill:#ffffff;stroke:#ffffff;stroke-width:20;stroke-miterlimit:4;stroke-dasharray:none;stroke-opacity:1;fill-opacity:1"
       d="m 288.95038,749.66669 c -4.8552,-18.15 -14.58121,-54.6 -21.61336,-81 -7.03214,-26.4 -13.67484,-50.7502 -14.76153,-54.11155 l -1.9758,-6.11153 22.70015,-38.97486 C 285.78493,548.03259 296,529.93278 296,529.24696 c 0,-0.74941 -18.20803,-1.24694 -45.63426,-1.24694 h -45.63426 l -63.69907,-63.6479 c -35.03449,-35.00635 -63.699078,-64.10635 -63.699078,-64.66667 0,-0.56033 0.804233,-1.01877 1.787185,-1.01877 0.982951,0 34.132953,8.70279 73.666663,19.33955 39.53371,10.63674 77.94706,20.93069 85.36298,22.87544 l 13.48349,3.5359 23.12179,39.81169 c 12.71697,21.89642 23.64848,39.63612 24.29222,39.42153 0.64376,-0.21459 11.33179,-18.07379 23.75119,-39.68713 l 22.58073,-39.29698 8.31021,-2.14815 c 4.57062,-1.18148 43.30738,-11.56638 86.08171,-23.07757 42.77433,-11.51119 78.62107,-20.74452 79.6594,-20.51852 1.07441,0.23385 -25.80576,28.13179 -62.38228,64.74424 l -64.27017,64.33334 h -45.72256 c -25.14742,0 -45.72256,0.38184 -45.72256,0.84854 0,0.4667 10.21076,18.66895 22.69057,40.44946 l 22.69057,39.60091 -10.60501,39.21721 c -5.83276,21.56947 -16.06877,59.61722 -22.74669,84.55055 -14.44463,53.93183 -13.2994,50 -14.56361,50 -0.56163,0 -4.99358,-14.85 -9.84878,-33 z"
       id="path1501"
       inkscape:connector-curvature="0" />
  </g>
</svg>
