<?xml version="1.0" encoding="UTF-8" standalone="no"?>
<!-- Created with Inkscape (http://www.inkscape.org/) -->

<svg
   xmlns:dc="http://purl.org/dc/elements/1.1/"
   xmlns:cc="http://creativecommons.org/ns#"
   xmlns:rdf="http://www.w3.org/1999/02/22-rdf-syntax-ns#"
   xmlns:svg="http://www.w3.org/2000/svg"
   xmlns="http://www.w3.org/2000/svg"
   xmlns:sodipodi="http://sodipodi.sourceforge.net/DTD/sodipodi-0.dtd"
   xmlns:inkscape="http://www.inkscape.org/namespaces/inkscape"
   version="1.1"
   id="svg4463"
   width="214.55702"
   height="111.70052"
   viewBox="0 0 214.55701 111.70051"
   sodipodi:docname="chipy-logo.svg"
   inkscape:version="0.92.4 (unknown)">
  <metadata
     id="metadata4469">
    <rdf:RDF>
      <cc:Work
         rdf:about="">
        <dc:format>image/svg+xml</dc:format>
        <dc:type
           rdf:resource="http://purl.org/dc/dcmitype/StillImage" />
        <dc:title></dc:title>
      </cc:Work>
    </rdf:RDF>
  </metadata>
  <defs
     id="defs4467" />
  <sodipodi:namedview
     pagecolor="#ffffff"
     bordercolor="#666666"
     borderopacity="1"
     objecttolerance="10"
     gridtolerance="10"
     guidetolerance="10"
     inkscape:pageopacity="0"
     inkscape:pageshadow="2"
     inkscape:window-width="1920"
     inkscape:window-height="1163"
     id="namedview4465"
     showgrid="false"
     inkscape:zoom="1.6956522"
     inkscape:cx="169.11057"
     inkscape:cy="25.641137"
     inkscape:window-x="1920"
     inkscape:window-y="0"
     inkscape:window-maximized="1"
     inkscape:current-layer="svg4463" />
  <path
     style="fill:#ffffff;fill-opacity:1;stroke-width:1.04618597"
     d="M 42.791667,85.949825 C 35.509491,83.87028 40.311097,75.138936 51.076591,70.884348 60.565197,66.479714 61.14803,67.829545 57.108149,63.339991 53.600571,63.034365 37.355423,47.436807 33.947409,39.757473 c -3.392801,-7.645029 -5.272734,-8.574382 3.519089,-15.191635 4.849678,-3.650162 5.135818,-5.191483 5.135818,-6.397711 0,-4.166426 4.761555,-5.326283 8.618884,-3.976202 2.627162,0.919519 7.503365,-3.552989 10.468015,-4.4412164 2.170836,-0.6504 4.833934,-1.18256 5.917981,-1.182577 1.084048,-1.6e-5 3.389968,0.1245403 4.996857,-1.8893508 3.058033,-3.8325903 8.588449,-8.4556128 11.060555,-5.98349746 0.672499,0.67249776 4.385056,-0.30281856 6.848496,-0.25606146 2.017928,0.038301 3.235627,1.93337242 4.193802,3.78464822 1.168589,2.2578127 1.641021,6.9446849 1.641686,9.7547439 0.002,7.590927 4.758798,12.35784 11.743958,10.635598 35.92388,-8.85729 64.53474,13.900684 66.47085,52.872995 0.30831,6.206039 0.84618,11.125239 1.19528,10.931553 23.91694,-22.269689 55.37502,22.65969 28.47363,15.51705 -14.39062,-3.03985 -31.11869,-1.81204 -45.59094,-0.97823 -17.47948,-4.93261 -34.40427,9.83247 -45.80792,8.67838 -0.14156,-0.0422 -3.31748,-1.21502 -7.0576,-2.60638 -6.289462,-2.33974 -9.41567,-4.67868 -9.41567,-7.04455 0,-0.52699 -0.76618,-0.66415 -1.70265,-0.3048 -2.43414,0.93407 -11.897763,-0.48943 -11.897763,-1.789638 0,-0.599816 0.781752,-1.954402 1.737233,-3.010191 0.95547,-1.055789 1.43285,-2.223994 1.06083,-2.596009 -0.37201,-0.372015 -1.67266,0.590157 -2.890316,2.138161 -1.754087,2.229961 -2.517667,2.562473 -3.676308,1.600893 -1.95212,-1.620119 -1.857555,-5.604213 0.173019,-7.289441 3.039923,-2.522912 -0.938063,-3.222033 -10.994808,-1.932308 -11.378528,2.458134 -15.039691,0.08958 -25.37775,-2.851872 z m 26.944027,13.22344 C 72.805178,105.46134 58.711586,105.60172 25.071922,104.28557 22.39703,104.18092 15.295705,100.45 13.818734,97.212108 12.757651,94.885942 11.693359,91.213817 10.176729,85.433516 4.7915795,64.909216 0.29645612,46.232596 0.00382962,41.617144 -0.18327718,38.666001 6.5419762,38.091812 7.8620506,38.091812 c 1.5613379,0 2.4105584,0.850378 2.8730994,2.877011 4.351547,19.066409 10.948989,43.836322 13.022899,47.689189 0.117367,0.218041 2.438462,0.618292 23.352982,2.490011 22.770072,1.733216 23.897045,5.647789 22.624663,8.025242 z M 65.80084,67.396597 c 1.609222,2.727428 0.831751,4.367601 1.618012,3.58134 1.535372,-1.535374 4.886327,-1.400572 4.845996,0.194944 -1.690563,4.552505 -21.262991,10.625433 -20.828477,12.483524 0.349657,1.220606 -0.470418,1.156359 0.680387,2.105108 3.356907,2.767505 19.780827,-1.301383 25.275803,-5.574211 4.017113,-3.123652 10.971169,-2.448375 8.806609,0.855171 -0.8907,1.359362 -2.333396,2.87112 -3.206009,3.359461 -2.169005,1.213834 6.626879,6.386933 10.859789,6.386933 2.211683,-4.850974 20.3141,0.977738 22.34713,-2.937337 -11.36638,-12.848759 -5.50679,-32.413844 0.40252,-36.033089 8.13138,-4.560846 39.13968,3.36837 36.81931,9.41516 3.35635,5.002877 -3.48278,2.333743 -5.40503,1.397344 -9.54718,-4.674276 -32.14791,-10.480061 -33.21641,4.781089 -2.11083,7.27774 2.98634,19.882366 8.70019,18.878351 0.71925,-0.250037 1.30773,0.02918 1.30773,0.620482 0,0.591301 0.47078,0.784134 1.04619,0.428515 0.57658,-0.356349 1.04618,0.388444 1.04618,1.659272 0,2.217661 -2.57593,3.1162 -9.67682,2.520888 -2.55539,0.224463 -15.93614,3.16467 -16.65087,10.454088 -0.086,3.80818 5.05954,2.61932 7.65104,-1.76774 1.86629,-3.159374 4.18902,-4.050112 5.40993,-2.074639 0.36211,0.585897 -0.33164,2.667149 -1.54167,4.624999 -3.01816,4.88351 -1.79723,5.13056 8.44937,1.70971 9.21976,-3.07804 14.92697,-4.32317 22.89681,-4.995361 22.54733,-0.905391 21.55096,-1.250968 22.40866,-5.984681 0.43077,-2.296151 0.22695,-3.854894 -0.5683,-4.346389 -0.8433,-0.521183 -0.9718,-0.296282 -0.40171,0.703058 0.67965,1.191435 0.57065,1.220955 -0.57627,0.156062 -0.77797,-0.722322 -1.4663,-2.370065 -1.52963,-3.66165 -6.74945,-16.294429 4.24378,-23.664496 -4.99163,-34.710794 -3.8682,-7.336385 -7.65868,-11.368035 -12.71533,-14.999092 -12.56851,-6.445487 -30.05273,-7.06724 -39.9375,-4.311995 -7.474996,2.162434 -8.860942,-6.093712 -12.703959,-11.068417 -3.181172,0.245966 -8.088859,2.761971 -9.096125,2.990039 -2.983597,0.609987 -2.596139,9.109951 -4.20533,10.610384 -17.250169,1.769685 -28.695519,-2.110401 -28.406434,-4.327083 0.09091,-2.909962 4.831052,-11.157215 -0.465233,-8.396633 -3.09958,0.01404 -7.112267,6.358538 -7.847617,5.78067 -0.251367,-0.251369 1.504152,0.824459 1.607578,2.390727 0.254621,3.855506 -1.246416,7.555597 -3.065116,7.555597 -0.820084,0 -1.771423,0.730627 -2.114101,1.623615 -0.342668,0.892989 -0.508519,0.314281 0,0 5.914311,8.949679 17.242571,16.476443 22.02405,21.022323 2.590289,4.376234 3.784294,4.957807 4.946287,6.900257 z m 24.45534,32.937073 c -1.06151,-0.672879 -0.87342,-1.021728 0.78463,-1.455319 2.4773,-0.647829 2.97871,-2.858554 0.64834,-2.858554 -0.84286,0 -2.00325,0.879668 -2.57865,1.954816 -1.08638,2.029927 -0.54299,3.287677 1.40848,3.260097 0.62335,-0.009 0.50509,-0.41428 -0.2628,-0.90104 z m -8.738759,-8.43323 c 0.261547,-0.78464 -0.130773,-1.176959 -0.915413,-0.915413 -0.75522,0.251739 -1.579081,1.07561 -1.830825,1.830826 -0.261546,0.784639 0.130773,1.176959 0.915413,0.915412 0.75521,-0.251738 1.579081,-1.07561 1.830825,-1.830825 z M 59.558836,73.653535 c 0.455039,-2.281529 -0.836561,-2.143261 -7.497795,0.80265 -8.050631,3.560372 -10.378039,7.305849 -2.233879,5.258396 4.656657,-1.170693 9.506514,-4.932086 9.731674,-6.061046 z M 81.33938,21.139267 c 4.468262,0.313889 12.733756,-3.383338 5.750899,-5.995296 -5.383562,-2.013737 -14.864539,-2.180319 -18.813389,-1.035723 -3.442653,0.952318 -14.948418,4.224272 -10.240581,6.334268 4.313738,1.933362 18.414655,0.353347 23.303071,0.696751 z M 91.729373,10.861262 c -0.880516,-6.0603937 -5.767574,-9.7956749 -5.838677,-0.598905 0,0 4.362565,4.055241 5.838677,0.598905 z M 47.189445,45.376604 c 0,-1.018043 1.745513,-2.651573 5.492476,-1.951213 6.500744,1.215081 16.524557,-2.542474 17.367387,-3.166878 1.623454,-1.202723 4.219992,3.153057 4.219992,4.849356 0,2.343883 -5.349913,5.602887 -13.032391,5.602887 -3.237276,0 -14.047464,-4.292711 -14.047464,-5.334152 z"
     id="path5052"
     inkscape:connector-curvature="0"
     sodipodi:nodetypes="ccccssscsscsscsscccccscscsccscccssssssscccscccssccccccccssscccccsccccscccccccccccsccccccsscccccccsscsssccscccssssss" />
</svg>
