<?xml version="1.0" encoding="UTF-8" standalone="no"?>
<!-- Created with Inkscape (http://www.inkscape.org/) -->

<svg
   xmlns:dc="http://purl.org/dc/elements/1.1/"
   xmlns:cc="http://creativecommons.org/ns#"
   xmlns:rdf="http://www.w3.org/1999/02/22-rdf-syntax-ns#"
   xmlns:svg="http://www.w3.org/2000/svg"
   xmlns="http://www.w3.org/2000/svg"
   xmlns:sodipodi="http://sodipodi.sourceforge.net/DTD/sodipodi-0.dtd"
   xmlns:inkscape="http://www.inkscape.org/namespaces/inkscape"
   version="1.1"
   id="svg3813"
   width="1308"
   height="1309.3333"
   viewBox="0 0 1308 1309.3333"
   sodipodi:docname="clojure-logo.svg"
   inkscape:version="0.92.4 (unknown)">
  <metadata
     id="metadata3819">
    <rdf:RDF>
      <cc:Work
         rdf:about="">
        <dc:format>image/svg+xml</dc:format>
        <dc:type
           rdf:resource="http://purl.org/dc/dcmitype/StillImage" />
        <dc:title></dc:title>
      </cc:Work>
    </rdf:RDF>
  </metadata>
  <defs
     id="defs3817" />
  <sodipodi:namedview
     pagecolor="#ffffff"
     bordercolor="#666666"
     borderopacity="1"
     objecttolerance="10"
     gridtolerance="10"
     guidetolerance="10"
     inkscape:pageopacity="0"
     inkscape:pageshadow="2"
     inkscape:window-width="1299"
     inkscape:window-height="704"
     id="namedview3815"
     showgrid="false"
     inkscape:zoom="0.40020369"
     inkscape:cx="492.27909"
     inkscape:cy="637.22985"
     inkscape:window-x="67"
     inkscape:window-y="27"
     inkscape:window-maximized="1"
     inkscape:current-layer="g3823" />
  <g
     id="g3823"
     transform="translate(7.8259184e-6)">
    <path
       style="fill:#fffff7;fill-opacity:1;stroke-width:0.92262721"
       d="m 653.99996,103.4419 a 551.22398,551.22398 0 0 0 -38.99181,1.38214 551.22398,551.22398 0 0 0 -54.6981,6.63859 551.22398,551.22398 0 0 0 -53.76106,12.06804 551.22398,551.22398 0 0 0 -52.28881,17.37313 551.22398,551.22398 0 0 0 -50.29399,22.50706 551.22398,551.22398 0 0 0 -47.79281,27.41754 551.22398,551.22398 0 0 0 -44.81951,32.05048 551.22398,551.22398 0 0 0 -41.39569,36.36448 551.22398,551.22398 0 0 0 -37.55741,40.3145 551.22398,551.22398 0 0 0 -33.34613,43.86443 551.22398,551.22398 0 0 0 -28.79967,46.9729 551.22398,551.22398 0 0 0 -23.96668,49.61464 551.22398,551.22398 0 0 0 -18.89224,51.75903 551.22398,551.22398 0 0 0 -13.63217,53.38624 551.22398,551.22398 0 0 0 -8.23337,54.48004 551.22398,551.22398 0 0 0 -2.75527,55.03148 551.22398,551.22398 0 0 0 1.38214,38.99181 551.22398,551.22398 0 0 0 6.63859,54.6981 551.22398,551.22398 0 0 0 12.06804,53.76106 551.22398,551.22398 0 0 0 17.37314,52.28881 551.22398,551.22398 0 0 0 22.50886,50.294 551.22398,551.22398 0 0 0 27.41573,47.79465 551.22398,551.22398 0 0 0 32.05048,44.81771 551.22398,551.22398 0 0 0 36.3645,41.39574 551.22398,551.22398 0 0 0 40.31448,37.5574 551.22398,551.22398 0 0 0 43.86444,33.3461 551.22398,551.22398 0 0 0 46.97289,28.7996 551.22398,551.22398 0 0 0 49.61464,23.9668 551.22398,551.22398 0 0 0 51.75903,18.8921 551.22398,551.22398 0 0 0 53.38624,13.6322 551.22398,551.22398 0 0 0 54.48185,8.2335 551.22398,551.22398 0 0 0 55.02967,2.7552 551.22398,551.22398 0 0 0 38.99181,-1.3822 551.22398,551.22398 0 0 0 54.69811,-6.6386 551.22398,551.22398 0 0 0 53.76285,-12.068 551.22398,551.22398 0 0 0 52.28701,-17.3731 551.22398,551.22398 0 0 0 50.294,-22.5071 551.22398,551.22398 0 0 0 47.79462,-27.4175 551.22398,551.22398 0 0 0 44.81775,-32.0505 551.22398,551.22398 0 0 0 41.39559,-36.3645 551.22398,551.22398 0 0 0 37.5575,-40.3144 551.22398,551.22398 0 0 0 33.3461,-43.86454 551.22398,551.22398 0 0 0 28.7996,-46.97291 551.22398,551.22398 0 0 0 23.9667,-49.61464 551.22398,551.22398 0 0 0 18.8922,-51.75903 551.22398,551.22398 0 0 0 13.6322,-53.38624 551.22398,551.22398 0 0 0 8.2333,-54.48005 551.22398,551.22398 0 0 0 2.7554,-55.03147 551.22398,551.22398 0 0 0 -1.3822,-38.99181 551.22398,551.22398 0 0 0 -6.6386,-54.69811 551.22398,551.22398 0 0 0 -12.068,-53.76105 551.22398,551.22398 0 0 0 -17.3731,-52.28881 551.22398,551.22398 0 0 0 -22.5071,-50.294 551.22398,551.22398 0 0 0 -27.4176,-47.79461 551.22398,551.22398 0 0 0 -32.0486,-44.8177 551.22398,551.22398 0 0 0 -36.3663,-41.39569 551.22398,551.22398 0 0 0 -40.3144,-37.55741 551.22398,551.22398 0 0 0 -43.86451,-33.34613 551.22398,551.22398 0 0 0 -46.9729,-28.79967 551.22398,551.22398 0 0 0 -49.61464,-23.96668 551.22398,551.22398 0 0 0 -51.75903,-18.89224 551.22398,551.22398 0 0 0 -53.38623,-13.63217 551.22398,551.22398 0 0 0 -54.48006,-8.23337 551.22398,551.22398 0 0 0 -55.03147,-2.75527 z m -9.74345,28.71316 c 3.48878,9.3e-4 7.01486,0.0186 10.55075,0.0522 14.14353,0.13474 28.43564,0.5283 41.06052,1.16409 6.31244,0.3179 12.20874,0.69681 17.45963,1.13347 5.2509,0.43666 9.85776,0.93195 13.59254,1.48305 9.27973,1.3693 18.49752,2.98288 27.64818,4.83659 9.15066,1.85369 18.23369,3.94674 27.23913,6.27458 9.00543,2.32782 17.93377,4.89026 26.77781,7.68195 8.84405,2.79168 17.60315,5.81343 26.26964,9.05869 8.66651,3.24525 17.24004,6.71442 25.71283,10.40298 8.47282,3.68855 16.84443,7.59686 25.10736,11.71844 8.26293,4.12159 16.41809,8.45715 24.45503,13.00148 8.03691,4.54434 15.9557,9.29706 23.75044,14.25387 7.79473,4.95681 15.46441,10.11662 23.00081,15.47563 7.5364,5.359 14.94062,10.91763 22.20253,16.66856 7.26191,5.75093 14.38265,11.69467 21.35379,17.82725 6.9712,6.13257 13.7919,12.45315 20.4564,18.9571 6.6644,6.50395 13.1724,13.19128 19.5139,20.05633 6.3414,6.86505 12.5169,13.90725 18.5192,21.12312 6.0023,7.21587 11.8306,14.60466 17.4776,22.16107 5.647,7.55642 11.1137,15.28171 16.3893,23.16839 4.0317,6.0271 7.982,12.28087 11.8319,18.71565 3.85,6.43477 7.5981,13.05016 11.2266,19.80044 3.6284,6.75028 7.137,13.63594 10.5038,20.60955 3.3671,6.97359 6.5927,14.03459 9.6588,21.13933 3.0661,7.10474 5.9731,14.25332 8.6983,21.39702 2.7252,7.14371 5.2689,14.28311 7.6135,21.3736 2.3446,7.09048 4.4892,14.13117 6.4133,21.07627 1.9242,6.94508 3.6285,13.79391 5.0925,20.50142 1.3173,6.03575 2.5366,12.04237 3.658,18.01106 1.1215,5.96868 2.1446,11.90001 3.0707,17.7894 0.926,5.88939 1.7554,11.73563 2.4868,17.53352 0.7312,5.79789 1.364,11.54743 1.901,17.2416 0.5372,5.69417 0.9775,11.3336 1.321,16.91183 0.3434,5.57823 0.5903,11.09595 0.7405,16.54602 0.1503,5.45007 0.2045,10.83267 0.1622,16.14237 -0.042,5.3097 -0.1802,10.54558 -0.4144,15.70269 -0.2343,5.15709 -0.5655,10.23464 -0.9912,15.22695 -0.4257,4.99227 -0.9457,9.89992 -1.5623,14.71518 -0.6166,4.81526 -1.3285,9.53776 -2.1354,14.16377 -0.8069,4.62602 -1.7099,9.15537 -2.7066,13.57992 -0.9967,4.42455 -2.0883,8.74556 -3.2742,12.95643 -1.186,4.21085 -2.4655,8.31192 -3.8401,12.29689 -1.3746,3.98496 -2.8432,7.85266 -4.4059,11.59951 -1.5627,3.74685 -3.2196,7.37319 -4.9699,10.86971 -1.7033,3.4026 -3.5116,6.74295 -5.4223,10.02095 -1.9106,3.27799 -3.9233,6.49194 -6.0349,9.64073 -2.1116,3.14879 -4.3216,6.2329 -6.6278,9.2479 -2.3061,3.015 -4.7083,5.96222 -7.2026,8.83884 -2.4943,2.87661 -5.0816,5.68172 -7.7576,8.41537 -2.676,2.73365 -5.4416,5.39499 -8.2929,7.98108 -2.8512,2.58611 -5.788,5.09843 -8.8082,7.53239 -3.0201,2.43396 -6.1229,4.79024 -9.3055,7.06747 -3.1827,2.27723 -6.4444,4.47402 -9.7831,6.58994 -3.3387,2.11591 -6.7543,4.14978 -10.2426,6.09979 -3.4884,1.95001 -7.0507,3.81751 -10.6823,5.59703 -3.6316,1.77952 -7.3337,3.47181 -11.1022,5.07625 -3.7684,1.60444 -7.6033,3.11989 -11.5021,4.54466 -3.8989,1.42478 -7.8614,2.75813 -11.8843,3.99865 -4.0229,1.24053 -8.1059,2.38835 -12.2464,3.44003 -4.1406,1.05169 -8.3389,2.00874 -12.5906,2.867 -5.81064,1.17294 -12.75636,2.22327 -20.21857,3.11206 -7.46221,0.8888 -15.43979,1.61487 -23.31254,2.13718 -7.87275,0.52231 -15.64144,0.84193 -22.68366,0.91542 -7.04221,0.0735 -13.35938,-0.0991 -18.33001,-0.55682 -3.01141,-0.27728 -5.7494,-0.67196 -7.73421,-1.08661 -0.99239,-0.20733 -1.79553,-0.41935 -2.35162,-0.62349 -0.55608,-0.20415 -0.86496,-0.40072 -0.86496,-0.57665 0,-0.35186 1.34196,-2.13437 3.50311,-4.72305 2.16114,-2.58869 5.1418,-5.98385 8.42077,-9.55965 2.99653,-3.26777 5.99287,-6.79051 8.96678,-10.52912 2.97393,-3.73862 5.9262,-7.69346 8.83344,-11.82476 2.90723,-4.13132 5.77028,-8.43846 8.56674,-12.88435 2.79646,-4.44589 5.52507,-9.03095 8.16669,-13.71327 2.64162,-4.68232 5.19602,-9.4619 7.63871,-14.30252 2.44268,-4.84062 4.77409,-9.74215 6.97376,-14.66293 2.19967,-4.92078 4.2665,-9.86085 6.17904,-14.78366 1.9126,-4.92281 3.6715,-9.82704 5.25288,-14.67374 1.61534,-4.95074 3.07752,-9.61787 4.39872,-14.08988 1.3212,-4.47201 2.50198,-8.75007 3.55534,-12.9258 1.05337,-4.17572 1.97941,-8.24942 2.79132,-12.31131 0.81191,-4.06187 1.50979,-8.11234 2.10654,-12.24282 0.59676,-4.13049 1.09119,-8.34064 1.49927,-12.72217 0.40808,-4.38153 0.72925,-8.93429 0.97494,-13.7493 0.4913,-9.63003 0.68468,-20.30905 0.68468,-32.76769 0,-6.51441 -0.0526,-12.5459 -0.17299,-18.19846 -0.12068,-5.65256 -0.31148,-10.92615 -0.58559,-15.92432 -0.27421,-4.99819 -0.63182,-9.72062 -1.09202,-14.27189 -0.4603,-4.55129 -1.02209,-8.9311 -1.70114,-13.24295 -0.67896,-4.31186 -1.47519,-8.55578 -2.40566,-12.83569 -0.93047,-4.27991 -1.99481,-8.5965 -3.20936,-13.05193 -1.21455,-4.45544 -2.57911,-9.04962 -4.1104,-13.88807 -1.53128,-4.83844 -3.22974,-9.92056 -5.11052,-15.34949 -2.09501,-6.04757 -4.36809,-12.01758 -6.81155,-17.90473 -2.44347,-5.88715 -5.05712,-11.69241 -7.83693,-17.40738 -2.77981,-5.71497 -5.72573,-11.33935 -8.82983,-16.87038 -3.1041,-5.53103 -6.36675,-10.96743 -9.78309,-16.30275 -3.41634,-5.33533 -6.98558,-10.56942 -10.70212,-15.69728 -3.71653,-5.12787 -7.58042,-10.15073 -11.5851,-15.05937 -4.00467,-4.90864 -8.15127,-9.70415 -12.43204,-14.38181 -4.28076,-4.67767 -8.69633,-9.23689 -13.24114,-13.67182 -4.54481,-4.43493 -9.21741,-8.74536 -14.0142,-12.92579 -4.7968,-4.18044 -9.71629,-8.23135 -14.75303,-12.14553 -5.03674,-3.91418 -10.19117,-7.69124 -15.45581,-11.32741 -5.26463,-3.63616 -10.64028,-7.13047 -16.12075,-10.47686 -5.48047,-3.3464 -11.06538,-6.54542 -16.74964,-9.59028 -5.68427,-3.04486 -11.46831,-5.93607 -17.34431,-8.66765 -5.876,-2.73157 -11.84364,-5.30426 -17.89933,-7.71078 -6.0557,-2.40654 -12.19858,-4.64636 -18.42191,-6.71608 -4.66004,-1.54981 -9.36003,-2.99877 -14.09349,-4.34644 -4.73347,-1.34768 -9.50016,-2.59527 -14.29532,-3.74097 -4.79516,-1.14569 -9.61961,-2.18983 -14.4647,-3.13369 -4.84513,-0.94385 -9.7111,-1.78604 -14.59445,-2.52821 -4.88335,-0.74218 -9.78371,-1.3839 -14.69357,-1.92454 -4.90984,-0.54065 -9.83021,-0.98161 -14.75482,-1.32087 -4.9246,-0.33927 -9.85242,-0.57736 -14.78005,-0.7154 -4.92764,-0.13803 -9.85393,-0.17477 -14.77285,-0.11173 -4.91893,0.063 -9.83111,0.22618 -14.7296,0.49015 -4.89849,0.26398 -9.784,0.62906 -14.65031,1.09382 -4.86632,0.46475 -9.71438,1.0285 -14.53679,1.69389 -4.82241,0.66538 -9.61864,1.43169 -14.38541,2.29755 -4.76678,0.86587 -9.50401,1.83143 -14.20342,2.89763 -4.6994,1.06619 -9.36147,2.23313 -13.98177,3.4995 -4.62029,1.26636 -9.19822,2.63316 -13.72767,4.09956 -4.52947,1.46641 -9.01069,3.03155 -13.43757,4.69783 l -15.09,5.67992 -12.4807,-6.75932 c -4.31178,-2.33536 -8.67885,-4.55265 -13.09518,-6.6512 -4.41633,-2.09856 -8.88251,-4.07861 -13.3925,-5.93942 -4.51,-1.86081 -9.06279,-3.60188 -13.65561,-5.22401 -4.59277,-1.62215 -9.22521,-3.12429 -13.88986,-4.50682 -4.66467,-1.38254 -9.36243,-2.64582 -14.08809,-3.78782 -4.72566,-1.142 -9.47809,-2.16288 -14.25387,-3.06341 -4.77578,-0.90053 -9.57401,-1.68087 -14.38902,-2.33901 -4.81501,-0.65813 -9.64838,-1.19439 -14.49174,-1.60919 -4.84336,-0.41479 -9.69758,-0.70704 -14.5584,-0.87757 -4.86082,-0.17053 -9.72705,-0.21883 -14.59445,-0.14417 -4.86739,0.0747 -9.73497,0.27207 -14.59806,0.59287 -4.86307,0.32079 -9.72133,0.76382 -14.56921,1.33168 -4.84789,0.56786 -9.68616,1.26006 -14.50795,2.07591 -4.8218,0.81585 -9.62763,1.75535 -14.41246,2.82014 -4.78482,1.06478 -9.54934,2.25513 -14.2863,3.56977 -4.73697,1.31465 -9.4459,2.75398 -14.12413,4.31941 -6.69801,2.2413 -12.89847,4.16727 -17.49207,5.46549 -2.2968,0.6491 -4.19168,1.14217 -5.54658,1.438 -1.35489,0.29583 -2.17077,0.39528 -2.30656,0.25949 -0.1358,-0.1358 0.59986,-1.13126 2.04167,-2.81294 1.44182,-1.68166 3.59115,-4.05054 6.2854,-6.93051 5.38849,-5.75993 12.95521,-13.56731 21.40243,-22.03494 5.23309,-5.24573 10.52316,-10.35844 15.87027,-15.33686 5.3471,-4.97844 10.75218,-9.82419 16.21625,-14.53679 5.46407,-4.71261 10.98727,-9.29201 16.57125,-13.7403 5.58398,-4.44829 11.22841,-8.76376 16.93526,-12.94922 5.70684,-4.18546 11.4756,-8.24122 17.30826,-12.16535 5.83268,-3.92412 11.72887,-7.71718 17.6903,-11.38146 5.96144,-3.66429 11.98817,-7.19888 18.08134,-10.60481 6.09315,-3.40593 12.25353,-6.68267 18.48137,-9.83175 6.22784,-3.14908 12.52315,-6.17038 18.88863,-9.06409 6.36547,-2.89372 12.80064,-5.6602 19.30669,-8.30004 6.50606,-2.63984 13.08418,-5.15393 19.73378,-7.54139 6.64959,-2.38747 13.37017,-4.64798 20.16625,-6.78456 6.79608,-2.13658 13.66761,-4.14954 20.61315,-6.03672 6.94552,-1.88718 13.96573,-3.64959 21.06365,-5.28889 7.09792,-1.63929 14.2735,-3.15538 21.52676,-4.54827 7.25327,-1.39288 14.58373,-2.66326 21.9953,-3.81124 3.13541,-0.48564 7.218,-0.89708 12.01938,-1.23797 4.80137,-0.34089 10.32242,-0.61043 16.33518,-0.81091 9.01914,-0.30071 19.14604,-0.44624 29.61237,-0.44329 z m 16.4343,249.74728 c 4.45819,-0.004 8.89887,0.11085 13.32043,0.34417 4.42157,0.23334 8.82331,0.5853 13.2051,1.05418 4.3818,0.46889 8.7419,1.05556 13.08077,1.75876 4.33886,0.7032 8.65643,1.52346 12.94921,2.45974 4.29279,0.93628 8.5615,1.98719 12.80506,3.15531 4.24356,1.16812 8.4625,2.45217 12.65369,3.85089 4.19119,1.39872 8.35404,2.91297 12.4897,4.54105 4.13567,1.62809 8.24333,3.36962 12.32032,5.22583 4.07698,1.85619 8.12315,3.8275 12.13832,5.91058 4.01515,2.08307 7.99892,4.27941 11.9491,6.58813 3.95018,2.30871 7.86703,4.72897 11.74908,7.26208 3.88205,2.53312 7.72927,5.17797 11.54005,7.93423 3.81077,2.75628 7.58566,5.6246 11.322,8.60278 3.73636,2.9782 7.43438,6.06705 11.09316,9.26592 3.65877,3.19887 7.27903,6.50714 10.85708,9.92545 3.05837,2.92183 6.03269,5.88982 8.92534,8.90011 2.89265,3.01029 5.70323,6.06319 8.42979,9.1578 2.72654,3.0946 5.37056,6.22989 7.93063,9.40467 2.56007,3.17478 5.03648,6.38993 7.42966,9.64073 2.3932,3.25081 4.7028,6.53789 6.92872,9.86058 2.22592,3.32269 4.36768,6.68099 6.42595,10.07141 2.05827,3.39043 4.03297,6.81201 5.9232,10.26604 1.89023,3.45402 3.69504,6.93995 5.41683,10.45343 1.72179,3.51348 3.3593,7.05584 4.91227,10.62463 1.55297,3.56879 3.02214,7.16326 4.40591,10.78321 1.38376,3.61994 2.68357,7.264 3.89774,10.93097 1.21416,3.66696 2.34359,7.35807 3.38777,11.06792 1.04417,3.70985 2.00221,7.44007 2.876,11.18865 0.87379,3.74858 1.66301,7.51542 2.36603,11.29859 0.70303,3.78317 1.3206,7.58227 1.85246,11.39588 0.53188,3.81362 0.97676,7.64068 1.33709,11.48059 0.36033,3.83991 0.63512,7.69239 0.82352,11.55446 0.1884,3.86207 0.29207,7.73385 0.30815,11.61393 0.016,3.88008 -0.0543,7.76863 -0.21084,11.66258 -0.15663,3.89395 -0.40008,7.79315 -0.72982,11.69683 -0.32973,3.90367 -0.74556,7.81099 -1.24878,11.72025 -0.50322,3.90925 -1.09427,7.82037 -1.77137,11.73105 -0.6771,3.9107 -1.4408,7.82127 -2.29216,11.72927 -0.85136,3.90798 -1.79051,7.81371 -2.81653,11.71484 -1.02602,3.90113 -2.13986,7.79767 -3.34093,11.68781 -1.20105,3.89014 -2.4888,7.77317 -3.8653,11.64817 -1.37649,3.875 -2.84097,7.742 -4.39329,11.59771 -1.55231,3.85572 -3.19275,7.70056 -4.92127,11.53284 -1.72853,3.83229 -3.54595,7.65245 -5.45108,11.45716 -1.90512,3.80471 -3.89875,7.59406 -5.98086,11.36705 -2.08211,3.773 -4.25116,7.52901 -6.51064,11.26615 -2.25949,3.73714 -4.60859,7.45548 -7.04585,11.15261 -1.06862,1.62104 -2.72603,3.79247 -4.81496,6.35027 -2.08892,2.5578 -4.60959,5.50251 -7.40624,8.67126 -5.59332,6.3375 -12.28932,13.57048 -18.83818,20.39691 -6.54885,6.82642 -12.94951,13.24633 -17.95338,17.95519 -2.50195,2.35443 -4.65477,4.28054 -6.30162,5.61685 -1.64685,1.33633 -2.78784,2.08172 -3.26704,2.07411 -0.4814,-0.008 -2.08636,-0.68128 -4.28337,-1.76055 -2.19701,-1.0793 -4.98674,-2.56322 -7.83873,-4.19328 -4.13137,-2.3613 -8.0149,-4.81832 -11.71483,-7.46571 -3.69995,-2.64739 -7.21651,-5.48535 -10.61743,-8.61179 -3.40092,-3.12643 -6.68574,-6.54145 -9.92004,-10.33991 -3.23431,-3.79845 -6.4172,-7.98125 -9.61731,-12.64468 -3.20011,-4.66342 -6.41629,-9.80652 -9.71462,-15.52789 -3.29832,-5.72136 -6.67942,-12.02088 -10.20837,-18.99314 -3.52894,-6.97226 -7.20656,-14.61713 -11.09856,-23.03325 -3.89198,-8.41611 -7.99773,-17.60245 -12.38518,-27.65539 -4.35804,-9.98555 -8.09474,-18.81889 -11.61574,-27.67521 -3.52099,-8.85632 -6.82744,-17.73631 -10.32909,-27.81757 -3.50166,-10.08127 -7.19858,-21.36341 -11.4986,-35.0238 -4.30003,-13.66038 -9.20274,-29.69839 -15.11884,-49.29208 -3.87803,-12.84378 -7.58043,-24.82692 -11.14721,-36.04373 -3.56677,-11.21679 -6.99862,-21.66794 -10.3327,-31.44681 -3.33408,-9.77886 -6.57071,-18.88576 -9.75066,-27.41572 -3.17995,-8.52996 -6.30209,-16.48215 -9.40647,-23.95227 -3.10438,-7.47011 -6.19099,-14.45893 -9.29836,-21.05824 -3.10737,-6.59932 -6.23556,-12.8107 -9.42449,-18.72826 -3.18893,-5.91755 -6.43946,-11.54104 -9.78849,-16.96588 -3.34905,-5.42485 -6.79724,-10.64997 -10.38496,-15.77116 -2.63719,-3.76436 -4.69308,-6.76461 -6.24036,-9.16681 -1.54727,-2.4022 -2.58507,-4.20633 -3.18955,-5.58081 -0.30223,-0.68728 -0.49693,-1.26749 -0.59105,-1.76056 -0.0941,-0.49307 -0.0884,-0.89909 0.007,-1.23978 0.0956,-0.34069 0.28086,-0.61503 0.54781,-0.84514 0.26695,-0.23012 0.61625,-0.41708 1.03616,-0.57845 2.63807,-1.01377 6.35724,-2.04168 10.83005,-3.03458 4.47282,-0.99288 9.69788,-1.95074 15.35129,-2.82193 5.65342,-0.87121 11.73384,-1.65606 17.91375,-2.30477 6.17991,-0.64872 12.45974,-1.16123 18.51201,-1.48666 4.49166,-0.24152 8.96855,-0.36233 13.42674,-0.3658 z m -268.18359,18.64175 c 3.44607,-0.0109 6.4413,0.0794 8.82262,0.28652 2.38134,0.20705 4.14918,0.53095 5.13933,0.9821 1.16809,0.53221 2.15451,1.10053 2.95529,1.72091 0.80078,0.62037 1.41439,1.29168 1.83805,2.02906 0.42365,0.73738 0.65707,1.54044 0.69377,2.42369 0.0367,0.88325 -0.12286,1.84687 -0.48294,2.90484 -0.36008,1.05797 -0.92001,2.21093 -1.68668,3.47246 -0.76666,1.26154 -1.73977,2.63264 -2.92285,4.1266 -2.36617,2.98792 -5.57522,6.46901 -9.66596,10.55976 -2.28338,2.28337 -4.53857,4.65759 -6.76473,7.11612 -2.22617,2.45852 -4.42398,5.00212 -6.58814,7.62609 -4.32831,5.24794 -8.52659,10.81704 -12.578,16.66856 -4.05142,5.85151 -7.95538,11.98499 -11.69142,18.36245 -3.73605,6.37744 -7.30368,12.9981 -10.6859,19.82386 -3.38221,6.82577 -6.57873,13.8564 -9.56865,21.05284 -2.98992,7.19645 -5.77332,14.55806 -8.33248,22.04755 -2.55915,7.48949 -4.89466,15.10669 -6.98457,22.8116 -2.08993,7.70491 -3.93552,15.49867 -5.51775,23.34139 -0.79319,3.93163 -1.44984,7.86081 -1.98941,12.07704 -0.53957,4.21623 -0.962,8.71843 -1.28483,13.79976 -0.32283,5.08134 -0.5454,10.74169 -0.68837,17.26863 -0.14298,6.52695 -0.20543,13.92155 -0.20543,22.47462 0,12.37909 0.16671,22.85079 0.61629,32.21627 0.22479,4.68274 0.52128,9.08885 0.901,13.31863 0.37972,4.22979 0.84438,8.28193 1.40737,12.25905 0.56299,3.97713 1.2238,7.87838 1.99842,11.80314 0.77462,3.92476 1.66137,7.87462 2.67598,11.9473 1.01462,4.07269 2.15709,8.26881 3.44004,12.68973 1.28294,4.42092 2.70733,9.06639 4.28697,14.03583 2.05464,6.46376 4.25729,12.77813 6.61877,18.95891 2.36146,6.18078 4.88245,12.22687 7.56842,18.15341 2.68598,5.92653 5.53858,11.73343 8.56674,17.4344 3.02816,5.70104 6.23106,11.29768 9.61911,16.80191 3.38804,5.50424 6.95994,10.91612 10.72554,16.2523 3.7656,5.33617 7.72519,10.59593 11.88603,15.79278 4.16086,5.19685 8.52317,10.33171 13.09699,15.41797 4.57377,5.08626 9.35939,10.12344 14.36378,15.12784 6.18837,6.18836 12.46853,12.06961 18.8616,17.65425 6.39307,5.58465 12.89755,10.87225 19.53376,15.87388 3.3181,2.50077 6.6691,4.93014 10.05519,7.28911 3.38609,2.35898 6.80895,4.64783 10.26783,6.86749 3.45889,2.21956 6.9548,4.37002 10.49129,6.45295 3.53647,2.08292 7.11206,4.09867 10.73094,6.04757 3.61888,1.9488 7.28074,3.8319 10.98683,5.6492 3.70609,1.8173 7.45724,3.5681 11.25534,5.2565 7.59619,3.3767 15.38077,6.4993 23.37382,9.3758 7.99304,2.8766 16.19429,5.5085 24.62261,7.9054 8.42833,2.397 17.0847,4.5582 25.98674,6.4963 4.21408,0.9174 8.97669,1.7204 14.15295,2.4075 5.17626,0.687 10.76494,1.2586 16.63072,1.7155 5.86577,0.4568 12.00954,0.7986 18.29216,1.0253 6.28263,0.2267 12.70508,0.3384 19.1319,0.3352 6.42682,0 12.85699,-0.1219 19.15533,-0.355 6.29834,-0.2331 12.46524,-0.5805 18.36244,-1.0433 5.89721,-0.4628 11.52444,-1.0412 16.74785,-1.7336 5.22342,-0.6924 10.04179,-1.4983 14.31874,-2.4201 5.99945,-1.293 12.61671,-2.9515 19.38779,-4.824 6.77109,-1.8724 13.69692,-3.9595 20.31402,-6.1106 6.6171,-2.151 12.92585,-4.3657 18.46335,-6.4944 5.53751,-2.1287 10.30351,-4.1717 13.8358,-5.9773 1.90614,-0.9743 3.39092,-1.7029 4.83479,-2.1678 1.44387,-0.4649 2.84636,-0.6664 4.58791,-0.5874 1.74155,0.079 3.8214,0.4401 6.62057,1.0973 2.79917,0.6574 6.31783,1.6113 10.93458,2.8815 5.20802,1.4328 10.06317,2.7195 14.68815,3.8743 4.62498,1.1548 9.02076,2.1788 13.31141,3.0832 4.29065,0.9046 8.4757,1.6894 12.68072,2.3715 4.20503,0.6819 8.42974,1.2609 12.79786,1.7479 4.36811,0.4871 8.87929,0.8838 13.6592,1.2038 4.77992,0.32 9.82797,0.5619 15.2684,0.7424 10.88085,0.3612 23.33152,0.4716 38.34669,0.4415 12.60187,-0.025 22.65795,-0.086 31.11889,-0.245 8.46086,-0.1594 15.32742,-0.4172 21.55017,-0.8398 6.22274,-0.4226 11.80094,-1.0085 17.68854,-1.8237 5.8875,-0.815 12.084,-1.8599 19.5391,-3.1967 9.1889,-1.6478 17.6083,-3.0796 23.772,-4.0581 6.1638,-0.9786 10.0706,-1.5038 10.2336,-1.3407 0.1631,0.163 -1.7716,2.809 -5.0221,6.9395 -3.2506,4.1306 -7.8165,9.7464 -12.9115,15.8505 -4.75,5.6908 -9.65,11.27654 -14.6935,16.75514 -5.043,5.4784 -10.2304,10.8498 -15.5531,16.1081 -5.3226,5.2579 -10.7814,10.4039 -16.3694,15.4342 -5.58802,5.0301 -11.30508,9.9443 -17.14429,14.7386 -5.83922,4.7941 -11.79948,9.4693 -17.87591,14.0196 -6.07647,4.5503 -12.26822,8.9768 -18.56788,13.2754 -6.29966,4.2985 -12.70777,8.4688 -19.2166,12.5077 -6.50882,4.0389 -13.1181,7.9453 -19.82206,11.7166 -6.70397,3.7713 -13.50283,7.4063 -20.3879,10.9021 -6.88507,3.4959 -13.85653,6.8536 -20.90868,10.0661 -7.05215,3.2125 -14.18461,6.2815 -21.38981,9.2028 -7.20521,2.9213 -14.48349,5.6941 -21.8277,8.3163 -7.34423,2.6221 -14.75494,5.0929 -22.22415,7.408 -7.46921,2.3151 -14.99716,4.4744 -22.57734,6.4746 -7.58017,2.0002 -15.21198,3.8403 -22.88908,5.5178 -7.6771,1.6774 -15.39939,3.1925 -23.15938,4.5392 -4.56466,0.7922 -9.77032,1.5116 -15.45041,2.157 -5.68009,0.6454 -11.83421,1.2155 -18.29757,1.7065 -6.46337,0.491 -13.23554,0.9035 -20.15003,1.2326 -6.91449,0.3291 -13.97254,0.5756 -21.00599,0.7352 -7.03346,0.1597 -14.04336,0.2336 -20.86363,0.2162 -6.82027,-0.018 -13.44982,-0.1261 -19.72476,-0.328 -6.27494,-0.2017 -12.19374,-0.4977 -17.59118,-0.892 -5.39746,-0.3936 -10.2733,-0.8841 -14.46111,-1.4775 -5.50812,-0.7807 -10.99285,-1.6452 -16.45051,-2.5896 -5.45767,-0.9444 -10.88952,-1.9699 -16.29375,-3.0759 -5.40422,-1.1062 -10.78014,-2.2917 -16.12795,-3.5572 -5.34779,-1.2656 -10.66658,-2.61 -15.95496,-4.0329 -5.28839,-1.4229 -10.54698,-2.9251 -15.77297,-4.5033 -5.22598,-1.578 -10.41953,-3.2334 -15.58014,-4.9644 -5.16061,-1.7312 -10.28789,-3.5367 -15.38013,-5.4187 -5.09223,-1.8819 -10.1502,-3.8403 -15.17109,-5.8709 -5.02088,-2.0307 -10.00473,-4.1334 -14.95124,-6.3107 -4.94655,-2.1772 -9.85497,-4.4288 -14.7242,-6.7503 -4.86923,-2.3215 -9.69921,-4.7136 -14.48812,-7.1774 -4.78893,-2.4637 -9.53744,-4.9988 -14.24306,-7.6026 -4.70563,-2.6038 -9.36783,-5.2772 -13.98718,-8.0189 -4.61934,-2.7418 -9.19579,-5.5505 -13.72587,-8.428 -4.53009,-2.8775 -9.01415,-5.8225 -13.45198,-8.8335 -4.43784,-3.011 -8.82826,-6.0892 -13.17087,-9.2317 -4.3426,-3.1424 -8.63816,-6.3491 -12.88254,-9.6208 -4.24439,-3.2718 -8.43843,-6.6078 -12.58161,-10.0066 -4.14318,-3.3989 -8.23447,-6.8612 -12.27347,-10.385 -4.03899,-3.5237 -8.02629,-7.1097 -11.9581,-10.7562 -3.93183,-3.6465 -7.80849,-7.353 -11.63015,-11.1201 -3.82166,-3.7672 -7.58826,-7.595 -11.29678,-11.4806 -3.70852,-3.8856 -7.35841,-7.8301 -10.95079,-11.832 -3.5924,-4.00194 -7.12615,-8.06014 -10.5994,-12.17624 -3.47328,-4.1159 -6.88603,-8.2887 -10.23721,-12.5167 -3.35117,-4.228 -6.64169,-8.5123 -9.86778,-12.85 -3.2261,-4.3379 -6.38774,-8.7291 -9.48576,-13.17452 -3.09803,-4.4455 -6.13137,-8.94432 -9.09833,-13.49527 -2.96697,-4.55095 -5.86896,-9.15447 -8.70189,-13.80876 -2.83293,-4.65429 -5.59693,-9.35965 -8.29283,-14.11511 -2.69591,-4.75547 -5.32248,-9.56158 -7.87837,-14.41605 -2.5559,-4.85448 -5.042,-9.75665 -7.4549,-14.70798 -3.14169,-6.44682 -6.07216,-12.69293 -8.81362,-18.80935 -2.74145,-6.11642 -5.29303,-12.10354 -7.67835,-18.03627 -2.38533,-5.93274 -4.60493,-11.81073 -6.67824,-17.70652 -2.07331,-5.89579 -4.00066,-11.80907 -5.80606,-17.81463 -1.80541,-6.00557 -3.48743,-12.10398 -5.06905,-18.36606 -1.58161,-6.26204 -3.06345,-12.68823 -4.46537,-19.35354 -1.40193,-6.6653 -2.72509,-13.56908 -3.99144,-20.78434 -1.26635,-7.21527 -2.47599,-14.74287 -3.65087,-22.65482 -0.89781,-6.04611 -1.67735,-12.00752 -2.3408,-17.88672 -0.66345,-5.8792 -1.20938,-11.67494 -1.63803,-17.38935 -0.42864,-5.71442 -0.74004,-11.34746 -0.93344,-16.89922 -0.19339,-5.55176 -0.26934,-11.02325 -0.22705,-16.41448 0.0423,-5.39123 0.20272,-10.70231 0.48114,-15.93514 0.27841,-5.23283 0.67434,-10.38647 1.18932,-15.46302 0.51498,-5.07654 1.14913,-10.07566 1.90112,-14.9981 0.75199,-4.92239 1.62166,-9.7682 2.61111,-14.53858 0.98944,-4.77037 2.09736,-9.46581 3.3247,-14.08629 1.22733,-4.62047 2.57443,-9.16668 4.04009,-13.63938 1.46567,-4.47269 3.05106,-8.87265 4.7555,-13.1997 1.70444,-4.32704 3.52724,-8.58008 5.47089,-12.7636 1.94365,-4.18353 4.00839,-8.29621 6.1917,-12.33834 2.1833,-4.04213 4.48548,-8.01381 6.90889,-11.91667 2.42341,-3.90286 4.96756,-7.73649 7.6315,-11.5022 2.66394,-3.76572 5.44738,-7.46426 8.35229,-11.09496 4.23137,-5.28855 8.71375,-10.43764 13.41054,-15.42337 4.69679,-4.98573 9.60911,-9.80738 14.70076,-14.44308 5.09167,-4.6357 10.36239,-9.08557 15.77838,-13.32403 5.41598,-4.23847 10.97717,-8.26682 16.64693,-12.06083 5.66975,-3.794 11.44809,-7.35293 17.30106,-10.65527 5.85297,-3.30233 11.78053,-6.34748 17.74615,-9.11094 5.96564,-2.76347 11.96908,-5.24509 17.97682,-7.42246 6.00774,-2.17738 12.01915,-4.05117 17.99844,-5.59523 2.97837,-0.76912 6.48543,-1.51373 10.35793,-2.22188 3.87251,-0.70815 8.11082,-1.37922 12.55098,-2.00022 8.88032,-1.24202 18.5696,-2.28364 27.7617,-3.02017 4.59606,-0.36826 9.06767,-0.6605 13.25196,-0.86316 4.18429,-0.20265 8.08142,-0.31528 11.52743,-0.32616 z m 102.3936,35.50853 13.07536,7.87297 c 29.17853,17.56931 49.69945,46.91515 77.2358,110.44497 l 16.48114,38.02052 -0.79648,19.61305 c -0.93932,23.1394 -5.31393,33.68616 -33.77681,81.43987 -25.43422,42.67233 -41.64238,75.84313 -55.68379,113.96248 -12.58284,34.15961 -22.48538,51.2941 -29.64661,51.2941 -2.30306,0 -12.53239,-8.55944 -22.73051,-19.02017 -87.97532,-90.24066 -99.56251,-244.60622 -25.85158,-344.38503 18.90222,-25.58699 41.64894,-49.50411 51.75002,-54.41158 z M 632.293,684.05734 c 0.13978,-0.16123 1.643,4.42596 3.94999,11.94731 2.30699,7.52135 5.41892,17.97636 8.77937,29.54929 3.16726,10.90758 6.23169,21.15447 9.22448,30.80891 2.99278,9.65443 5.91262,18.7169 8.78838,27.25534 2.87576,8.53844 5.70911,16.55305 8.52529,24.11265 2.81619,7.55959 5.61574,14.6629 8.42979,21.3808 2.81406,6.71789 5.6415,13.05008 8.51087,19.06343 2.86938,6.01333 5.78102,11.70917 8.76316,17.1551 2.98215,5.44592 6.03426,10.64197 9.18663,15.65763 3.15236,5.01566 6.40486,9.85028 9.78489,14.57282 4.09839,5.72622 7.29547,9.87132 9.14338,12.97805 0.92396,1.55337 1.51109,2.8467 1.7047,3.9482 0.0968,0.55075 0.0941,1.05413 -0.0126,1.51729 -0.10674,0.46315 -0.31725,0.88694 -0.64151,1.27943 -0.32428,0.39247 -0.7615,0.75328 -1.31727,1.09201 -0.55578,0.33872 -1.23142,0.65498 -2.03266,0.95686 -1.60251,0.60377 -3.70902,1.1504 -6.3773,1.7083 -5.33658,1.11581 -12.91763,2.2759 -23.18823,4.02028 -4.44974,0.75576 -8.91107,1.42076 -13.34925,1.99302 -4.4382,0.57226 -8.85346,1.05141 -13.2051,1.43981 -4.35168,0.38838 -8.64005,0.68602 -12.8303,0.89018 -4.19016,0.20416 -8.2819,0.31562 -12.23561,0.33518 -3.95372,0.0196 -7.76982,-0.0544 -11.41211,-0.21985 -3.64228,-0.16543 -7.10926,-0.42228 -10.36514,-0.77306 -3.25588,-0.35078 -6.30022,-0.79518 -9.09473,-1.33168 -2.7945,-0.5365 -5.34089,-1.16593 -7.59906,-1.8885 -3.1596,-1.01104 -6.12119,-2.14004 -8.88569,-3.38778 -2.76451,-1.24773 -5.33086,-2.61412 -7.69817,-4.09595 -2.36732,-1.48184 -4.53542,-3.08 -6.50344,-4.79335 -1.96802,-1.71333 -3.73666,-3.54125 -5.3033,-5.48349 -1.56665,-1.94227 -2.931,-3.99792 -4.09416,-6.16647 -1.16318,-2.16856 -2.12381,-4.44996 -2.88141,-6.84222 -0.7576,-2.39227 -1.31333,-4.89558 -1.66325,-7.50897 -0.34993,-2.61337 -0.49412,-5.33658 -0.43429,-8.16848 0.043,-2.0328 0.22282,-4.40906 0.52799,-7.06748 0.30518,-2.65841 0.73556,-5.59935 1.27402,-8.76315 1.07692,-6.32761 2.59113,-13.54574 4.42752,-21.17357 1.83641,-7.62784 3.99496,-15.66526 6.35929,-23.63151 2.36432,-7.96627 4.9348,-15.86156 7.59545,-23.20444 1.64098,-4.52869 5.21114,-13.46166 9.67858,-24.35232 4.46745,-10.89065 9.83066,-23.7386 15.05576,-36.09779 5.22511,-12.35917 10.31288,-24.22985 14.22684,-33.16412 3.91397,-8.93427 6.65418,-14.93179 7.18821,-15.54771 z"
       id="path4890"
       inkscape:connector-curvature="0" />
    <path
       style="fill:#fffff7;fill-opacity:1;stroke-width:1.15987206"
       d="m 2862.6944,1396.5636 c -52.5507,-4.338 -103.5102,-16.0822 -156.0253,-35.9574 -177.6049,-67.2178 -314.9438,-225.3801 -353.1039,-406.64239 -4.8416,-22.99759 -11.3335,-69.59414 -12.9087,-92.65311 -4.3712,-63.98899 9.1292,-127.70275 36.9277,-174.27708 17.0835,-28.62204 44.4336,-58.2597 74.6669,-80.91185 33.8877,-25.39018 74.4076,-42.67639 114.1423,-48.6943 14.5681,-2.20637 60.8492,-4.68389 67.8215,-3.63062 2.8914,0.4368 6.9365,1.81543 8.989,3.06362 3.0058,1.82795 3.7318,3.02384 3.7318,6.14721 0,5.55988 -5.6136,13.35263 -15.3376,21.29149 -15.2914,12.48432 -37.5301,43.25663 -52.8197,73.08827 -20.8364,40.6539 -32.1811,78.43548 -38.7684,129.11151 -1.869,14.3777 -1.8806,68.96657 -0.018,84.09072 6.1809,50.18559 18.1919,90.4108 39.4818,132.22543 10.2995,20.2289 25.8336,44.0348 39.8527,61.0742 11.3401,13.783 37.5383,39.9868 51.9663,51.9773 52.4384,43.579 118.7811,71.907 191.9588,81.9655 23.3969,3.2161 75.3561,2.9129 98.0092,-0.5717 38.2599,-5.8853 76.5185,-17.3685 103.6156,-31.0995 l 5.6987,-2.8877 9.4258,2.9181 c 23.0725,7.1429 51.4316,12.9727 80.7579,16.6013 23.9109,2.9587 93.8148,2.9897 118.887,0.054 19.8033,-2.3197 54.5553,-7.9187 69.7223,-11.2331 5.629,-1.2302 10.3981,-2.0731 10.5977,-1.8735 0.1997,0.1997 -3.658,5.5228 -8.5727,11.8291 -65.7791,84.4061 -157.4272,149.044 -262.0811,184.8414 -42.6577,14.5914 -82.074,23.4114 -127.6561,28.5652 -18.7401,2.119 -80.5254,3.1111 -98.9617,1.5892 z m 8.164,-269.1191 c -31.5489,-3.9637 -51.8079,-17.3736 -59.1433,-39.1485 -2.8557,-8.477 -2.9986,-15.5818 -0.6112,-30.387 6.088,-37.754 17.8948,-74.61867 40.8624,-127.58592 20.2108,-46.60987 30.6719,-70.21391 31.5086,-71.09497 0.4819,-0.5075 6.4974,18.80437 13.3676,42.91527 6.8703,24.11088 15.6139,53.49391 19.4303,65.2956 19.5371,60.41682 41.9328,104.53522 70.3594,138.60462 3.1936,3.8276 5.4464,7.3212 5.0061,7.7635 -1.2637,1.2692 -45.6796,9.8537 -61.6939,11.9238 -17.8528,2.3078 -47.5104,3.1679 -59.086,1.7136 z m 321.2488,-44.2475 c -7.3188,-0.5833 -13.5257,-1.2796 -13.7931,-1.5469 -0.2674,-0.2675 4.213,-5.4017 9.9565,-11.4095 39.988,-41.8281 69.9195,-101.71766 82.6809,-165.43471 5.4693,-27.30799 7.2553,-46.15317 7.2553,-76.55156 0,-30.39838 -1.786,-49.24356 -7.2553,-76.55154 -13.0944,-65.38013 -41.3797,-122.30749 -84.5477,-170.16231 -53.7446,-59.57965 -124.0945,-99.51439 -203.6852,-115.62367 -28.7081,-5.81057 -41.8269,-6.99512 -77.1315,-6.96454 -35.6573,0.0308 -50.0317,1.49805 -80.0311,8.16864 -14.0098,3.11516 -46.0781,13.34558 -56.6872,18.08429 l -6.2327,2.78394 -12.7461,-7.27302 c -21.604,-12.3273 -50.799,-23.6183 -77.4371,-29.94828 -63.7042,-15.13794 -134.4306,-8.782 -194.0714,17.4405 -5.065,2.22698 -9.3528,3.8997 -9.5285,3.7172 -0.8959,-0.93102 27.0806,-31.64104 43.7013,-47.9712 91.1278,-89.53528 204.8274,-143.98966 334.4593,-160.18333 18.9805,-2.37106 79.0766,-2.58883 107.386,-0.38915 111.28,8.64663 219.7216,52.61957 310.162,125.77028 108.1163,87.4476 179.5444,206.48142 201.3114,335.48221 10.2865,60.96147 12.3804,102.52465 7.4027,146.92956 -6.4825,57.82771 -26.1866,104.32184 -58.5045,138.04869 -51.9593,54.2242 -132.3322,80.7853 -222.664,73.5844 z m -117.335,-20.4356 c -36.1441,-18.1578 -57.5509,-47.015 -88.3508,-119.09979 -5.4514,-12.7586 -12.0897,-27.89493 -14.7517,-33.6363 -11.5154,-24.83567 -22.8861,-58.41007 -44.1919,-130.4856 -8.9573,-30.30165 -19.6736,-65.2718 -23.8139,-77.71143 -20.8064,-62.51229 -44.172,-109.94338 -71.8329,-145.81743 l -7.3501,-9.53247 8.1059,-2.41401 c 24.8032,-7.38672 47.2643,-10.27008 81.6994,-10.48785 28.1622,-0.1781 40.2903,1.17687 63.4408,7.0877 82.3794,21.03333 156.2268,79.81124 195.8506,155.88491 28.9195,55.52238 37.8584,116.73692 26.5155,181.57971 -5.3347,30.49643 -13.2566,54.7468 -27.091,82.93085 -15.0212,30.60167 -32.5724,55.50601 -55.0794,78.15521 -11.3663,11.438 -30.9583,27.973 -33.1447,27.973 -0.6569,0 -5.1595,-1.9919 -10.0058,-4.4265 z m -366.1171,-16.3197 c -93.8676,-82.87341 -122.6525,-232.89169 -66.9021,-348.67297 11.3296,-23.52898 20.7279,-37.43541 44.6807,-66.11271 20.7875,-24.88764 30.6374,-33.32308 43.3932,-37.16202 5.132,-1.5445 5.2046,-1.52592 15.1751,3.88658 19.4443,10.55535 37.0695,27.277 50.8946,48.28546 13.5888,20.6495 22.3246,38.39956 43.7027,88.79853 l 12.0538,28.41686 -0.012,16.23822 c -0.012,15.76445 -0.1397,16.61044 -4.4086,28.9968 -5.3658,15.56956 -12.883,29.84244 -32.0709,60.89329 -16.5171,26.72881 -22.4936,37.49444 -27.3656,49.29456 -1.8437,4.4655 -5.6902,11.76604 -8.5478,16.2234 -6.7854,10.58411 -13.1172,25.13939 -22.7119,52.20905 -4.2961,12.12066 -9.3577,25.95215 -11.2479,30.73665 -7.8456,19.8582 -16.1671,31.8494 -23.9969,34.5789 -3.5713,1.2449 -3.9837,1.0292 -12.637,-6.6106 z"
       id="path3825"
       inkscape:connector-curvature="0" />
  </g>
</svg>
