<?xml version="1.0" encoding="UTF-8" standalone="no"?>
<!-- Created with Inkscape (http://www.inkscape.org/) -->

<svg
   xmlns:dc="http://purl.org/dc/elements/1.1/"
   xmlns:cc="http://creativecommons.org/ns#"
   xmlns:rdf="http://www.w3.org/1999/02/22-rdf-syntax-ns#"
   xmlns:svg="http://www.w3.org/2000/svg"
   xmlns="http://www.w3.org/2000/svg"
   xmlns:sodipodi="http://sodipodi.sourceforge.net/DTD/sodipodi-0.dtd"
   xmlns:inkscape="http://www.inkscape.org/namespaces/inkscape"
   version="1.1"
   id="svg3813"
   width="1308"
   height="1309.3333"
   viewBox="0 0 1308 1309.3333"
   sodipodi:docname="clojure-logo.svg"
   inkscape:version="0.92.4 (unknown)">
  <metadata
     id="metadata3819">
    <rdf:RDF>
      <cc:Work
         rdf:about="">
        <dc:format>image/svg+xml</dc:format>
        <dc:type
           rdf:resource="http://purl.org/dc/dcmitype/StillImage" />
        <dc:title></dc:title>
      </cc:Work>
    </rdf:RDF>
  </metadata>
  <defs
     id="defs3817" />
  <sodipodi:namedview
     pagecolor="#ffffff"
     bordercolor="#666666"
     borderopacity="1"
     objecttolerance="10"
     gridtolerance="10"
     guidetolerance="10"
     inkscape:pageopacity="0"
     inkscape:pageshadow="2"
     inkscape:window-width="1299"
     inkscape:window-height="704"
     id="namedview3815"
     showgrid="false"
     inkscape:zoom="0.40020369"
     inkscape:cx="492.27909"
     inkscape:cy="544.77693"
     inkscape:window-x="67"
     inkscape:window-y="27"
     inkscape:window-maximized="1"
     inkscape:current-layer="g3823" />
  <g
     id="g3823"
     transform="translate(7.8259184e-6)">
    <path
       style="fill:#000000;fill-opacity:1"
       d="m 653.99998,57.215421 a 597.45038,597.45038 0 0 0 -42.26172,1.49805 597.45038,597.45038 0 0 0 -59.28516,7.19531 597.45038,597.45038 0 0 0 -58.26953,13.08008 597.45038,597.45038 0 0 0 -56.67382,18.83007 597.45038,597.45038 0 0 0 -54.51172,24.394529 597.45038,597.45038 0 0 0 -51.80078,29.71681 597.45038,597.45038 0 0 0 -48.57813,34.73828 597.45038,597.45038 0 0 0 -44.86719,39.41406 597.45038,597.45038 0 0 0 -40.70703,43.69532 597.45038,597.45038 0 0 0 -36.14258,47.54297 597.45038,597.45038 0 0 0 -31.21485,50.91211 597.45038,597.45038 0 0 0 -25.97656,53.77539 597.45038,597.45038 0 0 0 -20.476564,56.09961 597.45038,597.45038 0 0 0 -14.775391,57.86328 597.45038,597.45038 0 0 0 -8.923828,59.04882 597.45038,597.45038 0 0 0 -2.986328,59.64649 597.45038,597.45038 0 0 0 1.498047,42.26172 597.45038,597.45038 0 0 0 7.195313,59.28515 597.45038,597.45038 0 0 0 13.080078,58.26954 597.45038,597.45038 0 0 0 18.830078,56.67382 597.45038,597.45038 0 0 0 24.396485,54.51172 597.45038,597.45038 0 0 0 29.71485,51.80278 597.45038,597.45038 0 0 0 34.73828,48.57617 597.45038,597.45038 0 0 0 39.41407,44.8672 597.45038,597.45038 0 0 0 43.69531,40.707 597.45038,597.45038 0 0 0 47.54297,36.1426 597.45038,597.45038 0 0 0 50.91211,31.2148 597.45038,597.45038 0 0 0 53.77539,25.9766 597.45038,597.45038 0 0 0 56.09961,20.4765 597.45038,597.45038 0 0 0 57.86328,14.7754 597.45038,597.45038 0 0 0 59.05078,8.9239 597.45038,597.45038 0 0 0 59.64453,2.9863 597.45038,597.45038 0 0 0 42.26172,-1.4981 597.45038,597.45038 0 0 0 59.28516,-7.1953 597.45038,597.45038 0 0 0 58.27148,-13.0801 597.45038,597.45038 0 0 0 56.67187,-18.83 597.45038,597.45038 0 0 0 54.51172,-24.3946 597.45038,597.45038 0 0 0 51.80274,-29.7168 597.45038,597.45038 0 0 0 48.57623,-34.7382 597.45038,597.45038 0 0 0 44.8671,-39.4141 597.45038,597.45038 0 0 0 40.7071,-43.6953 597.45038,597.45038 0 0 0 36.1426,-47.54297 597.45038,597.45038 0 0 0 31.2148,-50.91214 597.45038,597.45038 0 0 0 25.9766,-53.77539 597.45038,597.45038 0 0 0 20.4765,-56.09961 597.45038,597.45038 0 0 0 14.7754,-57.86328 597.45038,597.45038 0 0 0 8.9238,-59.04883 597.45038,597.45038 0 0 0 2.9864,-59.64648 597.45038,597.45038 0 0 0 -1.4981,-42.26172 597.45038,597.45038 0 0 0 -7.1953,-59.28516 597.45038,597.45038 0 0 0 -13.0801,-58.26953 597.45038,597.45038 0 0 0 -18.83,-56.67382 597.45038,597.45038 0 0 0 -24.3946,-54.51172 597.45038,597.45038 0 0 0 -29.7168,-51.80274 597.45038,597.45038 0 0 0 -34.7363,-48.57617 597.45038,597.45038 0 0 0 -39.416,-44.86719 597.45038,597.45038 0 0 0 -43.6953,-40.70703 597.45038,597.45038 0 0 0 -47.54302,-36.14258 597.45038,597.45038 0 0 0 -50.91211,-31.21485 597.45038,597.45038 0 0 0 -53.77539,-25.97656 597.45038,597.45038 0 0 0 -56.09961,-20.476559 597.45038,597.45038 0 0 0 -57.86328,-14.77539 597.45038,597.45038 0 0 0 -59.04883,-8.92383 597.45038,597.45038 0 0 0 -59.64648,-2.98633 z m -10.56055,31.12109 c 3.78135,0.001 7.60314,0.0201 11.43555,0.0566 15.32963,0.14605 30.82029,0.57261 44.50391,1.26172 6.84181,0.34456 13.23258,0.75524 18.92382,1.22852 5.69125,0.47328 10.68444,1.01011 14.73243,1.60742 10.05794,1.48413 20.04875,3.23303 29.96679,5.24219 9.91805,2.00915 19.7628,4.277719 29.52344,6.800779 9.76064,2.52304 19.43772,5.30037 29.02344,8.32617 9.58572,3.02579 19.07937,6.30095 28.47265,9.81836 9.39329,3.51741 18.68581,7.2775 27.86914,11.27539 9.18336,3.99788 18.25702,8.23395 27.2129,12.70117 8.95587,4.46723 17.79493,9.16637 26.50586,14.0918 8.71089,4.92543 17.29377,10.07672 25.74218,15.44922 8.44841,5.37249 16.76128,10.96501 24.92969,16.77343 8.16841,5.80842 16.19356,11.8332 24.06447,18.06641 7.8709,6.23321 15.5888,12.6754 23.1445,19.32227 7.5559,6.64686 14.9486,13.49749 22.1719,20.54687 7.2233,7.04938 14.2771,14.29752 21.1504,21.73828 6.8733,7.44076 13.5666,15.07353 20.0723,22.89453 6.5057,7.82101 12.8227,15.82943 18.9433,24.01953 6.1206,8.19011 12.0457,16.56326 17.7637,25.11133 4.3698,6.53254 8.6514,13.31076 12.8242,20.28516 4.1728,6.9744 8.2353,14.14457 12.168,21.46094 3.9327,7.31636 7.7356,14.77947 11.3847,22.33789 3.6495,7.55841 7.1456,15.21155 10.4688,22.91211 3.3232,7.70055 6.474,15.44862 9.4277,23.1914 2.9538,7.74279 5.7108,15.48091 8.252,23.16602 2.5412,7.6851 4.8657,15.31623 6.9512,22.84375 2.0855,7.52751 3.9328,14.95069 5.5195,22.2207 1.4278,6.54192 2.7494,13.05226 3.9648,19.52149 1.2155,6.46922 2.3244,12.89796 3.3282,19.28125 1.0037,6.38328 1.9026,12.71979 2.6953,19.0039 0.7926,6.28411 1.4784,12.51581 2.0605,18.6875 0.5822,6.17169 1.0594,12.28405 1.4317,18.33008 0.3722,6.04603 0.6398,12.02647 0.8027,17.93359 0.1629,5.90713 0.2216,11.74112 0.1758,17.4961 -0.046,5.75497 -0.1954,11.42994 -0.4492,17.01953 -0.2539,5.58958 -0.6129,11.09294 -1.0743,16.50391 -0.4614,5.41093 -1.025,10.73014 -1.6933,15.94921 -0.6683,5.21908 -1.4399,10.33761 -2.3145,15.35157 -0.8746,5.01396 -1.8533,9.92315 -2.9336,14.71875 -1.0803,4.7956 -2.2634,9.47897 -3.5488,14.04297 -1.2854,4.56398 -2.6722,9.00897 -4.1621,13.32812 -1.4899,4.31915 -3.0816,8.5112 -4.7754,12.57227 -1.6938,4.06106 -3.4896,7.99151 -5.3867,11.78125 -1.8461,3.68795 -3.8061,7.30843 -5.877,10.86132 -2.0708,3.55289 -4.2523,7.03637 -6.541,10.44922 -2.2887,3.41285 -4.684,6.7556 -7.1836,10.02344 -2.4995,3.26784 -5.1032,6.46222 -7.8066,9.58008 -2.7035,3.11785 -5.5078,6.15819 -8.4082,9.12109 -2.9004,2.9629 -5.8979,5.84742 -8.9883,8.65039 -3.0904,2.80298 -6.2734,5.52599 -9.5469,8.16406 -3.2734,2.63808 -6.6364,5.19196 -10.0859,7.66016 -3.4496,2.4682 -6.9848,4.84922 -10.6035,7.14258 -3.6187,2.29336 -7.3207,4.49779 -11.1016,6.61133 -3.7809,2.11354 -7.6419,4.13765 -11.5781,6.0664 -3.9362,1.92876 -7.9487,3.76296 -12.0332,5.50196 -4.0845,1.73899 -8.241,3.38152 -12.4668,4.92578 -4.2259,1.54426 -8.5206,2.98943 -12.8809,4.33398 -4.3603,1.34456 -8.7857,2.58864 -13.2734,3.72852 -4.4878,1.13988 -9.0382,2.17719 -13.6465,3.10742 -6.2979,1.27131 -13.8261,2.40972 -21.9141,3.37305 -8.088,0.96333 -16.73459,1.75029 -25.26756,2.3164 -8.53297,0.56611 -16.95315,0.91254 -24.58594,0.99219 -7.63278,0.0797 -14.47972,-0.10745 -19.86719,-0.60351 -3.26396,-0.30054 -6.23156,-0.72831 -8.38281,-1.17774 -1.07562,-0.22472 -1.94611,-0.45452 -2.54883,-0.67578 -0.60272,-0.22126 -0.9375,-0.43432 -0.9375,-0.625 0,-0.38137 1.4545,-2.31336 3.79688,-5.11914 2.34238,-2.80578 5.573,-6.48566 9.12695,-10.36133 3.24782,-3.54181 6.49544,-7.35997 9.71875,-11.41211 3.22332,-4.05214 6.42318,-8.33864 9.57422,-12.8164 3.15104,-4.47778 6.25418,-9.14612 9.28516,-13.96485 3.03098,-4.81872 5.98841,-9.78829 8.85156,-14.86328 2.86315,-5.07499 5.63176,-10.25539 8.2793,-15.50195 2.64753,-5.24656 5.17445,-10.55914 7.55859,-15.89258 2.38414,-5.33345 4.6243,-10.6878 6.69722,-16.02344 2.073,-5.33564 3.9794,-10.65115 5.6934,-15.9043 1.7508,-5.36592 3.3356,-10.42444 4.7676,-15.27148 1.432,-4.84704 2.7118,-9.48386 3.8535,-14.00977 1.1417,-4.5259 2.1454,-8.94123 3.0254,-13.34375 0.88,-4.40251 1.6364,-8.79266 2.2832,-13.26953 0.6468,-4.47687 1.1827,-9.04009 1.625,-13.78906 0.4423,-4.74897 0.7904,-9.68354 1.0567,-14.90234 0.5325,-10.43762 0.7421,-22.01219 0.7421,-35.51563 0,-7.06072 -0.057,-13.59802 -0.1875,-19.72461 -0.1308,-6.12659 -0.3376,-11.84243 -0.6347,-17.25976 -0.2972,-5.41734 -0.6848,-10.5358 -1.1836,-15.46875 -0.4989,-4.93296 -1.1078,-9.68007 -1.8438,-14.35352 -0.7359,-4.67345 -1.5989,-9.27328 -2.6074,-13.91211 -1.0085,-4.63882 -2.1621,-9.31741 -3.4785,-14.14648 -1.3164,-4.82908 -2.7954,-9.80853 -4.4551,-15.05274 -1.6597,-5.2442 -3.5006,-10.75251 -5.5391,-16.63672 -2.2707,-6.55473 -4.7344,-13.02539 -7.38278,-19.40625 -2.64838,-6.38085 -5.48121,-12.67295 -8.49414,-18.86718 -3.01293,-6.19424 -6.2059,-12.29029 -9.57031,-18.28516 -3.36442,-5.99486 -6.90068,-11.88717 -10.60352,-17.66992 -3.70284,-5.78275 -7.5714,-11.45578 -11.59961,-17.01367 -4.0282,-5.5579 -8.21613,-11.00198 -12.55664,-16.32227 -4.34051,-5.32029 -8.83485,-10.51795 -13.47461,-15.58789 -4.63975,-5.06994 -9.42562,-10.01151 -14.35156,-14.81836 -4.92594,-4.80685 -9.99039,-9.47875 -15.18945,-14.00976 -5.19907,-4.53102 -10.53111,-8.92164 -15.99024,-13.16407 -5.45913,-4.24243 -11.04582,-8.33624 -16.75195,-12.27734 -5.70613,-3.9411 -11.53259,-7.72844 -17.47266,-11.35547 -5.94007,-3.62703 -11.99334,-7.09432 -18.15429,-10.39453 -6.16096,-3.30021 -12.43006,-6.43388 -18.79883,-9.39453 -6.36877,-2.96065 -12.83686,-5.74908 -19.40039,-8.35742 -6.56354,-2.60835 -13.22157,-5.03601 -19.9668,-7.2793 -5.05083,-1.67978 -10.14497,-3.25025 -15.27539,-4.71094 -5.13042,-1.46069 -10.29685,-2.81291 -15.49414,-4.05469 -5.19729,-1.24177 -10.42633,-2.37347 -15.67773,-3.39648 -5.25145,-1.02301 -10.52549,-1.93582 -15.81836,-2.74023 -5.29288,-0.80442 -10.60419,-1.49996 -15.92579,-2.08594 -5.32159,-0.58599 -10.65459,-1.06393 -15.99218,-1.43164 -5.33759,-0.36772 -10.67866,-0.62578 -16.01953,-0.77539 -5.34088,-0.14961 -10.68029,-0.18943 -16.01172,-0.1211 -5.33144,0.0683 -10.65556,0.24514 -15.96485,0.53125 -5.30928,0.28612 -10.60449,0.68182 -15.8789,1.18555 -5.27442,0.50373 -10.52904,1.11475 -15.75586,1.83594 -5.22683,0.72118 -10.42528,1.55176 -15.5918,2.49023 -5.16652,0.93848 -10.30103,1.98502 -15.39453,3.14063 -5.0935,1.1556 -10.14654,2.4204 -15.1543,3.79297 -5.00776,1.37256 -9.9696,2.85398 -14.8789,4.44335 -4.90931,1.58939 -9.76633,3.28579 -14.56446,5.0918 l -16.35547,6.15625 -13.52734,-7.32617 c -4.67338,-2.53121 -9.40667,-4.93444 -14.19336,-7.20898 -4.78669,-2.27455 -9.62741,-4.42064 -14.51562,-6.4375 -4.88821,-2.01687 -9.82281,-3.90394 -14.80079,-5.66211 -4.97792,-1.75818 -9.99884,-3.38629 -15.05468,-4.88477 -5.05585,-1.49848 -10.14757,-2.8677 -15.26953,-4.10547 -5.12197,-1.23777 -10.27294,-2.34426 -15.44922,-3.32031 -5.17629,-0.97605 -10.3769,-1.82183 -15.59571,-2.53516 -5.2188,-0.71332 -10.4575,-1.29455 -15.70703,-1.74414 -5.24953,-0.44958 -10.51084,-0.76633 -15.77929,-0.95117 -5.26846,-0.18483 -10.54278,-0.23718 -15.81836,-0.15625 -5.27558,0.0809 -10.55136,0.29488 -15.82227,0.64258 -5.2709,0.3477 -10.53658,0.82788 -15.79101,1.44336 -5.25444,0.61548 -10.49845,1.36573 -15.72461,2.25 -5.22616,0.88427 -10.43501,1.90256 -15.6211,3.05664 -5.18609,1.15407 -10.35016,2.44425 -15.48437,3.86914 -5.13422,1.42489 -10.23805,2.98493 -15.3086,4.68164 -7.25972,2.42926 -13.98016,4.51674 -18.95898,5.92383 -2.48941,0.70354 -4.5432,1.23795 -6.01172,1.55859 -1.46852,0.32064 -2.35282,0.42843 -2.5,0.28125 -0.14718,-0.14718 0.65017,-1.22613 2.21289,-3.04883 1.56273,-1.82269 3.89231,-4.39023 6.8125,-7.51172 5.84038,-6.24296 14.04165,-14.70508 23.19727,-23.88281 5.67195,-5.68565 11.40565,-11.22712 17.20117,-16.62304 5.79552,-5.39593 11.65388,-10.64805 17.57617,-15.75586 5.92229,-5.10782 11.90868,-10.07125 17.96094,-14.89258 6.05226,-4.82133 12.17004,-9.4987 18.35547,-14.03516 6.18543,-4.53646 12.43796,-8.93234 18.75976,-13.18555 6.32181,-4.2532 12.71246,-8.36436 19.17383,-12.33593 6.46137,-3.97158 12.99351,-7.80258 19.59766,-11.49414 6.60414,-3.69156 13.28113,-7.24309 20.03125,-10.65625 6.75011,-3.41317 13.57336,-6.68784 20.47265,-9.82422 6.89929,-3.13639 13.87412,-6.13487 20.92578,-8.9961 7.05167,-2.86122 14.18144,-5.58614 21.38868,-8.17382 7.20723,-2.58768 14.49141,-5.03776 21.85742,-7.35352 7.36601,-2.31576 14.8138,-4.49752 22.3418,-6.54297 7.52798,-2.04544 15.13691,-3.95565 22.83007,-5.73242 7.69316,-1.776759 15.4705,-3.419989 23.33203,-4.929689 7.86154,-1.50969 15.80674,-2.88661 23.83985,-4.13086 3.39835,-0.52637 7.82331,-0.97231 13.02734,-1.34179 5.20403,-0.36948 11.18808,-0.66162 17.70508,-0.87891 9.77549,-0.32593 20.75165,-0.48366 32.0957,-0.48047 z m 17.8125,270.691419 c 4.83206,-0.004 9.64514,0.12015 14.4375,0.37304 4.79237,0.2529 9.56325,0.63438 14.3125,1.14258 4.74926,0.50821 9.47501,1.14408 14.17774,1.90625 4.70272,0.76218 9.38237,1.65122 14.03515,2.66602 4.65279,1.0148 9.27948,2.15384 13.87891,3.41992 4.59943,1.26608 9.17218,2.65781 13.71484,4.17383 4.54267,1.51602 9.05463,3.15726 13.53711,4.92187 4.48249,1.76462 8.93463,3.6522 13.35352,5.66407 4.41888,2.01186 8.80437,4.14848 13.15625,6.40625 4.35187,2.25776 8.66972,4.63829 12.95117,7.14062 4.28145,2.50233 8.52677,5.12555 12.73438,7.87109 4.2076,2.74555 8.37745,5.6122 12.50781,8.59961 4.13035,2.98742 8.2218,6.09628 12.27148,9.32422 4.04969,3.22795 8.05784,6.57584 12.02344,10.04297 3.9656,3.46713 7.88947,7.05284 11.76758,10.75781 3.31484,3.16686 6.53859,6.38375 9.67383,9.64649 3.13523,3.26273 6.18151,6.57166 9.13672,9.92578 2.95519,3.35412 5.82094,6.75234 8.5957,10.19336 2.77476,3.44102 5.45885,6.9258 8.05273,10.44922 2.59389,3.52342 5.09718,7.08616 7.50977,10.6875 2.41259,3.60133 4.73396,7.24126 6.96484,10.91601 2.23088,3.67476 4.37118,7.38327 6.41992,11.12696 2.04875,3.74368 4.00491,7.52195 5.8711,11.33007 1.86618,3.80813 3.64101,7.64756 5.32422,11.51563 1.6832,3.86807 3.27558,7.76398 4.77539,11.6875 1.4998,3.92352 2.90862,7.87317 4.22461,11.84766 1.31598,3.97448 2.54013,7.97513 3.67187,11.99609 1.13174,4.02096 2.17012,8.06401 3.11719,12.12695 0.94707,4.06294 1.80247,8.14567 2.56445,12.2461 0.76199,4.10043 1.43134,8.21813 2.00781,12.35156 0.57648,4.13343 1.05867,8.28143 1.44922,12.44336 0.39055,4.16193 0.68838,8.33749 0.89258,12.52344 0.2042,4.18594 0.31656,8.38242 0.33399,12.58789 0.0174,4.20547 -0.0588,8.42012 -0.22852,12.64062 -0.16977,4.2205 -0.43363,8.44669 -0.79102,12.67774 -0.35738,4.23104 -0.80809,8.46603 -1.35351,12.70312 -0.54542,4.23709 -1.18604,8.4762 -1.91992,12.71484 -0.73388,4.23865 -1.56162,8.47717 -2.48438,12.7129 -0.92276,4.23571 -1.94067,8.46898 -3.05273,12.69726 -1.11206,4.22829 -2.31931,8.4516 -3.6211,12.66797 -1.30178,4.21637 -2.69752,8.42504 -4.18945,12.625 -1.49193,4.19996 -3.07922,8.39125 -4.76172,12.57031 -1.68249,4.17906 -3.4605,8.34634 -5.33398,12.5 -1.87348,4.15367 -3.84331,8.29419 -5.90821,12.41797 -2.06489,4.12378 -4.2257,8.23091 -6.48242,12.32031 -2.25672,4.08941 -4.60767,8.1604 -7.05664,12.21094 -2.44897,4.05054 -4.99507,8.08071 -7.63672,12.08789 -1.15824,1.75698 -2.95464,4.11051 -5.21875,6.88281 -2.2641,2.7723 -4.99615,5.96396 -8.02734,9.39844 -6.06238,6.86897 -13.31992,14.70852 -20.41797,22.10742 -7.09805,7.3989 -14.03547,14.35719 -19.45898,19.46094 -2.71176,2.55188 -5.04512,4.63951 -6.83008,6.08789 -1.78496,1.44839 -3.02163,2.25629 -3.54102,2.24805 -0.52177,-0.009 -2.26132,-0.73842 -4.64258,-1.9082 -2.38125,-1.16981 -5.40493,-2.77817 -8.49609,-4.54493 -4.47784,-2.55932 -8.68704,-5.22239 -12.69726,-8.09179 -4.01023,-2.86941 -7.82169,-5.94536 -11.50782,-9.33399 -3.68612,-3.38862 -7.24641,-7.09003 -10.75195,-11.20703 -3.50554,-4.11699 -6.95535,-8.65057 -10.42383,-13.70508 -3.46847,-5.0545 -6.95437,-10.62891 -10.5293,-16.83008 -3.57492,-6.20116 -7.23956,-13.02897 -11.06445,-20.58593 -3.82489,-7.55696 -7.81092,-15.84294 -12.0293,-24.96485 -4.21837,-9.1219 -8.66844,-19.07862 -13.42382,-29.97461 -4.72351,-10.82295 -8.77358,-20.39707 -12.58985,-29.99609 -3.81627,-9.59902 -7.4,-19.2237 -11.19531,-30.15039 -3.79531,-10.9267 -7.80226,-23.15497 -12.46289,-37.96094 -4.66063,-14.80596 -9.97449,-32.18894 -16.38672,-53.42578 -4.20325,-13.92088 -8.21614,-26.90895 -12.08203,-39.06641 -3.86589,-12.15745 -7.58554,-23.48505 -11.19922,-34.08398 -3.61368,-10.59893 -7.12173,-20.46955 -10.56836,-29.71484 -3.44662,-9.2453 -6.83059,-17.86437 -10.19531,-25.96094 -3.36472,-8.09657 -6.71017,-15.67148 -10.07813,-22.82422 -3.36796,-7.15274 -6.75848,-13.88502 -10.21484,-20.29883 -3.45636,-6.41381 -6.97948,-12.50889 -10.60937,-18.38867 -3.62991,-5.87978 -7.36727,-11.54309 -11.25586,-17.09375 -2.85834,-4.08004 -5.08664,-7.3319 -6.76368,-9.93555 -1.67703,-2.60365 -2.80186,-4.55908 -3.45703,-6.04882 -0.32758,-0.74492 -0.53861,-1.37379 -0.64062,-1.90821 -0.10202,-0.53442 -0.0958,-0.97449 0.008,-1.34375 0.10363,-0.36926 0.30441,-0.6666 0.59375,-0.91601 0.28934,-0.24942 0.66793,-0.45206 1.12305,-0.62696 2.85931,-1.09879 6.89037,-2.2129 11.73828,-3.28906 4.84791,-1.07615 10.51115,-2.11433 16.63867,-3.05859 6.12752,-0.94427 12.71785,-1.79493 19.41602,-2.49805 6.69816,-0.70312 13.50463,-1.25861 20.06445,-1.61133 4.86834,-0.26177 9.72067,-0.39272 14.55273,-0.39648 z M 370.5781,379.23301 c 3.73506,-0.0118 6.98148,0.0861 9.5625,0.31054 2.58104,0.22442 4.49713,0.57548 5.57032,1.06446 1.26605,0.57685 2.33519,1.19283 3.20312,1.86523 0.86794,0.6724 1.53301,1.4 1.99219,2.19922 0.45918,0.79922 0.71218,1.66963 0.75195,2.62695 0.0398,0.95732 -0.13316,2.00175 -0.52343,3.14844 -0.39028,1.14669 -0.99717,2.39634 -1.82813,3.76367 -0.83096,1.36733 -1.88567,2.85341 -3.16797,4.47266 -2.5646,3.23849 -6.04276,7.01151 -10.47656,11.44531 -2.47486,2.47486 -4.91918,5.04819 -7.33203,7.71289 -2.41286,2.6647 -4.79498,5.42161 -7.14063,8.26563 -4.69128,5.68804 -9.24164,11.72417 -13.63281,18.0664 -4.39117,6.34223 -8.62252,12.99007 -12.67187,19.90235 -4.04936,6.91227 -7.91618,14.08814 -11.58204,21.48632 -3.66585,7.39819 -7.13043,15.01842 -10.37109,22.81836 -3.24066,7.79995 -6.25748,15.77892 -9.03125,23.89649 -2.77377,8.11757 -5.30513,16.37356 -7.57031,24.72461 -2.26519,8.35105 -4.26556,16.79841 -5.98047,25.29883 -0.85971,4.26134 -1.57143,8.52003 -2.15625,13.08984 -0.58482,4.56981 -1.04267,9.44957 -1.39258,14.95703 -0.3499,5.50746 -0.59113,11.6425 -0.74609,18.7168 -0.15497,7.0743 -0.22266,15.08903 -0.22266,24.35937 0,13.41721 0.18069,24.76709 0.66797,34.91797 0.24364,5.07544 0.565,9.85105 0.97656,14.43555 0.41156,4.5845 0.91519,8.97646 1.52539,13.28711 0.61021,4.31065 1.32643,8.53907 2.16602,12.79297 0.83958,4.25389 1.80069,8.53499 2.90039,12.94921 1.0997,4.41423 2.33798,8.96225 3.72852,13.75391 1.39053,4.79166 2.93437,9.82671 4.64648,15.21289 2.22695,7.00582 4.61432,13.84972 7.17383,20.54883 2.5595,6.69911 5.2919,13.25224 8.20312,19.67578 2.91123,6.42354 6.00305,12.71741 9.28516,18.89648 3.28211,6.17913 6.75361,12.24512 10.42578,18.21094 3.67217,5.96583 7.54361,11.83156 11.625,17.61524 4.08139,5.78367 8.37303,11.48452 12.88281,17.11718 4.50979,5.63267 9.23793,11.19814 14.19532,16.71094 4.95733,5.5128 10.14428,10.97241 15.56835,16.39649 6.70733,6.70732 13.51416,13.08178 20.44336,19.13476 6.9292,6.05298 13.97915,11.78401 21.17188,17.20508 3.59636,2.71049 7.22838,5.34359 10.89844,7.90039 3.67005,2.5568 7.37995,5.0376 11.1289,7.4434 3.74896,2.4057 7.53804,4.7365 11.3711,6.9941 3.83305,2.2576 7.70849,4.4424 11.63086,6.5547 3.92236,2.1123 7.89131,4.1533 11.9082,6.123 4.01688,1.9697 8.08261,3.8673 12.19922,5.6973 8.23322,3.6599 16.67063,7.04437 25.33398,10.16207 8.66335,3.1178 17.55237,5.9705 26.6875,8.5684 9.13514,2.598 18.51745,4.9404 28.16602,7.041 4.56748,0.9944 9.72949,1.8647 15.33984,2.6094 5.61035,0.7447 11.6677,1.3642 18.02539,1.8594 6.35769,0.4951 13.01668,0.8656 19.82617,1.1113 6.8095,0.2457 13.77055,0.3668 20.73633,0.3633 6.96578,0 13.93519,-0.1321 20.76172,-0.3848 6.82653,-0.2526 13.51059,-0.6292 19.90234,-1.1308 6.39176,-0.5016 12.49089,-1.1285 18.15235,-1.8789 5.66146,-0.7505 10.8839,-1.624 15.51953,-2.6231 6.50257,-1.4014 13.67476,-3.199 21.01367,-5.2285 7.33892,-2.0295 14.84556,-4.2916 22.01758,-6.6231 7.17202,-2.3314 14.00983,-4.7318 20.01172,-7.03907 6.00189,-2.3072 11.16757,-4.5215 14.99609,-6.4785 2.06599,-1.056 3.67528,-1.8457 5.24024,-2.3496 1.56495,-0.5039 3.08506,-0.7223 4.97265,-0.6367 1.8876,0.086 4.14187,0.477 7.17578,1.1894 3.03392,0.7125 6.84766,1.7464 11.85157,3.1231 5.64478,1.553 10.90708,2.9476 15.91992,4.1992 5.01284,1.25167 9.77726,2.36147 14.42773,3.34177 4.65047,0.9804 9.18648,1.8311 13.74414,2.5704 4.55767,0.7391 9.13667,1.3666 13.8711,1.8945 4.73443,0.5279 9.62392,0.9579 14.80468,1.3047 5.18077,0.3468 10.65216,0.609 16.54883,0.8047 11.79334,0.3914 25.28813,0.5111 41.5625,0.4785 13.65868,-0.027 24.55808,-0.093 33.72856,-0.2656 9.1704,-0.1727 16.6128,-0.4522 23.3574,-0.9102 6.7446,-0.458 12.7906,-1.0931 19.1719,-1.9766 6.3812,-0.8834 13.0974,-2.0159 21.1777,-3.4648 9.9595,-1.786 19.085,-3.33787 25.7656,-4.39847 6.6807,-1.0606 10.9151,-1.6299 11.0918,-1.4531 0.1768,0.1767 -1.9202,3.0446 -5.4433,7.52147 -3.5232,4.477 -8.472,10.5638 -13.9942,17.1797 -5.1484,6.1681 -10.4594,12.2222 -15.9258,18.1602 -5.4659,5.9379 -11.0883,11.7597 -16.8574,17.459 -5.769,5.6988 -11.6856,11.2764 -17.7422,16.7285 -6.0566,5.452 -12.2531,10.7783 -18.582,15.9746 -6.3289,5.1962 -12.789,10.2634 -19.37501,15.1953 -6.58605,4.9319 -13.29704,9.7296 -20.125,14.3887 -6.82796,4.659 -13.77346,9.179 -20.82813,13.5566 -7.05466,4.3776 -14.2182,8.6116 -21.48437,12.6992 -7.26617,4.0876 -14.63519,8.0274 -22.09766,11.8164 -7.46246,3.7891 -15.01855,7.4283 -22.66211,10.9102 -7.64355,3.4819 -15.37415,6.8083 -23.18359,9.9746 -7.80944,3.1663 -15.69809,6.1716 -23.6582,9.0137 -7.96012,2.842 -15.99231,5.52 -24.08789,8.0293 -8.09559,2.5092 -16.25485,4.8496 -24.47071,7.0175 -8.21585,2.168 -16.48768,4.1624 -24.80859,5.9805 -8.32091,1.8181 -16.6908,3.4603 -25.10156,4.9199 -4.94746,0.8586 -10.58967,1.6384 -16.7461,2.3379 -6.15643,0.6995 -12.82664,1.3174 -19.83203,1.8496 -7.00539,0.5322 -14.34549,0.9793 -21.83984,1.336 -7.49435,0.3567 -15.14429,0.6238 -22.76758,0.7968 -7.62329,0.1731 -15.22105,0.2532 -22.61328,0.2344 -7.39223,-0.019 -14.57774,-0.1367 -21.37891,-0.3555 -6.80116,-0.2187 -13.21632,-0.5395 -19.0664,-0.9668 -5.85009,-0.4266 -11.13483,-0.9583 -15.67383,-1.6015 -5.97004,-0.8461 -11.91473,-1.7831 -17.83008,-2.8067 -5.91535,-1.0236 -11.80273,-2.1351 -17.66016,-3.3339 -5.85743,-1.1989 -11.68418,-2.4838 -17.48047,-3.8555 -5.79626,-1.3717 -11.56109,-2.8289 -17.29296,-4.3711 -5.73188,-1.5422 -11.43146,-3.1704 -17.09571,-4.8809 -5.66424,-1.7104 -11.29333,-3.5046 -16.88672,-5.3808 -5.59338,-1.8763 -11.15064,-3.8333 -16.66992,-5.8731 -5.51928,-2.0397 -11.00141,-4.1623 -16.44336,-6.3632 -5.44194,-2.201 -10.84374,-4.4801 -16.20507,-6.8399 -5.36138,-2.3598 -10.68142,-4.8002 -15.95899,-7.3164 -5.27757,-2.5162 -10.5126,-5.1089 -15.70312,-7.7793 -5.19053,-2.6704 -10.33726,-5.418 -15.4375,-8.2402 -5.10025,-2.8222 -10.15343,-5.7198 -15.16016,-8.6914 -5.00673,-2.9717 -9.96697,-6.016 -14.87695,-9.1348 -4.90999,-3.1188 -9.77008,-6.3107 -14.58008,-9.5742 -4.81,-3.2636 -9.56861,-6.5999 -14.27539,-10.0059 -4.70678,-3.406 -9.36257,-6.8816 -13.96289,-10.4277 -4.60033,-3.5461 -9.14609,-7.1619 -13.63672,-10.8457 -4.49064,-3.6839 -8.92503,-7.4366 -13.30274,-11.2559 -4.37771,-3.8192 -8.69939,-7.7059 -12.96093,-11.6582 -4.26155,-3.9523 -8.46332,-7.9697 -12.60547,-12.0527 -4.14215,-4.0831 -8.22462,-8.2319 -12.24414,-12.4434 -4.01952,-4.2114 -7.97549,-8.4867 -11.86914,-12.8242 -3.89366,-4.3375 -7.72375,-8.7361 -11.48828,-13.1973 -3.76455,-4.4611 -7.4635,-8.9838 -11.09571,-13.5664 -3.63221,-4.58257 -7.19867,-9.22617 -10.69531,-13.92767 -3.49664,-4.7016 -6.92342,-9.4611 -10.28125,-14.2793 -3.35783,-4.8183 -6.64555,-9.6944 -9.86133,-14.627 -3.21578,-4.9326 -6.36114,-9.92218 -9.43164,-14.96678 -3.0705,-5.04461 -6.0663,-10.14457 -8.98828,-15.29883 -2.92199,-5.15426 -5.76883,-10.36342 -8.53906,-15.625 -2.77024,-5.26158 -5.46483,-10.57485 -8.08008,-15.94141 -3.40515,-6.98746 -6.58138,-13.75737 -9.55274,-20.38672 -2.97135,-6.62935 -5.73691,-13.11856 -8.32227,-19.54882 -2.58536,-6.43027 -4.9911,-12.80119 -7.23828,-19.19141 -2.24718,-6.39022 -4.33616,-12.7994 -6.29297,-19.30859 -1.95681,-6.50921 -3.77989,-13.11904 -5.49414,-19.90626 -1.71425,-6.78719 -3.32036,-13.75229 -4.83985,-20.97656 -1.51949,-7.22426 -2.953619,-14.707 -4.326167,-22.52734 -1.372543,-7.82035 -2.683625,-15.97923 -3.957031,-24.55469 -0.973103,-6.55314 -1.818023,-13.01448 -2.537109,-19.38672 -0.719086,-6.37224 -1.3108,-12.65402 -1.775391,-18.84765 -0.464591,-6.19364 -0.802101,-12.29907 -1.011719,-18.31641 -0.209614,-6.01734 -0.291927,-11.94767 -0.246093,-17.79102 0.04583,-5.84335 0.219721,-11.59982 0.521484,-17.27148 0.301763,-5.67166 0.730893,-11.25749 1.289063,-16.75977 0.55817,-5.50227 1.245491,-10.92062 2.060546,-16.25586 0.815056,-5.33519 1.757661,-10.58738 2.830079,-15.75781 1.072418,-5.17042 2.273256,-10.25962 3.603515,-15.26758 1.330263,-5.00795 2.790333,-9.93541 4.378903,-14.7832 1.58858,-4.84778 3.30693,-9.61672 5.1543,-14.30664 1.84738,-4.68992 3.82304,-9.29962 5.92969,-13.83398 2.10665,-4.53437 4.34454,-8.99194 6.71094,-13.37305 2.3664,-4.38111 4.86164,-8.68586 7.48828,-12.91602 2.62664,-4.23016 5.38415,-8.38528 8.27149,-12.46679 2.88734,-4.08152 5.90421,-8.09022 9.05273,-12.02539 4.58621,-5.73206 9.44449,-11.31296 14.53516,-16.7168 5.09067,-5.40384 10.41494,-10.62984 15.93359,-15.6543 5.51866,-5.02445 11.23139,-9.8475 17.10157,-14.4414 5.87018,-4.59391 11.89774,-8.96009 18.04297,-13.07227 6.14522,-4.11217 12.40814,-7.96955 18.75195,-11.54883 6.34381,-3.57927 12.76846,-6.87979 19.23437,-9.875 6.46592,-2.99521 12.97282,-5.68495 19.48438,-8.04492 6.51155,-2.35997 13.02709,-4.3909 19.50781,-6.06445 3.22814,-0.83362 7.02931,-1.64067 11.22656,-2.40821 4.19726,-0.76753 8.791,-1.49488 13.60352,-2.16796 9.62504,-1.34618 20.12687,-2.47515 30.08984,-3.27344 4.98149,-0.39915 9.82809,-0.7159 14.36328,-0.93555 4.53519,-0.21964 8.75914,-0.34172 12.49414,-0.35351 z m 110.98047,38.48632 14.17188,8.53321 c 31.62548,19.04269 53.86731,50.84952 83.71289,119.70703 l 17.86328,41.20898 -0.86328,21.25782 c -1.01809,25.07991 -5.75956,36.51113 -36.60938,88.26953 -27.56717,46.25089 -45.13456,82.20344 -60.35351,123.51953 -13.63805,37.02429 -24.37103,55.5957 -32.13281,55.5957 -2.4962,0 -13.58337,-9.27725 -24.63672,-20.61523 -95.35305,-97.80837 -107.91196,-265.11923 -28.01953,-373.26563 20.48738,-27.73275 45.14168,-53.65559 56.08984,-58.97461 z m 148.91407,268.80274 c 0.15151,-0.17475 1.78079,4.79712 4.28125,12.94922 2.50045,8.1521 5.87335,19.48389 9.51562,32.02734 3.43287,11.8223 6.75428,22.92851 9.99805,33.39258 3.24376,10.46407 6.40846,20.28653 9.52539,29.54101 3.11692,9.25449 6.18788,17.94122 9.24023,26.13477 3.05236,8.19355 6.08668,15.89256 9.13672,23.17383 3.05005,7.28126 6.11461,14.14448 9.22461,20.66211 3.11001,6.51762 6.26582,12.69112 9.49805,18.59375 3.23223,5.90263 6.5403,11.53442 9.95703,16.9707 3.41672,5.43628 6.94198,10.67634 10.60547,15.79492 4.44208,6.20643 7.90727,10.69914 9.91015,14.06641 1.00145,1.68363 1.63781,3.08543 1.84766,4.2793 0.10493,0.59693 0.10202,1.14253 -0.0137,1.64453 -0.11569,0.50199 -0.34385,0.96132 -0.69531,1.38672 -0.35147,0.42539 -0.82536,0.81646 -1.42774,1.18359 -0.60238,0.36713 -1.33468,0.70991 -2.20312,1.03711 -1.7369,0.6544 -4.02006,1.24687 -6.91211,1.85156 -5.78411,1.20938 -14.00092,2.46676 -25.13282,4.35742 -4.8229,0.81914 -9.65837,1.53991 -14.46874,2.16016 -4.81039,0.62025 -9.59592,1.13958 -14.3125,1.56055 -4.71661,0.42096 -9.36461,0.74356 -13.90626,0.96484 -4.54156,0.22128 -8.97643,0.34209 -13.26171,0.36328 -4.28528,0.0212 -8.42141,-0.059 -12.36914,-0.23828 -3.94773,-0.1793 -7.70546,-0.4577 -11.23438,-0.83789 -3.52892,-0.3802 -6.82856,-0.86187 -9.85742,-1.44336 -3.02886,-0.58149 -5.78879,-1.2637 -8.23633,-2.04687 -3.42457,-1.09583 -6.63452,-2.31951 -9.63086,-3.67188 -2.99634,-1.35237 -5.77791,-2.83335 -8.34375,-4.43945 -2.56584,-1.60611 -4.91576,-3.33829 -7.04883,-5.19532 -2.13306,-1.85702 -4.05002,-3.83823 -5.74804,-5.94335 -1.69803,-2.10515 -3.17679,-4.33319 -4.4375,-6.6836 -1.26072,-2.35041 -2.30192,-4.82313 -3.12305,-7.41601 -0.82113,-2.59289 -1.42347,-5.30613 -1.80273,-8.13868 -0.37928,-2.83254 -0.53556,-5.78412 -0.47071,-8.85351 0.0466,-2.20327 0.2415,-4.77881 0.57227,-7.66016 0.33077,-2.88135 0.79724,-6.06892 1.38086,-9.49804 1.16723,-6.85826 2.80842,-14.68171 4.79882,-22.94922 1.99041,-8.26752 4.32998,-16.97897 6.89258,-25.61328 2.5626,-8.63433 5.34864,-17.19173 8.23242,-25.1504 1.7786,-4.90847 5.64815,-14.59057 10.49024,-26.39453 4.84209,-11.80396 10.65507,-25.72936 16.31836,-39.125 5.66329,-13.39563 11.17773,-26.2618 15.41992,-35.94531 4.2422,-9.68351 7.21221,-16.18399 7.79102,-16.85156 z"
       id="path4890"
       inkscape:connector-curvature="0" />
    <path
       style="fill:#333333;fill-opacity:1;stroke-width:1.15987206"
       d="m 2862.6944,1396.5636 c -52.5507,-4.338 -103.5102,-16.0822 -156.0253,-35.9574 -177.6049,-67.2178 -314.9438,-225.3801 -353.1039,-406.64239 -4.8416,-22.99759 -11.3335,-69.59414 -12.9087,-92.65311 -4.3712,-63.98899 9.1292,-127.70275 36.9277,-174.27708 17.0835,-28.62204 44.4336,-58.2597 74.6669,-80.91185 33.8877,-25.39018 74.4076,-42.67639 114.1423,-48.6943 14.5681,-2.20637 60.8492,-4.68389 67.8215,-3.63062 2.8914,0.4368 6.9365,1.81543 8.989,3.06362 3.0058,1.82795 3.7318,3.02384 3.7318,6.14721 0,5.55988 -5.6136,13.35263 -15.3376,21.29149 -15.2914,12.48432 -37.5301,43.25663 -52.8197,73.08827 -20.8364,40.6539 -32.1811,78.43548 -38.7684,129.11151 -1.869,14.3777 -1.8806,68.96657 -0.018,84.09072 6.1809,50.18559 18.1919,90.4108 39.4818,132.22543 10.2995,20.2289 25.8336,44.0348 39.8527,61.0742 11.3401,13.783 37.5383,39.9868 51.9663,51.9773 52.4384,43.579 118.7811,71.907 191.9588,81.9655 23.3969,3.2161 75.3561,2.9129 98.0092,-0.5717 38.2599,-5.8853 76.5185,-17.3685 103.6156,-31.0995 l 5.6987,-2.8877 9.4258,2.9181 c 23.0725,7.1429 51.4316,12.9727 80.7579,16.6013 23.9109,2.9587 93.8148,2.9897 118.887,0.054 19.8033,-2.3197 54.5553,-7.9187 69.7223,-11.2331 5.629,-1.2302 10.3981,-2.0731 10.5977,-1.8735 0.1997,0.1997 -3.658,5.5228 -8.5727,11.8291 -65.7791,84.4061 -157.4272,149.044 -262.0811,184.8414 -42.6577,14.5914 -82.074,23.4114 -127.6561,28.5652 -18.7401,2.119 -80.5254,3.1111 -98.9617,1.5892 z m 8.164,-269.1191 c -31.5489,-3.9637 -51.8079,-17.3736 -59.1433,-39.1485 -2.8557,-8.477 -2.9986,-15.5818 -0.6112,-30.387 6.088,-37.754 17.8948,-74.61867 40.8624,-127.58592 20.2108,-46.60987 30.6719,-70.21391 31.5086,-71.09497 0.4819,-0.5075 6.4974,18.80437 13.3676,42.91527 6.8703,24.11088 15.6139,53.49391 19.4303,65.2956 19.5371,60.41682 41.9328,104.53522 70.3594,138.60462 3.1936,3.8276 5.4464,7.3212 5.0061,7.7635 -1.2637,1.2692 -45.6796,9.8537 -61.6939,11.9238 -17.8528,2.3078 -47.5104,3.1679 -59.086,1.7136 z m 321.2488,-44.2475 c -7.3188,-0.5833 -13.5257,-1.2796 -13.7931,-1.5469 -0.2674,-0.2675 4.213,-5.4017 9.9565,-11.4095 39.988,-41.8281 69.9195,-101.71766 82.6809,-165.43471 5.4693,-27.30799 7.2553,-46.15317 7.2553,-76.55156 0,-30.39838 -1.786,-49.24356 -7.2553,-76.55154 -13.0944,-65.38013 -41.3797,-122.30749 -84.5477,-170.16231 -53.7446,-59.57965 -124.0945,-99.51439 -203.6852,-115.62367 -28.7081,-5.81057 -41.8269,-6.99512 -77.1315,-6.96454 -35.6573,0.0308 -50.0317,1.49805 -80.0311,8.16864 -14.0098,3.11516 -46.0781,13.34558 -56.6872,18.08429 l -6.2327,2.78394 -12.7461,-7.27302 c -21.604,-12.3273 -50.799,-23.6183 -77.4371,-29.94828 -63.7042,-15.13794 -134.4306,-8.782 -194.0714,17.4405 -5.065,2.22698 -9.3528,3.8997 -9.5285,3.7172 -0.8959,-0.93102 27.0806,-31.64104 43.7013,-47.9712 91.1278,-89.53528 204.8274,-143.98966 334.4593,-160.18333 18.9805,-2.37106 79.0766,-2.58883 107.386,-0.38915 111.28,8.64663 219.7216,52.61957 310.162,125.77028 108.1163,87.4476 179.5444,206.48142 201.3114,335.48221 10.2865,60.96147 12.3804,102.52465 7.4027,146.92956 -6.4825,57.82771 -26.1866,104.32184 -58.5045,138.04869 -51.9593,54.2242 -132.3322,80.7853 -222.664,73.5844 z m -117.335,-20.4356 c -36.1441,-18.1578 -57.5509,-47.015 -88.3508,-119.09979 -5.4514,-12.7586 -12.0897,-27.89493 -14.7517,-33.6363 -11.5154,-24.83567 -22.8861,-58.41007 -44.1919,-130.4856 -8.9573,-30.30165 -19.6736,-65.2718 -23.8139,-77.71143 -20.8064,-62.51229 -44.172,-109.94338 -71.8329,-145.81743 l -7.3501,-9.53247 8.1059,-2.41401 c 24.8032,-7.38672 47.2643,-10.27008 81.6994,-10.48785 28.1622,-0.1781 40.2903,1.17687 63.4408,7.0877 82.3794,21.03333 156.2268,79.81124 195.8506,155.88491 28.9195,55.52238 37.8584,116.73692 26.5155,181.57971 -5.3347,30.49643 -13.2566,54.7468 -27.091,82.93085 -15.0212,30.60167 -32.5724,55.50601 -55.0794,78.15521 -11.3663,11.438 -30.9583,27.973 -33.1447,27.973 -0.6569,0 -5.1595,-1.9919 -10.0058,-4.4265 z m -366.1171,-16.3197 c -93.8676,-82.87341 -122.6525,-232.89169 -66.9021,-348.67297 11.3296,-23.52898 20.7279,-37.43541 44.6807,-66.11271 20.7875,-24.88764 30.6374,-33.32308 43.3932,-37.16202 5.132,-1.5445 5.2046,-1.52592 15.1751,3.88658 19.4443,10.55535 37.0695,27.277 50.8946,48.28546 13.5888,20.6495 22.3246,38.39956 43.7027,88.79853 l 12.0538,28.41686 -0.012,16.23822 c -0.012,15.76445 -0.1397,16.61044 -4.4086,28.9968 -5.3658,15.56956 -12.883,29.84244 -32.0709,60.89329 -16.5171,26.72881 -22.4936,37.49444 -27.3656,49.29456 -1.8437,4.4655 -5.6902,11.76604 -8.5478,16.2234 -6.7854,10.58411 -13.1172,25.13939 -22.7119,52.20905 -4.2961,12.12066 -9.3577,25.95215 -11.2479,30.73665 -7.8456,19.8582 -16.1671,31.8494 -23.9969,34.5789 -3.5713,1.2449 -3.9837,1.0292 -12.637,-6.6106 z"
       id="path3825"
       inkscape:connector-curvature="0" />
  </g>
</svg>
