<?xml version="1.0" encoding="UTF-8" standalone="no"?>
<!-- Created with Inkscape (http://www.inkscape.org/) -->

<svg
   xmlns:dc="http://purl.org/dc/elements/1.1/"
   xmlns:cc="http://creativecommons.org/ns#"
   xmlns:rdf="http://www.w3.org/1999/02/22-rdf-syntax-ns#"
   xmlns:svg="http://www.w3.org/2000/svg"
   xmlns="http://www.w3.org/2000/svg"
   xmlns:sodipodi="http://sodipodi.sourceforge.net/DTD/sodipodi-0.dtd"
   xmlns:inkscape="http://www.inkscape.org/namespaces/inkscape"
   version="1.1"
   id="svg1612"
   width="202.43053"
   height="189.75838"
   viewBox="0 0 202.43053 189.75838"
   sodipodi:docname="cloud-deployment-logo.svg"
   inkscape:version="0.92.4 (unknown)">
  <metadata
     id="metadata1618">
    <rdf:RDF>
      <cc:Work
         rdf:about="">
        <dc:format>image/svg+xml</dc:format>
        <dc:type
           rdf:resource="http://purl.org/dc/dcmitype/StillImage" />
        <dc:title></dc:title>
      </cc:Work>
    </rdf:RDF>
  </metadata>
  <defs
     id="defs1616" />
  <sodipodi:namedview
     pagecolor="#ffffff"
     bordercolor="#666666"
     borderopacity="1"
     objecttolerance="10"
     gridtolerance="10"
     guidetolerance="10"
     inkscape:pageopacity="0"
     inkscape:pageshadow="2"
     inkscape:window-width="1920"
     inkscape:window-height="1163"
     id="namedview1614"
     showgrid="false"
     inkscape:zoom="2.9667058"
     inkscape:cx="106.79321"
     inkscape:cy="125.06887"
     inkscape:window-x="1920"
     inkscape:window-y="0"
     inkscape:window-maximized="1"
     inkscape:current-layer="g2165" />
  <g
     id="g2165"
     transform="translate(-14.287298,-15.124217)">
    <path
       style="fill:#69ffff;fill-opacity:1;stroke:#fffff6;stroke-width:6;stroke-miterlimit:4;stroke-dasharray:none;stroke-opacity:1"
       d="M 89.462324,199.76241 C 88.582186,197.46881 89.331808,191.5 90.5,191.5 c 1.371314,0 1.884641,7.51536 0.601004,8.799 -0.713919,0.71391 -1.222755,0.5473 -1.63868,-0.53659 z M 106,175.58333 C 106,159.5257 106.36525,150 106.98095,150 c 1.8001,0 2.08528,4.34098 1.80119,27.41727 -0.21225,17.2402 -0.59179,23.02033 -1.53214,23.33333 -0.97827,0.32562 -1.25,-5.14536 -1.25,-25.16727 z m 35.64497,11.63206 c -2.50806,-1.12694 -4.63348,-3.12686 -6.08292,-5.72378 -2.09158,-3.7474 -2.5593,-4.0222 -7.64497,-4.49161 L 122.5,176.5 122.23926,133.75 c -0.22922,-37.583422 -0.0782,-42.75 1.25,-42.75 0.83091,0 1.61438,0.5625 1.74105,1.25 0.12667,0.6875 0.23917,19.25 0.25,41.25 l 0.0197,40 h 3.91404 c 3.42572,0 4.15529,-0.43182 5.84766,-3.46116 5.57881,-9.9861 17.61777,-10.21975 23.34146,-0.45302 2.50083,4.26735 2.75004,4.41418 7.49186,4.41418 3.69332,0 4.90498,0.37054 4.90498,1.5 0,1.13252 -1.21996,1.5 -4.97968,1.5 -4.81815,0 -5.04711,0.13218 -7.05866,4.07516 -1.4785,2.89809 -3.28962,4.62478 -6.27033,5.97804 -5.14016,2.33365 -6.17969,2.34891 -11.04636,0.16219 z m 8.75646,-2.60976 c 7.04509,-2.94363 8.82404,-10.53401 3.67549,-15.68255 C 151.83483,166.68099 150.23547,166 147.21178,166 c -10.76255,0 -13.8605,13.42621 -4.21063,18.24845 4.1829,2.09027 3.34877,2.05001 7.40028,0.35718 z m -61.007388,-2.02116 c -0.866373,-2.25773 -0.01033,-6.89205 1.355958,-7.34068 0.877884,-0.28827 1.25,0.95397 1.25,4.17288 0,4.38322 -1.458985,6.15677 -2.605958,3.1678 z m 0.272625,-16.25114 C 89.3,165.96667 89,163.94167 89,161.83333 89,159.09259 89.427536,158 90.5,158 c 1.111111,0 1.5,1.16667 1.5,4.5 0,4.19939 -0.744375,5.42229 -2.333333,3.83333 z m -46.246702,-5.21901 c -1.69402,-1.03301 -3.852633,-3.50633 -4.796918,-5.49626 C 37.086186,152.37936 36.500248,152 33.03487,152 30.905658,152 28.451771,151.72686 27.581787,151.39301 24.692035,150.28411 25.94578,149 29.918213,149 c 5.477304,0 6.860129,-0.73063 8.692958,-4.59303 4.765771,-10.04312 18.576886,-9.59826 23.972876,0.77216 1.556545,2.99149 4.411423,4.27447 7.400486,3.32578 1.909062,-0.60591 1.994628,-1.70182 2.25,-28.81739 C 72.463114,95.416599 72.708422,91.5 74,91.5 c 1.307015,0 1.456848,3.795374 1.164592,29.5 -0.184474,16.225 -0.51208,29.67761 -0.728013,29.89468 -0.215933,0.21707 -2.656078,0.61217 -5.422544,0.87799 -4.559111,0.43808 -5.225226,0.83079 -7.116242,4.19539 -3.833536,6.82086 -12.001276,9.09566 -18.477828,5.14626 z m 13.656958,-4.0374 c 3.836022,-3.83602 4.051331,-9.65372 0.509661,-13.77116 C 55.597921,140.99381 54.369943,140.5 50.609311,140.5 c -6.215944,0 -10.063856,3.67145 -10.063856,9.60234 0,3.36414 0.583571,4.62375 3.243049,7 4.439351,3.96656 9.305753,3.95725 13.288419,-0.0254 z m 32.562557,-6.77077 c -0.99269,-0.99269 -0.753327,-50.11775 0.247213,-50.736123 0.487681,-0.301403 1.418394,0.09266 2.068251,0.875683 0.881445,1.06208 0.999204,7.54474 0.46362,25.52249 -0.666072,22.35781 -1.085557,26.03147 -2.779084,24.33795 z M 106,138.58333 c 0,-4.8801 1.55827,-6.1915 2.5695,-2.16242 0.79407,3.16381 0.24254,5.80946 -1.3195,6.32956 -0.87872,0.29258 -1.25,-0.94516 -1.25,-4.16714 z m -0.35902,-14.79244 c -1.04231,-3.89103 -0.70949,-6.55062 0.89687,-7.16704 1.90466,-0.73089 2.7022,1.17473 2.28261,5.45394 -0.38211,3.89689 -2.31546,4.93858 -3.17948,1.7131 z M 44.830775,115.62073 C 33.479842,110.95199 24.202609,101.69116 20.66732,91.5 10.771023,62.97199 34.869765,34.243542 64.677251,39.035145 L 71.5,40.131913 73.979307,36.815957 c 9.951317,-13.309421 24.875172,-19.662532 39.750153,-16.92171 12.85717,2.369027 23.14896,9.960892 28.82828,21.26554 1.47557,2.937117 2.83967,5.513661 3.03133,5.725654 0.19167,0.211992 3.52286,-0.635258 7.40265,-1.882779 8.24567,-2.651337 13.51727,-2.313305 21.42719,1.373981 8.50424,3.964335 13.87948,10.590325 16.50691,20.347877 0.99637,3.700241 1.61883,4.358378 5.11193,5.404935 5.15503,1.544485 11.46864,6.994077 14.16671,12.227991 2.75002,5.334702 2.90078,14.572569 0.3258,19.963004 -3.47117,7.26651 -12.15837,13.60403 -18.72124,13.65759 -2.87022,0.0234 -4.81818,-1.73772 -2.6224,-2.3709 0.72236,-0.2083 3.33838,-0.9268 5.81338,-1.59665 8.93632,-2.41862 16.02675,-13.37605 14.34809,-22.173288 -2.4758,-12.974752 -14.41491,-20.436092 -26.51088,-16.567956 -2.65845,0.850138 -5.07371,1.157111 -5.36724,0.682162 -0.71941,-1.164021 3.27877,-3.59845 7.28003,-4.432702 4.0697,-0.848522 4.2905,-3.546023 0.84325,-10.30195 C 180.96356,52.143501 172.09133,46.675125 162,46.675125 c -7.53008,0 -15.27388,3.393442 -14.82271,6.495519 0.2431,1.671406 1.76275,2.775405 6.15989,4.475042 8.04384,3.109208 13.6724,8.037565 17.72556,15.520485 3.04782,5.626845 3.42881,7.170982 3.41332,13.833829 -0.0281,12.086135 -6.21616,22.30091 -16.74056,27.63403 -5.78351,2.93073 -14.08543,4.22681 -15.22841,2.37744 -0.97378,-1.5756 1.20268,-2.9763 4.65554,-2.99616 1.46444,-0.008 5.47427,-1.47781 8.91073,-3.26531 7.47093,-3.88606 12.16918,-10.00622 14.01575,-18.257588 2.33347,-10.427022 -2.6168,-22.452689 -11.91992,-28.957013 -3.75913,-2.628213 -5.37441,-3.075302 -12.23654,-3.386928 -5.81391,-0.264024 -9.22624,0.115835 -12.89647,1.435633 -5.1244,1.842708 -6.6989,1.585304 -5.73103,-0.936923 0.51317,-1.337317 6.32512,-3.609738 13.06025,-5.106449 2.59783,-0.577301 2.80676,-0.929913 2.23752,-3.776118 -1.93703,-9.68518 -10.31371,-21.064154 -18.5961,-25.261159 -17.76151,-9.000439 -36.532844,-3.340008 -49.53953,14.938476 -1.986337,2.791428 -2.123219,2.825948 -6,1.513158 C 66.28528,42.216197 61.35,41.643127 57.5,41.6816 30.938689,41.947029 13.609895,69.906047 25.163845,93.854136 c 4.709504,9.761474 16.660743,18.304814 27.824798,19.890544 4.02857,0.57221 5.577673,1.2419 5.823324,2.51746 0.499537,2.59389 -6.945756,2.25232 -13.981192,-0.64141 z M 105.39816,107.5952 C 104.36661,104.90703 105.43653,99.5 107,99.5 c 1.08003,0 1.58534,1.32991 1.80479,4.75 0.24373,3.79835 -0.013,4.75 -1.28138,4.75 -0.8724,0 -1.82876,-0.63216 -2.12525,-1.4048 z"
       id="path2167"
       inkscape:connector-curvature="0" />
  </g>
</svg>
