<?xml version="1.0" encoding="UTF-8" standalone="no"?>
<!-- Created with Inkscape (http://www.inkscape.org/) -->

<svg
   xmlns:dc="http://purl.org/dc/elements/1.1/"
   xmlns:cc="http://creativecommons.org/ns#"
   xmlns:rdf="http://www.w3.org/1999/02/22-rdf-syntax-ns#"
   xmlns:svg="http://www.w3.org/2000/svg"
   xmlns="http://www.w3.org/2000/svg"
   xmlns:sodipodi="http://sodipodi.sourceforge.net/DTD/sodipodi-0.dtd"
   xmlns:inkscape="http://www.inkscape.org/namespaces/inkscape"
   version="1.1"
   id="svg2982"
   width="1019.1252"
   height="753.14429"
   viewBox="0 0 1019.1252 753.14429"
   sodipodi:docname="coordinating-stakeholders-logo.svg"
   inkscape:version="0.92.4 (unknown)">
  <metadata
     id="metadata2988">
    <rdf:RDF>
      <cc:Work
         rdf:about="">
        <dc:format>image/svg+xml</dc:format>
        <dc:type
           rdf:resource="http://purl.org/dc/dcmitype/StillImage" />
        <dc:title></dc:title>
      </cc:Work>
    </rdf:RDF>
  </metadata>
  <defs
     id="defs2986" />
  <sodipodi:namedview
     pagecolor="#ffffff"
     bordercolor="#666666"
     borderopacity="1"
     objecttolerance="10"
     gridtolerance="10"
     guidetolerance="10"
     inkscape:pageopacity="0"
     inkscape:pageshadow="2"
     inkscape:window-width="1920"
     inkscape:window-height="1163"
     id="namedview2984"
     showgrid="false"
     inkscape:zoom="0.57198698"
     inkscape:cx="475.71114"
     inkscape:cy="321.85985"
     inkscape:window-x="1920"
     inkscape:window-y="0"
     inkscape:window-maximized="1"
     inkscape:current-layer="svg2982" />
  <g
     id="g3535"
     transform="translate(-212.40629,-813.28398)"
     style="fill:#ffffff">
    <path
       style="fill:#ffffff"
       d="m 700.28985,1564.8836 c -101.46312,-14.7417 -154.22798,-133.0192 -97.1574,-217.7875 6.92567,-10.2868 6.95816,-9.1725 -0.53764,-18.4387 -7.38092,-9.1241 -6.6353,-9.0247 -16.77708,-2.2365 -42.08502,28.1691 -98.88006,18.5734 -128.73863,-21.7508 -4.61395,-6.2312 -2.29451,-7.2617 -34.79054,15.4565 l -27.70304,19.3675 0.59577,4.5025 c 4.96551,37.5271 -6.36382,68.4379 -32.85094,89.6302 -61.02857,48.8289 -150.27596,5.8922 -149.92302,-72.1276 0.43762,-96.7409 128.22689,-127.4035 174.03189,-41.7584 5.22951,9.778 2.6009,10.6061 32.4213,-10.2137 32.12207,-22.4267 28.95819,-18.9366 25.64716,-28.2916 -16.51368,-46.6576 3.70144,-96.2556 47.86987,-117.4491 10.72964,-5.1485 10.40456,-3.3746 4.08433,-22.2872 l -5.34691,-16 -14.91256,-0.064 c -39.53451,-0.1703 -67.41358,-28.8212 -65.13923,-66.9425 3.54343,-59.39285 80.71395,-81.41069 115.32725,-32.9045 2.51624,3.5262 5.09798,6.411 5.7372,6.4107 1.1788,-6e-4 132.64648,-116.34655 133.77643,-118.38915 1.0521,-1.90187 1.7409,-8.22669 1.02251,-9.38907 -0.93513,-1.51307 -62.93465,-28.46414 -63.98579,-27.8145 -0.4619,0.28547 -2.26919,3.4225 -4.0162,6.97116 -22.71283,46.13636 -92.13473,29.97111 -92.13473,-21.454 0,-27.84379 20.02436,-47.42383 48.5,-47.42383 h 13 l 7.82241,3.82241 c 15.86034,7.75013 27.55882,24.94118 27.68103,40.67759 0.0149,1.925 0.37838,4.05284 0.80762,4.72853 1.08206,1.70333 65.08828,29.45171 66.262,28.72632 0.52259,-0.32298 2.45343,-2.91995 4.29074,-5.77105 21.17575,-32.86001 74.34969,-32.49704 92.1136,0.62877 1.2532,2.33694 2.70044,3.68743 3.95159,3.68743 4.41346,0 64.60095,-27.24444 64.99195,-29.41923 0.20575,-1.14442 0.82543,-5.09251 1.37706,-8.77352 8.35217,-55.73368 92.48061,-51.17969 95.92851,5.19275 3.19666,52.26469 -68.29827,72.08932 -91.40091,25.34431 -2.02373,-4.09476 -4.04936,-7.67359 -4.5014,-7.95296 -1.11783,-0.69086 -61.04336,25.37761 -62.41889,27.15311 -1.91339,2.46976 -0.0587,10.27167 3.19908,13.45745 8.4306,8.24419 131.99048,115.99808 133.01339,115.99808 0.66366,0 3.2654,-2.885 5.78164,-6.4112 34.77036,-48.72633 112.04653,-26.36552 115.33843,33.3746 2.0835,37.8114 -25.8011,66.3022 -65.05802,66.4724 -12.21416,0.053 -14.97072,0.3332 -15.67627,1.5937 -1.60345,2.8646 -11.00356,29.3943 -11.00356,31.055 0,1.0669 2.14184,2.583 6.03325,4.2706 45.56825,19.7624 68.2047,74.375 49.98595,120.5962 -2.6436,6.7068 -5.3792,4.3553 27.83605,23.9286 27.8405,16.4061 30.536,17.6136 31.6293,14.1689 8.4287,-26.5564 48.6316,-51.4168 83.0155,-51.3344 93.3214,0.2234 127.5114,124.0703 47.3607,171.5553 -66.4677,39.3785 -152.1877,-18.275 -138.6743,-93.2697 0.6441,-3.575 1.2032,-8.2298 1.2424,-10.3441 l 0.071,-3.8441 -29.4476,-17.4059 c -33.99245,-20.0922 -30.10385,-18.645 -34.17985,-12.7208 -27.51458,39.9911 -86.08948,50.9129 -127.92137,23.852 -8.93198,-5.7781 -8.84962,-5.7883 -17.04847,2.127 -8.29175,8.005 -8.26955,7.6922 -1.30162,18.3359 66.1314,101.0176 -19.3408,234.2846 -139.10115,216.8844 z m 35,-9.9196 c 108.08022,-12.2355 155.01009,-143.9483 78.84868,-221.2957 -69.17258,-70.2497 -187.12471,-42.1826 -217.81997,51.8309 -28.96764,88.7222 45.88772,180.0026 138.97129,169.4648 z m -32.88634,-41.0401 c -29.31587,-2.7944 -51.80783,-11.3997 -57.95145,-22.1717 -8.54599,-14.9842 0.95781,-46.2257 19.83779,-65.2121 11.174,-11.237 12.40432,-11.7635 17.2525,-7.3835 22.73791,20.5424 55.30477,21.2661 76.70812,1.7046 6.72525,-6.1465 7.01273,-6.0925 16.92017,3.1754 23.52357,22.0051 33.09506,59.2656 18.59036,72.3697 -14.48929,13.0902 -55.43616,20.9417 -91.35749,17.5176 z m 7.84489,-91.3196 c -32.90875,-7.995 -45.37567,-48.9267 -22.49396,-73.8527 27.83488,-30.3218 77.95013,-10.7901 78.02354,30.4085 0.0515,28.9078 -27.29597,50.3034 -55.52958,43.4442 z m -383.83073,17.839 c 70.04743,-20.2266 81.02713,-114.2058 17.53938,-150.1259 -40.76141,-23.0619 -93.33713,-6.0476 -113.62402,36.7706 -29.80255,62.9022 29.30789,132.6374 96.08464,113.3553 z m -38.35884,-22.5082 c -15.58628,-2.0274 -28.07884,-7.0461 -31.99147,-12.8521 -5.95251,-8.8329 -0.39936,-28.8141 11.46481,-41.2525 7.25733,-7.6085 7.99743,-7.7561 14.43066,-2.8772 13.89079,10.5345 31.81972,10.1399 45.89791,-1.0102 12.18535,-9.651 34.29372,30.832 24.6516,45.1399 -6.86473,10.1866 -37.69068,16.3333 -64.45351,12.8521 z m 8.52335,-58.283 c -20.97446,-5.8908 -27.71551,-31.7351 -12.31822,-47.2266 17.87586,-17.9852 47.80201,-5.7696 47.95223,19.5737 0.11453,19.322 -17.26775,32.8111 -35.63401,27.6529 z m 862.06512,81.7566 c 49.92,-12.2496 76.5461,-67.9994 54.5994,-114.3207 -28.8849,-60.9655 -115.4471,-62.8453 -146.3293,-3.1777 -32.1915,62.1972 23.9635,134.1272 91.7299,117.4984 z m -36.3574,-23.5376 c -32.1036,-4.0133 -41.2337,-18.2584 -27.7171,-43.2449 7.3338,-13.5572 15.4513,-19.1936 21.1462,-14.6831 14.0782,11.1501 32.0071,11.5447 45.8979,1.0102 6.4332,-4.8789 7.1734,-4.7313 14.4307,2.8772 11.414,11.9665 17.2191,31.9547 11.8416,40.7735 -6.4921,10.6464 -37.079,16.8325 -65.5993,13.2671 z m 9.2923,-58.219 c -17.4548,-4.9023 -25.7592,-24.9191 -17.0085,-40.997 13.4825,-24.7717 50.7621,-16.4464 52.9492,11.8246 1.485,19.1963 -17.2669,34.4169 -35.9407,29.1724 z m -578.59262,-30.0516 c 51.89915,-13.1653 78.47466,-70.6359 54.61228,-118.1013 -31.18665,-62.0342 -119.91809,-61.4425 -149.94475,1 -30.42934,63.2799 27.41309,134.3304 95.33247,117.1013 z m -36.60279,-23.6674 c -19.71917,-2.7379 -32.0062,-8.5839 -34.60738,-16.4655 -4.08169,-12.3677 7.90067,-37.6922 21.66545,-45.7896 0.63526,-0.3737 3.07899,0.928 5.43052,2.8927 14.53731,12.1456 33.46563,12.1245 48.3277,-0.054 l 4.34893,-3.5637 4.88678,3.8628 c 13.36521,10.5646 22.463,35.9508 16.18145,45.1522 -7.40728,10.8504 -39.67126,17.6531 -66.23345,13.965 z m 4.83768,-60.8243 c -27.90853,-12.676 -20.3544,-53.3176 10.20841,-54.9218 25.91554,-1.3602 40.18455,27.9577 23.06997,47.4009 -7.86792,8.9384 -22.7516,12.3021 -33.27838,7.5209 z m 404.59505,85.3842 c 64.23723,-13.5127 88.76558,-91.6992 43.66303,-139.1805 -50.88557,-53.5692 -141.05344,-19.5145 -143.47184,54.1867 -1.78856,54.5069 47.046,96.0928 99.80881,84.9938 z m -33.43273,-24.5608 c -15.9533,-2.2129 -29.23213,-7.648 -32.74031,-13.4007 -5.5435,-9.0903 0.34171,-29.5983 12.00197,-41.8229 8.09663,-8.4885 8.36532,-8.5625 13.77949,-3.7967 13.27015,11.6808 33.44188,11.457 48.0747,-0.5335 l 4.35251,-3.5666 4.57125,3.7458 c 16.32038,13.3733 23.55621,39.6184 13.40624,48.6257 -9.98581,8.8616 -40.17667,13.9765 -63.44585,10.7489 z m 3.64395,-61.5002 c -10.01432,-4.9904 -15.62627,-14.3038 -15.62627,-25.9328 0,-37.2195 54.95285,-38.5238 57.17334,-1.357 1.31222,21.9642 -21.78695,37.1366 -41.54707,27.2898 z m -63.01599,77.844 c 8.08839,-8.0264 8.02813,-7.5154 1.8491,-15.679 -50.35367,-66.5264 1.08594,-159.5326 83.75997,-151.4435 12.37628,1.2109 10.19007,3.2733 17.2795,-16.3004 7.1953,-19.866 7.42049,-17.3636 -2.13102,-23.6809 -20.95427,-13.8591 -32.52182,-41.9021 -27.03654,-65.5443 0.49401,-2.1293 0.67714,-4.4474 0.40696,-5.1515 -0.78484,-2.0453 -130.13847,-115.47719 -131.68597,-115.47719 -0.79313,0 -2.30741,2.49 -3.49684,5.75 -17.65112,48.37842 -90.50985,45.77073 -103.44739,-3.7025 -0.29449,-1.12613 -1.14006,-2.04718 -1.87905,-2.0468 -3.16426,0.002 -131.03948,115.16269 -130.33901,117.37989 7.43593,23.5369 -5.72186,56.138 -28.27583,70.0591 -7.48452,4.6197 -7.4162,3.2742 -1.14167,22.485 6.17575,18.9084 4.63877,17.3801 16.28088,16.189 82.05815,-8.3951 134.31156,85.5796 84.13583,151.3134 -4.48134,5.8708 -4.52389,5.6035 2.19899,13.8208 7.46738,9.1274 7.0715,9.1124 16.11544,0.6082 52.41535,-49.2873 135.76465,-49.3127 190.6899,-0.058 10.82602,9.7083 8.62026,9.5132 16.71675,1.4788 z m -344.1564,-208.8722 c 43.24788,-12.703 52.41511,-69.6175 15.25302,-94.6979 -35.54699,-23.99033 -82.9037,1.4163 -82.56059,44.2933 0.27617,34.5112 34.4048,60.0691 67.30757,50.4046 z m -31.69994,-14.8971 c -7.57161,-1.6467 -11.53886,-3.6427 -14.38532,-7.2375 -7.20479,-9.0989 8.88479,-37.7032 16.48424,-29.3059 5.50535,6.0833 19.72129,6.7041 28.50374,1.2446 6.59059,-4.097 7.15325,-4.0495 11.44609,0.9657 6.89163,8.0514 10.64743,21.0991 7.67312,26.6566 -3.98899,7.4535 -31.33497,11.6754 -49.72187,7.6765 z m 9.13144,-39.1727 c -16.75772,-8.8543 -12.31713,-33.3007 6.3752,-35.0968 16.41975,-1.5777 26.66506,18.1045 15.8411,30.4324 -5.44106,6.197 -15.37028,8.2817 -22.2163,4.6644 z m 518.6447,53.7011 c 37.74115,-11.664 49.65415,-59.917 21.69535,-87.8759 -30.47965,-30.47961 -81.21717,-14.6058 -89.61849,28.0382 -7.49394,38.0382 30.41087,71.4309 67.92314,59.8377 z m -33.3846,-14.5331 c -15.11691,-3.8237 -18.31386,-8.7736 -14.25476,-22.0713 3.97627,-13.0262 10.84967,-17.9931 18.40254,-13.298 8.90523,5.5358 23.08062,4.9567 28.62462,-1.1694 5.3655,-5.9289 16.73265,7.5153 18.17565,21.4968 1.3333,12.9185 -26.66375,21.1844 -50.94805,15.0419 z m 9.72131,-38.8964 c -14.07039,-6.1308 -13.87434,-27.5639 0.30951,-33.8381 15.41458,-6.8186 31.14888,8.4732 24.67098,23.9772 -3.9632,9.4852 -15.4429,14.0167 -24.98049,9.8609 z M 731.25489,958.4663 c 33.46819,-8.71736 44.64357,-49.19557 20.31459,-73.58123 -24.82354,-24.88136 -67.70381,-10.69719 -73.8189,24.41822 -5.21357,29.93853 24.05611,56.83329 53.50431,49.16301 z m -20.06293,-11.46409 c -11.69827,-1.71529 -18.42598,-5.86919 -18.36946,-11.34189 0.11052,-10.70233 10.05466,-24.52593 14.70763,-20.44548 5.76237,5.05333 15.91234,6.35271 22.25972,2.84964 9.00705,-4.97093 7.88937,-4.94759 12.0565,-0.25182 17.08815,19.25593 1.67739,33.93028 -30.65439,29.18955 z m 3.00243,-33.90688 c -11.14257,-5.06041 -11.37831,-21.82114 -0.38461,-27.34457 14.47072,-7.27034 29.30134,9.96099 19.56253,22.72922 -4.87382,6.38991 -11.66943,8.02534 -19.17792,4.61535 z M 571.35793,896.5097 c 23.87364,-11.68028 29.23188,-42.55263 10.61641,-61.16811 -21.8546,-21.85459 -58.61298,-9.88346 -64.29206,20.93805 -5.37598,29.17648 26.86993,53.34488 53.67565,40.23006 z m -28.24168,-7.55487 c -12.73397,-2.51789 -15.82853,-10.18084 -8.72372,-21.60223 4.27942,-6.87941 5.29919,-7.23603 11.59009,-4.05312 6.79911,3.44003 12.02661,3.48811 18.27079,0.16805 2.67446,-1.42203 5.56122,-2.27784 6.58614,-1.95255 4.37383,1.3882 9.95848,14.09291 8.79624,20.01084 -1.25187,6.37427 -21.2646,10.44537 -36.51954,7.42901 z m 5.94329,-29.43821 c -6.64465,-2.88861 -9.33353,-12.62034 -5.31017,-19.21886 5.39056,-8.84081 19.71101,-8.118 23.60066,1.19123 5.09302,12.18932 -6.17441,23.29483 -18.29049,18.02763 z m 351.73031,36.31915 c 37.05097,-17.22332 25.25433,-72.2672 -15.5,-72.32401 -33.27924,-0.0464 -50.31568,38.65498 -27.92561,63.43811 10.45573,11.57324 29.3344,15.43626 43.42561,8.8859 z m -27.6736,-7.81532 c -12.79854,-2.73187 -15.82578,-10.25089 -8.72372,-21.66785 4.27942,-6.87941 5.29919,-7.23603 11.59009,-4.05312 6.85516,3.46839 11.76773,3.46412 18.64643,-0.0162 l 5.36791,-2.71592 3.81449,4.08933 c 5.69834,6.10892 7.87571,16.31548 4.1918,19.64937 -5.03078,4.5528 -23.77643,7.08594 -34.887,4.71437 z m 4.97215,-29.98076 c -11.48163,-7.00076 -6.29355,-25.04048 7.20145,-25.04048 10.42129,0 16.53789,10.4126 11.74845,20 -3.22574,6.45721 -12.55613,8.939 -18.9499,5.04048 z"
       id="path3541"
       inkscape:connector-curvature="0" />
  </g>
</svg>
