<?xml version="1.0" encoding="UTF-8" standalone="no"?>
<!-- Created with Inkscape (http://www.inkscape.org/) -->

<svg
   xmlns:dc="http://purl.org/dc/elements/1.1/"
   xmlns:cc="http://creativecommons.org/ns#"
   xmlns:rdf="http://www.w3.org/1999/02/22-rdf-syntax-ns#"
   xmlns:svg="http://www.w3.org/2000/svg"
   xmlns="http://www.w3.org/2000/svg"
   xmlns:sodipodi="http://sodipodi.sourceforge.net/DTD/sodipodi-0.dtd"
   xmlns:inkscape="http://www.inkscape.org/namespaces/inkscape"
   version="1.1"
   id="svg6800"
   width="1010.6667"
   height="1306.6667"
   viewBox="0 0 1010.6667 1306.6667"
   sodipodi:docname="cv.svg"
   inkscape:version="0.92.4 (unknown)">
  <metadata
     id="metadata6806">
    <rdf:RDF>
      <cc:Work
         rdf:about="">
        <dc:format>image/svg+xml</dc:format>
        <dc:type
           rdf:resource="http://purl.org/dc/dcmitype/StillImage" />
        <dc:title />
      </cc:Work>
    </rdf:RDF>
  </metadata>
  <defs
     id="defs6804" />
  <sodipodi:namedview
     pagecolor="#ffffff"
     bordercolor="#666666"
     borderopacity="1"
     objecttolerance="10"
     gridtolerance="10"
     guidetolerance="10"
     inkscape:pageopacity="0"
     inkscape:pageshadow="2"
     inkscape:window-width="1299"
     inkscape:window-height="704"
     id="namedview6802"
     showgrid="false"
     inkscape:zoom="0.18061223"
     inkscape:cx="-1255.3447"
     inkscape:cy="653.33336"
     inkscape:window-x="67"
     inkscape:window-y="27"
     inkscape:window-maximized="1"
     inkscape:current-layer="svg6800" />
  <path
     style="fill:#000000;stroke:#000000;stroke-width:11.56566238;stroke-miterlimit:4;stroke-dasharray:none;stroke-opacity:1"
     d="M 234.82415,663.9494 V 307.40999 h 274.59091 274.59089 l 0.54234,166.08188 c 0.5857,179.36573 0.0559,407.32896 -0.96612,415.81179 -1.03494,8.58891 -5.51031,13.57018 -73.89847,82.25197 l -48.72406,48.93327 H 447.8919 234.82415 Z m 395.83149,263.7705 v -62.93605 l 62.03058,-0.18599 62.03058,-0.18599 0.1829,-263.5845 0.1829,-263.58448 H 509.86983 264.65704 V 663.9494 990.6559 h 182.9993 182.9993 z m -284.50388,-122.61 c 0,-14.55263 0,-14.55263 163.35325,-14.55263 163.35326,0 163.35326,0 163.35326,14.55263 0,14.55263 0,14.55263 -163.35326,14.55263 -163.35325,0 -163.35325,0 -163.35325,-14.55263 z m 0,-92.77301 c 0,-14.91645 0,-14.91645 163.35325,-14.91645 163.35326,0 163.35326,0 163.35326,14.91645 0,14.91644 0,14.91644 -163.35326,14.91644 -163.35325,0 -163.35325,0 -163.35325,-14.91644 z m 0,-94.59208 c 0,-14.91646 0,-14.91646 163.35325,-14.91646 163.35326,0 163.35326,0 163.35326,14.91646 0,14.91644 0,14.91644 -163.35326,14.91644 -163.35325,0 -163.35325,0 -163.35325,-14.91644 z m 95.68353,-100.34439 c -54.7723,-12.51365 -54.7948,-103.37594 -0.029,-117.21314 22.53338,-5.69331 51.66613,7.72783 57.79409,26.62513 2.42283,7.47145 -18.17058,13.97103 -22.26908,7.02845 -13.71833,-23.23789 -45.32245,-17.75199 -50.79349,8.81683 -9.89113,48.03387 30.78877,79.55232 50.27479,38.9525 3.64831,-7.60138 2.28667,-7.37082 16.39732,-2.77639 9.47012,3.08349 9.48381,3.15665 2.97206,15.87955 -9.30939,18.18903 -32.20328,27.74609 -54.34666,22.68707 z m 97.61049,-34.9007 c -13.40528,-37.31679 -25.22059,-70.99273 -26.94309,-76.79298 -1.47087,-4.95298 -0.67127,-5.26454 12.8255,-4.99739 11.73229,0.23222 8.48884,-5.47581 25.74888,45.31444 5.43996,16.00789 10.87361,31.23358 12.07477,33.83485 2.73601,5.92522 1.03531,9.73705 17.69312,-39.65591 13.25131,-39.2921 13.25131,-39.2921 23.06357,-39.49389 16.23648,-0.33391 16.56096,-6.2351 -2.63172,47.86165 -26.35716,74.29057 -22.52491,67.28127 -36.90704,67.50413 -12.7917,0.19823 -12.7917,0.19823 -24.92399,-33.5749 z m 161.59056,454.78834 c 22.12061,-22.14883 40.21928,-40.62276 40.21928,-41.05334 0,-1.8887 -73.76335,-2.91033 -79.67564,-1.10343 -3.66873,1.12119 -5.19195,82.42724 -1.54424,82.42724 0.42973,0 18.88,-18.12164 41.0006,-40.27047 z"
     id="path6810"
     inkscape:connector-curvature="0" />
</svg>
