<?xml version="1.0" encoding="UTF-8" standalone="no"?>
<!-- Created with Inkscape (http://www.inkscape.org/) -->

<svg
   xmlns:dc="http://purl.org/dc/elements/1.1/"
   xmlns:cc="http://creativecommons.org/ns#"
   xmlns:rdf="http://www.w3.org/1999/02/22-rdf-syntax-ns#"
   xmlns:svg="http://www.w3.org/2000/svg"
   xmlns="http://www.w3.org/2000/svg"
   xmlns:sodipodi="http://sodipodi.sourceforge.net/DTD/sodipodi-0.dtd"
   xmlns:inkscape="http://www.inkscape.org/namespaces/inkscape"
   version="1.1"
   id="svg6800"
   width="1010.6667"
   height="1306.6667"
   viewBox="0 0 1010.6667 1306.6667"
   sodipodi:docname="cv.svg"
   inkscape:version="0.92.4 (unknown)">
  <metadata
     id="metadata6806">
    <rdf:RDF>
      <cc:Work
         rdf:about="">
        <dc:format>image/svg+xml</dc:format>
        <dc:type
           rdf:resource="http://purl.org/dc/dcmitype/StillImage" />
        <dc:title />
      </cc:Work>
    </rdf:RDF>
  </metadata>
  <defs
     id="defs6804" />
  <sodipodi:namedview
     pagecolor="#ffffff"
     bordercolor="#666666"
     borderopacity="1"
     objecttolerance="10"
     gridtolerance="10"
     guidetolerance="10"
     inkscape:pageopacity="0"
     inkscape:pageshadow="2"
     inkscape:window-width="1299"
     inkscape:window-height="704"
     id="namedview6802"
     showgrid="false"
     inkscape:zoom="0.18061223"
     inkscape:cx="-1255.3447"
     inkscape:cy="653.33335"
     inkscape:window-x="67"
     inkscape:window-y="27"
     inkscape:window-maximized="1"
     inkscape:current-layer="svg6800" />
  <path
     style="fill:#ffffff;fill-opacity:1;stroke:#ffffed;stroke-width:10.08317375;stroke-miterlimit:4;stroke-dasharray:none;stroke-opacity:1"
     d="M 272.69308,671.63487 V 360.79673 h 239.3938 239.39379 l 0.47283,144.79348 c 0.51062,156.37461 0.0487,355.11748 -0.84229,362.51298 -0.90228,7.48798 -4.80399,11.83075 -64.42615,71.7089 l -42.4786,42.66095 H 458.44977 272.69308 Z m 345.09375,229.96036 v -54.8689 l 54.07949,-0.16215 54.07949,-0.16215 0.15946,-229.7982 0.15945,-229.79818 H 512.48336 298.70198 V 671.63487 956.46408 H 458.2444 617.78683 Z M 369.7507,794.7014 c 0,-12.68728 0,-12.68728 142.4146,-12.68728 142.41462,0 142.41462,0 142.41462,12.68728 0,12.68727 0,12.68727 -142.41462,12.68727 -142.4146,0 -142.4146,0 -142.4146,-12.68727 z m 0,-80.88136 c 0,-13.00445 0,-13.00445 142.4146,-13.00445 142.41462,0 142.41462,0 142.41462,13.00445 0,13.00445 0,13.00445 -142.41462,13.00445 -142.4146,0 -142.4146,0 -142.4146,-13.00445 z m 0,-82.46725 c 0,-13.00447 0,-13.00447 142.4146,-13.00447 142.41462,0 142.41462,0 142.41462,13.00447 0,13.00445 0,13.00445 -142.41462,13.00445 -142.4146,0 -142.4146,0 -142.4146,-13.00445 z m 83.4188,-87.48223 c -47.75158,-10.90965 -47.7712,-90.1252 -0.0253,-102.18874 19.64504,-4.96354 45.04355,6.73727 50.38603,23.21231 2.11227,6.51376 -15.84147,12.18022 -19.41463,6.12754 -11.95991,-20.25925 -39.51301,-15.47653 -44.28277,7.68669 -8.62328,41.87688 26.84226,69.35529 43.83056,33.95957 3.18067,-6.62704 1.99357,-6.42603 14.29551,-2.42052 8.25624,2.68825 8.26817,2.75203 2.5911,13.84411 -8.11611,15.85756 -28.07546,24.18959 -47.3805,19.77904 z m 85.09876,-30.42712 c -11.68699,-32.53352 -21.98781,-61.89288 -23.48952,-66.94965 -1.28233,-4.31811 -0.58523,-4.58973 11.18153,-4.35682 10.22844,0.20245 7.40074,-4.77392 22.44838,39.50603 4.74267,13.95599 9.47983,27.23005 10.52702,29.49789 2.38531,5.16572 0.90261,8.48895 15.42522,-34.57281 11.55275,-34.25563 11.55275,-34.25563 20.10728,-34.43156 14.15528,-0.29111 14.43817,-5.43588 -2.29439,41.72674 -22.97869,64.76799 -19.63766,58.65715 -32.17629,58.85144 -11.15206,0.17282 -11.15206,0.17282 -21.72923,-29.27126 z m 140.87786,396.4935 c 19.28519,-19.30979 35.06397,-35.41573 35.06397,-35.79112 0,-1.6466 -64.30836,-2.53728 -69.46281,-0.96199 -3.19847,0.97748 -4.52644,71.86171 -1.3463,71.86171 0.37465,0 16.45996,-15.79881 35.74514,-35.1086 z"
     id="path6810"
     inkscape:connector-curvature="0" />
</svg>
