<?xml version="1.0" encoding="UTF-8" standalone="no"?>
<!-- Created with Inkscape (http://www.inkscape.org/) -->

<svg
   xmlns:dc="http://purl.org/dc/elements/1.1/"
   xmlns:cc="http://creativecommons.org/ns#"
   xmlns:rdf="http://www.w3.org/1999/02/22-rdf-syntax-ns#"
   xmlns:svg="http://www.w3.org/2000/svg"
   xmlns="http://www.w3.org/2000/svg"
   xmlns:sodipodi="http://sodipodi.sourceforge.net/DTD/sodipodi-0.dtd"
   xmlns:inkscape="http://www.inkscape.org/namespaces/inkscape"
   version="1.1"
   id="svg6749"
   width="218"
   height="231"
   viewBox="0 0 218 231"
   sodipodi:docname="datacamp-logo.svg"
   inkscape:version="0.92.4 (unknown)">
  <metadata
     id="metadata6755">
    <rdf:RDF>
      <cc:Work
         rdf:about="">
        <dc:format>image/svg+xml</dc:format>
        <dc:type
           rdf:resource="http://purl.org/dc/dcmitype/StillImage" />
        <dc:title></dc:title>
      </cc:Work>
    </rdf:RDF>
  </metadata>
  <defs
     id="defs6753" />
  <sodipodi:namedview
     pagecolor="#ffffff"
     bordercolor="#666666"
     borderopacity="1"
     objecttolerance="10"
     gridtolerance="10"
     guidetolerance="10"
     inkscape:pageopacity="0"
     inkscape:pageshadow="2"
     inkscape:window-width="1920"
     inkscape:window-height="1163"
     id="namedview6751"
     showgrid="false"
     inkscape:zoom="2.04329"
     inkscape:cx="109"
     inkscape:cy="111.51602"
     inkscape:window-x="1920"
     inkscape:window-y="0"
     inkscape:window-maximized="1"
     inkscape:current-layer="g7359" />
  <g
     id="g7359"
     transform="matrix(0.93909834,0,0,0.93909834,8.3678485,7.1470265)">
    <path
       style="fill:#ffffff;stroke:none;stroke-width:0.98558605;stroke-opacity:1;fill-opacity:1"
       d="M 107.84197,3.2362518 C 104.66718,3.4031863 90.221341,8.1178776 56.742694,19.881829 29.746922,29.367786 6.4894191,37.664631 5.058496,38.318606 c -1.4309228,0.653973 -3.0515498,2.175065 -3.6006196,3.380135 -0.7307523,1.603837 0.6911516,18.14967 5.3043541,61.737139 3.4662175,32.7502 6.5855185,62.42838 6.9315575,65.95184 0.346039,3.52346 1.180204,7.73611 1.853152,9.36234 0.998261,2.41233 4.195276,4.57716 17.365338,11.75122 8.878306,4.83622 28.978077,15.8134 44.665176,24.39346 15.687088,8.58005 29.116796,15.59965 29.845416,15.59965 0.72862,0 3.41628,-1.06699 5.9731,-2.37065 2.55683,-1.30364 21.7254,-11.97318 42.59518,-23.71016 20.86979,-11.73698 38.96366,-22.34394 40.20997,-23.57166 2.13309,-2.10131 2.74884,-6.18379 10.50119,-69.58708 6.12034,-50.055717 7.97954,-67.918415 7.23587,-69.550633 -0.55039,-1.207959 -2.17153,-2.738624 -3.60245,-3.400179 C 208.9048,37.642475 185.93042,29.628889 159.28201,20.495902 132.63358,11.362917 109.70464,3.6089757 108.3285,3.2635846 c -0.11378,-0.028553 -0.27486,-0.038462 -0.48653,-0.027335 z m -0.93112,11.3594452 c 0.18815,-0.0099 0.33252,-0.0017 0.43367,0.02369 1.22333,0.307036 21.60475,7.200276 45.29383,15.319034 23.68908,8.118758 44.11292,15.242975 45.38494,15.831064 1.27201,0.588088 2.71229,1.947352 3.20155,3.021168 0.66111,1.450956 -0.98978,17.331282 -6.43045,61.828247 -6.89144,56.3623 -7.43879,59.98946 -9.335,61.8574 -1.10791,1.0914 -17.19346,10.52146 -35.74564,20.95503 -18.55216,10.43358 -35.59192,19.91822 -37.86481,21.07711 -2.27288,1.15888 -4.66212,2.10644 -5.30982,2.10644 -0.6477,0 -12.58768,-6.23954 -26.532706,-13.86676 -13.945027,-7.62724 -31.811031,-17.38474 -39.703391,-21.6839 -11.707503,-6.37738 -14.550073,-8.3021 -15.437474,-10.44653 -0.598222,-1.44563 -1.339637,-5.1897 -1.647247,-8.32188 -0.307611,-3.13218 -3.081314,-29.51526 -6.1626,-58.6285 -4.100904,-38.747041 -5.363574,-53.454576 -4.713969,-54.880304 0.488092,-1.071247 1.927723,-2.423419 3.199741,-3.004768 1.272017,-0.58135 21.948303,-7.95612 45.946166,-16.38865 29.760804,-10.457553 42.60097,-14.649495 45.42321,-14.797891 z m -1.8805,30.43216 c -4.09592,0 -9.023775,0.477322 -10.95127,1.060506 -2.799255,0.846943 -3.505868,1.476944 -3.505868,3.128677 0,1.728719 -0.955379,2.454996 -5.825495,4.431531 -3.204102,1.300385 -7.737355,3.485187 -10.074812,4.854277 -2.337456,1.369089 -6.245517,4.484587 -8.684489,6.924269 -2.438974,2.43968 -5.569967,6.800906 -6.957069,9.692153 -2.091359,4.359189 -2.583696,6.679474 -2.886327,13.586144 -0.318764,7.274897 -0.0719,9.203847 1.953373,15.237036 1.275282,3.79899 3.366201,8.69364 4.646548,10.87839 1.280348,2.18474 4.65132,6.45612 7.490966,9.49171 3.522808,3.76589 5.556522,6.82379 6.399482,9.62474 0.679489,2.25777 1.235436,5.78958 1.235436,7.84993 0,2.06035 -0.569924,6.43351 -1.264591,9.71766 -0.694665,3.28416 -2.068288,8.53521 -3.053966,11.6674 -0.985679,3.13218 -1.797737,5.98887 -1.803955,6.35028 -0.0062,0.36141 11.194868,0.65781 24.89092,0.65781 H 121.5411 l 0.84549,-2.84807 c 0.46485,-1.56609 1.30057,-5.06059 1.85679,-7.76611 0.66357,-3.22761 1.77545,-5.63682 3.23619,-7.0081 2.02323,-1.89933 2.89006,-2.07217 9.499,-1.88412 6.20789,0.17662 7.60711,-0.0564 9.56461,-1.59623 1.83893,-1.4465 2.29411,-2.55112 2.29411,-5.57586 0,-2.15038 0.52318,-4.20539 1.21722,-4.78138 0.876,-0.72701 1.14642,-2.7233 0.96392,-7.11925 -0.24493,-5.90042 -0.16546,-6.17235 2.35426,-7.96655 2.05187,-1.46105 2.49677,-2.30451 2.08274,-3.95412 -0.28951,-1.15351 -1.83487,-4.16212 -3.43298,-6.68374 -1.59808,-2.52162 -3.33691,-5.85131 -3.86483,-7.39985 -0.69584,-2.04109 -0.69462,-4.41008 0.002,-8.613429 0.71012,-4.285455 0.69568,-7.09299 -0.051,-10.763595 -0.55565,-2.731484 -1.25491,-6.043405 -1.55432,-7.359769 -0.45831,-2.015002 -0.18183,-2.532516 1.74565,-3.265339 1.70201,-0.647067 2.28865,-1.488237 2.28865,-3.278095 0,-1.805653 -1.32792,-3.671028 -5.31165,-7.461811 -3.2398,-3.082894 -7.76867,-6.226319 -11.60908,-8.05766 -3.46322,-1.651478 -7.94671,-3.436196 -9.96365,-3.966878 -3.03811,-0.799359 -3.71319,-1.371331 -3.94137,-3.332759 -0.22263,-1.913611 -0.94843,-2.568869 -3.78102,-3.418403 -1.92749,-0.578085 -6.85534,-1.051395 -10.95128,-1.051395 z m -0.16946,5.14218 c 2.5574,-0.0115 6.37945,0.415287 8.49317,0.947532 3.19097,0.803493 3.88799,1.357316 4.11083,3.263517 0.18772,1.605704 1.27042,2.855231 3.60061,4.158205 1.84812,1.033404 4.24818,1.688769 5.39001,1.470496 1.53413,-0.293268 2.96356,0.510915 5.61229,3.159654 1.95467,1.954665 4.38988,5.192515 5.41187,7.195772 1.31513,2.577844 1.66694,4.317742 1.20263,5.951227 -0.36081,1.26939 -0.55796,5.659995 -0.43732,9.75593 0.12065,4.095934 -0.21223,8.571301 -0.7398,9.945441 -0.67001,1.74512 -1.3752,2.33693 -2.3415,1.96612 -0.76088,-0.29197 -2.27771,-0.75512 -3.37102,-1.02953 -1.64211,-0.41214 -2.37596,0.15973 -4.21651,3.289029 -1.22544,2.08349 -3.28125,4.77249 -4.5682,5.97491 -2.33992,2.18622 -2.33957,2.18661 -4.70121,-0.707 -2.36165,-2.8936 -2.36163,-2.89356 -6.72384,-1.7912 -2.39921,0.60629 -4.89331,1.49726 -5.54307,1.9807 -0.90524,0.67357 -1.04098,2.3817 -0.57944,7.30693 0.42474,4.53252 0.28934,6.80407 -0.45919,7.70598 -0.5838,0.70345 -1.703,1.25257 -2.48727,1.22086 -0.78428,-0.0317 -3.50475,-0.61553 -6.044159,-1.29921 -2.539404,-0.68367 -5.85342,-1.88405 -7.365233,-2.66583 -1.51181,-0.7818 -4.641734,-3.19136 -6.955245,-5.35538 -4.206383,-3.93459 -4.206421,-3.9353 -6.787604,-2.09733 -1.419652,1.01089 -2.996402,1.83858 -3.504045,1.83858 -0.507643,0 -1.905047,-1.67475 -3.104988,-3.72271 -1.199941,-2.04797 -2.792618,-6.07486 -3.540489,-8.946879 -0.747869,-2.87202 -1.361164,-6.517901 -1.361164,-8.103221 0,-2.774446 0.131273,-2.882683 3.474889,-2.882683 2.537676,0 3.717943,-0.456603 4.380512,-1.694623 0.498827,-0.93207 0.907443,-2.437548 0.907443,-3.345516 0,-0.907967 0.593821,-3.655349 1.321078,-6.104288 0.727256,-2.44894 2.048399,-5.347661 2.935524,-6.443214 1.612958,-1.991917 1.613071,-1.992996 4.713969,-0.07653 3.1009,1.91646 3.10024,1.917325 6.920625,-1.277346 2.101212,-1.757071 4.708479,-3.599321 5.7927,-4.094429 1.084218,-0.495109 1.971594,-1.39452 1.971594,-1.997104 0,-0.602584 -0.846145,-3.30663 -1.880485,-6.009536 -1.034347,-2.702909 -1.658213,-5.138508 -1.384856,-5.411864 0.273355,-0.273355 2.006878,-0.847281 3.852081,-1.275523 1.845202,-0.428243 5.447413,-0.788439 8.004813,-0.799935 z m 0.32982,25.767391 c -0.8608,-0.04018 -1.70441,0.241626 -3.08859,0.819978 -1.68487,0.703983 -3.489952,2.075636 -4.010613,3.0485 -0.520662,0.972866 -0.94571,3.121572 -0.94571,4.774101 0,2.078169 0.711098,3.717678 2.308705,5.315288 1.707818,1.707816 3.202108,2.308697 5.734378,2.308697 2.45247,0 4.02685,-0.599325 5.54125,-2.113725 1.16318,-1.163186 2.36198,-3.106076 2.66584,-4.316735 0.30401,-1.211279 0.0246,-3.314321 -0.62136,-4.675702 -0.64566,-1.360684 -2.62152,-3.181808 -4.39145,-4.047053 -1.45408,-0.710838 -2.33165,-1.07317 -3.19245,-1.113349 z"
       id="path7361-3"
       inkscape:connector-curvature="0" />
  </g>
</svg>
