<?xml version="1.0" encoding="UTF-8" standalone="no"?>
<!-- Created with Inkscape (http://www.inkscape.org/) -->

<svg
   xmlns:dc="http://purl.org/dc/elements/1.1/"
   xmlns:cc="http://creativecommons.org/ns#"
   xmlns:rdf="http://www.w3.org/1999/02/22-rdf-syntax-ns#"
   xmlns:svg="http://www.w3.org/2000/svg"
   xmlns="http://www.w3.org/2000/svg"
   xmlns:sodipodi="http://sodipodi.sourceforge.net/DTD/sodipodi-0.dtd"
   xmlns:inkscape="http://www.inkscape.org/namespaces/inkscape"
   version="1.1"
   id="svg3864"
   width="175.50955"
   height="142.7309"
   viewBox="0 0 175.50955 142.7309"
   sodipodi:docname="data-cleaning-logo.svg"
   inkscape:version="0.92.4 (unknown)">
  <metadata
     id="metadata3870">
    <rdf:RDF>
      <cc:Work
         rdf:about="">
        <dc:format>image/svg+xml</dc:format>
        <dc:type
           rdf:resource="http://purl.org/dc/dcmitype/StillImage" />
        <dc:title></dc:title>
      </cc:Work>
    </rdf:RDF>
  </metadata>
  <defs
     id="defs3868" />
  <sodipodi:namedview
     pagecolor="#ffffff"
     bordercolor="#666666"
     borderopacity="1"
     objecttolerance="10"
     gridtolerance="10"
     guidetolerance="10"
     inkscape:pageopacity="0"
     inkscape:pageshadow="2"
     inkscape:window-width="1920"
     inkscape:window-height="1163"
     id="namedview3866"
     showgrid="false"
     inkscape:zoom="1.2356021"
     inkscape:cx="87.3305"
     inkscape:cy="73.109114"
     inkscape:window-x="1920"
     inkscape:window-y="0"
     inkscape:window-maximized="1"
     inkscape:current-layer="svg3864" />
  <g
     id="g4417"
     transform="translate(132.57203,52.626023)"
     style="fill:#ffffff">
    <path
       style="fill:#ffffff"
       d="m -54.572034,88.907965 c -2.475,-0.66853 -7.2,-2.84845 -10.5,-4.84426 l -6,-3.62875 -17.5,-0.49356 c -22.357956,-0.63058 -34.775886,-3.59726 -41.749996,-9.97421 -2.05524,-1.87925 -2.25,-2.95115 -2.25,-12.38302 0,-6.04663 0.40439,-10.32569 0.97583,-10.32569 0.5367,0 2.4492,0.90749 4.25,2.01664 7.30418,4.49883 32.499615,9.65791 34.992395,7.16513 1.420449,-1.42045 0.745989,-1.61777 -10.657075,-3.11779 -17.45298,-2.29587 -27.50429,-7.56467 -24.64025,-12.91618 2.17713,-4.068 4.4998,-4.43955 13.65855,-2.18488 9.88279,2.4329 29.772596,3.8945 30.781556,2.26197 0.42853,-0.69337 -1.69592,-1.25953 -6.101795,-1.62611 -20.018561,-1.66557 -34.552511,-5.36095 -39.644341,-10.0799 -2.40247,-2.22653 -2.61487,-3.0771 -2.61487,-10.47113 0,-4.426263 0.39562,-8.04775 0.87915,-8.04775 0.48354,0 3.29604,1.096823 6.25,2.437384 10.15044,4.606446 20.41898,6.066376 42.370846,6.024076 15.13902,-0.0292 21.81602,-0.45267 27.47183,-1.742452 6.54351,-1.492217 7.65285,-1.5229 8.92878,-0.246966 1.27594,1.275935 0.47186,2.429928 -6.47183,9.288138 -9.23999,9.12626 -13.96116,12.06306 -27.76694,17.27243 -5.56112,2.09839 -10.260201,4.26247 -10.4424,4.80907 -0.696894,2.09068 6.11455,13.54562 11.13961,18.73372 4.71545,4.86843 5.68408,5.4246 9.44755,5.4246 4.27681,0 5.07801,0.71539 3.06062,2.73278 -1.78113,1.78113 -0.36509,3.89114 4.54083,6.7662 3.21093,1.88173 5.19512,2.44456 6.81136,1.93209 1.25433,-0.39772 8.52818,-6.97013 16.16412,-14.60537 7.63595,-7.63523 13.07991,-12.63202 12.0977,-11.10397 -3.46436,5.38958 -11.3987,14.84757 -17.40469,20.74697 -3.3421,3.28278 -6.07654,6.28278 -6.07654,6.66666 0,1.10056 21.14086,0.88624 24.72444,-0.25064 6.43451,-2.04134 22.1925101,-25.86238 26.4014201,-39.91048 0.82773,-2.7627 1.75216,-3.97424 3.03243,-3.97424 2.37899,0 2.33815,0.43344 -0.75909,8.05579 -5.79931,14.27218 -12.17526,24.89627 -20.6286201,34.37295 -4.24151,4.75496 -4.64111,4.95588 -11.33355,5.69865 -10.02118,1.1122 -20.26261,0.91979 -25.43703,-0.4779 z m 71.17431,-2.96394 c -2.64852,-2.81923 -2.74047,-4.76481 -0.36388,-7.69977 3.4356,-4.24278 11.18957,-1.70015 11.18957,3.66921 0,3.00553 -3.32931,6.34501 -6.32569,6.34501 -1.27912,0 -3.30412,-1.0415 -4.5,-2.31445 z m 19.02569,-12.88555 c -2.68981,-2.68981 -0.59553,-6.8 3.46482,-6.8 2.96329,0 4.78874,3.284 3.33518,6 -1.18683,2.21761 -4.94075,2.65925 -6.8,0.8 z M 6.9279661,72.303795 c -8.32882,-3.3701 -7.59965,-14.99799 1.04218,-16.61921 6.2290399,-1.16858 11.6473199,4.6984 10.0855999,10.92081 -1.03453,4.1219 -7.20932,7.28394 -11.1277799,5.6984 z m -11,-36.19631 c -2.75,-0.53291 -5.4275,-1.39195 -5.9500001,-1.90897 -0.5225,-0.51702 -1.61792,-0.94004 -2.43426,-0.94004 -2.31071,0 -30.11099,-18.331495 -30.1135,-19.85684 -0.002,-1.45112 7.39797,-11.2026614 9.33607,-12.3022454 0.63893,-0.36249702 3.82563,0.425003 7.08156,1.75 3.25593,1.324997 6.55281,2.409085 7.3264,2.409085 0.84715,0 6.31754,-10.087238 13.7552401,-25.3642736 7.13962,-14.66479 13.07249,-25.642014 14.06451,-26.022686 1.8087199,-0.694073 6.4339799,1.751198 6.4339799,3.401505 0,0.532641 -4.5,12.226096 -9.9999999,25.985455 -5.5,13.7593586 -10,25.6817096 -10,26.4941126 0,0.8124034 2.65751,2.8186034 5.90558,4.4582224 3.24806,1.639619 6.07614,3.492835 6.28462,4.118255 0.20847,0.62542 -0.0865,5.02789 -0.65558,9.78327 -1.1762,9.8293 -1.25928,9.8895 -11.03462,7.99515 z M -104.07203,14.207209 c -9.3642,-1.440747 -18.90061,-4.6638914 -21.82899,-7.3778254 -3.27233,-3.032688 -3.30032,-3.727771 -0.29103,-7.22628202 l 2.37999,-2.76689998 7.37001,1.708148 c 21.82354,5.058042 45.990286,5.10148 67.027056,0.120478 5.0774,-1.202209 7.15366,-1.310437 8.75,-0.456106 2.98778,1.59901098 2.62675,3.161759 -1.92509,8.332914 -3.55751,4.0415534 -4.84693,4.7619734 -11.25,6.2855714 -8.41811,2.003077 -40.460739,2.883371 -50.231946,1.380002 z m -3.333,-16.5041224 c -10.60004,-1.935576 -16.87781,-4.251796 -20.75826,-7.658882 -3.33785,-2.9306726 -3.40874,-3.1571306 -3.40874,-10.8893216 0,-4.799289 0.40784,-7.896408 1.03983,-7.896408 0.57192,0 2.85777,0.927439 5.07969,2.060975 18.15784,9.263441 70.858606,8.744305 87.114236,-0.85813 3.91816,-2.314513 4.81852,-0.624483 4.33281,8.132943 -0.29468,5.313196 -0.86601,7.354044 -2.56499,9.162535 -2.8632,3.0477276 -11.43712,6.1712466 -22.00158,8.0152696 -10.58475,1.84756498 -38.553538,1.80805598 -48.832996,-0.068981 z m 2.333,-23.0197956 c -13.34973,-2.049144 -21.77204,-5.55586 -23.0554,-9.599352 -1.45373,-4.580287 7.11718,-9.328452 21.5554,-11.941395 9.787608,-1.771304 38.192496,-1.773672 47.999996,-0.004 22.49924,4.059776 27.90512,12.168461 12.11289,18.169034 -12.45041,4.730784 -39.59866,6.294343 -58.612886,3.375713 z m 20.249996,-27.130549 c 1.2375,-0.238353 3.2625,-0.238353 4.5,0 1.2375,0.238353 0.225,0.433369 -2.25,0.433369 -2.475,0 -3.4875,-0.195016 -2.25,-0.433369 z"
       id="path4419"
       inkscape:connector-curvature="0" />
  </g>
</svg>
