<?xml version="1.0" encoding="UTF-8" standalone="no"?>
<!-- Created with Inkscape (http://www.inkscape.org/) -->

<svg
   xmlns:dc="http://purl.org/dc/elements/1.1/"
   xmlns:cc="http://creativecommons.org/ns#"
   xmlns:rdf="http://www.w3.org/1999/02/22-rdf-syntax-ns#"
   xmlns:svg="http://www.w3.org/2000/svg"
   xmlns="http://www.w3.org/2000/svg"
   xmlns:sodipodi="http://sodipodi.sourceforge.net/DTD/sodipodi-0.dtd"
   xmlns:inkscape="http://www.inkscape.org/namespaces/inkscape"
   version="1.1"
   id="svg4510"
   width="1230.9567"
   height="1294.9191"
   viewBox="0 0 1230.9567 1294.9191"
   sodipodi:docname="data-analysis-logo.svg"
   inkscape:version="0.92.4 (unknown)">
  <metadata
     id="metadata4516">
    <rdf:RDF>
      <cc:Work
         rdf:about="">
        <dc:format>image/svg+xml</dc:format>
        <dc:type
           rdf:resource="http://purl.org/dc/dcmitype/StillImage" />
        <dc:title></dc:title>
      </cc:Work>
    </rdf:RDF>
  </metadata>
  <defs
     id="defs4514" />
  <sodipodi:namedview
     pagecolor="#ffffff"
     bordercolor="#666666"
     borderopacity="1"
     objecttolerance="10"
     gridtolerance="10"
     guidetolerance="10"
     inkscape:pageopacity="0"
     inkscape:pageshadow="2"
     inkscape:window-width="1920"
     inkscape:window-height="1163"
     id="namedview4512"
     showgrid="false"
     inkscape:zoom="0.17679856"
     inkscape:cx="1145.0295"
     inkscape:cy="176.26511"
     inkscape:window-x="1920"
     inkscape:window-y="0"
     inkscape:window-maximized="1"
     inkscape:current-layer="svg4510"
     showguides="false" />
  <g
     id="g4532"
     transform="translate(-0.02800846,-0.55758169)"
     style="fill:#ffffff">
    <path
       style="fill:#ffffff"
       d="M 1028.7651,1263.8445 C 1021.067,1254.4792 885.87379,1087.4469 816.52579,1001.6211 801.13997,982.57952 787.90696,967 787.11909,967 c -0.78787,0 -6.19947,2.64831 -12.02579,5.88512 -23.01116,12.78388 -48.07286,24.5281 -70.5933,33.08088 -21.85747,8.301 -57.2174,18.8224 -68.88032,20.4955 -2.68417,0.3851 -5.83417,1.1109 -7,1.6129 -3.32102,1.4301 -28.23292,5.7415 -45.46505,7.8685 C 482.64665,1048.3489 381.62871,1031.0402 291,985.88435 223.77909,952.39145 168.6886,908.92953 120.66008,851.5 26.677635,739.12162 -15.275766,592.46856 5.0477479,447.36347 24.128111,311.13419 96.737303,188.43585 208.05919,104.30545 234.07475,84.644441 256.55567,70.662036 286.5,55.51779 344.12639,26.373437 403.50807,9.2620209 471,2.3522977 491.77174,0.22571786 543.25632,-0.07921801 563.5,1.8044333 652.75712,10.109706 733.32315,38.392495 807,87.285362 c 5.775,3.832362 12.075,8.459148 14,10.281746 1.925,1.822599 4.625,3.747252 6,4.277002 1.375,0.52975 8.86648,6.06904 16.64774,12.30954 C 971.75514,216.89456 1043.6044,370.22858 1039.6766,532.5 1037.0428,641.31031 1003.1803,740.17836 938.3128,828.45142 934.29076,833.92469 931,838.94205 931,839.6011 c 0,0.65905 5.32208,6.30591 11.82686,12.54859 28.85027,27.6878 184.71724,180.28701 224.00664,219.31031 45.4638,45.1559 50.2985,50.7328 57.2244,66.0074 5.2306,11.5358 6.9095,20.2913 6.9267,36.1226 0.018,16.6148 -1.7926,25.2353 -7.9904,38.04 -6.6273,13.6918 -14.3883,22.8185 -36.935,43.434 -11.3645,10.3911 -24.0144,21.5773 -28.111,24.8582 -54.7859,19.1381 -92.7402,27.4563 -129.1831,-16.0777 z M 559.13312,941.96161 C 630.70329,934.77734 697.84417,910.78134 756,871.60183 849.17645,808.82896 914.44035,710.54506 935.93087,600.63562 c 5.36033,-27.41441 8.34579,-58.11231 8.08519,-83.13562 -0.14514,-13.93714 -0.16614,-19.36983 -0.0841,-21.75 0.0795,-2.30687 -3.82743,-33.14321 -5.47979,-43.25 -10.95663,-67.01726 -37.53941,-129.33642 -78.93692,-185.05523 -24.13258,-32.48114 -55.99761,-64.15326 -88.53046,-87.99446 -6.7173,-4.92267 -15.42436,-11.54512 -19.34904,-14.71655 -3.92468,-3.17142 -8.75182,-6.20703 -10.72698,-6.74578 -1.97515,-0.53875 -4.4074,-1.88144 -5.40498,-2.98376 C 734.50623,153.9019 733.07696,153 732.32767,153 c -0.7493,0 -5.41285,-2.28334 -10.36345,-5.07409 C 709.59838,140.95504 690.577,132.06397 674.20927,125.60406 563.08782,81.747332 438.78911,87.183455 331.88955,140.57519 311.88667,150.56576 301.76279,156.44481 284.21324,168.26132 191.55006,230.65353 126.64482,327.90379 104.52216,437.5 c -1.88735,9.35 -4.14319,23.3 -5.012965,31 -0.869777,7.7 -2.10345,16.475 -2.741495,19.5 -2.008526,9.5225 -0.633972,58.0136 2.324415,82 C 118.09445,724.0696 219.88671,855.92199 364.5,913.78511 c 43.37323,17.35463 83.50478,26.12921 135.5,29.62647 9.14459,0.61508 48.06929,-0.33938 59.13312,-1.44997 z M 257.5,723.06169 c -4.4063,-1.07747 -10.693,-4.52987 -13.13715,-7.21437 -1.17543,-1.29103 -3.20043,-4.37232 -4.5,-6.84732 L 237.5,704.5 237.23139,577.17596 c -0.17979,-85.22404 0.0727,-128.59152 0.76359,-131.15733 1.87825,-6.97527 6.933,-13.18206 13.43431,-16.49614 L 257.35859,426.5 H 304.92929 352.5 l 5.2935,2.39186 c 2.95098,1.33339 6.80822,4.16146 8.71637,6.39071 6.9326,8.09918 6.54866,-0.60284 6.25504,141.77034 L 372.5,705.5 l -2.21551,4.14255 c -1.21853,2.27841 -4.12387,5.77605 -6.45632,7.77253 -7.52392,6.4402 -8.9449,6.59697 -58.75967,6.48256 -24.51268,-0.0563 -45.9185,-0.43248 -47.5685,-0.83595 z m 212.20268,-0.48474 c -9.42547,-3.40998 -15.47721,-10.10803 -17.56506,-19.44096 0.46525,-42.88537 -0.93888,-78.19171 -0.93774,-103.13599 0.29863,-49.25378 0.31158,-49.52487 2.60373,-54.5 4.28407,-9.29857 10.15569,-13.56366 21.3584,-15.51453 4.33406,-0.75474 20.24732,-1.00553 48.3976,-0.76273 36.79425,0.31736 42.48412,0.5737 46.37172,2.08912 9.61704,3.74882 15.06779,10.52453 16.99152,21.1218 1.4045,7.73695 1.48448,141.1455 0.089,148.50368 -1.89433,9.98879 -6.76307,16.62692 -15.01188,20.4675 -4.34328,2.02219 -6.13689,2.10301 -51.5,2.32054 -37.78872,0.1812 -47.74422,-0.0439 -50.79732,-1.14843 z M 687,723.06487 C 678.77907,720.55512 673.77274,716.4463 669.86285,709 L 667.5,704.5 667.23937,522.04248 C 666.94458,315.67162 666.28606,332.61871 674.93606,323.9687 682.86337,316.04139 683.17535,316 735,316 c 50.43102,0 51.44705,0.12042 59.29423,7.02779 3.19204,2.80975 5.21251,5.71065 6.64605,9.54214 2.05181,5.48394 2.05972,6.20158 2.05972,186.78608 0,205.24328 0.68844,188.37789 -8.03485,196.83657 -8.02609,7.78264 -8.32442,7.82078 -60.39665,7.72147 -24.78768,-0.0473 -46.1935,-0.42941 -47.5685,-0.84918 z"
       id="path4534"
       inkscape:connector-curvature="0"
       sodipodi:nodetypes="ccscsccssssssssssssssssscccsccsssscssscccssssssssssssccscscscccccscccsccccccscsccsccsscsssscsscs" />
  </g>
</svg>
