<?xml version="1.0" encoding="UTF-8" standalone="no"?>
<!-- Created with Inkscape (http://www.inkscape.org/) -->

<svg
   xmlns:dc="http://purl.org/dc/elements/1.1/"
   xmlns:cc="http://creativecommons.org/ns#"
   xmlns:rdf="http://www.w3.org/1999/02/22-rdf-syntax-ns#"
   xmlns:svg="http://www.w3.org/2000/svg"
   xmlns="http://www.w3.org/2000/svg"
   xmlns:sodipodi="http://sodipodi.sourceforge.net/DTD/sodipodi-0.dtd"
   xmlns:inkscape="http://www.inkscape.org/namespaces/inkscape"
   version="1.1"
   id="svg11751"
   width="265.66684"
   height="160.06786"
   viewBox="0 0 265.66684 160.06786"
   sodipodi:docname="dimensionality-reduction-logo.svg"
   inkscape:version="0.92.4 (unknown)">
  <metadata
     id="metadata11757">
    <rdf:RDF>
      <cc:Work
         rdf:about="">
        <dc:format>image/svg+xml</dc:format>
        <dc:type
           rdf:resource="http://purl.org/dc/dcmitype/StillImage" />
        <dc:title></dc:title>
      </cc:Work>
    </rdf:RDF>
  </metadata>
  <defs
     id="defs11755" />
  <sodipodi:namedview
     pagecolor="#ffffff"
     bordercolor="#666666"
     borderopacity="1"
     objecttolerance="10"
     gridtolerance="10"
     guidetolerance="10"
     inkscape:pageopacity="0"
     inkscape:pageshadow="2"
     inkscape:window-width="1920"
     inkscape:window-height="1163"
     id="namedview11753"
     showgrid="false"
     inkscape:zoom="3.9477912"
     inkscape:cx="158.65938"
     inkscape:cy="97.454933"
     inkscape:window-x="1920"
     inkscape:window-y="0"
     inkscape:window-maximized="1"
     inkscape:current-layer="g11767" />
  <g
     id="g11767"
     transform="translate(-9.3869077,-59.860627)">
    <path
       style="fill:#fffff1;fill-opacity:1"
       d="m 157.5,223.35444 c -8.41221,-1.35239 -17.21839,-2.38596 -25.13997,-7.41401 L 122.79554,211.86958 94.647772,212.1117 66.5,212.35382 43.679436,181.92691 C 32.156879,166.56376 19.96554,154.39492 18.873688,153.04427 l -1.985185,-2.45573 -2.04163,1.27502 c -2.582171,1.61259 -2.682819,1.49174 -4.475688,-5.3739 -1.8488417,-7.07999 -1.5980959,-7.32087 5.211347,-5.00627 6.407052,2.17782 7.320229,3.136 4.767606,5.00255 L 18.5,147.83882 l 2.092979,2.33059 C 21.744117,151.45123 32.220665,163.6375 43.874196,177.25 55.527727,190.8625 65.498387,202 66.031217,202 66.649164,202 67,169.04512 67,111 V 70 h -2 c -2.568294,0 -2.504117,-1.551907 0.26645,-6.443282 2.791382,-4.928121 7.675718,-4.928121 10.4671,0 C 78.504117,68.448093 78.568294,70 76,70 h -2 v 42 c 0,65.32308 0.313789,92 1.082157,92 C 76.923851,204 99,185.81516 99,184.53081 c 0,-0.6662 -1.350051,-3.64567 -3.000113,-6.62104 -42.452692,-76.5502 71.682773,-151.404428 131.924423,-86.520888 3.10725,3.346668 4.21368,3.286028 9.89551,-0.542344 7.52878,-5.072824 8.34206,-5.946555 7.01903,-7.540711 -1.71112,-2.061776 -0.0647,-3.046849 6.41115,-3.835773 6.76002,-0.823548 6.94239,-0.431524 3.09107,6.644618 -2.87726,5.286481 -3.7267,5.805572 -5.19799,3.176513 l -0.9563,-1.708816 -7.09339,4.716785 c -8.22182,5.467142 -7.8894,4.679268 -4.22791,10.020666 20.73967,30.25517 16.6148,67.28655 -10.50076,94.27144 l -9.13529,9.09126 30.04818,0.65874 c 25.44257,0.64653 24.12532,2.92519 16.90963,4.65874 l 0.52301,-6 c 0.66571,-2.54566 1.86199,-2.49803 6.69268,0.26645 4.97986,2.84985 4.91216,7.73588 -0.49227,10.44233 C 265.47031,218.43321 265,218.46715 265,216.13527 v -1.86473 l -5.75,-0.72198 -47.75,-0.72198 -7,3.17534 c -13.20172,5.98857 -34.63138,9.34095 -47,7.35252 z m 23.5,-3.39507 c 7.88748,-1.24444 19,-4.77757 19,-6.0409 C 200,213.37924 186.4982,213 167.3,213 c -18.77707,0 -32.29551,0.37308 -31.75,0.87624 5.36725,4.95052 30.9372,8.37286 45.45,6.08313 z m 34.85313,-18.02013 c 12.22336,-8.16245 22.0288,-21.25627 27.46672,-36.67803 l 3.08932,-8.76121 -0.0197,-13 -0.0197,-13 -2.84496,-8.33347 c -2.91597,-8.54147 -9.09155,-19.85988 -11.75146,-21.53771 -1.1206,-0.706854 -6.31014,2.37559 -20.88226,12.40352 -10.66509,7.33927 -26.38332,18.09692 -34.92938,23.90589 -80.69534,54.8506 -72.7495,48.23615 -66.26864,55.16471 12.95506,13.85001 11.89033,13.61136 61.44299,13.77189 L 209.77209,206 Z m -86.39858,-4.39379 C 125.603,193.69391 128.41338,187 133.88197,187 136.00281,187 140,191.36455 140,193.68031 140,195.59529 135.46962,200 133.5,200 c -0.875,0 -2.69545,-1.10455 -4.04545,-2.45455 z m 39.61803,-10.18031 c -5.00523,-6.36312 2.76539,-13.61808 8.47287,-7.91059 1.35,1.35 2.45455,3.17045 2.45455,4.04545 0,5.29468 -7.66916,8.00734 -10.92742,3.86514 z m -19.61803,-9.81969 C 148.10455,176.19545 147,174.375 147,173.5 c 0,-5.13459 6.83447,-7.75644 10.54545,-4.04545 1.35,1.35 2.45455,3.17045 2.45455,4.04545 0,0.875 -1.10455,2.69545 -2.45455,4.04545 -1.35,1.35 -3.17045,2.45455 -4.04545,2.45455 -0.875,0 -2.69545,-1.10455 -4.04545,-2.45455 z m 40,0 C 188.10455,176.19545 187,174.375 187,173.5 c 0,-5.13459 6.83447,-7.75644 10.54545,-4.04545 1.35,1.35 2.45455,3.17045 2.45455,4.04545 0,0.875 -1.10455,2.69545 -2.45455,4.04545 -1.35,1.35 -3.17045,2.45455 -4.04545,2.45455 -0.875,0 -2.69545,-1.10455 -4.04545,-2.45455 z m -20,-20 C 165.603,153.69391 168.41338,147 173.88197,147 176.00281,147 180,151.36455 180,153.68031 180,155.59529 175.46962,160 173.5,160 c -0.875,0 -2.69545,-1.10455 -4.04545,-2.45455 z m 30,0 C 195.603,153.69391 198.41338,147 203.88197,147 206.00281,147 210,151.36455 210,153.68031 210,155.59529 205.46962,160 203.5,160 c -0.875,0 -2.69545,-1.10455 -4.04545,-2.45455 z m 0,-20 C 198.10455,136.19545 197,134.375 197,133.5 c 0,-0.875 1.10455,-2.69545 2.45455,-4.04545 5.70748,-5.70749 13.4781,1.54747 8.47287,7.91059 -2.58859,3.29086 -5.30453,3.34866 -8.47287,0.18031 z m 20,-10 C 218.10455,126.19545 217,124.375 217,123.5 c 0,-0.875 1.10455,-2.69545 2.45455,-4.04545 1.35,-1.35 3.17045,-2.45455 4.04545,-2.45455 0.875,0 2.69545,1.10455 4.04545,2.45455 1.35,1.35 2.45455,3.17045 2.45455,4.04545 0,0.875 -1.10455,2.69545 -2.45455,4.04545 -1.35,1.35 -3.17045,2.45455 -4.04545,2.45455 -0.875,0 -2.69545,-1.10455 -4.04545,-2.45455 z M 110.37104,196.57226 C 105.53333,191.937 101.10827,188.41262 100.5376,188.7403 95.454289,191.65916 79,203.39134 79,204.09697 79,204.60437 87.79883,205 99.083447,205 h 20.083443 z m 16.98016,-30.21204 c 7.78184,-5.30188 14.51399,-9.96457 14.96034,-10.36154 0.44634,-0.39697 -0.56616,-2.09945 -2.25,-3.7833 -3.70327,-3.70326 -3.83035,-5.53748 -0.60699,-8.76083 3.87757,-3.87758 10.54545,-1.03224 10.54545,4.5 0,2.72317 0.18959,2.67031 6.99285,-1.9497 6.89206,-4.6803 7.64384,-5.60509 5.09775,-6.27091 -1.0378,-0.27139 -2.67157,-1.69098 -3.6306,-3.15465 l -1.7437,-2.66122 1.12712,-2.47376 c 0.61992,-1.36057 2.24032,-2.98097 3.60089,-3.60089 l 2.47376,-1.12712 2.57504,1.68723 c 1.41627,0.92798 2.84096,3.01681 3.16597,4.64185 0.73332,3.66661 1.06262,3.66324 6.2072,-0.0635 l 4.16636,-3.01809 -1.61368,-3.12052 c -1.9529,-3.7765 -0.77986,-7.2661 3.02535,-8.99987 l 2.47376,-1.12712 2.68123,1.89185 c 1.47468,1.04052 3.22415,2.29605 3.88771,2.79006 1.38014,1.02751 37.49955,-23.112687 37.50796,-25.068223 0.007,-1.685041 -9.89778,-10.256364 -16.39172,-14.1846 C 167.6794,55.575537 110.1594,74.889748 93.689431,121.73879 L 90.609391,130.5 90.578416,143 c -0.03101,12.51607 0.912418,17.75047 4.93412,27.37576 l 1.562283,3.73907 3.039321,-2.55741 C 104.25906,168.0697 111,170.17333 111,174.95455 c 0,2.14795 2.55631,0.80433 16.3512,-8.59433 z m -15.89665,-9.81477 C 110.10455,155.19545 109,153.375 109,152.5 c 0,-0.875 1.10455,-2.69545 2.45455,-4.04545 C 115.16553,144.74356 122,147.36541 122,152.5 c 0,0.875 -1.10455,2.69545 -2.45455,4.04545 -1.35,1.35 -3.17045,2.45455 -4.04545,2.45455 -0.875,0 -2.69545,-1.10455 -4.04545,-2.45455 z m 18,-29 C 128.10455,126.19545 127,124.375 127,123.5 c 0,-0.875 1.10455,-2.69545 2.45455,-4.04545 5.70748,-5.70749 13.4781,1.54747 8.47287,7.91059 -2.58859,3.29086 -5.30453,3.34866 -8.47287,0.18031 z m 30,-10 C 155.603,113.69391 158.41338,107 163.88197,107 166.00281,107 170,111.36455 170,113.68031 170,115.59529 165.46962,120 163.5,120 c -0.875,0 -2.69545,-1.10455 -4.04545,-2.45455 z m 30,-10 C 185.54483,103.63573 188.20389,97 193.68031,97 195.59529,97 200,101.53038 200,103.5 c 0,0.875 -1.10455,2.69545 -2.45455,4.04545 -1.35,1.35 -3.17045,2.45455 -4.04545,2.45455 -0.875,0 -2.69545,-1.10455 -4.04545,-2.45455 z m 19.61803,-10.180309 c -2.68527,-3.413763 -2.61274,-4.915894 0.38197,-7.910596 3.16834,-3.168341 5.88428,-3.110542 8.47287,0.180314 C 221.22002,93.820727 218.58058,100 213.5,100 c -1.3529,0 -3.23668,-1.121079 -4.42742,-2.634859 z"
       id="path11769"
       inkscape:connector-curvature="0"
       sodipodi:nodetypes="cscccssccsscccssscsssscsssscssssscsssccccscscccscssscssscccscsssscscssscsssssscsssssscsssscsssccsssccssscsssssssssccssccscccscccccccccccsscsccsscssccsssscsssscsssccssscsssssssccss" />
  </g>
</svg>
