<?xml version="1.0" encoding="UTF-8" standalone="no"?>
<!-- Created with Inkscape (http://www.inkscape.org/) -->

<svg
   xmlns:dc="http://purl.org/dc/elements/1.1/"
   xmlns:cc="http://creativecommons.org/ns#"
   xmlns:rdf="http://www.w3.org/1999/02/22-rdf-syntax-ns#"
   xmlns:svg="http://www.w3.org/2000/svg"
   xmlns="http://www.w3.org/2000/svg"
   xmlns:sodipodi="http://sodipodi.sourceforge.net/DTD/sodipodi-0.dtd"
   xmlns:inkscape="http://www.inkscape.org/namespaces/inkscape"
   version="1.1"
   id="svg893"
   width="172.91693"
   height="123.69051"
   viewBox="0 0 172.91693 123.69051"
   sodipodi:docname="docker-logo.svg"
   inkscape:version="0.92.4 (unknown)">
  <metadata
     id="metadata899">
    <rdf:RDF>
      <cc:Work
         rdf:about="">
        <dc:format>image/svg+xml</dc:format>
        <dc:type
           rdf:resource="http://purl.org/dc/dcmitype/StillImage" />
        <dc:title></dc:title>
      </cc:Work>
    </rdf:RDF>
  </metadata>
  <defs
     id="defs897" />
  <sodipodi:namedview
     pagecolor="#ffffff"
     bordercolor="#666666"
     borderopacity="1"
     objecttolerance="10"
     gridtolerance="10"
     guidetolerance="10"
     inkscape:pageopacity="0"
     inkscape:pageshadow="2"
     inkscape:window-width="1920"
     inkscape:window-height="1163"
     id="namedview895"
     showgrid="false"
     inkscape:zoom="1.0488889"
     inkscape:cx="27.550416"
     inkscape:cy="72.683019"
     inkscape:window-x="1920"
     inkscape:window-y="0"
     inkscape:window-maximized="1"
     inkscape:current-layer="g1470" />
  <g
     id="g1470"
     transform="translate(-421.97289,-89.140811)">
    <path
       style="fill:#ffffff"
       d="m 467.38983,212.39115 c -25.55376,-4.07335 -38.33753,-16.26563 -43.55228,-41.53716 -2.28868,-11.09131 -2.4771,-18.70511 -0.52887,-21.37049 1.37345,-1.87901 3.36556,-1.95045 62.25,-2.23235 33.45713,-0.16018 62.18115,-0.64501 63.83115,-1.07742 2.58254,-0.67679 2.95578,-1.19287 2.68223,-3.70878 -1.4523,-13.35719 -1.30256,-17.27209 0.85222,-22.28101 2.91545,-6.77715 4.26716,-7.82919 7.41189,-5.76868 4.25127,2.78553 7.6826,6.95083 10.08691,12.2445 l 2.32424,5.11739 7.82125,0.46376 c 8.72631,0.51743 14.32126,2.76357 14.32126,5.7494 0,6.0602 -11.27081,14.58619 -20.76909,15.71112 l -5.21316,0.61742 -4.99416,10.11176 c -12.1691,24.63895 -29.99483,39.43052 -55.02359,45.65788 -8.37704,2.08428 -33.96369,3.50397 -41.5,2.30266 z m -30.29278,-76.05922 0.29278,-7.78956 h 8.5 8.5 v 7.5 7.5 l -8.79278,0.28956 -8.79277,0.28955 z m 21.22554,6.39581 c -0.29464,-0.76781 -0.40004,-4.27362 -0.23423,-7.79069 l 0.30147,-6.39468 h 8.5 8.5 v 7.5 7.5 l -8.26577,0.2907 c -6.35306,0.22343 -8.38973,-0.0324 -8.80147,-1.10533 z m 20.98438,-0.0407 c -0.28605,-0.74543 -0.38442,-4.23292 -0.21861,-7.74999 l 0.30147,-6.39468 8.75,-0.28893 8.75,-0.28893 v 8.03893 8.03893 h -8.53138 c -6.25622,0 -8.67009,-0.36144 -9.05148,-1.35533 z m 21.18985,-0.22646 c -0.78542,-2.04676 -0.78542,-10.78965 0,-12.83642 0.48584,-1.26608 2.25888,-1.58179 8.88337,-1.58179 9.20246,0 9.48233,0.23612 9.48233,8 0,7.76388 -0.27987,8 -9.48233,8 -6.62449,0 -8.39753,-0.31571 -8.88337,-1.58179 z m 21.60023,-6.12865 0.29278,-7.78956 h 8.5 8.5 v 7.5 7.5 l -8.79278,0.28956 -8.79277,0.28955 z m -63.0043,-12.14298 c -0.91941,-0.58323 -1.21057,-2.98089 -1,-8.23469 l 0.29708,-7.41189 7.3425,-0.29567 c 4.55244,-0.18333 7.87733,0.14819 8.75,0.87244 1.77196,1.4706 1.9344,12.99633 0.2075,14.72323 -1.35877,1.35878 -13.57356,1.63019 -15.59708,0.34658 z m 20.99708,-0.34658 c -1.7269,-1.7269 -1.56446,-13.25263 0.2075,-14.72323 0.87267,-0.72425 4.19756,-1.05577 8.75,-0.87244 l 7.3425,0.29567 0.29708,7.41189 c 0.21058,5.2538 -0.0806,7.65146 -1,8.23469 -2.02352,1.28361 -14.23831,1.0122 -15.59708,-0.34658 z m 20.85715,-0.69322 c -1.43931,-2.68936 -1.3393,-12.42462 0.14285,-13.90678 0.71309,-0.71309 4.14774,-1.2 8.46482,-1.2 8.78879,0 9.37732,0.69489 8.4694,10 l -0.63422,6.5 -7.69285,0.29104 c -6.80544,0.25746 -7.81481,0.0632 -8.75,-1.68426 z m -0.59717,-20.41022 c -0.31797,-1.2669 -0.43905,-4.754399 -0.26906,-7.750003 l 0.30908,-5.446554 8.62875,-0.287164 c 9.9964,-0.33268 9.74762,-0.579856 9.09577,9.037164 l -0.45751,6.749997 h -8.36445 c -7.89777,0 -8.39671,-0.12852 -8.94258,-2.30344 z"
       id="path1472"
       inkscape:connector-curvature="0"
       sodipodi:nodetypes="sssscsssscssscsssccccccccccscccccsccscccccsccssssccccccccccsscssssssscscsccsscscsccsccss" />
  </g>
</svg>
