<?xml version="1.0" encoding="UTF-8" standalone="no"?>
<!-- Created with Inkscape (http://www.inkscape.org/) -->

<svg
   xmlns:dc="http://purl.org/dc/elements/1.1/"
   xmlns:cc="http://creativecommons.org/ns#"
   xmlns:rdf="http://www.w3.org/1999/02/22-rdf-syntax-ns#"
   xmlns:svg="http://www.w3.org/2000/svg"
   xmlns="http://www.w3.org/2000/svg"
   xmlns:sodipodi="http://sodipodi.sourceforge.net/DTD/sodipodi-0.dtd"
   xmlns:inkscape="http://www.inkscape.org/namespaces/inkscape"
   version="1.1"
   id="svg3650"
   width="225"
   height="225"
   viewBox="0 0 225 225"
   sodipodi:docname="emacs-logo.svg"
   inkscape:version="0.92.4 (unknown)">
  <metadata
     id="metadata3656">
    <rdf:RDF>
      <cc:Work
         rdf:about="">
        <dc:format>image/svg+xml</dc:format>
        <dc:type
           rdf:resource="http://purl.org/dc/dcmitype/StillImage" />
        <dc:title></dc:title>
      </cc:Work>
    </rdf:RDF>
  </metadata>
  <defs
     id="defs3654" />
  <sodipodi:namedview
     pagecolor="#ffffff"
     bordercolor="#666666"
     borderopacity="1"
     objecttolerance="10"
     gridtolerance="10"
     guidetolerance="10"
     inkscape:pageopacity="0"
     inkscape:pageshadow="2"
     inkscape:window-width="1920"
     inkscape:window-height="1163"
     id="namedview3652"
     showgrid="false"
     inkscape:zoom="2.2448748"
     inkscape:cx="104.83215"
     inkscape:cy="115.59003"
     inkscape:window-x="1920"
     inkscape:window-y="0"
     inkscape:window-maximized="1"
     inkscape:current-layer="svg3650" />
  <g
     id="g3660"
     style="fill:#ffffff">
    <path
       style="fill:#ffffff"
       d="M 96.538918,218.88765 C 47.021853,211.67357 8.9477586,169.07822 6.3102614,117.94444 3.501699,63.494176 42.299654,15.610667 96.227356,6.9709082 107.1772,5.2166331 127.25832,6.1608923 138,8.9351516 c 9.29796,2.4013894 26.10022,9.9767834 33.6865,15.1877514 7.7208,5.303369 21.72608,19.388711 27.30997,27.466088 18.72012,27.079607 24.06486,63.188269 13.97455,94.411009 -10.24524,31.70214 -35.60884,57.56002 -67.02525,68.33144 -14.94728,5.12482 -33.65949,6.85043 -49.406852,4.55621 z M 111.5,183.36755 c 19.38696,-2.38852 39.54495,-7.40276 50.26516,-12.5033 11.00155,-5.2344 11.75732,-10.38733 1.96766,-13.41572 -3.77481,-1.16772 -12.05923,-1.86138 -29.73282,-2.48954 -32.01584,-1.1379 -43.985976,-3.22613 -51.25,-8.94073 -4.434295,-3.48845 -3.075223,-8.89149 3.742207,-14.87727 7.24126,-6.35791 17.900473,-10.49852 43.919863,-17.06082 6.55164,-1.65237 12.35377,-3.44601 12.89363,-3.98587 0.64206,-0.64206 -4.34256,-3.49546 -14.41208,-8.25005 C 95.136268,85.90483 90.42217,82.81672 92.86881,78.24513 c 2.328603,-4.351033 17.60779,-7.846274 39.91181,-9.130157 15.21394,-0.875758 18.54006,-1.97003 22.61485,-7.44016 3.13141,-4.203703 2.77254,-11.381876 -0.82885,-16.578681 C 150.59632,39.36699 144.26139,36.47793 136,36.628784 c -6.50701,0.11882 -32.27117,6.242385 -34.14407,8.115284 -0.58789,0.587888 4.56784,1.178843 13.74144,1.575055 10.88575,0.470162 15.3087,1.044537 17.10458,2.221243 7.19867,4.716748 -4.77246,7.774834 -40.895421,10.446945 -17.553829,1.298503 -23.692843,2.900436 -27.23148,7.105868 -3.272358,3.888976 -3.23357,5.47688 0.26868,10.999355 5.280831,8.327007 18.53543,17.620815 34.406271,24.124856 4.2625,1.74682 7.75,3.43973 7.75,3.76202 0,0.3223 -4.92272,1.10918 -10.93937,1.74864 -24.504843,2.6044 -47.684729,14.77232 -50.940492,26.74042 -3.067752,11.27698 6.481737,20.8872 27.912823,28.09033 18.028006,6.05933 23.017352,6.71568 45.217039,5.9483 16.772,-0.57975 19.75,-0.4672 19.75,0.74643 0,1.72158 -13.84219,6.11693 -35.5,11.27241 -18.861501,4.48983 -18.649252,4.42355 -17.923617,5.59765 0.661855,1.0709 7.70867,0.61129 26.923617,-1.75604 z"
       id="path3662"
       inkscape:connector-curvature="0" />
  </g>
</svg>
