<?xml version="1.0" encoding="UTF-8" standalone="no"?>
<!-- Created with Inkscape (http://www.inkscape.org/) -->

<svg
   xmlns:dc="http://purl.org/dc/elements/1.1/"
   xmlns:cc="http://creativecommons.org/ns#"
   xmlns:rdf="http://www.w3.org/1999/02/22-rdf-syntax-ns#"
   xmlns:svg="http://www.w3.org/2000/svg"
   xmlns="http://www.w3.org/2000/svg"
   xmlns:sodipodi="http://sodipodi.sourceforge.net/DTD/sodipodi-0.dtd"
   xmlns:inkscape="http://www.inkscape.org/namespaces/inkscape"
   version="1.1"
   id="svg11097"
   width="225.97682"
   height="224.39073"
   viewBox="0 0 225.97682 224.39073"
   sodipodi:docname="emg-logo.svg"
   inkscape:version="0.92.4 (unknown)">
  <metadata
     id="metadata11103">
    <rdf:RDF>
      <cc:Work
         rdf:about="">
        <dc:format>image/svg+xml</dc:format>
        <dc:type
           rdf:resource="http://purl.org/dc/dcmitype/StillImage" />
        <dc:title></dc:title>
      </cc:Work>
    </rdf:RDF>
  </metadata>
  <defs
     id="defs11101" />
  <sodipodi:namedview
     pagecolor="#ffffff"
     bordercolor="#666666"
     borderopacity="1"
     objecttolerance="10"
     gridtolerance="10"
     guidetolerance="10"
     inkscape:pageopacity="0"
     inkscape:pageshadow="2"
     inkscape:window-width="1920"
     inkscape:window-height="1163"
     id="namedview11099"
     showgrid="false"
     inkscape:zoom="1.8190741"
     inkscape:cx="227.8846"
     inkscape:cy="46.428972"
     inkscape:window-x="1920"
     inkscape:window-y="0"
     inkscape:window-maximized="1"
     inkscape:current-layer="g11650" />
  <g
     id="g11650"
     transform="matrix(1.9012633,0,0,1,-114.65195,54.292024)">
    <path
       style="fill:#fffffe;stroke-width:0.3807463;fill-opacity:1"
       d="m 116.76557,169.56588 c -0.39754,-1.61886 -0.59236,-22.66423 -0.72118,-77.904247 -0.1509,-64.705356 -0.15058,-64.680062 -0.80907,-63.180224 -0.233,0.530693 -0.53857,0.964891 -0.67906,0.964891 -0.4532,0 -0.54686,1.755293 -0.54246,10.166947 0.0153,29.184603 -0.78977,114.295983 -1.1079,117.132873 -0.76698,6.83961 -0.95216,-5.07581 -1.18281,-76.111979 -0.18787,-57.862147 -0.52828,-69.48685 -0.9506,-32.462838 -0.19082,16.728827 -0.18354,16.593121 -0.84279,15.705143 -0.57379,-0.772884 -0.65127,0.632196 -0.83265,15.100507 -0.37743,30.108267 -1.32757,30.285777 -1.32757,0.247905 0,-4.058342 -0.04,-4.406869 -0.52581,-4.585209 -0.35654,-0.130874 -0.58716,-0.792164 -0.71636,-2.054063 -0.14478,-1.41409 -0.3211,-1.849295 -0.73418,-1.812097 -0.50773,0.04581 -0.55187,-0.250422 -0.66819,-4.481316 -0.12454,-4.530243 -0.12454,-4.530243 -0.26579,-0.906048 -0.0777,1.993306 -0.3139,4.711452 -0.52492,6.040323 -0.2498,1.573077 -0.39098,4.418421 -0.40459,8.154437 -0.0301,8.257902 -0.61575,33.764405 -0.78505,34.190495 -0.51453,1.29497 -0.60982,-3.11472 -0.74841,-34.634484 -0.24021,-54.63669 -0.36604,-64.28588 -0.83532,-64.059519 -0.47271,0.228022 -0.6127,3.228855 -0.98024,21.013178 -0.19843,9.601548 -0.963832,65.490145 -0.969928,70.822795 -0.0017,1.50698 -0.599748,1.30813 -0.908292,-0.30202 -0.250491,-1.3072 -0.261192,-1.28991 -0.280349,0.45303 -0.02528,2.29967 -0.386127,3.83233 -0.709865,3.01513 -0.226586,-0.572 -0.737976,-37.220428 -0.741228,-53.119617 -0.0014,-7.162792 -0.370997,-9.334489 -0.527076,-3.097578 -0.192,7.672217 -0.904109,1.839077 -0.915989,-7.50319 -0.0032,-2.491633 -0.09757,-4.894801 -0.209789,-5.340401 -0.265723,-1.055169 -0.443817,6.970181 -0.748524,33.729922 -0.490034,43.035774 -0.729775,52.843594 -1.280464,52.383904 -0.202652,-0.16913 -0.351399,-8.11858 -0.54032,-28.875795 -0.143376,-15.753315 -0.278376,-28.678626 -0.3,-28.722922 -0.02162,-0.04429 -0.255314,-0.222736 -0.519314,-0.396496 -0.443611,-0.291949 -0.48,-0.823901 -0.48,-7.016818 0,-3.685478 -0.081,-6.692351 -0.18,-6.681932 -0.49397,0.0521 -0.95803,3.101077 -1.091573,7.171928 -0.458861,13.987452 -1.4379,1.85063 -1.593991,-19.760214 -0.03866,-5.352959 -0.445627,-0.34913 -0.59101,7.266761 -0.153564,8.044377 -0.20254,8.706019 -0.727848,9.832791 -0.309765,0.664436 -0.637572,2.091462 -0.728462,3.17117 -0.176822,2.100523 -0.685322,2.583472 -1.040119,0.98787 -0.3147,-1.415298 -0.473086,1.817206 -0.669303,13.659915 -0.459499,27.732992 -1.53971,3.806486 -1.540768,-34.127828 -7.2e-4,-25.434846 -0.56646,-26.536073 -1.070952,-2.084591 -0.471548,22.854747 -0.534483,23.777607 -1.574799,23.092937 -0.41519,-0.273275 -0.471175,0.0025 -0.471175,2.331464 0,1.452849 -0.122746,3.591123 -0.27277,4.751696 -0.150024,1.160573 -0.393024,5.643701 -0.54,9.962532 -0.421454,12.384199 -0.965366,11.214238 -1.053033,-2.265121 -0.130215,-20.021131 -0.556603,-11.572832 -0.906953,17.969962 -0.0788,6.644361 -0.230971,12.308191 -0.338167,12.586301 -0.427786,1.10988 -0.586018,-1.5722 -0.794225,-13.462399 -0.241759,-13.806343 -0.610284,-18.675598 -0.642283,-8.486403 -0.01985,6.319487 -0.245273,8.724744 -0.70717,7.545371 -0.131275,-0.335188 -0.349212,-9.111451 -0.494858,-19.928034 -0.143151,-10.63097 -0.363507,-20.416294 -0.489682,-21.745165 -0.126173,-1.328871 -0.238209,-4.182924 -0.248964,-6.34234 -0.069,-13.85245 -0.507374,-8.849275 -0.952646,10.872583 -0.313275,13.875529 -0.441855,16.308873 -0.861771,16.308873 -0.238039,0 -0.347066,-0.845394 -0.37002,-2.869154 -0.15594,-13.74911 -0.322101,-17.36593 -0.797817,-17.36593 -0.50778,0 -0.716729,-1.392672 -0.974215,-6.493348 -0.174524,-3.457229 -0.489953,-3.682055 -0.821266,-0.585357 -0.377981,3.532859 -0.840706,4.822569 -1.414346,3.942041 -0.594312,-0.912265 -0.679368,0.418141 -0.905252,14.159726 -0.163776,9.963363 -0.378573,12.178475 -1.112236,11.46992 -0.30961,-0.299021 -0.394824,-2.77495 -0.544251,-15.81329 -0.101443,-8.85154 -0.27696,-15.613985 -0.410652,-15.821948 -0.419093,-0.651877 -0.893772,1.245817 -1.144749,4.576527 -0.335609,4.453883 -0.976563,5.146003 -1.276004,1.377848 L 60.303038,47.34851 c 0.393607,0.612238 0.906444,-1.142728 0.906444,-3.101932 0,-3.132638 0.274502,-5.739843 0.604322,-5.739843 0.382083,0 0.594612,1.356204 0.599352,3.824607 0.006,3.137873 0.326492,3.791713 0.922992,1.883147 0.282334,-0.903356 0.513768,-1.809656 0.514299,-2.01402 0.005,-1.942443 0.795113,-11.979246 0.9795,-12.443319 0.498525,-1.254676 0.69257,1.385349 0.709692,9.655634 0.0096,4.651049 0.09979,9.543711 0.200369,10.872582 0.202989,2.68203 0.13679,3.354141 0.66929,-6.795364 0.176093,-3.356406 1.04898,-3.335215 1.314358,0.03196 0.157732,2.001311 0.522556,1.355298 0.785539,-1.390985 0.334507,-3.49322 0.828177,-3.515771 1.485705,-0.06795 0.584645,3.065716 0.693814,2.841293 0.921884,-1.895252 0.190788,-3.962301 0.706322,-4.703248 1.050676,-1.510081 0.187169,1.735611 0.2322,1.403092 0.388577,-2.869154 0.437263,-11.94625 0.666562,-14.132243 1.407343,-13.416817 0.276617,0.267159 0.377501,2.619286 0.50216,11.707834 0.341527,24.900302 0.735278,23.369231 0.958562,-3.727308 0.242098,-29.37940379 0.416554,-38.3560318 0.745433,-38.3560318 0.440169,0 0.596741,7.0010647 0.62681,28.0276318 0.04166,29.127397 0.309955,34.467471 0.518933,10.3284 0.194796,-22.501237 0.621845,-48.313555 0.82092,-49.619222 0.66161,-4.339293 0.912173,10.9377174 0.998981,60.909191 0.02158,12.417571 0.123379,19.884971 0.274303,20.119713 0.146964,0.228526 0.242767,-0.752725 0.247138,-2.531474 0.0144,-5.85554 0.657892,-29.675757 0.819465,-30.333725 0.331212,-1.348779 0.567929,0.02517 0.74532,4.322305 0.245873,5.957672 0.483847,3.593841 0.691877,-6.872554 0.09195,-4.626209 0.305863,-8.977784 0.500866,-10.188994 0.233023,-1.447362 0.399494,-6.305041 0.527851,-15.40280015 0.158011,-11.19979385 0.244073,-13.28871385 0.547483,-13.28871385 0.31231,0 0.384139,3.7608812 0.54221,28.389498 0.164036,25.557968 0.393485,41.425293 0.563384,38.960086 0.03434,-0.498326 0.128529,-1.925353 0.209299,-3.171169 0.262526,-4.049182 1.148052,-2.546425 1.468137,2.491507 0.175889,2.768331 0.476722,3.19357 0.801322,1.132687 0.117732,-0.74749 0.388207,-9.618788 0.601056,-19.71398 0.410225,-19.456738 0.406925,-19.397115 1.073539,-19.397115 0.521767,0 0.738963,4.915086 0.744727,16.853056 0.004,8.266586 0.189068,10.10146 0.85092,8.436168 0.314972,-0.792491 0.446304,-3.343194 0.668679,-12.986696 0.271161,-11.759176 0.814973,-16.792729 1.074619,-9.946752 0.04284,1.129566 0.277913,2.488639 0.522382,3.020162 0.407745,0.886518 0.469356,2.877233 0.745332,24.082669 0.165465,12.71395 0.378093,22.906996 0.472507,22.651214 0.166303,-0.450533 0.498141,-20.586103 0.932126,-56.560256 0.190731,-15.8102954 0.374789,-19.8329772 0.823791,-18.0044932 0.08152,0.3319409 0.217876,3.0737696 0.303026,6.09294984 0.282504,10.01669366 0.492682,5.70762756 0.667673,-13.68860864 0.162888,-18.054855 0.294314,-21.157819 0.836601,-19.751858 0.128048,0.331966 0.281681,18.52157 0.364522,43.158114 0.20203,60.082595 0.264768,63.896833 1.017394,61.852938 0.585921,-1.591172 0.593923,-1.771677 0.917601,-20.705474 0.313222,-18.322038 0.994661,-45.5134854 1.206451,-48.141303 0.15157,-1.88047852 1.28012,-3.01140326 1.77157,-1.77525105 0.33492,0.84242375 0.39568,4.68532795 0.50113,31.69357805 0.11196,28.67412 0.20744,32.921676 0.69539,30.934636 0.19281,-0.785192 0.50145,-20.017205 0.50569,-31.509952 0.004,-12.047878 0.55305,-18.475059 1.10476,-12.942626 0.0852,0.854756 0.4113,1.799387 0.72457,2.099163 0.48885,0.467773 0.57011,0.953868 0.57327,3.429117 0.003,2.084817 0.0682,2.633002 0.23632,1.978055 0.12796,-0.498327 0.23431,-2.317018 0.23633,-4.041556 0.004,-3.090758 0.36134,-4.682333 0.72215,-3.213049 0.10164,0.413938 0.2552,6.632527 0.34124,13.819128 0.18085,15.106748 0.38823,21.686145 0.61175,19.408868 0.0906,-0.923591 0.34667,-1.58259 0.65922,-1.696777 0.70056,-0.255959 0.74233,-1.980975 1.03413,-42.6995759 0.21929,-30.6017921 0.59444,-55.7704611 0.8405,-56.3897451 0.7214,-1.81562 0.75881,0.299349 0.91908,51.9550654 0.26917,86.7549526 0.64029,101.9109526 0.98076,40.0523536 0.23588,-42.8576812 0.45283,-50.8219761 1.36794,-50.2196804 0.2458,0.1618304 0.46619,0.2516802 0.48976,0.1995824 0.0236,-0.051846 0.10457,-5.802561 0.18,-12.779135 0.11589,-10.719183 0.19292,-12.684679 0.49714,-12.684679 0.55557,0 0.66008,6.12675 0.82433,48.32259 0.13729,35.268065 0.30291,52.029233 0.50899,51.510571 0.0462,-0.116276 0.19905,-16.432625 0.3396,-36.258401 0.28329,-39.9596877 0.26086,-39.2278018 1.25674,-41.0125413 1.08739,-1.9487337 1.09784,-1.7574067 1.28268,23.4952503 0.17215,23.519434 0.36986,28.7235 0.69447,18.279982 0.16103,-5.18071 0.45421,-7.069066 0.84833,-5.464076 0.0998,0.406438 0.25628,8.120032 0.3477,17.14128 0.17559,17.325762 0.22236,18.516411 0.72744,18.516411 0.42227,0 0.56041,-6.127984 0.75329,-33.414265 0.16088,-22.7598887 0.34464,-25.4668346 1.65463,-24.3741904 0.45291,0.3777719 0.90993,19.0656774 1.07224,43.8453744 0.005,0.80286 0.0732,1.299601 0.15096,1.103869 0.0778,-0.195807 0.23607,-5.008686 0.35178,-10.695449 0.11571,-5.686739 0.27554,-10.604921 0.35518,-10.929236 0.33341,-1.357739 0.59164,0.353359 0.59164,3.920396 0,5.754239 0.19641,7.576882 0.79953,7.419456 0.38301,-0.09992 0.53839,0.300229 0.65264,1.680896 0.30232,3.653313 0.43461,-1.038483 0.68865,-24.424325 0.24148,-22.2295234 0.39335,-25.9819259 0.95843,-23.680764 0.10959,0.4462793 0.27851,8.278266 0.37538,17.404364 0.15668,14.760689 0.51751,25.271556 0.58738,17.109997 0.0418,-4.886496 0.28277,-7.248388 0.73939,-7.248388 0.66142,0 0.7186,-2.14205 0.7186,-26.9193087 0,-22.5861033 0.0779,-25.0730303 0.73368,-23.4225623 0.11652,0.293257 0.33397,16.836672 0.48322,36.7631479 0.30018,40.0795351 0.24261,37.7720311 0.93104,37.3189311 0.68134,-0.448419 0.66811,-0.147233 1.09633,-24.948273 0.41837,-24.2304307 0.48647,-26.1632613 0.9095,-25.8160182 0.47048,0.3861806 0.83272,7.43627003 0.86091,16.7555332 0.0601,19.851271 0.33487,35.033876 0.63415,35.033876 0.70928,0 0.79676,-2.348226 1.17007,-31.409682 0.44416,-34.577382 0.56118,-39.262106 0.98069,-39.262106 0.64533,0 1.04159,30.2317718 1.07279,81.846387 0.0152,25.117679 0.0952,27.521023 0.85315,25.614017 0.34013,-0.855763 0.40973,-6.421896 0.6232,-49.832644 0.30133,-61.280117 0.87811,-89.654436 1.75026,-86.102801 0.0842,0.343065 0.26593,32.372912 0.40375,71.177438 0.26063,73.382935 0.25943,73.271843 0.79543,73.271843 0.39257,0 0.53552,-9.43939 0.80498,-53.154847 0.17685,-28.691537 0.17685,-28.691537 0.71685,-28.8845505 0.50305,-0.1796997 0.54226,-0.5105081 0.57308,-4.8322589 0.13513,-18.9527756 0.34985,-29.3258486 0.61153,-29.5440806 0.73972,-0.616918 0.9284,5.741403 1.5098,50.878227 0.13693,10.630969 0.35208,23.949882 0.4781,29.597585 0.12602,5.647702 0.30772,16.384377 0.40378,23.859278 0.25452,19.804988 0.46495,12.340305 0.80883,-28.691537 0.34531,-41.2036895 0.45403,-46.5104912 0.95285,-46.5104912 0.2638,0 0.43269,1.2712616 0.64197,4.8322588 0.1562,2.6577424 0.29212,4.9053974 0.30203,4.9947684 0.01,0.08935 0.27916,-0.0024 0.59831,-0.204112 0.93492,-0.590568 1.09972,1.114993 1.09972,11.381026 0,14.393663 0.29965,35.208467 0.48825,33.915687 0.0931,-0.638462 0.24803,-4.616669 0.34421,-8.840441 0.1536,-6.745506 0.22936,-7.723158 0.62287,-8.037481 0.54172,-0.432739 0.6009,-1.301363 0.94563,-13.880488 0.55622,-20.296141 1.43357,-17.306382 1.4376,4.898955 0.002,9.671413 0.18453,13.524032 0.64159,13.524032 0.1842,0 0.39708,0.407722 0.47306,0.906049 0.26048,1.708354 0.56679,0.905595 0.56679,-1.485416 0,-10.124942 1.23008,-15.456232 1.81747,-7.877086 0.3389,4.372792 0.49371,2.47311 0.72669,-8.917329 0.53958,-26.3806856 1.63274,-18.4475763 1.74408,12.656868 0.0322,9.000561 0.32976,12.055429 0.63326,6.501629 0.20194,-3.695395 1.70154,-3.911815 3.15144,-0.454812 0.90778,2.164399 0.91374,2.143384 1.28473,-4.532507 0.46881,-8.436319 1.17001,-6.639021 1.79472,4.60026 0.18291,3.290718 0.59092,3.448722 2.61388,1.012182 0.73463,-0.884832 1.04545,-0.978961 1.50237,-0.455013 0.48068,0.55123 0.66772,0.444039 1.1292,-0.647095 0.68168,-1.611759 0.93064,-1.633479 1.47186,-0.128357 -0.10801,2.962754 0,0 -0.10801,2.962754 -0.75376,-1.153652 -0.75473,-1.153475 -1.2024,0.220472 -0.3865,1.186344 -0.51565,1.271513 -0.9404,0.62019 -0.59222,-0.908163 -1.37459,-0.982987 -1.57889,-0.151008 -0.0816,0.332218 -0.42229,0.604032 -0.75713,0.604032 -0.33485,0 -0.91044,0.448419 -1.27909,0.996503 -0.92546,1.375885 -1.40602,0.716634 -1.59015,-2.181463 -0.21085,-3.318554 -0.46396,-3.063476 -0.71988,0.725493 -0.27409,4.058116 -0.80271,4.473866 -1.40615,1.105883 -0.61674,-3.44218 -1.11617,-4.443036 -1.8613,-3.730026 -0.87173,0.834143 -0.90828,1.361313 -1.17591,16.95924 -0.44277,25.806427 -1.54473,20.952549 -1.64169,-7.231274 -0.0666,-19.360244 -0.39303,-18.620052 -0.86576,1.963105 -0.2506,10.911392 -1.10904,8.185268 -1.43495,-4.556946 -0.24105,-9.424163 -0.43555,-7.495362 -0.70799,7.020819 -0.27563,14.686267 -0.67667,17.197582 -1.27048,7.955685 -0.184,-2.863717 -0.46106,-5.120533 -0.68011,-5.539882 -0.41269,-0.7901 -0.67774,-5.224327 -0.94084,-15.740354 -0.18298,-7.3138 -0.43165,-8.282944 -0.70254,-2.738053 -0.0935,1.914657 -0.34157,3.964289 -0.55118,4.554731 -0.41317,1.16387 -0.58965,10.369474 -0.9579,49.967168 -0.1517,16.31229 -0.22831,19.02702 -0.53695,19.02702 -0.75342,0 -0.87985,-6.16893 -1.05138,-51.298607 -0.16971,-44.653167 -0.16971,-44.653167 -0.75916,-46.028071 -0.3242,-0.756223 -0.58946,-1.915487 -0.58946,-2.576198 0,-0.660685 -0.0929,-1.345784 -0.20649,-1.522438 -0.39057,-0.607506 -0.51774,7.257524 -0.75095,46.43992 -0.29554,49.656144 -0.69613,84.416794 -0.98137,85.156804 -0.55224,1.43269 -0.66865,-3.28928 -1.16819,-47.38633 -0.29166,-25.746883 -0.61988,-51.025637 -0.72938,-56.175013 -0.10951,-5.149376 -0.27536,-14.493152 -0.36857,-20.763964 -0.20763,-13.968576 -0.5855,-13.824036 -0.59308,0.226764 -0.007,13.717776 -0.19169,18.294957 -0.72251,17.945599 -0.49928,-0.328618 -0.71937,8.930745 -0.71488,30.074973 0.005,22.523234 -0.46261,44.460781 -0.97806,45.906461 -0.23691,0.66443 -0.46579,2.15941 -0.50863,3.32217 -0.1187,3.22179 -0.53491,2.52164 -0.71815,-1.20806 -0.24838,-5.05527 -0.6849,-56.485581 -0.70751,-83.356464 -0.011,-13.122603 -0.0973,-24.538814 -0.19167,-25.369359 -0.23748,-2.089952 -0.4992,18.018763 -0.49922,38.356055 -1e-5,23.868212 -0.4608,57.171558 -0.80563,58.226808 -0.18162,0.55581 -0.35761,7.13558 -0.51571,19.28028 -0.16957,13.02614 -0.32206,18.50494 -0.51963,18.66956 -0.498,0.41497 -0.52703,-1.33474 -0.79401,-47.85406 -0.35218,-61.3641 -0.52447,-78.586497 -0.75231,-75.202028 -0.20734,3.080011 -0.69434,49.481022 -0.69735,66.443559 -0.002,11.994669 -0.14468,15.881169 -0.56957,15.528869 -0.14692,-0.12182 -0.29995,-1.79919 -0.34006,-3.72749 -0.0511,-2.45557 -0.20351,-3.79858 -0.50876,-4.482521 -0.46172,-1.034531 -0.99057,-25.444988 -0.983,-45.372897 0.0136,-36.003122 -0.66145,-32.684241 -1.04856,5.154762 -0.29386,28.724054 -0.43768,33.323131 -0.97383,31.139806 -0.43408,-1.767701 -0.55547,0.251907 -0.663,11.03033 -0.0641,6.42787 -0.19455,12.00449 -0.28984,12.39253 -0.46747,1.90366 -0.62199,-0.9486 -0.64382,-11.8835 -0.023,-11.532615 -0.34107,-23.0685 -0.42247,-15.322893 -0.0457,4.343723 -0.83943,4.430225 -0.93147,0.101427 -0.30428,-14.310281 -0.56967,-12.663009 -0.77732,4.824885 -0.0949,7.990543 -0.24462,14.709751 -0.33276,14.931581 -0.53022,1.33446 -0.64733,-2.5459 -0.77039,-25.526988 -0.16515,-30.841716 -0.72049,-36.90756 -0.79843,-8.721044 -0.0319,11.549048 -0.47936,28.536023 -0.77149,29.290512 -0.46948,1.21254 -0.68463,-1.295349 -0.68826,-8.022835 -0.003,-5.716688 -0.0775,-7.084545 -0.46016,-8.456453 -0.37854,-1.357135 -0.48285,-3.183427 -0.61081,-10.694116 -0.17204,-10.097861 -0.4297,-12.001544 -0.86709,-6.406166 -0.29439,3.766016 -0.57009,4.871747 -0.96617,3.874893 -0.1203,-0.302771 -0.3268,-13.542078 -0.4589,-29.42068 -0.1321,-15.878601 -0.31974,-29.184326 -0.417,-29.568264 -0.30628,-1.209248 -0.50715,4.36743 -0.52966,14.704714 -0.0538,24.722894 -0.70901,64.165149 -1.08315,65.205645 -0.22413,0.623337 -0.43443,2.970204 -0.54735,6.108328 -0.29914,8.313224 -0.64626,6.073594 -0.84848,-5.474446 -0.45725,-26.111236 -0.79269,-27.860413 -0.86876,-4.530243 -0.0322,9.857582 -0.21417,12.797983 -0.71011,11.471556 -0.20347,-0.544157 -0.50601,-26.680058 -0.9538,-82.395978 -0.10983,-13.666282 -0.24654,-20.2560988 -0.42327,-20.4037344 -0.31099,-0.2597842 -0.45956,17.3922304 -0.81953,97.3684804 -0.32889,73.072839 -0.40709,78.543989 -1.08334,75.790129 z"
       id="path11658"
       inkscape:connector-curvature="0"
       sodipodi:nodetypes="cscsccssccscccccccsccsccccccccscsccscccscscscscssssccscscccsscssccscsccccsscccccccccccccccsscsccccscsscsscccccsccscsscsccscscsccsccccccccccccssscccsssssssccsscccscsccscscsssccsccsssccscsssccccsccscccscccccscscccccccccccccccscccccccscssccccssscscscccsccccccccccccsccccccscccccccsscccsccsscccccccccscc" />
  </g>
</svg>
