<?xml version="1.0" encoding="UTF-8" standalone="no"?>
<!-- Created with Inkscape (http://www.inkscape.org/) -->

<svg
   xmlns:dc="http://purl.org/dc/elements/1.1/"
   xmlns:cc="http://creativecommons.org/ns#"
   xmlns:rdf="http://www.w3.org/1999/02/22-rdf-syntax-ns#"
   xmlns:svg="http://www.w3.org/2000/svg"
   xmlns="http://www.w3.org/2000/svg"
   xmlns:sodipodi="http://sodipodi.sourceforge.net/DTD/sodipodi-0.dtd"
   xmlns:inkscape="http://www.inkscape.org/namespaces/inkscape"
   version="1.1"
   id="svg2907"
   width="225"
   height="170.47865"
   viewBox="0 0 225 170.47865"
   sodipodi:docname="frontend-development-logo.svg"
   inkscape:version="0.92.4 (unknown)">
  <metadata
     id="metadata2913">
    <rdf:RDF>
      <cc:Work
         rdf:about="">
        <dc:format>image/svg+xml</dc:format>
        <dc:type
           rdf:resource="http://purl.org/dc/dcmitype/StillImage" />
        <dc:title></dc:title>
      </cc:Work>
    </rdf:RDF>
  </metadata>
  <defs
     id="defs2911" />
  <sodipodi:namedview
     pagecolor="#ffffff"
     bordercolor="#666666"
     borderopacity="1"
     objecttolerance="10"
     gridtolerance="10"
     guidetolerance="10"
     inkscape:pageopacity="0"
     inkscape:pageshadow="2"
     inkscape:window-width="1920"
     inkscape:window-height="1163"
     id="namedview2909"
     showgrid="false"
     inkscape:zoom="1.0488889"
     inkscape:cx="119.17373"
     inkscape:cy="82.571869"
     inkscape:window-x="1920"
     inkscape:window-y="0"
     inkscape:window-maximized="1"
     inkscape:current-layer="svg2907" />
  <g
     id="g3460"
     transform="translate(0,-26.5)"
     style="fill:#ffffff">
    <path
       style="fill:#ffffff"
       d="M 5.3829413,195.41671 C 2.3433468,193.91718 0,190.42871 0,187.40329 c 0,-3.3226 5.8289293,-12.01935 13.723358,-20.47521 l 3.334761,-3.57192 -0.04329,-63.700229 C 16.967614,30.171452 16.789557,32.403646 22.698888,28.3985 25.396947,26.569846 28.700726,26.5 112.5,26.5 c 83.79927,0 87.10305,0.06985 89.80111,1.8985 5.9093,4.005126 5.73128,1.773483 5.68406,71.251768 l -0.0433,63.694562 2.84637,3.07758 C 219.17855,175.49424 225,184.08848 225,187.40329 c 0,3.09025 -2.38106,6.54965 -5.53969,8.04852 -2.8811,1.36717 -15.40478,1.54553 -107.11144,1.52542 -91.39428,-0.02 -104.2226987,-0.20719 -106.9659287,-1.56052 z M 143.85082,182 c 0.19294,-1.375 0.86794,-2.83061 1.5,-3.23469 0.63205,-0.40408 13.86168,-0.74158 29.39918,-0.75 15.5375,-0.008 28.24832,-0.35281 28.24626,-0.76531 -0.002,-0.4125 -0.89544,-2.2125 -1.9853,-4 L 199.0294,170 H 112.58279 26.136188 l -2.068094,2.90437 c -1.137452,1.5974 -2.068094,3.3974 -2.068094,4 0,0.76752 8.310245,1.09972 27.75,1.10928 15.2625,0.008 28.7625,0.285 30,0.61664 1.475309,0.39536 2.25,1.3662 2.25,2.81967 0,1.21919 0.306477,2.52318 0.68106,2.89777 0.374583,0.37458 14.212083,0.56208 30.75,0.41666 L 143.5,184.5 Z M 195.5,98.5 v -59 h -83 -83 l -0.259546,58 c -0.14275,31.9 -0.04337,58.5651 0.220835,59.25578 0.38123,0.9966 17.565954,1.20299 83.259541,1 L 195.5,157.5 Z M 94.358768,132.44968 c -1.785328,-1.78533 -2.382025,-3.22088 -1.989256,-4.7858 0.308588,-1.22951 6.966354,-15.88024 14.795038,-32.557181 9.76289,-20.797254 14.981,-30.811188 16.6122,-31.879993 3.13783,-2.055984 7.35871,-0.62631 8.60386,2.914254 0.78654,2.236519 -1.1656,7.047036 -13.79021,33.98218 -8.08855,17.25728 -15.6302,32.16436 -16.75921,33.12686 -2.794132,2.38203 -4.469507,2.20259 -7.472422,-0.80032 z M 62.506091,114.88714 c -6.902931,-5.56207 -13.215727,-11.0622 -14.028437,-12.22251 -2.033045,-2.902575 -1.850347,-5.921111 0.542498,-8.96312 2.819996,-3.585044 25.000641,-21.316672 27.692075,-22.13757 4.278021,-1.304813 9.202249,2.896024 9.25597,7.896228 0.03216,2.993223 -0.258641,3.310527 -14.765832,16.111663 l -3.481226,3.071832 7.612045,6.220027 c 11.278543,9.21603 12.75173,12.21605 8.594236,17.50145 C 82.41465,124.28832 80.936763,125 78.455856,125 c -2.81386,0 -5.559557,-1.74089 -15.949765,-10.11286 z m 78.566489,7.478 c -4.15749,-5.2854 -2.68431,-8.28542 8.59424,-17.50145 l 7.61204,-6.220027 -3.48122,-3.071832 c -14.5072,-12.801136 -14.798,-13.11844 -14.76584,-16.111663 0.0537,-5.000204 4.97795,-9.201041 9.25597,-7.896228 2.69144,0.820898 24.87208,18.552526 27.69208,22.13757 2.39284,3.042009 2.57554,6.060545 0.5425,8.96312 -0.81271,1.16031 -7.12551,6.66044 -14.02844,12.22251 C 152.1037,123.25911 149.358,125 146.54414,125 c -2.4809,0 -3.95879,-0.71168 -5.47156,-2.63486 z"
       id="path3464"
       inkscape:connector-curvature="0" />
  </g>
</svg>
