<?xml version="1.0" encoding="UTF-8" standalone="no"?>
<!-- Created with Inkscape (http://www.inkscape.org/) -->

<svg
   xmlns:dc="http://purl.org/dc/elements/1.1/"
   xmlns:cc="http://creativecommons.org/ns#"
   xmlns:rdf="http://www.w3.org/1999/02/22-rdf-syntax-ns#"
   xmlns:svg="http://www.w3.org/2000/svg"
   xmlns="http://www.w3.org/2000/svg"
   xmlns:sodipodi="http://sodipodi.sourceforge.net/DTD/sodipodi-0.dtd"
   xmlns:inkscape="http://www.inkscape.org/namespaces/inkscape"
   version="1.1"
   id="svg6908"
   width="383"
   height="383"
   viewBox="0 0 383 383"
   sodipodi:docname="github.svg"
   inkscape:version="0.92.4 (unknown)">
  <metadata
     id="metadata6914">
    <rdf:RDF>
      <cc:Work
         rdf:about="">
        <dc:format>image/svg+xml</dc:format>
        <dc:type
           rdf:resource="http://purl.org/dc/dcmitype/StillImage" />
        <dc:title />
      </cc:Work>
    </rdf:RDF>
  </metadata>
  <defs
     id="defs6912" />
  <sodipodi:namedview
     pagecolor="#ffffff"
     bordercolor="#666666"
     borderopacity="1"
     objecttolerance="10"
     gridtolerance="10"
     guidetolerance="10"
     inkscape:pageopacity="0"
     inkscape:pageshadow="2"
     inkscape:window-width="1299"
     inkscape:window-height="704"
     id="namedview6910"
     showgrid="false"
     inkscape:zoom="0.61618799"
     inkscape:cx="193.12288"
     inkscape:cy="191.5"
     inkscape:window-x="67"
     inkscape:window-y="27"
     inkscape:window-maximized="1"
     inkscape:current-layer="svg6908" />
  <path
     style="fill:#ffffff;fill-opacity:1;stroke-width:0.61764789"
     d="m 186.1591,311.08662 c -3.72844,-1.3324 -4.09991,-1.68935 -58.68694,-56.3939 C 57.862414,184.93313 59.939161,199.41126 112.07309,147.33745 l 35.86306,-35.82168 13.35852,13.35854 c 13.35854,13.35853 13.35854,13.35853 12.58372,16.58836 -1.84278,7.68152 2.91736,18.06463 9.19519,20.05713 2.70603,0.85887 1.89769,65.33324 -0.84033,67.02542 -16.04518,9.91647 -8.63234,34.34549 10.08499,33.23503 16.95235,-1.00575 23.40573,-22.43274 9.67187,-32.11326 -2.78942,-1.96616 -2.78942,-1.96616 -2.78942,-34.11357 V 163.406 l 12.35941,12.34717 c 8.68026,8.67166 12.23859,12.62296 11.95355,13.27364 -7.50654,17.13539 17.63618,31.9209 30.31022,17.82432 11.30463,-12.57346 -0.75679,-34.02705 -16.65932,-29.63185 -3.57087,0.98692 -29.0294,-24.00286 -28.23648,-27.71657 2.72928,-12.78271 -9.01235,-24.32728 -21.77151,-21.4061 -1.76554,0.40421 -2.49366,-0.21728 -15.43534,-13.17521 l -13.58241,-13.59942 11.11181,-11.15941 c 14.72457,-14.787645 18.66873,-16.836117 26.70346,-13.868913 3.34346,1.234727 108.09356,105.014423 111.1083,110.079023 2.10141,3.53021 2.54324,8.3236 1.16203,12.60644 -1.58276,4.90785 -106.82065,110.33351 -111.75875,111.95818 -3.62051,1.19116 -7.24426,1.24365 -10.30656,0.14932 z"
     id="path6918"
     inkscape:connector-curvature="0" />
</svg>
