<?xml version="1.0" encoding="UTF-8" standalone="no"?>
<!-- Created with Inkscape (http://www.inkscape.org/) -->

<svg
   xmlns:dc="http://purl.org/dc/elements/1.1/"
   xmlns:cc="http://creativecommons.org/ns#"
   xmlns:rdf="http://www.w3.org/1999/02/22-rdf-syntax-ns#"
   xmlns:svg="http://www.w3.org/2000/svg"
   xmlns="http://www.w3.org/2000/svg"
   xmlns:sodipodi="http://sodipodi.sourceforge.net/DTD/sodipodi-0.dtd"
   xmlns:inkscape="http://www.inkscape.org/namespaces/inkscape"
   version="1.1"
   id="svg6908"
   width="383"
   height="383"
   viewBox="0 0 383 383"
   sodipodi:docname="github.svg"
   inkscape:version="0.92.4 (unknown)">
  <metadata
     id="metadata6914">
    <rdf:RDF>
      <cc:Work
         rdf:about="">
        <dc:format>image/svg+xml</dc:format>
        <dc:type
           rdf:resource="http://purl.org/dc/dcmitype/StillImage" />
        <dc:title></dc:title>
      </cc:Work>
    </rdf:RDF>
  </metadata>
  <defs
     id="defs6912" />
  <sodipodi:namedview
     pagecolor="#ffffff"
     bordercolor="#666666"
     borderopacity="1"
     objecttolerance="10"
     gridtolerance="10"
     guidetolerance="10"
     inkscape:pageopacity="0"
     inkscape:pageshadow="2"
     inkscape:window-width="1299"
     inkscape:window-height="704"
     id="namedview6910"
     showgrid="false"
     inkscape:zoom="0.61618799"
     inkscape:cx="-36.514831"
     inkscape:cy="191.5"
     inkscape:window-x="67"
     inkscape:window-y="27"
     inkscape:window-maximized="1"
     inkscape:current-layer="svg6908" />
  <path
     style="fill:#000000;stroke-width:0.84334099"
     d="m 184.20749,352.05363 c -5.09084,-1.81926 -5.59804,-2.30665 -80.13158,-77.00064 C 9.03025,179.80272 11.865856,199.57127 83.049897,128.46931 l 48.967683,-48.911195 18.23984,18.23985 c 18.23984,18.239835 18.23984,18.239835 17.1819,22.649865 -2.51614,10.48841 3.98338,24.66558 12.55517,27.38616 3.69483,1.1727 2.59112,89.20649 -1.14738,91.51701 -21.90821,13.54001 -11.78665,46.89558 13.77012,45.37936 23.14686,-1.37326 31.95836,-30.62984 13.20604,-43.84769 -3.80869,-2.68461 -3.80869,-2.68461 -3.80869,-46.57893 v -43.89432 l 16.87563,16.85892 c 11.85208,11.84034 16.71066,17.23548 16.32146,18.12392 -10.24949,23.39679 24.08057,43.58504 41.38579,24.33747 15.43543,-17.16791 -1.03332,-46.4608 -22.74675,-40.45956 -4.87569,1.34755 -39.63697,-32.77368 -38.5543,-37.84442 3.72659,-17.4536 -12.30553,-33.216635 -29.72698,-29.22804 -2.41068,0.55192 -3.40486,-0.29668 -21.07554,-17.989515 L 145.94837,65.639438 161.12052,50.402299 c 20.10504,-20.19115 25.49043,-22.988149 36.46111,-18.93671 4.56518,1.68591 147.59174,143.387481 151.7081,150.302701 2.86927,4.82017 3.47256,11.36511 1.58665,17.21293 -2.16112,6.7012 -145.85372,150.6502 -152.59623,152.86853 -4.94348,1.62642 -9.89137,1.6981 -14.07266,0.20388 z"
     id="path6918"
     inkscape:connector-curvature="0" />
</svg>
