<?xml version="1.0" encoding="UTF-8" standalone="no"?>
<!-- Created with Inkscape (http://www.inkscape.org/) -->

<svg
   xmlns:dc="http://purl.org/dc/elements/1.1/"
   xmlns:cc="http://creativecommons.org/ns#"
   xmlns:rdf="http://www.w3.org/1999/02/22-rdf-syntax-ns#"
   xmlns:svg="http://www.w3.org/2000/svg"
   xmlns="http://www.w3.org/2000/svg"
   xmlns:sodipodi="http://sodipodi.sourceforge.net/DTD/sodipodi-0.dtd"
   xmlns:inkscape="http://www.inkscape.org/namespaces/inkscape"
   version="1.1"
   id="svg11874"
   width="415.44214"
   height="376.21689"
   viewBox="0 0 415.44214 376.21689"
   sodipodi:docname="hierarchical-mixed-models-logo.svg"
   inkscape:version="0.92.4 (unknown)">
  <metadata
     id="metadata11880">
    <rdf:RDF>
      <cc:Work
         rdf:about="">
        <dc:format>image/svg+xml</dc:format>
        <dc:type
           rdf:resource="http://purl.org/dc/dcmitype/StillImage" />
        <dc:title></dc:title>
      </cc:Work>
    </rdf:RDF>
  </metadata>
  <defs
     id="defs11878" />
  <sodipodi:namedview
     pagecolor="#ffffff"
     bordercolor="#666666"
     borderopacity="1"
     objecttolerance="10"
     gridtolerance="10"
     guidetolerance="10"
     inkscape:pageopacity="0"
     inkscape:pageshadow="2"
     inkscape:window-width="1920"
     inkscape:window-height="1163"
     id="namedview11876"
     showgrid="false"
     inkscape:zoom="2.6222222"
     inkscape:cx="247.32499"
     inkscape:cy="177.24754"
     inkscape:window-x="1920"
     inkscape:window-y="0"
     inkscape:window-maximized="1"
     inkscape:current-layer="svg11874" />
  <path
     style="fill:#fcffff;fill-opacity:1;stroke:none;stroke-opacity:1"
     d="m 242.5,372.62515 c -3.49458,-7.28389 -1.54662,-21.76522 -0.91234,-26.803 0.35107,-2.78839 5.24399,-1.197 7.70774,-1.197 4.4824,0 5.78722,-1.85156 5.03748,-7.14829 -0.52569,-3.71383 -29.14007,-3.71383 -29.66576,0 -0.73889,5.22009 0.56988,7.14829 4.85193,7.14829 6.88022,0 7.98095,2.06879 7.98095,15 0,14.77768 -0.21491,15 -14.5,15 -14.28509,0 -14.5,-0.22232 -14.5,-15 0,-12.88728 1.11171,-15 7.89301,-15 4.51976,0 5.10699,-0.92929 5.10699,-8.08179 0,-2.70501 0.1125,-5.01791 0.25,-5.13977 0.1375,-0.12185 18.475,-0.45935 40.75,-0.75 l 40.5,-0.52844 0.28,-30 c 0.154,-16.5 0.0329,-31.0125 -0.26905,-32.25 -0.54654,-2.23968 -0.64043,-2.25 -20.47424,-2.25 -27.02049,0 -25.42592,1.39054 -25.85273,-22.54471 -0.48082,-26.96375 -0.98359,-26.45529 26.15937,-26.45529 15.89481,0 18.52653,-0.21852 19.04966,-1.58179 1.22486,-3.19192 0.67652,-57.94868 -0.59301,-59.21821 -1.74066,-1.74066 -199.85934,-1.74066 -201.600003,0 -1.26953,1.26953 -1.81787,56.02629 -0.59301,59.21821 0.52393,1.36535 3.198913,1.58179 19.549663,1.58179 27.70366,0 26.84335,-0.79734 26.84335,24.87849 0,25.01598 1.61976,23.46314 -25.1611,24.12151 l -20.338903,0.5 v 32 32 l 37.701083,0.5 c 41.78201,0.55412 39.5507,0.10777 39.99164,8 0.30728,5.5 0.30728,5.5 5.18159,6.05976 6.94278,0.79731 7.62569,2.15237 7.62569,15.13137 0,14.63828 -0.17279,14.80887 -15,14.80887 -14.82985,0 -15,-0.16817 -15,-14.82569 0,-12.54699 1.232,-14.77245 8.5,-15.35416 4,-0.32015 4,-0.32015 4,-4.82015 v -4.5 h -14 c -13.9369,0 -14.0015,0.0106 -14.33288,2.35171 -0.73889,5.22009 0.56988,7.14829 4.85193,7.14829 6.88022,0 7.98095,2.06879 7.98095,15 0,14.77768 -0.21491,15 -14.5,15 -14.28509,0 -14.5,-0.22232 -14.5,-15 0,-12.93121 1.10073,-15 7.98095,-15 4.28205,0 5.59082,-1.9282 4.85193,-7.14829 -0.33071,-2.33638 -0.42091,-2.35171 -13.83288,-2.35171 H 114 v 4.5 c 0,4.5 0,4.5 4.39373,5.08633 6.38043,0.85144 7.10627,2.39426 7.10627,15.1048 0,14.55934 -0.24432,14.80887 -14.5,14.80887 -14.255683,0 -14.500003,-0.24953 -14.500003,-14.80887 0,-12.979 0.68291,-14.33406 7.625693,-15.13137 C 109,344.12515 109,344.12515 109,339.62515 v -4.5 L 95.276087,334.8471 c -13.72391,-0.27805 -13.72391,-0.27805 -14.35841,2.25 -1.28208,5.10824 0.19698,7.52805 4.60137,7.52805 1.48205,0 6.38384,-0.9043 6.86381,0.80764 1.89686,6.76555 2.8252,22.7044 -0.31083,27.19236 -2.71635,2.71635 -19.72465,3.93416 -23.4178,0.14573 -4.871,-1.20658 -2.54684,-24.87375 -1.46018,-27.07585 1.38386,-2.80435 8.9807,-0.14162 9.55154,-1.80173 0.83166,-2.41862 0.9156,-4.09696 0.58729,-6.41641 v 3e-5 c -0.52497,-3.70878 -27.14079,-3.70878 -27.66576,0 -0.32763,2.3146 -0.27338,3.96116 0.53187,6.21734 0.44287,1.24083 10.26543,-0.57548 11.224,1.24666 1.34688,2.56027 3.45412,27.35544 1.43908,27.59163 -5.16518,5.45781 -25.64263,2.81207 -28.36207,0.0926 -3.30965,-4.53282 -2.71532,-20.20735 -0.5396,-27.21604 0.93215,-3.00275 4.89425,-0.78396 7.335,-0.78396 4.4824,0 5.78722,-1.85156 5.03748,-7.14829 -0.52569,-3.71383 -29.140071,-3.71383 -29.665757,0 -0.738891,5.22009 0.569885,7.14829 4.85193,7.14829 6.880217,0 7.980947,2.06879 7.980947,15 0,14.77768 -0.21491,15 -14.499997,15 -14.285086,0 -14.5,-0.22232 -14.5,-15 0,-12.88728 1.111714,-15 7.893011,-15 4.51976,0 5.106989,-0.92929 5.106989,-8.08179 0,-2.70501 0.1125,-5.01791 0.25,-5.13977 0.1375,-0.12185 18.474997,-0.45935 40.749997,-0.75 l 40.5,-0.52844 0.28,-30 c 0.154,-16.5 0.0329,-31.0125 -0.26905,-32.25 -0.54654,-2.23968 -0.64043,-2.25 -20.47424,-2.25 -27.02049,0 -25.42592,1.39054 -25.85273,-22.54471 -0.48082,-26.96375 -0.98359,-26.45529 26.15937,-26.45529 22.25881,0 19.65665,4.57797 19.65665,-34.58179 V 150.62515 H 143.3 c 36.62222,0 49.09945,-0.29945 50,-1.2 1.36611,-1.36611 1.74639,-56.392203 0.40432,-58.503653 -0.55823,-0.87825 -8.19139,-1.28377 -28.23469,-1.5 -39.49774,-0.42611 -36.96963,2.62034 -36.96963,-44.5496 0,-48.7652603 -6.96439,-44.24675034 68.19754,-44.24675034 75.58444,0 68.18715,-4.70599996 68.59007,43.63556034 0.39999,47.98813 3.15008,44.64234 -37.28761,45.36444 l -28,0.5 v 30.000003 30 l 53.25,0.25876 53.25,0.25877 v 31.40945 c 0,17.27519 0.27314,32.12125 0.60699,32.99123 0.52393,1.36535 3.19891,1.58179 19.54966,1.58179 27.70366,0 26.84335,-0.79734 26.84335,24.87849 0,25.01598 1.61976,23.46314 -25.1611,24.12151 l -20.3389,0.5 v 32 32 l 37.70108,0.5 c 41.78201,0.55412 39.5507,0.10777 39.99164,8 0.30728,5.5 0.30728,5.5 5.18159,6.05976 6.99098,0.80284 7.62569,2.10388 7.62569,15.63137 0,15.21033 -0.0966,15.30887 -15,15.30887 -9.66667,0 -11.24242,-0.24242 -13,-2 -6.69195,-6.69195 -1.83116,-28.51304 6.5,-29.17985 4,-0.32015 4,-0.32015 4,-4.82015 v -4.5 h -14 c -13.9369,0 -14.0015,0.0106 -14.33288,2.35171 -0.73889,5.22009 0.56988,7.14829 4.85193,7.14829 6.88022,0 7.98095,2.06879 7.98095,15 0,14.77768 -0.21491,15 -14.5,15 -14.28509,0 -14.5,-0.22232 -14.5,-15 0,-12.93121 1.10073,-15 7.98095,-15 4.28205,0 5.59082,-1.9282 4.85193,-7.14829 -0.75543,-5.3369 -28.83288,-3.69221 -28.83288,1.68895 0,4.50206 0.98317,5.45934 5.60699,5.45934 7.34422,0 8.39301,1.8744 8.39301,15 0,14.85691 -0.14309,15 -15,15 -14.82985,0 -15,-0.16817 -15,-14.82569 0,-12.54699 1.232,-14.77245 8.5,-15.35416 4,-0.32015 4,-0.32015 4,-4.82015 v -4.5 l -13.72391,-0.27805 c -13.72391,-0.27805 -13.72391,-0.27805 -14.35841,2.25 -1.28208,5.10824 0.19698,7.52805 4.60137,7.52805 6.88022,0 7.98095,2.06879 7.98095,15 0,14.74075 -0.24676,15 -14.27749,15 -3.09008,0.20925 -9.70732,-0.0403 -10.40848,-2.47266 -2.59081,-8.98786 -4.20485,-27.21474 1.79966,-27.3366 2.14407,0 5.21095,0.0825 6.46416,-1.19973 1.1647,-1.19163 0.60697,-3.65289 0.25503,-6.13924 -0.52497,-3.70878 -27.14079,-3.70878 -27.66576,0 -0.76099,5.37619 0.53832,7.14829 5.24115,7.14829 2.79829,0 6.35532,0.20438 7.85264,1.41684 2.21803,3.66245 1.55178,23.12834 0.6976,25.41891 -2.87396,5.30572 -27.46545,4.27623 -28.95851,1.16419 z"
     id="path12431"
     inkscape:connector-curvature="0"
     sodipodi:nodetypes="sscssccsssssscscscssscsscssscccsccssssscssssssssscscssscscssccssccsssccscsscssssssscscscsssscsssssssscccccscssscccscsssssscssssssscssssssscsccscssssccs" />
</svg>
