<?xml version="1.0" encoding="UTF-8" standalone="no"?>
<!-- Created with Inkscape (http://www.inkscape.org/) -->

<svg
   xmlns:dc="http://purl.org/dc/elements/1.1/"
   xmlns:cc="http://creativecommons.org/ns#"
   xmlns:rdf="http://www.w3.org/1999/02/22-rdf-syntax-ns#"
   xmlns:svg="http://www.w3.org/2000/svg"
   xmlns="http://www.w3.org/2000/svg"
   xmlns:sodipodi="http://sodipodi.sourceforge.net/DTD/sodipodi-0.dtd"
   xmlns:inkscape="http://www.inkscape.org/namespaces/inkscape"
   version="1.1"
   id="svg2804"
   width="91.762527"
   height="131.68307"
   viewBox="0 0 91.762527 131.68307"
   sodipodi:docname="html-logo.svg"
   inkscape:version="0.92.4 (unknown)">
  <metadata
     id="metadata2810">
    <rdf:RDF>
      <cc:Work
         rdf:about="">
        <dc:format>image/svg+xml</dc:format>
        <dc:type
           rdf:resource="http://purl.org/dc/dcmitype/StillImage" />
        <dc:title></dc:title>
      </cc:Work>
    </rdf:RDF>
  </metadata>
  <defs
     id="defs2808" />
  <sodipodi:namedview
     pagecolor="#ffffff"
     bordercolor="#666666"
     borderopacity="1"
     objecttolerance="10"
     gridtolerance="10"
     guidetolerance="10"
     inkscape:pageopacity="0"
     inkscape:pageshadow="2"
     inkscape:window-width="773"
     inkscape:window-height="480"
     id="namedview2806"
     showgrid="false"
     inkscape:zoom="1.8015267"
     inkscape:cx="46.438874"
     inkscape:cy="89.280223"
     inkscape:window-x="67"
     inkscape:window-y="27"
     inkscape:window-maximized="0"
     inkscape:current-layer="svg2804" />
  <g
     id="g3357"
     transform="translate(-19.616211,0.77149049)"
     style="fill:#ffffff;fill-opacity:1">
    <path
       style="fill:#ffffff;fill-opacity:1"
       d="m 47.092028,125.97311 c -9.574385,-2.67327 -17.952607,-5.44832 -18.618272,-6.1668 -1.195144,-1.28995 -9.710048,-91.455828 -8.787865,-93.05631 0.564925,-0.980448 91.063289,-0.980448 91.628219,0 0.88482,1.535631 -7.58872,91.76208 -8.73426,93.00271 -0.94607,1.0246 -35.905164,11.40124 -37.57985,11.15454 -0.275,-0.0405 -8.333588,-2.26087 -17.907972,-4.93414 z M 76.544169,107.94185 C 90.583232,103.99976 89.482735,105.63783 91.006778,86.414511 92.623176,66.026276 94.681821,67.814971 70.04072,68.197731 L 50.581439,68.5 49.715499,64.167214 C 48.231366,56.741267 47.471358,57 70.768615,57 94.250961,57 94,57.077779 94,49.8 V 45 H 65.968615 c -24.512856,0 -28.106773,0.196459 -28.631988,1.565147 -0.593324,1.546178 1.346973,28.31783 2.294837,31.663472 0.438747,1.548633 2.487776,1.756876 19.679138,2 L 78.5,80.5 78.799893,86.249637 C 79.195894,93.84189 78.31517,95.088015 71.118976,97.117272 61.580974,99.806896 52,96.780251 52,91.077555 52,86.622694 41.292596,82.936959 40.880594,87.25 c -0.312157,3.267826 0.408774,13.35801 1.085028,15.1861 0.633315,1.71202 14.35155,6.72809 23.110949,8.45052 0.317115,0.0624 5.477533,-1.26279 11.467598,-2.94477 z M 28.708849,17.375516 C 28.318982,16.985649 28,12.916667 28,8.3333333 V 0 h 3 c 2.497566,0 3,0.40077653 3,2.3930112 0,2.705032 2.188033,4.0189558 3.878145,2.3288438 C 38.495165,4.1048348 39,2.79 39,1.8 39,0.46154212 39.77922,0 42.038933,0 h 3.038933 L 44.788933,8.75 C 44.481864,18.04922 40.687016,22.146314 39,15 c -0.374871,-1.587977 -1.286893,-2.5 -2.5,-2.5 -1.214198,0 -2.123302,0.910595 -2.49591,2.5 -0.57062,2.434059 -3.791685,3.879072 -5.295241,2.375516 z m 24.358812,-1.24909 C 52.480447,15.029207 52,12.301899 52,10.065741 52,6.7432622 51.653937,6 50.106989,6 47.986138,6 46.765445,3.7748164 47.638374,1.5 48.800815,-1.529273 64,-0.57732738 64,2.5247508 c 0,1.7581196 -0.742771,2.807152 -2.446172,3.4547839 -2.106381,0.8008446 -2.488377,1.6655782 -2.75,6.2252493 -0.338925,5.906891 -3.512513,8.076577 -5.736167,3.921642 z m 13.599006,1.206907 C 66.3,16.966667 66,12.916667 66,8.3333333 V 0 h 3.259453 c 2.176447,0 3.674461,0.66453287 4.508474,2 1.590212,2.5463346 3.409788,2.5463346 5,0 C 82.403214,-3.8210197 87,0.0267206 87,8.8906578 87,17.612861 81.335096,21.926625 80.1728,14.089498 79.899798,12.248702 79.596471,12.09001 78.341598,13.131462 c -1.146131,0.951204 -1.940876,0.975376 -3.340038,0.101585 -1.582068,-0.988018 -1.978614,-0.737628 -2.866779,1.810165 -0.974382,2.795115 -3.785702,3.972534 -5.468114,2.290121 z m 23,0 C 89.3,16.966667 89,12.916667 89,8.3333333 V 0 h 3 c 2.916667,0 3,0.13333333 3,4.8 0,5.507192 1.229963,7.2 5.23138,7.2 3.2202,0 4.61256,2.27819 2.75805,4.512735 -1.26468,1.523851 -11.960703,2.182658 -13.322763,0.820598 z"
       id="path3359"
       inkscape:connector-curvature="0" />
  </g>
</svg>
