<?xml version="1.0" encoding="UTF-8" standalone="no"?>
<!-- Created with Inkscape (http://www.inkscape.org/) -->

<svg
   xmlns:dc="http://purl.org/dc/elements/1.1/"
   xmlns:cc="http://creativecommons.org/ns#"
   xmlns:rdf="http://www.w3.org/1999/02/22-rdf-syntax-ns#"
   xmlns:svg="http://www.w3.org/2000/svg"
   xmlns="http://www.w3.org/2000/svg"
   xmlns:sodipodi="http://sodipodi.sourceforge.net/DTD/sodipodi-0.dtd"
   xmlns:inkscape="http://www.inkscape.org/namespaces/inkscape"
   version="1.1"
   id="svg4055"
   width="95.311066"
   height="108.38999"
   viewBox="0 0 95.311066 108.38999"
   sodipodi:docname="javascript-logo.svg"
   inkscape:version="0.92.4 (unknown)">
  <metadata
     id="metadata4061">
    <rdf:RDF>
      <cc:Work
         rdf:about="">
        <dc:format>image/svg+xml</dc:format>
        <dc:type
           rdf:resource="http://purl.org/dc/dcmitype/StillImage" />
        <dc:title></dc:title>
      </cc:Work>
    </rdf:RDF>
  </metadata>
  <defs
     id="defs4059" />
  <sodipodi:namedview
     pagecolor="#ffffff"
     bordercolor="#666666"
     borderopacity="1"
     objecttolerance="10"
     gridtolerance="10"
     guidetolerance="10"
     inkscape:pageopacity="0"
     inkscape:pageshadow="2"
     inkscape:window-width="773"
     inkscape:window-height="480"
     id="namedview4057"
     showgrid="false"
     inkscape:zoom="1.6175115"
     inkscape:cx="52.945869"
     inkscape:cy="56.362925"
     inkscape:window-x="67"
     inkscape:window-y="27"
     inkscape:window-maximized="0"
     inkscape:current-layer="svg4055" />
  <g
     id="g4608"
     transform="translate(-60.5,-6.5)"
     style="fill:#ffffff;fill-opacity:0.51372552">
    <path
       style="fill:#ffffff;fill-opacity:0.51372552"
       d="M 87.52595,109.86491 C 78.190222,107.16276 70.111182,104.51118 69.572526,103.97253 68.695847,103.09585 61.575217,29.185726 60.808075,13 L 60.5,6.5 H 108 c 47.5,0 47.5,0 47.79628,3.513773 0.40486,4.801378 -7.63278,93.225367 -8.55687,94.136247 -1.30562,1.28694 -36.77041,10.85406 -39.8087,10.73894 -1.61189,-0.0611 -10.569033,-2.32189 -19.90476,-5.02405 z M 103.76433,59.108812 C 104.02866,27.883604 104.02866,27.883604 99.764328,28.191802 95.5,28.5 95.5,28.5 95.232221,52.75 94.925975,80.483617 95.970483,78.25163 84.753712,75.141313 76.922108,72.969674 77,72.93043 77,79.047864 c 0,4.714531 0,4.714531 12.25,8.226165 6.7375,1.931399 12.7,3.410015 13.25,3.285813 0.63351,-0.143061 1.09687,-11.669431 1.26433,-31.45103 z M 125.98479,88.04752 C 139.7897,84.425651 138.27261,86.46895 139.62597,69.674822 140.97844,52.891836 141.2492,53.378201 131.28261,54.688047 121.52552,55.970362 122,56.3645 122,46.977195 v -7.904771 l 9.75,-0.286212 C 141.5,38.5 141.5,38.5 142.43224,33.671646 143.67637,27.227873 143.23964,27.03384 127.45,27.015313 110.74464,26.995711 112,25.238562 112,48.640983 c 0,22.00993 -0.60447,20.823672 9.61461,18.868439 8.84199,-1.691752 9.64957,-1.331219 9.20361,4.108799 C 130.5,75.5 130.5,75.5 122.32948,77.641859 111.93023,80.367969 112,80.315622 112,85.39235 c 0,6.666251 -0.7563,6.522658 13.98479,2.65517 z"
       id="path4612"
       inkscape:connector-curvature="0" />
    <path
       style="fill:#ffffff;fill-opacity:0.51372552"
       d="m 89.5,109.11758 c -8.8,-2.56222 -16.762672,-4.9632 -17.694827,-5.33552 -2.07595,-0.82917 -2.306227,-2.25962 -4.39193,-27.28206 -0.916887,-11 -2.66412,-30.8 -3.882742,-44 C 62.31188,19.3 61.385379,8.3961108 61.471611,8.2691351 62.346215,6.98129 154.5441,8.1224253 154.81723,9.424476 c 0.17448,0.831746 -0.611,11.763999 -1.74552,24.293895 C 151.93719,46.248267 150.07787,66.85 148.93988,79.5 c -1.138,12.65 -2.37751,23.31024 -2.75448,23.68943 -1.02387,1.02988 -36.51768,10.82833 -38.75469,10.69865 C 106.36882,113.82652 98.3,111.67979 89.5,109.11758 Z m 35.45754,-5.75993 c 16.54698,-4.450434 15.61039,-3.701014 16.38054,-13.107047 0.34904,-4.262831 1.97302,-22.595841 3.60885,-40.74002 1.63583,-18.14418 2.62175,-33.341902 2.19094,-33.772717 -0.43082,-0.430815 -9.30058,-0.660578 -19.71059,-0.510583 L 108.5,15.5 108.2392,60 c -0.14344,24.475 -0.0451,45.0625 0.21861,45.75 0.67958,1.77189 1.41137,1.66578 16.49973,-2.39235 z M 105,59.545313 C 105,27.090626 105,27.090626 101.6053,26.453776 94.018275,25.030442 94,25.091913 94,52.035184 94,69.333928 93.682288,76 92.857813,76 92.22961,76 88.621418,75.078505 84.839609,73.952234 81.0578,72.825962 77.521784,72.17752 76.981796,72.511251 c -1.350873,0.834885 -1.243472,11.20899 0.124799,12.054628 1.557177,0.962389 24.021645,7.297185 26.143405,7.372227 1.63199,0.05772 1.75,-2.126655 1.75,-32.392793 z"
       id="path4610"
       inkscape:connector-curvature="0" />
  </g>
</svg>
