<?xml version="1.0" encoding="UTF-8" standalone="no"?>
<!-- Created with Inkscape (http://www.inkscape.org/) -->

<svg
   xmlns:dc="http://purl.org/dc/elements/1.1/"
   xmlns:cc="http://creativecommons.org/ns#"
   xmlns:rdf="http://www.w3.org/1999/02/22-rdf-syntax-ns#"
   xmlns:svg="http://www.w3.org/2000/svg"
   xmlns="http://www.w3.org/2000/svg"
   xmlns:sodipodi="http://sodipodi.sourceforge.net/DTD/sodipodi-0.dtd"
   xmlns:inkscape="http://www.inkscape.org/namespaces/inkscape"
   version="1.1"
   id="svg1528"
   width="184.38071"
   height="255.00941"
   viewBox="0 0 184.38071 255.00941"
   sodipodi:docname="jenkins-logo.svg"
   inkscape:version="0.92.4 (unknown)">
  <metadata
     id="metadata1534">
    <rdf:RDF>
      <cc:Work
         rdf:about="">
        <dc:format>image/svg+xml</dc:format>
        <dc:type
           rdf:resource="http://purl.org/dc/dcmitype/StillImage" />
        <dc:title></dc:title>
      </cc:Work>
    </rdf:RDF>
  </metadata>
  <defs
     id="defs1532" />
  <sodipodi:namedview
     pagecolor="#ffffff"
     bordercolor="#666666"
     borderopacity="1"
     objecttolerance="10"
     gridtolerance="10"
     guidetolerance="10"
     inkscape:pageopacity="0"
     inkscape:pageshadow="2"
     inkscape:window-width="1299"
     inkscape:window-height="704"
     id="namedview1530"
     showgrid="false"
     inkscape:zoom="0.921875"
     inkscape:cx="95.642471"
     inkscape:cy="128.66335"
     inkscape:window-x="67"
     inkscape:window-y="27"
     inkscape:window-maximized="1"
     inkscape:current-layer="g2081" />
  <g
     id="g2081"
     transform="translate(3.1424707,-1.6539316)">
    <path
       style="fill:#ffffff;fill-opacity:1"
       d="m 85.24576,256.04013 c -3.3,-0.51699 -6.57439,-1.15889 -7.27643,-1.42645 -1.65344,-0.63014 -4.65824,-7.69614 -7.38005,-17.35467 -2.41796,-8.58031 -3.75148,-10.17427 -8.51182,-10.17427 -3.78837,0 -12.47017,-3.13666 -23.59871,-8.526 -8.52335,-4.12769 -8.34437,-3.83669 -9.05996,-14.73092 -0.44267,-6.73927 -0.46082,-6.77493 -6.94386,-13.64729 -34.7977,-36.8874 -34.05744,-95.041437 1.68895,-132.682776 3.61075,-3.802155 6.5688,-7.726239 6.57344,-8.720188 0.0222,-4.749018 2.5414,-11.159114 5.57969,-14.197396 1.80198,-1.801988 4.19511,-5.077285 5.31805,-7.278437 9.08232,-17.8028044 49.909,-30.8216766 74.1107,-23.6325263 19.26285,5.7220571 35.8527,28.1544943 35.98264,48.6549523 0.0119,1.876552 1.62206,4.511373 5.11194,8.365031 25.23308,27.86324 31.82332,72.99639 15.39315,105.41977 -2.99965,5.91952 -3.0684,7.14031 -0.5314,9.43626 5.46618,4.94682 8.57159,23.61653 5.16294,31.03952 -3.79555,8.26554 -16.30131,11.64078 -24.45641,6.60066 -8.06503,-4.98447 -19.36306,1.77337 -18.22195,10.89934 1.79582,14.36196 1.81569,14.98589 0.52667,16.53907 -0.7196,0.86706 -2.80669,2.20252 -4.63797,2.96768 -2.57011,1.07386 -3.32961,1.9881 -3.32961,4.00796 0,3.8933 -1.57444,6.13702 -5.22889,7.45166 -4.26206,1.53321 -28.56723,2.19595 -36.27111,0.98902 z m 29.92696,-6.11227 c 5.76053,-1.15688 5.76053,-1.15688 5.18853,-9.75 -0.3146,-4.72622 -1.10968,-18.00852 -1.76685,-29.51623 -1.50067,-26.27817 -0.28062,-24.57689 -17.62487,-24.57689 -11.63978,0 -27.08512,1.27869 -31.47377,2.60564 -3.90529,1.18081 4.18352,49.62202 9.66732,57.89436 2.59242,3.91067 23.51258,5.85289 36.00964,3.34312 z m 15.13761,-12.9476 c 0.97805,-1.58251 -1.60404,-15.68339 -3.09908,-16.92416 -1.61075,-1.3368 -4.82459,1.65045 -4.023,3.73937 0.30663,0.79906 0.55751,4.34104 0.55751,7.87106 0,6.39819 3.92885,9.57843 6.56457,5.31373 z m 39.1364,-28.39862 c 7.42349,-5.19962 2.63296,-31.4969 -5.73775,-31.4969 -2.31391,0 -16.1463,5.76954 -17.81631,7.43124 -1.47389,1.46656 0.18988,19.04883 1.98919,21.02126 0.4779,0.52388 3.90528,0.97388 7.6164,1 5.79613,0.0408 6.72792,0.29424 6.60861,1.7975 -0.1775,2.23655 4.28492,2.38666 7.33986,0.2469 z m -14.70097,-16.4969 c 0,-0.55 1.15156,-1 2.55902,-1 1.45136,0 2.2915,0.43284 1.94098,1 -0.33992,0.55 -1.49148,1 -2.55902,1 -1.06754,0 -1.94098,-0.45 -1.94098,-1 z m -4,-3.96482 c 0,-1.26147 3.3757,-3.04421 5.68426,-3.00191 1.57685,0.0289 1.50515,0.29202 -0.54504,2 -2.50895,2.09016 -5.13922,2.60294 -5.13922,1.00191 z m -8.61088,11.89123 c -0.12665,-8.64973 -1.85974,-13.27693 -5.14849,-13.74596 -2.64398,-0.37708 -2.8327,1.4892 -1.19517,11.81955 1.4939,9.42422 1.81609,10.16079 4.29043,9.8083 2.01276,-0.28674 2.15636,-0.83797 2.05323,-7.88189 z M 27.34918,180.33474 c -0.36957,-3.1625 -2.4963,-10.925 -4.72607,-17.25 -8.71646,-24.72525 -9.29941,-22.61485 9.34304,-33.82357 20.1277,-12.10172 19.8101,-11.74064 16.55859,-18.8257 -1.47678,-3.2179 -2.95497,-6.84264 -3.28488,-8.05497 -0.3299,-1.21232 -2.46752,-3.23732 -4.75026,-4.49999 C 29.59964,91.856871 24.71248,75.784935 30.41659,64.754399 33.23043,59.313039 30.19555,58.896253 25.54043,64.084746 -3.5868402,96.54941 -5.3736302,145.49085 21.30272,180.15876 c 5.81616,7.55854 6.91292,7.59046 6.04646,0.17598 z m 126.89658,-6.37003 c 2.75,-0.99807 5.80824,-1.82937 6.79608,-1.84732 1.25172,-0.0228 2.99139,-2.53311 5.73985,-8.28265 14.33804,-29.9939 10.86192,-66.507398 -8.84448,-92.903344 -4.97212,-6.659959 -5.78466,-6.276402 -6.5666,3.09974 -0.83901,10.060379 -4.65446,25.205116 -8.0264,31.859314 -3.70084,7.30326 -3.50789,7.84242 5.90942,16.51344 10.87294,10.01129 10.83804,11.45649 -1.08642,44.99045 -2.94253,8.27498 -3.08327,10.19167 -0.67145,9.14471 0.9625,-0.41782 4,-1.57627 6.75,-2.57434 z m -42.06212,-2.12997 c -3.93768,-12.7132 -8.20412,-16.58178 -13.2003,-11.96933 -5.67679,5.24078 -5.50849,5.67668 3.95952,10.2553 9.52499,4.60618 10.17385,4.72653 9.24078,1.71403 z m 9.93409,-1.5 c 0.53702,-2.78179 1.04861,-14.30064 0.77609,-17.47432 -0.32253,-3.75622 -11.53578,-6.19342 -13.54414,-2.94382 -0.60541,0.97957 10.32147,23.16814 11.40927,23.16814 0.45535,0 1.0668,-1.2375 1.35878,-2.75 z m -4.37197,-6.66667 c 0,-0.87083 0.7125,-1.58333 1.58333,-1.58333 0.87084,0 1.40521,0.53437 1.1875,1.1875 -0.61807,1.85422 -2.77083,2.16176 -2.77083,0.39583 z m -1.30615,-8.22281 c -0.79893,-0.79893 0.10419,-2.36052 1.36517,-2.36052 0.51754,0 0.94098,0.675 0.94098,1.5 0,1.54641 -1.17996,1.9867 -2.30615,0.86052 z m 15.40285,4.97047 c 3.07819,-5.38012 3.13825,-5.68602 1.37017,-6.97887 -4.10821,-3.004 -5.13672,-1.50058 -5.68077,8.30384 -0.34156,6.15536 0.11024,6.01649 4.3106,-1.32497 z m -29.5412,-9.82295 c 4.5996,-3.76903 5.66907,-6.82415 2.77728,-7.93383 -1.27071,-0.48762 -1.38962,-0.91737 -0.5,-1.80699 2.04792,-2.04792 1.32008,-2.79465 -6.08278,-6.24054 -14.20993,-6.61446 -16.75,-5.77669 -16.75,5.52451 0,17.87025 7.10038,21.4823 20.5555,10.45685 z m 33.03841,-6.02617 c 0.92202,-3.67363 -0.48538,-13.14691 -2.1596,-14.53639 -3.12819,-2.59616 -16.29972,3.58948 -14.83526,6.96696 0.3786,0.87316 0.7362,3.14124 0.79466,5.04017 0.12295,3.99367 1.77535,4.78456 10.33724,4.94771 4.79256,0.0913 5.28391,-0.11136 5.86296,-2.41845 z m -20.20261,-2.05919 c 1.27607,-3.32538 -2.41775,-6.47555 -5.04063,-4.29875 -1.4703,1.22025 -0.90295,4.84866 0.94343,6.03355 1.37571,0.88284 3.42581,0.0148 4.0972,-1.7348 z m -37.3913,-8.95406 c 0,-1.73882 -0.74764,-2.05526 -6.90249,-2.92145 -4.00899,-0.5642 -4.28024,-0.47227 -3.03471,1.02849 2.73603,3.29672 9.9372,4.66848 9.9372,1.89296 z m 36.55887,-0.93682 c 2.27931,-1.72398 0.21683,-2.11317 -4.50532,-0.85014 -2.26579,0.60603 -2.30271,0.7106 -0.5,1.41606 2.75105,1.07658 2.84828,1.06558 5.00532,-0.56592 z m -32.25921,-6.15898 c 1.76019,-0.89494 3.37078,-1.77788 3.57909,-1.96207 0.20831,-0.1842 -2.56422,-3.51357 -6.16117,-7.39861 -3.59694,-3.88503 -7.00647,-8.4021 -7.57672,-10.03792 -1.63589,-4.69272 0.8648,-3.73919 5.2401,1.99809 23.57725,30.91653 59.85702,17.7171 68.63855,-24.972304 2.61945,-12.733874 2.73822,-23.965249 0.23049,-21.796592 -2.88497,2.494895 -8.18704,3.900655 -10.34867,2.743785 -2.73745,-1.465038 -2.49307,-4.943166 0.34867,-4.962506 4.15654,-0.02829 4.97601,-1.294749 4.19739,-6.486947 -0.85005,-5.66852 0.50203,-5.477366 3.55261,0.50226 3.33607,6.539234 4.39897,6.175383 3.7039,-1.267918 -1.12671,-12.0657 -5.87019,-18.127871 -13.7039,-17.513602 -4.78455,0.375173 -4.96227,-3.03906 -0.27164,-5.21848 12.16914,-5.65418 -21.25709,-24.8389831 -39.22836,-22.5149039 -16.78455,2.1706106 -33.5,16.6656109 -33.5,29.0499319 0,4.168843 -0.51885,10.721514 -1.15301,14.561491 -0.90554,5.483207 -0.87262,8.467857 0.15337,13.905365 1.58598,8.405383 0.66361,10.26943 -4.8486,9.79868 -2.91747,-0.249157 -3.64913,-0.789287 -4.27784,-3.158014 -1.74058,-6.557836 -7.96437,-8.719044 -13.21499,-4.588902 -9.79331,7.703418 -0.0227,30.003319 10.70538,24.433454 5.06955,-2.632028 8.26718,0.08407 4.13569,3.512898 -2.135,1.771898 -1.87175,4.850212 1.12531,13.158774 4.82859,13.38597 8.5075,17.17573 18.27765,18.82838 6.81839,1.15335 6.93337,1.14656 10.3967,-0.61434 z m 23.58027,-14.97948 c -4.55972,-1.89389 -12.4063,-12.393334 -9.26194,-12.393334 0.33989,0 2.12759,1.325454 3.97266,2.945454 4.23727,3.72036 8.99041,5.04191 18.15935,5.04896 6.52327,0.005 7.25,0.20135 7.25,1.95858 0,3.79984 -13.03927,5.38136 -20.12007,2.44034 z m 6.44647,-9.39805 c -6.47999,-1.34287 -13.78429,-5.870729 -12.13355,-7.521466 0.74042,-0.740421 22.17002,1.667847 23.38094,2.627561 0.61239,0.485345 1.54519,0.379644 2.17082,-0.245989 0.60336,-0.603363 3.72016,-2.194287 6.92621,-3.535386 3.20605,-1.341099 6.39168,-2.684876 7.07918,-2.986172 2.57446,-1.128251 1.16163,3.357474 -2,6.350007 -4.28607,4.056835 -6.93435,5.334075 -10.9417,5.277095 -1.81957,-0.0259 -4.8833,0.16586 -6.8083,0.4261 -1.925,0.26023 -5.37812,0.0839 -7.6736,-0.39175 z m -0.0764,-10.100818 c -1.46749,-1.51969 -1.68981,-6.894466 -0.28518,-6.894466 0.53065,0 1.47512,0.953511 2.09882,2.118913 1.45595,2.720462 7.17768,2.225961 14.43636,-1.247662 6.80486,-3.256449 6.76746,-4.813013 -0.33833,-14.07919 -5.88567,-7.675108 -9.16167,-14.044363 -9.16167,-17.812297 0,-3.589253 2.45482,-2.061019 5.25683,3.272612 1.51625,2.886193 5.74515,8.788213 9.39754,13.115599 6.40608,7.58997 6.60901,7.996307 5.74318,11.5 -1.6848,6.817714 -22.73767,14.593242 -27.14755,10.026491 z M 40.35055,81.497215 c -0.33263,-0.866824 -0.60479,-3.087682 -0.60479,-4.935239 0,-1.847558 -0.43034,-3.625165 -0.95632,-3.950238 -1.47294,-0.910325 -0.14821,-3.266395 2.17872,-3.874898 4.60174,-1.203384 10.9526,4.843539 9.38296,8.933933 -0.59479,1.550014 -0.88661,1.498378 -3.05743,-0.540999 -2.87184,-2.697957 -4.54793,-1.977474 -4.54793,1.954972 0,3.278474 -1.48784,4.777037 -2.39521,2.412469 z M 93.49576,67.004647 c -3.88215,-2.261149 -2.12583,-4.919901 3.25,-4.919901 5.60124,0 5.91428,-0.56757 3.5,-6.345757 -2.78548,-6.666595 -0.82191,-8.165715 2.40659,-1.837345 1.07098,2.099293 2.65512,4.404393 3.52032,5.122444 5.95715,4.943993 -5.50335,12.158775 -12.67691,7.980559 z M 76.20315,45.816786 c -2.43257,-6.277004 9.7589,-16.777044 16.11635,-13.880395 3.68626,1.679571 3.2554,5.148355 -0.63948,5.148355 -4.2196,0 -6.81238,1.479482 -11.11299,6.341255 -3.13385,3.542762 -3.78021,3.896879 -4.36388,2.390785 z M 49.30361,38.05714 c 7.22643,-3.448859 7.81451,-5.590706 0.96939,-3.530627 -7.47721,2.250308 -12.42698,7.230179 -12.48234,12.558233 -0.0229,2.201107 0.27617,1.995898 2.50121,-1.716409 1.96076,-3.271373 3.98059,-4.910052 9.01174,-7.311197 z m 3.51784,-11.613818 c 1.33337,-1.452784 5.44001,-4.610484 9.12587,-7.017113 7.68008,-5.014599 9.259,-6.746578 4.70227,-5.158091 -6.9787,2.432788 -19.90383,11.455617 -19.90383,13.894551 0,1.888923 3.73376,0.832313 6.07569,-1.719347 z"
       id="path2087"
       inkscape:connector-curvature="0" />
  </g>
</svg>
