<?xml version="1.0" encoding="UTF-8" standalone="no"?>
<!-- Created with Inkscape (http://www.inkscape.org/) -->

<svg
   xmlns:dc="http://purl.org/dc/elements/1.1/"
   xmlns:cc="http://creativecommons.org/ns#"
   xmlns:rdf="http://www.w3.org/1999/02/22-rdf-syntax-ns#"
   xmlns:svg="http://www.w3.org/2000/svg"
   xmlns="http://www.w3.org/2000/svg"
   xmlns:sodipodi="http://sodipodi.sourceforge.net/DTD/sodipodi-0.dtd"
   xmlns:inkscape="http://www.inkscape.org/namespaces/inkscape"
   version="1.1"
   id="svg1020"
   width="393.2197"
   height="378.09656"
   viewBox="0 0 393.2197 378.09656"
   sodipodi:docname="lafayette-logo.svg"
   inkscape:version="0.92.4 (unknown)">
  <metadata
     id="metadata1026">
    <rdf:RDF>
      <cc:Work
         rdf:about="">
        <dc:format>image/svg+xml</dc:format>
        <dc:type
           rdf:resource="http://purl.org/dc/dcmitype/StillImage" />
      </cc:Work>
    </rdf:RDF>
  </metadata>
  <defs
     id="defs1024" />
  <sodipodi:namedview
     pagecolor="#ffffff"
     bordercolor="#666666"
     borderopacity="1"
     objecttolerance="10"
     gridtolerance="10"
     guidetolerance="10"
     inkscape:pageopacity="0"
     inkscape:pageshadow="2"
     inkscape:window-width="1920"
     inkscape:window-height="1163"
     id="namedview1022"
     showgrid="false"
     inkscape:zoom="1.18"
     inkscape:cx="248.9882"
     inkscape:cy="153.78977"
     inkscape:window-x="1920"
     inkscape:window-y="0"
     inkscape:window-maximized="1"
     inkscape:current-layer="svg1020" />
  <path
     style="opacity:1;fill:#ffffff;fill-opacity:1;stroke:none;stroke-width:4.3804183;stroke-linecap:round;stroke-miterlimit:4;stroke-dasharray:none;stroke-opacity:1"
     d="M 196.60901,0 A 196.61011,189.04819 0 0 0 0,189.04744 196.61011,189.04819 0 0 0 196.60901,378.09657 196.61011,189.04819 0 0 0 393.2197,189.04744 196.61011,189.04819 0 0 0 196.60901,0 Z m 17.84557,20.3605 c 41.51182,-0.194279 71.94109,21.31227 71.94109,52.065854 0,4.010469 1.43032,6.788097 4.93451,9.582888 7.08765,5.652769 6.53047,15.914449 -1.80212,33.172818 -5.55548,11.50642 -6.56036,15.64688 -7.56659,31.21008 -0.63807,9.86884 -2.39372,22.77667 -3.90376,28.68507 l -2.74753,10.74415 6.44047,5.40637 c 3.54174,2.97356 6.43884,6.17658 6.43879,7.11648 -4e-5,0.9399 2.56347,4.3515 5.69585,7.58331 5.9074,6.09488 6.98272,11.93416 4.16145,22.58094 -2.45222,9.25405 -0.33465,7.61512 -0.33465,7.61512 -5.11188,15.47317 0.98276,12.51855 -1.49759,13.46155 -7.47573,2.84227 -5.16511,8.76871 4.53626,11.63433 7.32924,2.16493 16.35152,9.9294 19.05368,16.3965 1.00468,2.40458 1.82443,4.04578 4.24512,10.55506 -12.72659,20.89432 -29.41299,33.50709 -48.95189,44.00064 -13.63804,7.32443 -15.46448,9.188 -15.46448,9.188 0,0 -4.74114,0.9974 -13.4716,3.26122 -14.35693,3.72275 -36.39891,8.86818 -47.77723,8.95541 -8.42917,1.3262 -12.91941,0.51473 -33.61455,-1.48922 -9.16131,-1.1654 -22.8285,-4.07851 -30.37176,-6.47394 -7.54329,-2.39544 -14.32351,-3.97897 -15.06791,-3.51891 -0.74441,0.46007 -1.84771,0.0404 -2.44969,-0.93369 -0.60197,-0.97399 -7.38698,-5.04688 -13.99366,-20.71523 l 1.08596,-11.66613 c 7.38932,-22.97721 -4.80937,-42.42657 14.65294,-49.22127 6.8436,-2.39848 7.15484,-2.83582 6.67974,-9.39381 -0.274,-3.78278 -0.6791,-12.01304 -0.89855,-18.29065 l -0.39991,-11.41513 -9.34026,-3.48378 c -12.28296,-4.58297 -18.471373,-11.92431 -18.471373,-21.91331 0,-4.16786 -0.87591,-8.45419 -1.946031,-9.52431 -1.070115,-1.07012 -2.388025,-6.83455 -2.929919,-12.81066 -0.902822,-9.95649 -1.565584,-11.33271 -7.922992,-16.44168 -8.827937,-7.09433 -9.408483,-13.9442 -1.703401,-20.07938 10.233924,-8.14879 21.766536,-25.78241 23.328906,-35.66601 1.33644,-8.454249 2.73568,-10.501529 16.90517,-24.746177 12.53622,-12.602706 15.25111,-16.278261 14.40195,-19.508803 -1.94553,-7.401632 14.70989,-19.924594 37.21881,-27.982303 l 13.6222,-5.244067 18.84116,-2.364347 c 2.86024,-0.20952 5.67593,-0.320028 8.44339,-0.332983 z m 2.85963,6.746674 c -32.52564,-0.02799 -74.46442,16.211774 -74.46442,28.834003 0,4.453144 2.68405,4.82313 14.36514,1.969453 15.88581,-3.880876 30.67218,5.417004 25.11764,15.795785 -0.99141,1.852491 -1.8038,5.433669 -1.8038,7.958132 0,2.872851 -2.07989,6.440604 -5.56199,9.537704 -14.39838,12.806359 -15.13015,40.795779 -0.89687,34.310659 4.3888,-1.99967 5.14815,-1.63205 11.18421,5.41977 6.93851,8.10609 11.94997,9.05204 12.89431,2.43294 0.6738,-4.72272 5.27994,-5.29111 8.39152,-1.03575 1.56154,2.13553 3.14671,2.53679 5.58039,1.4156 1.86978,-0.86137 7.83961,-1.59732 13.26746,-1.63647 8.84061,-0.0635 9.92965,-0.49054 10.44296,-4.10457 0.82015,-5.77461 -6.05061,-7.93631 -19.42347,-6.10748 -17.59906,2.40684 -43.23587,-4.13398 -31.09292,-7.93303 1.80912,-0.566 4.69166,-1.77747 6.40531,-2.69232 4.97235,-2.65449 15.20818,-2.0126 16.37474,1.0274 2.22917,5.80913 8.80191,3.18516 7.86276,-3.13907 -0.64742,-4.35984 0.20691,-7.11109 3.38505,-10.903119 4.74431,-5.66065 5.62189,-11.974002 1.66491,-11.974002 -4.71394,0 -5.18734,-4.019727 -0.86006,-7.283797 5.1888,-3.913916 7.68591,-2.730491 6.2564,2.965058 -1.22841,4.894371 8.37279,15.082971 14.21286,15.082971 3.35929,0 0.40988,-8.79415 -3.11733,-9.29509 -4.48101,-0.636397 -5.23266,-15.216543 -0.92197,-17.880697 1.5242,-0.942014 1.40245,-2.598789 -0.46685,-6.336722 -1.39255,-2.7846 -2.82864,-5.670182 -3.18928,-6.410345 -0.36062,-0.740162 1.02786,-1.345319 3.08386,-1.345319 2.20024,0 3.73812,1.158506 3.73812,2.816135 0,4.600207 7.96604,2.434071 8.64585,-2.350961 0.41324,-2.908747 -0.7427,-4.618376 -4.17985,-6.184452 -3.90398,-1.77876 -4.54768,-2.981048 -3.61263,-6.746675 3.43799,-13.845489 0.0768,-16.185651 -23.28205,-16.205741 z m 11.13068,16.659201 c 2.11464,-0.137372 4.40274,2.927859 3.00019,5.197214 -1.25382,2.028734 -3.83886,1.773905 -5.25578,-0.518717 -0.66307,-1.072873 -0.27261,-2.883205 0.86676,-4.022571 0.42197,-0.421976 0.90083,-0.624229 1.38883,-0.655926 z m -63.32538,17.487473 c -12.75826,-0.266023 -31.07533,8.38157 -41.70991,21.083355 l -7.28715,8.704418 7.97989,3.877 c 9.24679,4.49242 10.29212,7.513039 2.59861,7.513039 -10.41575,0 -3.59476,9.91057 9.88241,14.35844 7.40492,2.44385 6.65129,7.17335 -1.14286,7.17335 -3.98312,0 -5.74469,-1.17611 -7.39591,-4.93451 -2.66181,-6.0585 -5.24754,-8.02994 -7.53311,-5.74437 -1.11369,1.11368 -0.75266,2.71269 1.01066,4.47602 2.97796,2.97797 2.46081,13.96948 -0.60907,12.9462 -2.09763,-0.69923 -6.932,-14.00455 -5.77116,-15.88281 1.1006,-1.78079 -1.03918,-7.00938 -2.868,-7.00938 -0.81479,0 -1.98159,1.57726 -2.5936,3.50553 -0.61201,1.92828 -6.72256,10.14667 -13.578683,18.26388 -13.422814,15.89179 -14.921099,19.49876 -8.097011,19.49876 2.402959,-1e-5 6.539847,0.8258 9.191341,1.83392 3.342253,1.27078 5.529273,1.24411 7.133203,-0.087 1.65266,-1.37162 2.67277,-1.33692 3.57245,0.1188 1.55405,2.51452 -1.13619,5.39976 -5.63896,6.04724 -4.7407,0.68168 -5.845933,13.41369 -1.44403,16.63244 2.5009,1.82869 2.66641,2.76707 0.87178,4.92948 -1.77564,2.1395 -1.68034,3.43901 0.48525,6.53083 1.71262,2.44511 2.35153,6.02378 1.74355,9.77029 -1.17073,7.21433 3.81487,10.77845 12.73871,9.10433 3.74898,-0.70331 6.94048,-0.15233 9.2315,1.59631 4.75748,3.6311 12.80252,1.7678 20.1664,-4.67182 6.82044,-5.96438 17.97271,-11.05198 21.36948,-9.74853 1.41785,0.54409 2.33925,-0.4519 2.33925,-2.53 0,-1.88456 0.87249,-3.9656 1.93934,-4.62496 1.06685,-0.65935 1.46721,-3.08052 0.89019,-5.37959 -0.57704,-2.29906 -0.2392,-4.68044 0.7513,-5.2926 4.52765,-2.79824 1.8663,-18.68771 -5.48,-32.71769 -7.2982,-13.93812 -8.10743,-17.54122 -7.43439,-33.05068 0.31535,-7.26685 1.38273,-9.354249 8.26434,-16.148839 10.68418,-10.54906 13.12275,-22.747412 5.54191,-27.714584 -2.40984,-1.578978 -5.54541,-2.351776 -9.11772,-2.426259 z m 58.7205,0.120477 c 0.40044,0.04222 0.78161,0.216049 1.11273,0.547164 0.61574,0.615761 -0.24592,2.484773 -1.91423,4.153087 -2.79727,2.797268 -3.03366,2.802648 -3.03366,0.06363 0,-2.453227 1.78888,-4.591377 3.42856,-4.762162 0.13664,-0.01423 0.27312,-0.01574 0.4066,-0.0017 z m 44.79377,48.692515 c -0.8014,-0.0295 -1.62679,0.26975 -2.33423,0.97719 -1.01228,1.01227 -1.29893,2.7171 -0.63585,3.78999 1.75883,2.84585 6.37688,2.38681 6.37688,-0.63416 0,-2.41188 -1.64372,-4.06833 -3.4068,-4.13302 z m -11.34151,7.11145 c -3.14444,-0.0236 -7.60655,1.02876 -12.34547,3.49884 -6.99575,3.64638 -7.25183,4.04639 -4.09118,6.36014 3.70445,2.7118 9.95261,1.82006 16.38311,-2.33925 6.87992,-4.44996 5.29429,-7.48041 0.0535,-7.51973 z m -64.20217,31.90448 c -5.64227,0 -8.97214,2.99721 -8.97214,8.07526 0,7.41756 3.33905,8.97734 11.72134,5.47499 9.56367,-3.99598 7.62528,-13.55025 -2.7492,-13.55025 z m 28.45418,12.23504 c -0.61765,0.0131 -1.17334,0.13132 -1.63146,0.3765 -4.78889,2.56294 -6.10891,5.50467 -3.27628,7.29885 3.28054,2.07785 13.65265,2.05844 14.9424,-0.0284 1.65754,-2.68196 -5.71127,-7.73836 -10.03466,-7.6469 z m -13.77113,20.5111 c -2.44693,-0.15017 -7.9292,3.37276 -23.26029,13.64394 -18.44742,12.35898 -33.52872,20.67116 -43.90693,24.20236 -4.39169,1.49428 -3.94709,4.86771 2.24386,17.05075 2.96065,5.82618 5.38128,11.86546 5.38128,13.42139 0,5.56389 8.86829,8.35546 12.52954,3.94393 1.76998,-2.13268 1.41287,-4.55611 -1.82053,-12.35719 -5.48514,-13.23391 -4.12137,-17.497 7.68371,-24.0116 19.44708,-10.73178 23.97177,-13.55526 31.35732,-19.56904 11.28158,-9.18622 13.00043,-11.22929 11.88699,-14.13086 -0.49761,-1.29679 -0.98271,-2.1254 -2.09495,-2.19368 z m -24.85158,5.49171 c -0.29899,0.009 -0.79999,0.14308 -1.49425,0.38653 -1.97374,0.69214 -5.00289,1.66531 -6.72994,2.16188 -3.24103,0.9319 -4.45711,5.86821 -1.44571,5.86821 0.93185,0 3.96099,-2.08947 6.72994,-4.64337 2.92181,-2.69498 3.83693,-3.80041 2.93996,-3.77325 z m 96.45804,26.35922 c -3.14111,0 -2.26477,3.16179 1.97112,7.1081 4.01301,3.73871 6.88687,4.71852 6.78013,2.31248 -0.10279,-2.31801 -6.70076,-9.42058 -8.75125,-9.42058 z m -45.91989,8.65254 c -5.6048,0.23887 -11.32961,8.0561 -8.14052,11.89872 4.00463,4.82524 11.57022,3.49994 13.80458,-2.41957 2.34007,-6.19955 1.19322,-8.57192 -4.54967,-9.42393 -0.36992,-0.0549 -0.74074,-0.0711 -1.11439,-0.0551 z m -39.71703,0.57226 c -0.29281,-0.0139 -0.64841,0.0433 -1.06589,0.18239 -1.21384,0.40461 -3.63178,4.71241 -5.37458,9.57118 -3.73772,10.42021 -3.63928,9.7318 -1.38883,9.7318 0.98688,0 1.79376,-1.50587 1.79376,-3.34656 0,-1.84068 1.61543,-5.40038 3.5892,-7.9096 3.52464,-4.48087 4.49603,-8.13217 2.44634,-8.22921 z m 56.53685,3.33486 c -4.32558,0 -3.61422,9.86621 1.25832,17.43393 1.40731,2.18575 2.56012,5.1366 2.56012,6.55927 0,3.90133 -7.13468,1.39152 -9.25157,-3.25454 -4.19859,-9.21493 -17.54855,-9.55907 -15.257,-0.39322 0.81993,3.27946 2.26495,8.78013 5.85482,22.27138 0.93191,3.50232 4.53159,2.63333 5.57203,-1.34531 1.06002,-4.0535 2.49505,-4.48754 5.36454,-1.61807 4.14403,4.14404 9.83606,0.0218 8.51199,-6.16437 l -1.21314,-5.67577 4.36059,4.03763 c 4.98569,4.61432 11.33856,5.29445 12.84244,1.37543 0.63255,-1.64841 2.18457,-2.21507 4.07611,-1.48922 2.06696,0.79317 2.63341,0.49389 1.75527,-0.927 -0.71358,-1.1546 -3.46852,-2.11157 -6.12422,-2.12674 -6.92057,-0.0394 -9.91463,-2.43442 -8.52368,-6.81695 1.77629,-5.59665 -6.99338,-21.86645 -11.78662,-21.86645 z m -14.12584,21.53347 c 0.98688,0 1.79543,0.80688 1.79543,1.79376 0,0.98688 -0.80855,1.79543 -1.79543,1.79543 -0.98688,0 -1.79377,-0.80855 -1.79377,-1.79543 0,-0.98688 0.80689,-1.79376 1.79377,-1.79376 z m -25.87396,5.56199 c -0.3048,-0.0113 -0.61843,-0.008 -0.93871,0.0118 -2.86984,0.17274 -6.35219,1.59803 -10.27563,4.68184 -9.40805,7.39469 -16.79258,10.95546 -25.66314,12.37393 -16.13659,2.58033 -64.54413,56.22071 -55.68014,61.69893 13.43134,8.30105 27.57173,8.07449 33.03728,-0.52875 2.60607,-4.10218 -0.13629,-9.37378 -3.44696,-6.62619 -2.25006,1.86737 -2.66888,1.46577 -2.66888,-2.54675 0,-5.59781 3.60054,-7.52323 8.83158,-4.72367 4.99157,2.67141 4.70352,8.26768 -0.75799,14.75835 -5.52653,6.56785 -5.60169,8.31137 -0.44844,10.38271 8.05265,3.23677 10.31028,2.16576 14.07062,-6.67304 6.42967,-15.11317 21.91731,-35.25201 42.45119,-55.19991 12.81781,-12.45205 10.93758,-27.25685 1.48922,-27.60916 z m -69.23709,0.25935 c -3.76682,0.14517 -7.16499,3.53794 -7.16499,8.55048 0,5.93806 -4.22981,9.03093 -7.65861,5.60215 -8.83566,-8.83567 -12.64763,0.43159 -12.27018,29.81957 0.2265,17.63692 -0.40808,17.44472 14.39023,4.32208 6.49979,-5.76379 13.57067,-11.40946 15.71211,-12.54627 2.14148,-1.13682 4.78879,-4.78074 5.88327,-8.09701 1.12695,-3.41476 3.89216,-6.89704 6.3752,-8.02841 8.90346,-4.05668 7.95272,-14.67804 -1.31353,-14.67804 -3.07142,0 -7.06464,-1.33985 -8.87342,-2.97676 -1.57945,-1.42939 -3.36787,-2.03375 -5.08008,-1.96779 z m 68.1461,10.04639 c 2.98639,-0.13237 4.43023,2.82178 0.88183,6.37019 -3.0033,3.00331 -9.80377,3.97487 -9.80377,1.40053 0,-0.81485 1.89758,-3.26449 4.21668,-5.44318 1.67163,-1.57042 3.34782,-2.26731 4.70526,-2.32754 z m 78.56898,7.45783 c -4.57044,0 -4.90927,0.43655 -3.78832,4.90272 1.22862,4.89521 1.22371,4.89952 -3.10561,1.77033 -6.33285,-4.57737 -8.51083,-5.38261 -11.48373,-4.24178 -4.40079,1.68873 -1.11867,6.97785 3.59589,5.79458 2.33596,-0.58629 4.88367,0.006 6.04723,1.4089 3.11269,3.75056 11.33553,1.5479 9.99452,-2.67725 -1.28133,-4.03717 1.43166,-4.44066 4.55468,-0.67768 2.47846,2.98638 7.17837,3.6404 7.17837,0.99895 0,-2.92935 -7.76386,-7.27877 -12.99303,-7.27877 z m -28.92938,1.76531 c -0.60304,0.0225 -1.31087,0.64495 -2.09327,1.91089 -0.80744,1.30642 -1.8713,1.29303 -3.48379,-0.0451 -4.23823,-3.51741 -4.49577,2.75116 -0.3564,8.67596 5.53093,7.91665 8.08028,7.14652 8.08028,-2.43797 0,-5.29886 -0.82013,-8.1533 -2.14682,-8.1037 z m -18.02962,13.23399 c -0.61917,0.0102 -1.05584,0.65841 -1.05584,1.72181 1e-5,1.41773 -1.21198,3.58212 -2.69231,4.81068 -3.46048,2.87194 -3.41601,6.19693 0.12884,9.74186 3.1553,3.15528 10.73002,3.78039 12.43249,1.02571 0.6303,-1.01982 -0.89721,-1.79542 -3.53899,-1.79542 -5.56784,0 -7.52968,-4.01777 -4.8408,-9.91923 1.23491,-2.71032 1.32408,-4.70309 0.2376,-5.37457 -0.23743,-0.14674 -0.46459,-0.21427 -0.67099,-0.21084 z m -31.68193,1.20644 c -0.92495,0.0618 -1.67329,0.71298 -1.67329,1.91758 0,1.08586 -3.63092,5.66059 -8.07191,10.16518 -8.20874,8.32637 -9.72698,12.40722 -5.99872,16.13547 1.57332,1.57333 1.55004,2.7137 -0.0987,4.70025 -1.74981,2.10836 -1.55385,2.97024 1.00229,4.40073 2.66009,1.48865 2.83988,2.46584 1.10102,5.97697 -5.99169,12.09845 -4.46445,17.95943 3.84687,14.77007 1.56106,-0.59903 2.83789,-2.75342 2.83789,-4.79062 0,-2.03719 1.40172,-5.25438 3.11565,-7.14826 2.96254,-3.27354 2.9543,-3.56367 -0.17904,-5.85481 -3.81543,-2.7899 -2.265,-6.78547 2.1485,-5.53689 2.00534,0.5673 5.35163,-2.14739 10.16686,-8.24929 11.35881,-14.39388 11.005,-13.61398 7.68538,-16.93362 -3.77798,-3.77796 -7.55495,-1.188 -11.28629,7.74229 -1.37293,3.28595 -3.43193,5.97529 -4.57474,5.97529 -1.2767,0 -1.57814,-1.21144 -0.78143,-3.14076 2.48481,-6.01728 4.5328,-16.83897 3.50218,-18.5065 -0.71497,-1.15685 -1.81755,-1.68494 -2.74251,-1.62308 z m -42.51141,18.21032 c 0.86218,-0.0144 1.91817,0.18031 3.17421,0.57897 4.03023,1.27915 4.62542,4.50568 1.42063,7.71048 -3.44828,3.44826 -6.33242,2.5046 -7.2654,-2.37607 -0.75438,-3.94615 0.084,-5.87019 2.67056,-5.91338 z m 71.52781,9.2817 c -1.97219,0.0453 -4.48534,1.09421 -6.6513,3.12904 -3.76865,3.54048 -4.74818,3.79547 -6.11251,1.58795 -2.50295,-4.04985 -5.06645,-0.23423 -7.12149,10.60192 -2.73962,14.44609 1.45605,18.06862 6.45552,5.5737 4.14108,-10.34957 16.83323,-20.49228 16.83323,-13.45152 0,1.48032 -0.94408,2.69064 -2.09998,2.69064 -2.76228,0 -8.66425,5.39769 -8.66425,7.923 0,2.97103 6.63467,6.52679 9.86399,5.28756 6.9546,-2.66871 10.79952,-18.59183 4.48943,-18.59183 -1.97375,0 -3.58919,-0.83278 -3.58919,-1.85065 0,-1.9851 -1.4313,-2.94504 -3.40345,-2.89981 z m -52.98617,10.81108 c -0.0969,-0.005 -0.19356,-0.003 -0.2878,0.008 -1.63346,0.19225 -2.82539,2.77151 -1.63647,4.69522 1.65,2.66975 4.48439,2.16932 4.48439,-0.79145 0,-1.42208 -0.75126,-3.04987 -1.66994,-3.61765 -0.29998,-0.18535 -0.59967,-0.2784 -0.89018,-0.29449 z"
     id="path2276"
     inkscape:connector-curvature="0" />
</svg>
