<?xml version="1.0" encoding="UTF-8" standalone="no"?>
<!-- Created with Inkscape (http://www.inkscape.org/) -->

<svg
   xmlns:dc="http://purl.org/dc/elements/1.1/"
   xmlns:cc="http://creativecommons.org/ns#"
   xmlns:rdf="http://www.w3.org/1999/02/22-rdf-syntax-ns#"
   xmlns:svg="http://www.w3.org/2000/svg"
   xmlns="http://www.w3.org/2000/svg"
   xmlns:sodipodi="http://sodipodi.sourceforge.net/DTD/sodipodi-0.dtd"
   xmlns:inkscape="http://www.inkscape.org/namespaces/inkscape"
   version="1.1"
   id="svg2330"
   width="667"
   height="599"
   viewBox="0 0 667 599"
   sodipodi:docname="matlab-logo.svg"
   inkscape:version="0.92.4 (unknown)">
  <metadata
     id="metadata2336">
    <rdf:RDF>
      <cc:Work
         rdf:about="">
        <dc:format>image/svg+xml</dc:format>
        <dc:type
           rdf:resource="http://purl.org/dc/dcmitype/StillImage" />
      </cc:Work>
    </rdf:RDF>
  </metadata>
  <defs
     id="defs2334" />
  <sodipodi:namedview
     pagecolor="#ffffff"
     bordercolor="#666666"
     borderopacity="1"
     objecttolerance="10"
     gridtolerance="10"
     guidetolerance="10"
     inkscape:pageopacity="0"
     inkscape:pageshadow="2"
     inkscape:window-width="1920"
     inkscape:window-height="1163"
     id="namedview2332"
     showgrid="false"
     inkscape:zoom="1.114372"
     inkscape:cx="436.65603"
     inkscape:cy="299.5"
     inkscape:window-x="1920"
     inkscape:window-y="0"
     inkscape:window-maximized="1"
     inkscape:current-layer="g2883" />
  <g
     id="g2883"
     transform="translate(5.0847457e-7,15.228817)">
    <path
       style="fill:none;stroke-width:13.127;stroke:#ffffff;stroke-opacity:1;stroke-miterlimit:4;stroke-dasharray:none"
       d="m 287.78932,560.23972 c -1.25342,-1.94084 -12.95028,-29.7473 -21.52797,-51.17749 -3.68838,-9.21495 -8.39042,-19.47453 -21.03938,-45.90669 -12.38116,-25.87257 -30.9272,-49.24426 -44.01036,-55.46182 -10.92379,-5.19136 -16.29482,-5.15649 -32.11005,0.20844 -14.21726,4.82287 -13.49707,4.96842 -27.42417,-5.54268 -2.80541,-2.1173 -12.61275,-9.19289 -21.79409,-15.72353 -9.18133,-6.53064 -20.24067,-14.44609 -24.576301,-17.58991 -9.362686,-6.78899 -39.222723,-28.18681 -42.062255,-30.14197 -2.720967,-1.87353 -22.618667,-16.14625 -26.303401,-18.86757 -2.972326,-2.19517 -2.975772,-2.20729 -0.927408,-3.2589 3.067459,-1.57481 19.692466,-8.46955 45.180463,-18.73728 12.496819,-5.0343 32.528822,-13.19399 44.515572,-18.13266 11.98674,-4.93867 32.01875,-13.09225 44.51557,-18.11908 37.34582,-15.02229 39.02597,-15.88267 43.55403,-22.30346 7.10421,-10.07376 17.98139,-22.42525 32.95396,-37.42057 16.53611,-16.56125 25.67868,-22.69164 39.55244,-26.52122 26.13313,-7.21351 49.61079,-28.24584 80.61894,-72.22199 7.27752,-10.321058 10.62396,-15.574998 23.62811,-37.096308 35.73868,-59.1459733 51.44382,-67.9911023 76.14565,-42.885217 23.70063,24.088303 43.89348,70.467787 90.74582,208.427505 26.74715,78.75867 35.45982,102.72696 51.41088,141.42967 3.46868,8.41623 6.84314,16.97157 7.49879,19.01186 0.65566,2.0403 3.87205,10.1783 7.14755,18.08445 3.2755,7.90615 7.16446,17.6094 8.64215,21.56277 1.47768,3.95338 5.6658,13.76072 9.30692,21.79408 8.31926,18.35469 8.40521,18.58308 7.25967,19.29107 -2.08815,1.29053 -27.52969,-20.12141 -51.915,-43.69236 -46.70525,-45.1455 -74.50675,-51.16562 -112.62239,-24.3872 -9.4184,6.61697 -34.41046,30.58149 -44.43681,42.60983 -3.65155,4.38067 -9.20196,10.84934 -12.33424,14.37482 -3.13229,3.52549 -10.80762,12.25265 -17.05631,19.39369 -35.20286,40.23009 -53.51368,56.24613 -78.79622,68.92117 -19.16556,9.60838 -31.63778,13.33397 -33.74016,10.07855 z"
       id="path2911"
       inkscape:connector-curvature="0" />
    <path
       style="fill:none;stroke-width:2.127;stroke:#ffffff;stroke-opacity:1;stroke-miterlimit:4;stroke-dasharray:none"
       d="m 287.78932,560.23972 c -1.25342,-1.94084 -12.95028,-29.7473 -21.52797,-51.17749 -3.68838,-9.21495 -8.39042,-19.47453 -21.03938,-45.90669 -12.2834,-25.66827 -30.47163,-48.64156 -44.11166,-55.71683 -3.86891,-2.00687 -7.72386,-4.13999 -8.56655,-4.74029 -1.21462,-0.86525 -3.52101,-0.55483 -11.12889,1.49785 -13.86099,3.73982 -13.87591,3.74234 -13.29808,2.23654 0.27429,-0.71479 3.07912,-2.7182 6.23297,-4.45204 8.63525,-4.74725 5.31708,-4.32782 -7.65266,0.96733 -14.90412,6.0849 -14.88088,6.08059 -18.8186,3.48989 -5.3334,-3.50894 -47.83626,-34.96244 -58.599651,-43.36564 -13.558232,-10.5852 -13.369737,-10.16896 -6.246166,-13.79326 32.177297,-16.37104 51.723927,-38.76258 63.802787,-73.08892 3.11364,-8.84852 1.98541,-8.01463 23.92428,-17.68286 8.59923,-3.78959 16.52857,-7.45999 17.62075,-8.15644 1.09219,-0.69646 3.79606,-1.7967 6.00861,-2.44497 3.50935,-1.02824 4.83603,-2.27493 10.39387,-9.76723 13.2429,-17.85217 23.83219,-28.23977 27.39455,-26.87277 4.90625,1.88271 26.35323,-8.16371 26.35323,-12.34465 0,-1.2975 -3.54487,-3.09802 -7.34309,-3.72976 -1.74337,-0.28995 -3.33098,-1.01083 -3.52802,-1.60194 -1.15962,-3.47888 16.80231,-14.78404 28.70981,-18.06984 26.04043,-7.18569 49.56365,-28.27378 80.53545,-72.19837 7.27752,-10.321058 10.62396,-15.574998 23.62811,-37.096308 35.73868,-59.1459733 51.44382,-67.9911023 76.14565,-42.885217 23.70063,24.088303 43.89348,70.467787 90.74582,208.427505 26.74715,78.75867 35.45982,102.72696 51.41088,141.42967 3.46868,8.41623 6.84314,16.97157 7.49879,19.01186 0.65566,2.0403 3.87205,10.1783 7.14755,18.08445 3.2755,7.90615 7.16446,17.6094 8.64215,21.56277 1.47768,3.95338 5.6658,13.76072 9.30692,21.79408 8.31926,18.35469 8.40521,18.58308 7.25967,19.29107 -2.08815,1.29053 -27.52969,-20.12141 -51.915,-43.69236 -46.70525,-45.1455 -74.50675,-51.16562 -112.62239,-24.3872 -9.4184,6.61697 -34.41046,30.58149 -44.43681,42.60983 -3.65155,4.38067 -9.20196,10.84934 -12.33424,14.37482 -3.13229,3.52549 -10.80762,12.25265 -17.05631,19.39369 -35.20286,40.23009 -53.51368,56.24613 -78.79622,68.92117 -19.16556,9.60838 -31.63778,13.33397 -33.74016,10.07855 z m 86.68936,-440.68874 c 20.10059,-46.189718 29.53228,-67.129975 36.85834,-81.833001 4.38124,-8.792879 7.66897,-16.283953 7.30609,-16.646831 -3.15733,-3.157333 -17.70976,20.558316 -26.00017,42.371666 -1.84166,4.845708 -7.05284,18.617708 -11.5804,30.604458 -4.52755,11.986738 -12.27019,31.601418 -17.20587,43.588158 -4.93567,11.98675 -9.18111,22.42008 -9.43429,23.18519 -1.58138,4.77888 13.70889,-26.68373 20.0563,-41.26964 z"
       id="path2909"
       inkscape:connector-curvature="0" />
    <path
       style="fill:none;stroke-width:2.127;stroke:#ffffff;stroke-opacity:1;stroke-miterlimit:4;stroke-dasharray:none"
       d="m 344.37156,523.05461 c -9.20912,-17.28538 -50.60758,-28.17722 -72.04529,-18.95497 -3.96873,1.7073 -4.82027,1.80809 -5.88883,0.69703 -1.41232,-1.4685 -13.39814,-24.86144 -20.62286,-40.25001 -12.45047,-26.51935 -30.71493,-49.85149 -44.70427,-57.10795 -3.86891,-2.00687 -7.72386,-4.13999 -8.56655,-4.74029 -1.21462,-0.86525 -3.52101,-0.55483 -11.12889,1.49785 -13.86099,3.73982 -13.87591,3.74234 -13.29808,2.23654 0.27429,-0.71479 3.07912,-2.7182 6.23297,-4.45204 8.63525,-4.74725 5.31708,-4.32782 -7.65266,0.96733 -14.90412,6.0849 -14.88088,6.08059 -18.8186,3.48989 -5.3334,-3.50894 -47.83626,-34.96244 -58.599651,-43.36564 -13.558232,-10.5852 -13.369737,-10.16896 -6.246166,-13.79326 32.177297,-16.37104 51.723927,-38.76258 63.802787,-73.08892 3.11364,-8.84852 1.98541,-8.01463 23.92428,-17.68286 8.59923,-3.78959 16.52857,-7.45999 17.62075,-8.15644 1.09219,-0.69646 3.79606,-1.7967 6.00861,-2.44497 3.50935,-1.02824 4.83603,-2.27493 10.39387,-9.76723 13.2429,-17.85217 23.83219,-28.23977 27.39455,-26.87277 4.90625,1.88271 26.35323,-8.16371 26.35323,-12.34465 0,-1.2975 -3.54487,-3.09802 -7.34309,-3.72976 -1.74337,-0.28995 -3.33098,-1.01083 -3.52802,-1.60194 -1.15962,-3.47888 16.80231,-14.78404 28.70981,-18.06984 26.04043,-7.18569 49.56365,-28.27378 80.53545,-72.19837 7.27752,-10.321058 10.62396,-15.574998 23.62811,-37.096308 35.73868,-59.1459733 51.44382,-67.9911023 76.14565,-42.885217 23.70063,24.088303 43.89348,70.467787 90.74582,208.427505 26.74715,78.75867 35.45982,102.72696 51.41088,141.42967 3.46868,8.41623 6.84314,16.97157 7.49879,19.01186 0.65566,2.0403 3.87205,10.1783 7.14755,18.08445 3.2755,7.90615 7.16446,17.6094 8.64215,21.56277 1.47768,3.95338 5.6658,13.76072 9.30692,21.79408 8.31926,18.35469 8.40521,18.58308 7.25967,19.29107 -2.08815,1.29053 -27.52969,-20.12141 -51.915,-43.69236 -47.47447,-45.88903 -74.83524,-51.33709 -114.94091,-22.88694 -9.42151,6.68343 -30.33792,27.13568 -42.43303,41.4914 -3.86777,4.59067 -9.43573,11.05933 -12.37322,14.37482 -2.9375,3.31548 -11.58347,13.12282 -19.21327,21.79408 -22.11847,25.13761 -44.1917,45.93215 -48.72123,45.89883 -0.5875,-0.005 -2.71251,-3.09423 -4.72223,-6.86644 z m 30.10712,-403.50363 c 20.10059,-46.189718 29.53228,-67.129975 36.85834,-81.833001 4.38124,-8.792879 7.66897,-16.283953 7.30609,-16.646831 -3.15733,-3.157333 -17.70976,20.558316 -26.00017,42.371666 -1.84166,4.845708 -7.05284,18.617708 -11.5804,30.604458 -4.52755,11.986738 -12.27019,31.601418 -17.20587,43.588158 -4.93567,11.98675 -9.18111,22.42008 -9.43429,23.18519 -1.58138,4.77888 13.70889,-26.68373 20.0563,-41.26964 z m 77.92586,29.79004 c 8.14668,-18.41692 1.19242,-92.835807 -9.04229,-96.763234 -9.95997,-3.822 -11.71002,57.378014 -2.52764,88.393034 3.77634,12.75522 8.21105,15.96349 11.56993,8.3702 z"
       id="path2907"
       inkscape:connector-curvature="0" />
    <path
       style="fill:none;stroke-width:2.127;stroke:#ffffff;stroke-opacity:1;stroke-miterlimit:4;stroke-dasharray:none"
       d="m 344.37156,523.05461 c -8.56718,-16.08049 -48.10852,-27.64107 -68.68376,-20.08088 -9.0879,3.33927 -8.51698,3.65452 -15.00699,-8.28632 -3.18818,-5.86586 -7.54549,-14.83853 -9.68293,-19.93927 -12.31245,-29.3823 -34.69702,-60.49889 -48.57529,-67.52406 -8.98137,-4.54637 -8.93316,-4.42605 -3.92069,-9.78479 2.41142,-2.578 4.3844,-4.95348 4.3844,-5.27883 0,-0.90286 -8.41594,4.1721 -11.85673,7.14981 -1.67548,1.45001 -3.61053,2.63636 -4.30011,2.63636 -0.68957,0 -4.65165,0.98417 -8.80462,2.18705 -9.51337,2.75545 -10.17148,1.86506 -1.95177,-2.64066 9.9971,-5.48002 9.82197,-7.7783 -0.28712,-3.76815 -19.98416,7.92744 -24.04428,9.03379 -25.99476,7.0833 -1.81673,-1.81672 -1.80693,-1.85191 1.8779,-6.74908 5.00433,-6.65078 10.51127,-14.54519 10.51127,-15.06831 0,-0.2347 1.28243,-2.32694 2.84985,-4.64942 8.61228,-12.76096 18.32707,-38.28334 23.49155,-61.71624 3.31557,-15.04382 4.5914,-37.02179 3.36476,-57.96298 -0.43459,-7.41926 -0.43459,-7.41926 3.47778,-7.33922 3.24237,0.0663 3.91237,-0.21923 3.91237,-1.66751 0,-3.96684 12.35024,-20.43574 22.97729,-30.63995 6.13181,-5.88783 6.77463,-6.26 10.81217,-6.26 10.14721,0 30.20167,-9.93146 30.20167,-14.9566 0,-1.72409 -4.73563,-3.56266 -9.27408,-3.60059 -1.27518,-0.0107 -2.93719,-0.41056 -3.69334,-0.88868 -3.7483,-2.37008 13.69892,-13.65678 27.23663,-17.61953 21.67185,-6.34376 38.77216,-19.5848 61.99113,-48.00073 5.09506,-6.23546 10.99184,-13.85338 13.10394,-16.92872 14.46087,-21.055778 23.86235,-35.566268 32.15987,-49.636316 39.76691,-67.4325403 63.21735,-66.4108783 98.78077,4.303568 17.98843,35.768278 30.26635,67.664138 59.92483,155.674268 25.83312,76.65851 39.2453,113.67215 55.4488,153.02227 3.46562,8.41623 6.8219,16.97156 7.45841,19.01186 0.63651,2.0403 3.35334,8.9263 6.03737,15.30223 2.68405,6.37593 6.41615,15.55726 8.29356,20.40297 4.27968,11.0461 6.87295,17.11623 13.151,30.78288 5.29703,11.53105 5.67315,12.80528 3.77979,12.80528 -2.9638,0 -23.25915,-17.42412 -47.02375,-40.37119 -50.61416,-48.87298 -77.75476,-54.74805 -118.70819,-25.69651 -9.42151,6.68343 -30.33792,27.13568 -42.43303,41.4914 -3.86777,4.59067 -9.43573,11.05933 -12.37322,14.37482 -2.9375,3.31548 -11.58347,13.12282 -19.21327,21.79408 -22.11847,25.13761 -44.1917,45.93215 -48.72123,45.89883 -0.5875,-0.005 -2.71251,-3.09423 -4.72223,-6.86644 z m 6.08484,-350.87324 c 11.38143,-23.57302 22.23688,-47.38642 33.29258,-73.033358 17.71212,-41.08843 20.9861,-48.30276 29.01329,-63.931775 7.87395,-15.33061 8.29616,-16.973345 3.48127,-13.544842 -8.27879,5.895021 -16.66183,22.255675 -30.66953,59.855867 -5.70075,15.30223 -12.05,31.786898 -14.10943,36.632608 -2.05944,4.8457 -6.56922,15.69637 -10.02173,24.1126 -3.45252,8.41622 -9.06184,21.56223 -12.46517,29.21334 -3.40333,7.65112 -6.4108,14.43279 -6.68328,15.07038 -0.27246,0.63759 -0.235,1.15926 0.0833,1.15926 0.31825,0 3.95369,-6.99034 8.07875,-15.53408 z m 101.94814,-22.84035 c 8.14668,-18.41692 1.19242,-92.835807 -9.04229,-96.763234 -9.95997,-3.822 -11.71002,57.378014 -2.52764,88.393034 3.77634,12.75522 8.21105,15.96349 11.56993,8.3702 z"
       id="path2905"
       inkscape:connector-curvature="0" />
    <path
       style="fill:none;stroke-width:2.127;stroke:#ffffff;stroke-opacity:1;stroke-miterlimit:4;stroke-dasharray:none"
       d="m 344.37156,523.05461 c -8.56718,-16.08049 -48.10852,-27.64107 -68.68376,-20.08088 -9.15206,3.36285 -8.48341,3.76074 -15.4836,-9.21373 -3.44004,-6.37593 -7.58834,-14.93126 -9.21845,-19.01186 -11.48071,-28.73938 -30.49652,-56.03874 -46.94019,-67.38801 -5.30847,-3.66386 -5.47438,-3.29654 7.452,-16.49855 60.8962,-62.19475 113.07146,-149.21044 171.02109,-285.22172 20.52219,-48.166788 31.75215,-71.616692 41.35191,-86.349202 5.95187,-9.134196 13.89824,-10.2490393 23.49608,-3.296404 27.78382,20.126499 47.74248,63.535198 100.06202,217.627876 25.32788,74.59627 34.87851,100.93159 48.93581,134.93783 3.05735,7.39607 7.97783,19.70741 10.93439,27.35852 10.24801,26.52021 17.6609,44.58341 23.97754,58.42669 7.06798,15.48992 8.03112,18.08445 6.71326,18.08445 -2.89216,0 -27.44498,-20.98318 -49.30175,-42.13396 -48.51043,-46.94352 -76.37234,-52.65016 -116.85337,-23.93374 -9.42151,6.68343 -30.33792,27.13568 -42.43303,41.4914 -3.86777,4.59067 -9.43573,11.05933 -12.37322,14.37482 -2.9375,3.31548 -11.58347,13.12282 -19.21327,21.79408 -22.11847,25.13761 -44.1917,45.93215 -48.72123,45.89883 -0.5875,-0.005 -2.71251,-3.09423 -4.72223,-6.86644 z M 452.40454,149.34102 c 8.14668,-18.41692 1.19242,-92.835807 -9.04229,-96.763234 -9.95997,-3.822 -11.71002,57.378014 -2.52764,88.393034 3.77634,12.75522 8.21105,15.96349 11.56993,8.3702 z M 176.45518,402.50098 c 1.02014,-0.78252 2.28139,-1.43603 2.80277,-1.45226 0.52137,-0.0162 2.57254,-1.36861 4.55814,-3.00532 1.98561,-1.6367 5.80118,-4.4537 8.47904,-6.26 2.67787,-1.8063 7.51271,-5.52641 10.74409,-8.26692 3.23137,-2.7405 7.90305,-6.70516 10.38149,-8.81037 2.47844,-2.1052 6.23444,-5.67059 8.34667,-7.92309 2.11223,-2.25249 5.05817,-5.17383 6.54653,-6.49185 1.48836,-1.31802 3.22971,-3.0224 3.86965,-3.78751 2.28516,-2.73213 16.68882,-20.75967 21.03458,-26.32676 6.12573,-7.84732 16.62078,-23.49113 16.77656,-25.007 0.0708,-0.68858 -7.59201,-7.43818 -17.02839,-14.9991 -55.63907,-44.58098 -54.1236,-42.77196 -45.26042,-54.02766 8.14363,-10.34191 12.80889,-14.11361 17.45733,-14.11361 23.27456,0 49.95307,-12.95418 90.40312,-43.89672 20.38896,-15.59667 27.55501,-20.09441 32.01558,-20.09441 1.22915,0 2.88129,-1.90585 5.28895,-6.10118 5.53201,-9.63951 4.60548,-4.64529 -1.92916,10.39855 -29.96624,68.98734 -67.69356,136.05122 -95.59571,169.93044 -3.09409,3.75689 -6.7088,8.23107 -8.03268,9.94264 -18.12996,23.43902 -58.01315,58.26401 -69.93074,61.06176 -2.64695,0.62139 -2.69204,0.58397 -0.9274,-0.76963 z m 80.63763,-214.86132 c -1.14221,-1.84814 11.952,-9.03277 20.91351,-11.47499 22.42476,-6.11127 53.63834,-32.60548 73.40971,-62.31048 1.64906,-2.47758 5.34031,-7.6347 8.20278,-11.46025 2.86247,-3.825558 6.18325,-8.624898 7.37953,-10.665188 1.19628,-2.0403 4.76968,-7.6743 7.94089,-12.52001 3.17121,-4.8457 6.66038,-10.57738 7.75371,-12.73705 2.15933,-4.265392 13.93109,-22.504441 14.52469,-22.504441 0.39005,0 0.10939,0.693393 -3.1908,7.882966 -1.17068,2.550371 -4.9699,13.192375 -8.44272,23.648895 -6.62448,19.94608 -13.29602,37.308658 -18.97587,49.384458 -5.70096,12.12068 -5.46459,11.15411 5.85502,-23.94256 8.61234,-26.702708 8.62685,-26.702068 -9.20032,-0.40189 -41.44475,61.14288 -68.5712,84.66391 -100.81845,87.41852 -2.69316,0.23005 -5.10141,0.087 -5.35168,-0.31798 z"
       id="path2903"
       inkscape:connector-curvature="0" />
    <path
       style="fill:none;stroke-width:2.127;stroke:#ffffff;stroke-opacity:1;stroke-miterlimit:4;stroke-dasharray:none"
       d="m 373.52932,494.68772 c -4.64955,-8.26142 -5.19707,-8.58055 -16.69334,-9.72974 -3.31548,-0.33143 -9.57549,-1.18393 -13.91112,-1.89446 -32.80935,-5.37682 -67.08842,-2.92362 -80.32361,5.74841 -2.85226,1.86887 -4.45875,-0.43331 -13.89988,-19.9192 -15.16411,-31.29776 -29.52993,-51.09286 -44.65581,-61.5326 -5.30847,-3.66386 -5.47438,-3.29654 7.452,-16.49855 60.8962,-62.19475 113.07146,-149.21044 171.02109,-285.22172 20.52219,-48.166788 31.75215,-71.616692 41.35191,-86.349202 5.95187,-9.134196 13.89824,-10.2490393 23.49608,-3.296404 27.78382,20.126499 47.74248,63.535198 100.06202,217.627876 25.32788,74.59627 34.87851,100.93159 48.93581,134.93783 3.05735,7.39607 7.97783,19.70741 10.93439,27.35852 10.24801,26.52021 17.6609,44.58341 23.97754,58.42669 7.06798,15.48992 8.03112,18.08445 6.71326,18.08445 -2.92694,0 -27.39455,-20.94878 -49.77913,-42.62009 -61.95571,-59.98155 -100.04125,-55.72341 -160.37227,17.93037 -14.58049,17.80029 -47.93437,54.37042 -49.58364,54.36493 -0.30359,-9.2e-4 -2.42997,-3.33871 -4.7253,-7.41711 z m 90.24166,-196.97817 c 14.70821,-14.70822 6.40059,-188.79852 -11.31202,-237.04896 -10.41104,-28.360434 -17.64919,-18.23201 -22.20248,31.068162 -3.11407,33.717138 0.71575,93.448568 9.15729,142.820788 0.98898,5.78424 8.46374,35.058 10.72368,41.99761 0.71176,2.18564 1.29412,4.50617 1.29412,5.15674 0,2.66135 4.8136,13.20994 7.13255,15.63041 2.98747,3.11824 2.49906,3.08305 5.20686,0.37525 z m -287.3158,104.79143 c 1.02014,-0.78252 2.28139,-1.43603 2.80277,-1.45226 0.52137,-0.0162 2.57254,-1.36861 4.55814,-3.00532 1.98561,-1.6367 5.80118,-4.4537 8.47904,-6.26 2.67787,-1.8063 7.51271,-5.52641 10.74409,-8.26692 3.23137,-2.7405 7.90305,-6.70516 10.38149,-8.81037 2.47844,-2.1052 6.23444,-5.67059 8.34667,-7.92309 2.11223,-2.25249 5.05817,-5.17383 6.54653,-6.49185 1.48836,-1.31802 3.22971,-3.0224 3.86965,-3.78751 2.28516,-2.73213 16.68882,-20.75967 21.03458,-26.32676 6.12573,-7.84732 16.62078,-23.49113 16.77656,-25.007 0.0708,-0.68858 -7.59201,-7.43818 -17.02839,-14.9991 -55.63907,-44.58098 -54.1236,-42.77196 -45.26042,-54.02766 8.14363,-10.34191 12.80889,-14.11361 17.45733,-14.11361 23.27456,0 49.95307,-12.95418 90.40312,-43.89672 20.38896,-15.59667 27.55501,-20.09441 32.01558,-20.09441 1.22915,0 2.88129,-1.90585 5.28895,-6.10118 5.53201,-9.63951 4.60548,-4.64529 -1.92916,10.39855 -29.96624,68.98734 -67.69356,136.05122 -95.59571,169.93044 -3.09409,3.75689 -6.7088,8.23107 -8.03268,9.94264 -18.12996,23.43902 -58.01315,58.26401 -69.93074,61.06176 -2.64695,0.62139 -2.69204,0.58397 -0.9274,-0.76963 z m 80.63763,-214.86132 c -1.14221,-1.84814 11.952,-9.03277 20.91351,-11.47499 22.42476,-6.11127 53.63834,-32.60548 73.40971,-62.31048 1.64906,-2.47758 5.34031,-7.6347 8.20278,-11.46025 2.86247,-3.825558 6.18325,-8.624898 7.37953,-10.665188 1.19628,-2.0403 4.76968,-7.6743 7.94089,-12.52001 3.17121,-4.8457 6.66038,-10.57738 7.75371,-12.73705 2.15933,-4.265392 13.93109,-22.504441 14.52469,-22.504441 0.39005,0 0.10939,0.693393 -3.1908,7.882966 -1.17068,2.550371 -4.9699,13.192375 -8.44272,23.648895 -6.62448,19.94608 -13.29602,37.308658 -18.97587,49.384458 -5.70096,12.12068 -5.46459,11.15411 5.85502,-23.94256 8.61234,-26.702708 8.62685,-26.702068 -9.20032,-0.40189 -41.44475,61.14288 -68.5712,84.66391 -100.81845,87.41852 -2.69316,0.23005 -5.10141,0.087 -5.35168,-0.31798 z"
       id="path2901"
       inkscape:connector-curvature="0" />
    <path
       style="fill:none;stroke-width:2.127;stroke:#ffffff;stroke-opacity:1;stroke-miterlimit:4;stroke-dasharray:none"
       d="m 254.10162,478.68962 c -0.98902,-1.65774 -4.27675,-8.02207 -7.30609,-14.14296 -13.42745,-27.13067 -28.58979,-47.41331 -42.74997,-57.18653 -5.30847,-3.66386 -5.47438,-3.29654 7.452,-16.49855 60.8962,-62.19475 113.07146,-149.21044 171.02109,-285.22172 20.52542,-48.17438 31.75179,-71.616073 41.35669,-86.356591 4.72532,-7.2519 8.87021,-9.015237 16.22975,-6.904547 18.8164,5.396473 44.98122,48.103133 68.78558,112.272998 3.12207,8.41623 7.17026,19.2669 8.99595,24.1126 1.8257,4.84571 13.86814,39.69305 26.76096,77.43855 28.5763,83.66096 47.84129,136.76749 53.34336,147.04823 0.60737,1.13487 4.16664,10.03796 7.90949,19.78466 10.09501,26.28822 20.85071,52.54208 26.73169,65.25011 7.30077,15.776 7.13694,16.10188 -3.77307,7.50477 -11.01092,-8.67665 -19.87065,-16.59061 -34.14299,-30.4983 -31.18534,-30.38857 -50.59321,-43.32708 -71.46585,-47.64363 -8.40679,-1.73857 -8.75512,-1.91909 -8.75419,-4.53682 9.2e-4,-2.60426 -4.30526,-25.51233 -7.44236,-39.59194 -0.39778,-1.78526 -1.58785,-7.1299 -2.64461,-11.87699 -4.56408,-20.50239 -14.92277,-82.76205 -19.10971,-114.85667 -1.27454,-9.76979 -3.60931,-25.83713 -5.1884,-35.7052 -3.72387,-23.27128 -4.30423,-27.05376 -6.02573,-39.27232 -3.08532,-21.89851 -13.37883,-68.756838 -17.52212,-79.764539 -12.89797,-34.266742 -21.97717,-26.694057 -27.80663,23.192661 -3.46161,29.623338 -3.74771,40.826028 -3.76585,147.457828 -0.0204,119.61389 -0.62507,130.65937 -8.89768,162.52053 -9.91806,38.19848 -35.55594,61.30461 -72.81829,65.62746 -7.39788,0.85824 -30.583,4.6753 -45.5369,7.49694 -13.7323,2.59113 -33.26673,8.60014 -37.30448,11.47528 -3.54694,2.52565 -4.22542,2.40506 -6.33164,-1.12531 z m -77.64644,-76.18864 c 1.02014,-0.78252 2.28139,-1.43603 2.80277,-1.45226 0.52137,-0.0162 2.57254,-1.36861 4.55814,-3.00532 1.98561,-1.6367 5.80118,-4.4537 8.47904,-6.26 2.67787,-1.8063 7.51271,-5.52641 10.74409,-8.26692 3.23137,-2.7405 7.90305,-6.70516 10.38149,-8.81037 2.47844,-2.1052 6.23444,-5.67059 8.34667,-7.92309 2.11223,-2.25249 5.05817,-5.17383 6.54653,-6.49185 1.48836,-1.31802 3.22971,-3.0224 3.86965,-3.78751 2.28516,-2.73213 16.68882,-20.75967 21.03458,-26.32676 6.12573,-7.84732 16.62078,-23.49113 16.77656,-25.007 0.0708,-0.68858 -7.59201,-7.43818 -17.02839,-14.9991 -55.63907,-44.58098 -54.1236,-42.77196 -45.26042,-54.02766 8.14363,-10.34191 12.80889,-14.11361 17.45733,-14.11361 23.27456,0 49.95307,-12.95418 90.40312,-43.89672 20.38896,-15.59667 27.55501,-20.09441 32.01558,-20.09441 1.22915,0 2.88129,-1.90585 5.28895,-6.10118 5.53201,-9.63951 4.60548,-4.64529 -1.92916,10.39855 -29.96624,68.98734 -67.69356,136.05122 -95.59571,169.93044 -3.09409,3.75689 -6.7088,8.23107 -8.03268,9.94264 -18.12996,23.43902 -58.01315,58.26401 -69.93074,61.06176 -2.64695,0.62139 -2.69204,0.58397 -0.9274,-0.76963 z m 80.63763,-214.86132 c -1.14221,-1.84814 11.952,-9.03277 20.91351,-11.47499 22.42476,-6.11127 53.63834,-32.60548 73.40971,-62.31048 1.64906,-2.47758 5.34031,-7.6347 8.20278,-11.46025 2.86247,-3.825558 6.18325,-8.624898 7.37953,-10.665188 1.19628,-2.0403 4.76968,-7.6743 7.94089,-12.52001 3.17121,-4.8457 6.66038,-10.57738 7.75371,-12.73705 2.15933,-4.265392 13.93109,-22.504441 14.52469,-22.504441 0.39005,0 0.10939,0.693393 -3.1908,7.882966 -1.17068,2.550371 -4.9699,13.192375 -8.44272,23.648895 -6.62448,19.94608 -13.29602,37.308658 -18.97587,49.384458 -5.70096,12.12068 -5.46459,11.15411 5.85502,-23.94256 8.61234,-26.702708 8.62685,-26.702068 -9.20032,-0.40189 -41.44475,61.14288 -68.5712,84.66391 -100.81845,87.41852 -2.69316,0.23005 -5.10141,0.087 -5.35168,-0.31798 z"
       id="path2899"
       inkscape:connector-curvature="0" />
    <path
       style="fill:none;stroke-width:2.127;stroke:#ffffff;stroke-opacity:1;stroke-miterlimit:4;stroke-dasharray:none"
       d="m 252.306,473.12518 c -0.48809,-0.63759 -2.6755,-4.49793 -4.86092,-8.57852 -15.38536,-28.7274 -29.92595,-47.88719 -43.39952,-57.18653 -5.30847,-3.66386 -5.47438,-3.29654 7.452,-16.49855 60.8962,-62.19475 113.07146,-149.21044 171.02109,-285.22172 20.52219,-48.166788 31.75215,-71.616692 41.35191,-86.349202 17.77912,-27.2851743 52.54936,18.054169 88.27115,115.102912 10.51831,28.57608 16.50996,45.71473 34.366,98.30115 26.95188,79.3739 35.3643,102.52099 51.40025,141.42968 3.46868,8.41623 6.83313,16.97156 7.47654,19.01186 0.64341,2.0403 3.86279,10.1783 7.15419,18.08445 3.29139,7.90615 7.0485,17.29616 8.34913,20.86668 1.30063,3.57052 5.4384,13.27842 9.19504,21.5731 6.7816,14.97384 7.48386,16.91432 6.12128,16.91432 -2.04588,0 -30.05528,-24.30496 -47.05252,-40.8295 -19.31996,-18.78266 -34.9031,-30.91997 -48.19318,-37.53646 -7.15792,-3.56357 -7.47309,-3.85569 -8.00509,-7.41926 -1.94773,-13.04682 -4.11076,-23.28057 -6.37063,-30.14075 -2.61108,-7.92638 -10.2266,-37.13827 -16.19889,-62.13632 -4.30509,-18.01969 -9.44815,-43.02585 -22.31675,-108.5067 -3.35812,-17.08749 -6.94739,-35.2415 -7.97617,-40.34224 C 466.60897,76.819442 452.71653,37.475397 442.59572,37.475397 c -2.17521,0 -6.40166,4.173373 -7.27373,7.182406 -0.2595,0.895382 -1.51317,5.175302 -2.78593,9.510933 -4.88639,16.645426 -10.86266,71.882824 -14.95045,138.183754 -4.08798,66.30384 -4.21237,67.98824 -6.98592,94.59559 -9.14854,87.76421 -28.61747,130.16371 -69.65162,151.68763 -14.97641,7.85568 -16.14475,8.33756 -39.29285,16.20625 -24.34336,8.27499 -40.02974,14.38587 -44.10172,17.18054 -3.80073,2.60849 -4.05403,2.66172 -5.2475,1.10268 z m -75.85082,-70.6242 c 1.02014,-0.78252 2.28139,-1.43603 2.80277,-1.45226 0.52137,-0.0162 2.57254,-1.36861 4.55814,-3.00532 1.98561,-1.6367 5.80118,-4.4537 8.47904,-6.26 2.67787,-1.8063 7.51271,-5.52641 10.74409,-8.26692 3.23137,-2.7405 7.90305,-6.70516 10.38149,-8.81037 2.47844,-2.1052 6.23444,-5.67059 8.34667,-7.92309 2.11223,-2.25249 5.05817,-5.17383 6.54653,-6.49185 1.48836,-1.31802 3.22971,-3.0224 3.86965,-3.78751 2.28516,-2.73213 16.68882,-20.75967 21.03458,-26.32676 6.12573,-7.84732 16.62078,-23.49113 16.77656,-25.007 0.0708,-0.68858 -7.59201,-7.43818 -17.02839,-14.9991 -55.63907,-44.58098 -54.1236,-42.77196 -45.26042,-54.02766 8.14363,-10.34191 12.80889,-14.11361 17.45733,-14.11361 23.27456,0 49.95307,-12.95418 90.40312,-43.89672 20.38896,-15.59667 27.55501,-20.09441 32.01558,-20.09441 1.22915,0 2.88129,-1.90585 5.28895,-6.10118 5.53201,-9.63951 4.60548,-4.64529 -1.92916,10.39855 -29.96624,68.98734 -67.69356,136.05122 -95.59571,169.93044 -3.09409,3.75689 -6.7088,8.23107 -8.03268,9.94264 -18.12996,23.43902 -58.01315,58.26401 -69.93074,61.06176 -2.64695,0.62139 -2.69204,0.58397 -0.9274,-0.76963 z m 80.63763,-214.86132 c -1.14221,-1.84814 11.952,-9.03277 20.91351,-11.47499 22.42476,-6.11127 53.63834,-32.60548 73.40971,-62.31048 1.64906,-2.47758 5.34031,-7.6347 8.20278,-11.46025 2.86247,-3.825558 6.18325,-8.624898 7.37953,-10.665188 1.19628,-2.0403 4.76968,-7.6743 7.94089,-12.52001 3.17121,-4.8457 6.66038,-10.57738 7.75371,-12.73705 2.15933,-4.265392 13.93109,-22.504441 14.52469,-22.504441 0.39005,0 0.10939,0.693393 -3.1908,7.882966 -1.17068,2.550371 -4.9699,13.192375 -8.44272,23.648895 -6.62448,19.94608 -13.29602,37.308658 -18.97587,49.384458 -5.70096,12.12068 -5.46459,11.15411 5.85502,-23.94256 8.61234,-26.702708 8.62685,-26.702068 -9.20032,-0.40189 -41.44475,61.14288 -68.5712,84.66391 -100.81845,87.41852 -2.69316,0.23005 -5.10141,0.087 -5.35168,-0.31798 z"
       id="path2897"
       inkscape:connector-curvature="0" />
    <path
       style="fill:none;stroke-width:2.127;stroke:#ffffff;stroke-opacity:1;stroke-miterlimit:4;stroke-dasharray:none"
       d="m 628.88331,464.36184 c -9.81164,-7.89289 -28.41493,-24.58202 -39.73169,-35.64357 -17.61237,-17.21515 -32.62555,-28.74191 -46.34426,-35.58201 -9.12288,-4.54862 -9.31077,-4.70777 -9.85401,-8.34667 -1.94773,-13.04682 -4.11076,-23.28057 -6.37063,-30.14075 -2.61108,-7.92638 -10.2266,-37.13827 -16.19889,-62.13632 -4.30509,-18.01969 -9.44815,-43.02585 -22.31675,-108.5067 -3.35812,-17.08749 -6.94739,-35.2415 -7.97617,-40.34224 C 466.87524,78.139672 452.68868,37.475397 443.04498,37.475397 c -0.92339,0 -1.82737,-0.730333 -2.00884,-1.622963 -0.28423,-1.398115 -0.64698,-1.282394 -2.61837,0.835275 -4.81385,5.171065 -8.98647,19.924856 -12.94366,45.766963 -1.56214,10.20149 -3.02401,19.174158 -3.24857,19.939268 -0.22457,0.76511 -1.67673,12.24178 -3.22702,25.50371 -1.55031,13.26193 -3.01721,25.15593 -3.25982,26.43112 -0.2426,1.27519 -1.08298,8.78719 -1.86749,16.69334 -0.78452,7.90615 -2.05063,18.96549 -2.81358,24.5763 -0.76295,5.61082 -1.78631,13.54016 -2.27415,17.62075 -2.50828,20.98098 -3.18803,26.17377 -5.15946,39.41483 -1.17713,7.90615 -2.83132,18.13082 -3.67597,22.72149 -0.84467,4.59067 -1.87606,10.43334 -2.29201,12.98371 -1.72944,10.60415 -3.7722,20.46295 -5.6308,27.17554 -14.55106,52.55306 -24.50361,72.94133 -46.29755,94.84271 -16.86683,16.95 -28.26945,23.80119 -79.13326,47.5467 -5.00135,2.33485 -10.35438,5.30625 -11.8956,6.60311 -3.89496,3.27739 -3.90258,3.27285 -9.01693,-5.38594 -6.43884,-10.90118 -18.04028,-28.82906 -18.89446,-29.19787 -0.39377,-0.17003 -0.71595,-0.8088 -0.71595,-1.41951 0,-1.32401 -17.76221,-18.26636 -22.58863,-21.54599 -4.68069,-3.18062 -4.73172,-3.07814 8.0147,-16.09636 60.8962,-62.19475 113.07146,-149.21044 171.02109,-285.22172 20.52542,-48.17438 31.75179,-71.616073 41.35669,-86.356591 4.19981,-6.4454 4.40877,-6.61393 8.94715,-7.215967 13.75611,-1.824812 30.48033,16.713158 49.64162,55.02527 18.83717,37.664058 25.25403,54.581988 66.45074,175.196028 24.10566,70.57556 38.07433,108.90235 47.20416,129.51728 1.12949,2.55037 4.8693,11.94038 8.31068,20.86668 9.90041,25.67976 17.33318,43.98274 23.35024,57.49928 3.0654,6.886 6.17132,13.87633 6.90206,15.53408 1.79753,4.07787 0.59479,3.79909 -5.79868,-1.34408 z M 176.45518,402.50098 c 1.02014,-0.78252 2.28139,-1.43603 2.80277,-1.45226 0.52137,-0.0162 2.57254,-1.36861 4.55814,-3.00532 1.98561,-1.6367 5.80118,-4.4537 8.47904,-6.26 2.67787,-1.8063 7.51271,-5.52641 10.74409,-8.26692 3.23137,-2.7405 7.90305,-6.70516 10.38149,-8.81037 2.47844,-2.1052 6.23444,-5.67059 8.34667,-7.92309 2.11223,-2.25249 5.05817,-5.17383 6.54653,-6.49185 1.48836,-1.31802 3.22971,-3.0224 3.86965,-3.78751 2.28516,-2.73213 16.68882,-20.75967 21.03458,-26.32676 6.12573,-7.84732 16.62078,-23.49113 16.77656,-25.007 0.0708,-0.68858 -7.59201,-7.43818 -17.02839,-14.9991 -55.63907,-44.58098 -54.1236,-42.77196 -45.26042,-54.02766 8.14363,-10.34191 12.80889,-14.11361 17.45733,-14.11361 23.27456,0 49.95307,-12.95418 90.40312,-43.89672 20.38896,-15.59667 27.55501,-20.09441 32.01558,-20.09441 1.22915,0 2.88129,-1.90585 5.28895,-6.10118 5.53201,-9.63951 4.60548,-4.64529 -1.92916,10.39855 -29.96624,68.98734 -67.69356,136.05122 -95.59571,169.93044 -3.09409,3.75689 -6.7088,8.23107 -8.03268,9.94264 -18.12996,23.43902 -58.01315,58.26401 -69.93074,61.06176 -2.64695,0.62139 -2.69204,0.58397 -0.9274,-0.76963 z m 80.63763,-214.86132 c -1.14221,-1.84814 11.952,-9.03277 20.91351,-11.47499 22.42476,-6.11127 53.63834,-32.60548 73.40971,-62.31048 1.64906,-2.47758 5.34031,-7.6347 8.20278,-11.46025 2.86247,-3.825558 6.18325,-8.624898 7.37953,-10.665188 1.19628,-2.0403 4.76968,-7.6743 7.94089,-12.52001 3.17121,-4.8457 6.66038,-10.57738 7.75371,-12.73705 2.15933,-4.265392 13.93109,-22.504441 14.52469,-22.504441 0.39005,0 0.10939,0.693393 -3.1908,7.882966 -1.17068,2.550371 -4.9699,13.192375 -8.44272,23.648895 -6.62448,19.94608 -13.29602,37.308658 -18.97587,49.384458 -5.70096,12.12068 -5.46459,11.15411 5.85502,-23.94256 8.61234,-26.702708 8.62685,-26.702068 -9.20032,-0.40189 -41.44475,61.14288 -68.5712,84.66391 -100.81845,87.41852 -2.69316,0.23005 -5.10141,0.087 -5.35168,-0.31798 z"
       id="path2895"
       inkscape:connector-curvature="0" />
    <path
       style="fill:none;stroke-width:2.127;stroke:#ffffff;stroke-opacity:1;stroke-miterlimit:4;stroke-dasharray:none"
       d="m 628.88331,464.3686 c -9.84127,-7.90444 -20.0919,-17.1517 -32.77614,-29.56786 -12.89752,-12.62494 -24.92375,-23.2322 -34.95076,-30.82694 -6.2566,-4.73893 -6.77705,-5.64631 -9.14159,-15.93828 -2.7721,-12.0659 -4.70529,-18.59476 -10.02305,-33.85038 -9.52382,-27.32202 -31.32443,-109.17444 -41.37352,-155.3408 -1.05478,-4.8457 -2.7457,-11.94037 -3.75761,-15.76593 -1.01192,-3.82556 -3.30819,-13.21556 -5.10284,-20.86667 -6.69991,-28.56363 -17.89098,-69.752048 -22.79411,-83.893108 -7.14926,-20.61911 -13.46742,-33.221104 -20.12852,-40.147679 -10.1312,-10.534986 -16.94442,2.380302 -23.36106,44.283719 -1.56214,10.20149 -3.02401,19.174158 -3.24857,19.939268 -0.22457,0.76511 -1.67673,12.24178 -3.22702,25.50371 -1.55031,13.26193 -3.01721,25.15593 -3.25982,26.43112 -0.2426,1.27519 -1.08298,8.78719 -1.86749,16.69334 -0.78452,7.90615 -2.05063,18.96549 -2.81358,24.5763 -0.76295,5.61082 -1.78631,13.54016 -2.27415,17.62075 -2.50828,20.98098 -3.18803,26.17377 -5.15946,39.41483 -1.17713,7.90615 -2.83132,18.13082 -3.67597,22.72149 -0.84467,4.59067 -1.87606,10.43334 -2.29201,12.98371 -1.72944,10.60415 -3.7722,20.46295 -5.6308,27.17554 -14.55106,52.55306 -24.50361,72.94133 -46.29755,94.84271 -16.86683,16.95 -28.26945,23.80119 -79.13326,47.5467 -5.00135,2.33485 -10.35438,5.30625 -11.8956,6.60311 -3.89496,3.27739 -3.90258,3.27285 -9.01693,-5.38594 -6.43884,-10.90118 -18.04028,-28.82906 -18.89446,-29.19787 -0.39377,-0.17003 -0.71595,-0.8088 -0.71595,-1.41951 0,-1.32401 -17.76221,-18.26636 -22.58863,-21.54599 -4.68069,-3.18062 -4.73172,-3.07814 8.0147,-16.09636 60.8962,-62.19475 113.07146,-149.21044 171.02109,-285.22172 20.52542,-48.17438 31.75179,-71.616073 41.35669,-86.356591 4.19981,-6.4454 4.40877,-6.61393 8.94715,-7.215967 13.75611,-1.824812 30.48033,16.713158 49.64162,55.02527 18.83717,37.664058 25.25403,54.581988 66.45074,175.196028 24.10566,70.57556 38.07433,108.90235 47.20416,129.51728 1.12949,2.55037 4.8693,11.94038 8.31068,20.86668 9.90041,25.67976 17.33318,43.98274 23.35024,57.49928 3.0654,6.886 6.17132,13.87633 6.90206,15.53408 1.79675,4.07608 0.59655,3.79929 -5.79868,-1.33732 z M 176.45518,402.50098 c 1.02014,-0.78252 2.28139,-1.43603 2.80277,-1.45226 0.52137,-0.0162 2.57254,-1.36861 4.55814,-3.00532 1.98561,-1.6367 5.80118,-4.4537 8.47904,-6.26 2.67787,-1.8063 7.51271,-5.52641 10.74409,-8.26692 3.23137,-2.7405 7.90305,-6.70516 10.38149,-8.81037 2.47844,-2.1052 6.23444,-5.67059 8.34667,-7.92309 2.11223,-2.25249 5.05817,-5.17383 6.54653,-6.49185 1.48836,-1.31802 3.22971,-3.0224 3.86965,-3.78751 2.28516,-2.73213 16.68882,-20.75967 21.03458,-26.32676 6.12573,-7.84732 16.62078,-23.49113 16.77656,-25.007 0.0708,-0.68858 -7.59201,-7.43818 -17.02839,-14.9991 -55.63907,-44.58098 -54.1236,-42.77196 -45.26042,-54.02766 8.14363,-10.34191 12.80889,-14.11361 17.45733,-14.11361 23.27456,0 49.95307,-12.95418 90.40312,-43.89672 20.38896,-15.59667 27.55501,-20.09441 32.01558,-20.09441 1.22915,0 2.88129,-1.90585 5.28895,-6.10118 5.53201,-9.63951 4.60548,-4.64529 -1.92916,10.39855 -29.96624,68.98734 -67.69356,136.05122 -95.59571,169.93044 -3.09409,3.75689 -6.7088,8.23107 -8.03268,9.94264 -18.12996,23.43902 -58.01315,58.26401 -69.93074,61.06176 -2.64695,0.62139 -2.69204,0.58397 -0.9274,-0.76963 z m 80.63763,-214.86132 c -1.14221,-1.84814 11.952,-9.03277 20.91351,-11.47499 22.42476,-6.11127 53.63834,-32.60548 73.40971,-62.31048 1.64906,-2.47758 5.34031,-7.6347 8.20278,-11.46025 2.86247,-3.825558 6.18325,-8.624898 7.37953,-10.665188 1.19628,-2.0403 4.76968,-7.6743 7.94089,-12.52001 3.17121,-4.8457 6.66038,-10.57738 7.75371,-12.73705 2.15933,-4.265392 13.93109,-22.504441 14.52469,-22.504441 0.39005,0 0.10939,0.693393 -3.1908,7.882966 -1.17068,2.550371 -4.9699,13.192375 -8.44272,23.648895 -6.62448,19.94608 -13.29602,37.308658 -18.97587,49.384458 -5.70096,12.12068 -5.46459,11.15411 5.85502,-23.94256 8.61234,-26.702708 8.62685,-26.702068 -9.20032,-0.40189 -41.44475,61.14288 -68.5712,84.66391 -100.81845,87.41852 -2.69316,0.23005 -5.10141,0.087 -5.35168,-0.31798 z"
       id="path2893"
       inkscape:connector-curvature="0" />
    <path
       style="fill:none;stroke-width:2.127;stroke:#ffffff;stroke-opacity:1;stroke-miterlimit:4;stroke-dasharray:none"
       d="m 628.88331,464.3686 c -9.84127,-7.90444 -20.0919,-17.1517 -32.77614,-29.56786 -12.89752,-12.62494 -24.92375,-23.2322 -34.95076,-30.82694 -6.2566,-4.73893 -6.77705,-5.64631 -9.14159,-15.93828 -2.7721,-12.0659 -4.70529,-18.59476 -10.02305,-33.85038 -9.52382,-27.32202 -31.32443,-109.17444 -41.37352,-155.3408 -1.05478,-4.8457 -2.7457,-11.94037 -3.75761,-15.76593 -1.01192,-3.82556 -3.30819,-13.21556 -5.10284,-20.86667 -6.69991,-28.56363 -17.89098,-69.752048 -22.79411,-83.893108 -7.14926,-20.61911 -13.46742,-33.221104 -20.12852,-40.147679 -10.1312,-10.534986 -16.94442,2.380302 -23.36106,44.283719 -1.56214,10.20149 -3.02401,19.174158 -3.24857,19.939268 -0.22457,0.76511 -1.67673,12.24178 -3.22702,25.50371 -1.55031,13.26193 -3.01721,25.15593 -3.25982,26.43112 -0.2426,1.27519 -1.08298,8.78719 -1.86749,16.69334 -0.78452,7.90615 -2.05063,18.96549 -2.81358,24.5763 -0.76295,5.61082 -1.78631,13.54016 -2.27415,17.62075 -2.50828,20.98098 -3.18803,26.17377 -5.15946,39.41483 -1.17713,7.90615 -2.83132,18.13082 -3.67597,22.72149 -0.84467,4.59067 -1.87606,10.43334 -2.29201,12.98371 -1.72944,10.60415 -3.7722,20.46295 -5.6308,27.17554 -14.55106,52.55306 -24.50361,72.94133 -46.29755,94.84271 -16.86683,16.95 -28.26945,23.80119 -79.13326,47.5467 -5.00135,2.33485 -10.35438,5.30625 -11.8956,6.60311 -3.85768,3.24602 -3.93065,3.20808 -8.39627,-4.36578 -12.83622,-21.77074 -21.28852,-33.68018 -30.87966,-43.51002 -11.68442,-11.97521 -12.02353,-9.53064 3.56928,-25.72929 36.58149,-38.00283 77.91058,-99.94954 111.42953,-167.01781 12.56609,-25.14356 28.85115,-59.3911 32.19243,-67.70076 1.53824,-3.82556 3.93869,-9.2509 5.33433,-12.05631 1.39563,-2.8054 5.35355,-11.77807 8.79536,-19.93926 3.4418,-8.16119 8.09122,-19.09278 10.33203,-24.292418 2.24081,-5.19964 4.07421,-9.65549 4.07421,-9.9019 0,-0.24641 1.40773,-3.50416 3.12828,-7.23945 1.72056,-3.73529 5.52404,-12.21407 8.4522,-18.841745 14.8673,-33.651113 25.11441,-49.694425 32.64264,-51.10673 11.56105,-2.168868 28.78746,17.689869 47.09092,54.286795 18.83717,37.664058 25.25403,54.581988 66.45074,175.196028 24.10566,70.57556 38.07433,108.90235 47.20416,129.51728 1.12949,2.55037 4.8693,11.94038 8.31068,20.86668 9.90041,25.67976 17.33318,43.98274 23.35024,57.49928 3.0654,6.886 6.17132,13.87633 6.90206,15.53408 1.79675,4.07608 0.59655,3.79929 -5.79868,-1.33732 z M 263.23021,294.13549 c -5.21602,-4.20812 -10.86722,-8.72188 -12.55822,-10.0306 -11.96548,-9.26043 -23.53459,-21.54402 -33.24516,-35.2983 -5.9603,-8.4423 -5.8223,-9.15631 1.76964,-9.15631 21.34412,0 44.13763,-5.24439 77.24886,-17.7736 8.14147,-3.08071 22.73124,-7.23746 25.48155,-7.25991 4.32164,-0.0352 -35.35329,73.24468 -46.06538,85.08316 -2.53707,2.80384 -1.92378,3.07402 -12.63129,-5.56444 z"
       id="path2891"
       inkscape:connector-curvature="0" />
    <path
       style="fill:none;stroke-width:2.127;stroke:#ffffff;stroke-opacity:1;stroke-miterlimit:4;stroke-dasharray:none"
       d="m 246.14239,459.65871 c -20.45899,-32.34124 -21.09228,-33.22837 -30.7707,-43.10471 -11.6351,-11.87302 -11.97738,-9.44795 3.62049,-25.65184 36.58149,-38.00283 77.91058,-99.94954 111.42953,-167.01781 12.56609,-25.14356 28.85115,-59.3911 32.19243,-67.70076 1.53824,-3.82556 3.93869,-9.2509 5.33433,-12.05631 1.39563,-2.8054 5.35355,-11.77807 8.79536,-19.93926 3.4418,-8.16119 8.09122,-19.09278 10.33203,-24.292418 2.24081,-5.19964 4.07421,-9.65549 4.07421,-9.9019 0,-0.24641 1.40773,-3.50416 3.12828,-7.23945 1.72056,-3.73529 5.52404,-12.21407 8.4522,-18.841745 22.6664,-51.303852 31.90024,-59.7157783 47.85566,-43.596001 5.74854,5.807752 7.61142,8.593156 4.70782,7.039194 -4.82434,-2.581902 -13.77995,0.879074 -17.96838,6.944039 -5.16975,7.485935 -10.75799,31.518573 -17.4511,75.049751 -4.05817,26.39382 -7.39972,48.91965 -9.28626,62.60003 -1.09027,7.90615 -2.57511,17.8948 -3.29965,22.19701 -0.72455,4.30221 -1.9521,12.23154 -2.72791,17.62075 -2.64025,18.34082 -5.94207,37.65982 -8.33726,48.78141 -1.31445,6.10344 -2.98475,14.22716 -3.71177,18.05272 -0.72702,3.82555 -1.74545,8.41622 -2.26319,10.20148 -0.51772,1.78526 -1.96753,7.6442 -3.22178,13.01986 -2.0263,8.68462 -12.61033,40.65308 -16.72191,50.50757 -18.69581,44.80954 -47.67385,72.702 -103.89109,99.99908 -3.06045,1.48605 -8.38121,4.52127 -11.82391,6.74497 l -6.25945,4.04306 z m 17.08782,-165.52322 c -5.21602,-4.20812 -10.86722,-8.72188 -12.55822,-10.0306 -11.96548,-9.26043 -23.53459,-21.54402 -33.24516,-35.2983 -5.9603,-8.4423 -5.8223,-9.15631 1.76964,-9.15631 21.34412,0 44.13763,-5.24439 77.24886,-17.7736 8.14147,-3.08071 22.73124,-7.23746 25.48155,-7.25991 4.32164,-0.0352 -35.35329,73.24468 -46.06538,85.08316 -2.53707,2.80384 -1.92378,3.07402 -12.63129,-5.56444 z"
       id="path2889"
       inkscape:connector-curvature="0" />
    <path
       style="fill:none;stroke-width:3.127;stroke:#ffffff;stroke-opacity:1;stroke-miterlimit:4;stroke-dasharray:none"
       d="m 232.10823,435.78023 c -5.14958,-7.63531 -9.9612,-13.31406 -16.87012,-19.9104 -11.53649,-11.01456 -11.88067,-8.72546 3.75407,-24.96767 36.58149,-38.00283 77.91058,-99.94954 111.42953,-167.01781 12.56609,-25.14356 28.85115,-59.3911 32.19243,-67.70076 1.53824,-3.82556 3.93869,-9.2509 5.33433,-12.05631 1.39563,-2.8054 5.35355,-11.77807 8.79536,-19.93926 3.4418,-8.16119 8.09122,-19.09278 10.33203,-24.292418 2.24081,-5.19964 4.07421,-9.65549 4.07421,-9.9019 0,-0.24641 1.40773,-3.50416 3.12828,-7.23945 1.72056,-3.73529 5.52404,-12.21407 8.4522,-18.841745 17.43126,-39.45447 27.08332,-52.943356 36.10208,-50.453156 3.75583,1.037033 4.2456,2.591894 1.38012,4.381415 -4.2665,2.664475 -13.16321,29.52388 -18.8182,56.812646 -0.78345,3.78062 -2.84732,12.92519 -4.58638,20.32126 -1.73905,7.396078 -3.63584,15.742748 -4.21508,18.548158 -1.05825,5.12536 -6.42833,29.42043 -11.27446,51.00742 -2.30667,10.275 -8.33693,34.31829 -16.74733,66.77336 -1.52007,5.86586 -5.30184,18.59453 -8.40392,28.28594 -29.52198,92.23139 -59.87854,136.6556 -120.41884,176.22262 -6.37593,4.16708 -12.16537,8.26805 -12.86541,9.11327 -2.25877,2.72718 -3.44898,1.71698 -10.7749,-9.14521 z m 31.12198,-141.64474 c -5.21602,-4.20812 -10.86722,-8.72188 -12.55822,-10.0306 -11.96548,-9.26043 -23.53459,-21.54402 -33.24516,-35.2983 -5.9603,-8.4423 -5.8223,-9.15631 1.76964,-9.15631 21.34412,0 44.13763,-5.24439 77.24886,-17.7736 8.14147,-3.08071 22.73124,-7.23746 25.48155,-7.25991 4.32164,-0.0352 -35.35329,73.24468 -46.06538,85.08316 -2.53707,2.80384 -1.92378,3.07402 -12.63129,-5.56444 z"
       id="path2887"
       inkscape:connector-curvature="0" />
    <path
       style="fill:none;stroke-width:2.127;stroke:#ffffff;stroke-opacity:1;stroke-miterlimit:4;stroke-dasharray:none"
       d="m 219.01788,417.44779 c -0.96622,-0.52358 -3.21743,-2.24379 -5.00269,-3.82269 -1.78526,-1.57891 -4.44631,-3.73808 -5.91344,-4.79818 -3.58008,-2.58681 -3.07732,-3.41431 10.89043,-17.92476 36.58149,-38.00283 77.91058,-99.94954 111.42953,-167.01781 12.56609,-25.14356 28.85115,-59.3911 32.19243,-67.70076 1.53824,-3.82556 3.93869,-9.2509 5.33433,-12.05631 1.39563,-2.8054 5.35355,-11.77807 8.79536,-19.93926 3.4418,-8.16119 8.09122,-19.09278 10.33203,-24.292418 2.24081,-5.19964 4.07421,-9.65549 4.07421,-9.9019 0,-0.24641 1.40773,-3.50416 3.12828,-7.23945 1.72056,-3.73529 5.52404,-12.21407 8.4522,-18.841745 10.95511,-24.79614 18.18295,-37.881525 25.4884,-46.144524 5.5459,-6.27283 5.97738,-5.499001 1.8795,3.370819 -1.97588,4.276803 -7.18868,18.779141 -11.58399,32.227419 -18.38861,56.263369 -27.84008,84.525549 -32.2133,96.325509 -2.55204,6.886 -6.6424,18.15401 -9.0897,25.04001 -4.32076,12.15744 -14.50198,37.43871 -26.14382,64.91854 -8.81666,20.81119 -27.97326,58.11973 -40.47619,78.82966 -21.28292,35.25314 -55.58925,74.23439 -79.50735,90.34177 -2.55659,1.72171 -5.9221,4.5811 -7.47891,6.35421 -2.33787,2.66268 -3.13635,3.05813 -4.58731,2.27187 z m 44.21233,-123.3123 c -5.21602,-4.20812 -10.86722,-8.72188 -12.55822,-10.0306 -11.96548,-9.26043 -23.53459,-21.54402 -33.24516,-35.2983 -5.9603,-8.4423 -5.8223,-9.15631 1.76964,-9.15631 21.34412,0 44.13763,-5.24439 77.24886,-17.7736 8.14147,-3.08071 22.73124,-7.23746 25.48155,-7.25991 4.32164,-0.0352 -35.35329,73.24468 -46.06538,85.08316 -2.53707,2.80384 -1.92378,3.07402 -12.63129,-5.56444 z"
       id="path2885"
       inkscape:connector-curvature="0" />
  </g>
</svg>
