<?xml version="1.0" encoding="UTF-8" standalone="no"?>
<!-- Created with Inkscape (http://www.inkscape.org/) -->

<svg
   xmlns:dc="http://purl.org/dc/elements/1.1/"
   xmlns:cc="http://creativecommons.org/ns#"
   xmlns:rdf="http://www.w3.org/1999/02/22-rdf-syntax-ns#"
   xmlns:svg="http://www.w3.org/2000/svg"
   xmlns="http://www.w3.org/2000/svg"
   xmlns:sodipodi="http://sodipodi.sourceforge.net/DTD/sodipodi-0.dtd"
   xmlns:inkscape="http://www.inkscape.org/namespaces/inkscape"
   version="1.1"
   id="svg964"
   width="712"
   height="525.80676"
   viewBox="0 0 712.00003 525.80676"
   sodipodi:docname="microcontroller-logo.svg"
   inkscape:version="0.92.4 (unknown)">
  <metadata
     id="metadata970">
    <rdf:RDF>
      <cc:Work
         rdf:about="">
        <dc:format>image/svg+xml</dc:format>
        <dc:type
           rdf:resource="http://purl.org/dc/dcmitype/StillImage" />
        <dc:title></dc:title>
      </cc:Work>
    </rdf:RDF>
  </metadata>
  <defs
     id="defs968" />
  <sodipodi:namedview
     pagecolor="#ffffff"
     bordercolor="#666666"
     borderopacity="1"
     objecttolerance="10"
     gridtolerance="10"
     guidetolerance="10"
     inkscape:pageopacity="0"
     inkscape:pageshadow="2"
     inkscape:window-width="1920"
     inkscape:window-height="1163"
     id="namedview966"
     showgrid="false"
     inkscape:zoom="0.68263889"
     inkscape:cx="395.55235"
     inkscape:cy="191.40172"
     inkscape:window-x="1920"
     inkscape:window-y="0"
     inkscape:window-maximized="1"
     inkscape:current-layer="g974" />
  <g
     id="g974"
     transform="translate(-284.29841,-640.13838)">
    <path
       style="fill:#ffffff;stroke-width:1.33333337;fill-opacity:1"
       d="m 590.94686,1130.2725 c -0.0229,-45.8244 0.16829,-45.199 -12.31514,-40.2623 -2.17773,0.8613 -2.33333,-0.9567 -2.33333,-27.2617 0,-33.0707 0.8064,-31.6713 -14.65817,-25.4376 -10.63983,4.289 -10.63983,4.289 -49.50048,-11.2567 -41.23981,-16.4975 -44.26281,-17.2205 -44.90337,-10.7398 -0.3819,3.8637 -8.2549,8.0311 -31.06627,16.4444 -0.67434,0.2487 -1.21305,-6.5039 -1.22324,-15.3333 -0.0267,-23.0593 3.01827,-19.8641 -32.22544,-33.817 -31.15301,-12.3334 -34.42301,-13.0063 -34.42301,-7.0835 0,1.0363 -2.83771,3.1005 -6.30602,4.5872 -3.4683,1.4867 -6.6183,3.0144 -7,3.395 -0.38169,0.3806 -0.99398,18.7419 -1.36065,40.8028 l -0.66667,40.1109 -15.33333,6.2861 -15.33333,6.286 -0.66667,-38.8219 c -0.73707,-42.9216 -0.39573,-41.5055 -9.25971,-38.4155 -4.99676,1.7418 -5.68875,-2.4424 -5.26717,-31.8484 0.35363,-24.6662 1.10019,-23.0482 -13.13978,-28.4767 l -9.66667,-3.6851 v -48.6915 c 0,-38.4212 0.35155,-48.5504 1.66667,-48.0224 0.91666,0.3681 17.56666,6.9759 36.99999,14.6841 19.43334,7.7082 69.53334,27.615 111.33333,44.2373 41.79999,16.6223 85.13946,33.8257 96.30993,38.2297 l 20.30993,8.0073 23.69006,-9.3311 C 587.63786,929.7267 639.6984,909.0696 690.2984,888.9542 897.92174,806.4158 994.91639,767.981 995.58809,767.981 c 0.3907,0 0.7103,21.8196 0.7103,48.488 v 48.4881 l -8.33334,3.0064 c -12.4913,4.5066 -11.6641,2.1108 -11.6871,33.8475 -0.023,31.5644 0.275,30.3459 -8.32001,34.0302 -6.28695,2.6949 -6.28695,2.6949 -6.63991,43.0382 l -0.35297,40.3434 -15.25556,6.3458 c -18.709,7.7823 -16.62381,11.7779 -17.41111,-33.3631 -0.73789,-42.3086 -0.13186,-40.1461 -10.33333,-36.8753 -3,0.9618 -3,0.9618 -3,-26.3637 0,-22.1547 -0.36327,-27.6271 -1.91968,-28.9188 -1.85689,-1.5411 -43.62559,13.5696 -48.35235,17.4924 -1.23408,1.0242 -1.7725,9.1541 -2.03617,30.7446 -0.35847,29.3522 -0.35847,29.3522 -5.91447,31.5242 -3.05578,1.1947 -6.05578,2.6712 -6.66666,3.2812 -0.61087,0.61 -1.41067,19.1707 -1.77734,41.2459 l -0.66666,40.1369 -15.64671,6.3088 -15.6467,6.3087 -0.3533,-38.888 c -0.38017,-41.8468 -0.66448,-42.7373 -12.01996,-37.6484 -2.18161,0.9777 -2.33333,-0.787 -2.33333,-27.1388 0,-34.3421 2.40592,-32.4744 -26.82167,-20.8223 -27.26705,10.8705 -25.17833,7.3982 -25.17833,41.8569 0,27.9773 0,27.9773 -6.11917,30.3143 -8.47575,3.2369 -8.5475,3.6272 -8.5475,46.4944 0,28.9537 -0.38905,37.9342 -1.66666,38.4716 -14.29287,6.0115 -28.34007,11.5843 -29.20036,11.5843 -0.60099,0 -1.25176,-17.55 -1.44617,-39 -0.39126,-43.1693 0.2049,-40.9292 -10.02014,-37.6509 -3,0.9619 -3,0.9619 -3,-25.0846 0,-28.4709 -0.26493,-30.2625 -4.47598,-30.2688 -2.94915,0 -42.89266,15.4225 -45.85735,17.7109 -1.2434,0.9598 -1.66667,8.699 -1.66667,30.4734 0,29.1869 0,29.1869 -7.31366,32.4214 -7.31367,3.2344 -7.31367,3.2344 -7.66668,43.5247 l -0.353,40.2903 -14,5.7747 c -7.7,3.1762 -14.75,6.0636 -15.66667,6.4167 -1.30796,0.5037 -1.67058,-7.1689 -1.68486,-35.6497 z M 523.63173,908.7128 c -18.85372,-7.6137 -141.02587,-56.1845 -222.39209,-88.4142 -6.44899,-2.5544 -11.41152,-4.9584 -11.02786,-5.3421 0.60414,-0.6041 81.68456,-32.9468 244.08661,-97.36532 24.2,-9.5992 78.00852,-30.953 119.57449,-47.453 l 75.57448,-29.9998 63.75885,25.3096 c 35.06737,13.9202 93.45885,37.0661 129.75885,51.4351 36.3,14.369 66.43819,26.51252 66.97389,26.98562 0.5356,0.4731 -63.06438,26.2797 -141.33334,57.3481 -78.26897,31.0684 -176.79478,70.2002 -218.94626,86.9595 -42.15149,16.7593 -77.85149,30.4167 -79.33334,30.3499 -1.48186,-0.067 -13.49428,-4.4828 -26.69428,-9.8134 z M 685.5062,846.4483 c 72.30237,-28.7096 155.45886,-61.756 184.79219,-73.4363 29.33334,-11.6804 56.03334,-22.257 59.33334,-23.5035 14.79253,-5.588 28.5906,0.9188 -139.10784,-65.59932 l -61.10784,-24.2387 -192.60852,76.4837 c -220.768,87.66582 -201.4546,77.97402 -175.84246,88.24002 125.39866,50.2628 186.02843,74.0146 189.20779,74.1223 2.2256,0.075 59.82021,-22.0836 135.33334,-52.0682 z"
       id="path976"
       inkscape:connector-curvature="0" />
  </g>
</svg>
