<?xml version="1.0" encoding="UTF-8" standalone="no"?>
<!-- Created with Inkscape (http://www.inkscape.org/) -->

<svg
   xmlns:dc="http://purl.org/dc/elements/1.1/"
   xmlns:cc="http://creativecommons.org/ns#"
   xmlns:rdf="http://www.w3.org/1999/02/22-rdf-syntax-ns#"
   xmlns:svg="http://www.w3.org/2000/svg"
   xmlns="http://www.w3.org/2000/svg"
   xmlns:sodipodi="http://sodipodi.sourceforge.net/DTD/sodipodi-0.dtd"
   xmlns:inkscape="http://www.inkscape.org/namespaces/inkscape"
   version="1.1"
   id="svg8528"
   width="316.11627"
   height="299.63242"
   viewBox="0 0 316.11627 299.63241"
   sodipodi:docname="microchip-logo.svg"
   inkscape:version="0.92.4 (unknown)">
  <metadata
     id="metadata8534">
    <rdf:RDF>
      <cc:Work
         rdf:about="">
        <dc:format>image/svg+xml</dc:format>
        <dc:type
           rdf:resource="http://purl.org/dc/dcmitype/StillImage" />
        <dc:title></dc:title>
      </cc:Work>
    </rdf:RDF>
  </metadata>
  <defs
     id="defs8532" />
  <sodipodi:namedview
     pagecolor="#ffffff"
     bordercolor="#666666"
     borderopacity="1"
     objecttolerance="10"
     gridtolerance="10"
     guidetolerance="10"
     inkscape:pageopacity="0"
     inkscape:pageshadow="2"
     inkscape:window-width="1920"
     inkscape:window-height="1163"
     id="namedview8530"
     showgrid="false"
     inkscape:zoom="1.625"
     inkscape:cx="251.87889"
     inkscape:cy="131.60732"
     inkscape:window-x="1920"
     inkscape:window-y="0"
     inkscape:window-maximized="1"
     inkscape:current-layer="g9081" />
  <g
     id="g9081"
     transform="translate(-274.12602,0.10219827)">
    <path
       style="fill:#ffffff;stroke-width:0.31999999;fill-opacity:1"
       d="m 422.08,299.19705 c -40.45437,-2.60653 -74.4969,-17.37738 -102.96349,-44.67523 -3.69572,-3.54398 -3.87057,-2.64183 2.11111,-10.89219 35.28304,-48.66504 36.66156,-50.60694 37.50214,-52.8279 2.05987,-5.44269 0.83882,-11.07711 -3.9025,-18.00728 C 353.68547,171.1255 346.4385,159.86 338.72288,147.76 c -8.99619,-14.10825 -14.21034,-21.99741 -14.53565,-21.9928 -0.30249,0.004 -7.0943,9.25723 -16.82723,22.92492 -32.36812,45.45367 -27.93619,40.18408 -29.23759,34.76359 -20.64126,-85.973077 40.971,-170.922878 131.88988,-181.8472314 2.85325,-0.3428304 6.36009,-0.77485148 7.79299,-0.96004687 22.56538,-2.91647433 56.2048,2.90167807 77.23472,13.35823327 2.60941,1.297451 1.66602,-0.06955 19.81498,28.713336 1.55366,2.464 6.39136,10.096 10.7504,16.96 34.53868,54.386459 64.01923,100.933949 64.34768,101.599999 0.9816,1.99062 -0.6872,14.71276 -2.72436,20.76907 -1.38115,4.1061 -5.19984,12.90872 -5.65728,13.04078 -0.16028,0.0463 -5.75465,-8.586 -12.43196,-19.18285 C 556.83014,156.37214 531.51498,116.35745 511.19286,84.313096 498.6616,64.553489 496.7729,62.129893 492.16,59.890101 c -8.3151,-4.037402 -13.58506,-0.92457 -24.3103,14.359453 -2.89866,4.130745 -9.13748,12.958403 -13.86404,19.617018 -4.72656,6.658608 -8.52108,12.295878 -8.43232,12.527268 0.18877,0.49191 0.43338,0.87907 41.64868,65.92616 17.39673,27.456 32.947,52.008 34.55612,54.56001 1.60912,2.552 6.55181,10.35571 10.98378,17.34158 9.44714,14.89111 8.75981,12.66707 4.93808,15.97846 -32.01386,27.73891 -73.43914,41.71348 -115.6,38.997 z m 13.50426,-54.11647 c 4.52259,-0.95859 7.94675,-4.00139 13.6398,-12.12057 9.42394,-13.44006 25.33594,-36.82676 25.33594,-37.23758 0,-0.26769 -2.35238,-4.20274 -5.22752,-8.74456 C 466.45734,182.43604 457.50618,168.28 449.44102,155.52 427.4409,120.71325 398.00922,74.308536 394.94723,69.600002 383.29539,51.682468 375.27869,53.29972 358.57574,76.937429 c -4.48595,6.348416 -10.82022,15.286573 -14.07612,19.862573 -3.25594,4.575998 -5.92432,8.586028 -5.92976,8.911168 -0.005,0.32515 13.65142,22.06915 30.34857,48.32 42.91843,67.47536 50.35344,79.19535 51.39091,81.00884 3.01322,5.2669 7.60468,9.30391 11.44186,10.06012 1.92733,0.37983 1.94934,0.37972 3.83306,-0.0196 z"
       id="path9083"
       inkscape:connector-curvature="0"
       sodipodi:nodetypes="sscccscssssccccccccssscscccsccsssccccscccc" />
  </g>
</svg>
