<?xml version="1.0" encoding="UTF-8" standalone="no"?>
<!-- Created with Inkscape (http://www.inkscape.org/) -->

<svg
   xmlns:dc="http://purl.org/dc/elements/1.1/"
   xmlns:cc="http://creativecommons.org/ns#"
   xmlns:rdf="http://www.w3.org/1999/02/22-rdf-syntax-ns#"
   xmlns:svg="http://www.w3.org/2000/svg"
   xmlns="http://www.w3.org/2000/svg"
   xmlns:sodipodi="http://sodipodi.sourceforge.net/DTD/sodipodi-0.dtd"
   xmlns:inkscape="http://www.inkscape.org/namespaces/inkscape"
   width="250mm"
   height="250mm"
   viewBox="0 0 885.82677 885.82677"
   id="svg2"
   version="1.1"
   inkscape:version="0.92.4 (unknown)"
   sodipodi:docname="my-silhouette.svg">
  <defs
     id="defs4" />
  <sodipodi:namedview
     id="base"
     pagecolor="#ffffff"
     bordercolor="#666666"
     borderopacity="1.0"
     inkscape:pageopacity="0.0"
     inkscape:pageshadow="2"
     inkscape:zoom="0.44863269"
     inkscape:cx="457.31506"
     inkscape:cy="623.88797"
     inkscape:document-units="px"
     inkscape:current-layer="layer1"
     showgrid="false"
     inkscape:window-width="1299"
     inkscape:window-height="704"
     inkscape:window-x="67"
     inkscape:window-y="27"
     inkscape:window-maximized="1" />
  <metadata
     id="metadata7">
    <rdf:RDF>
      <cc:Work
         rdf:about="">
        <dc:format>image/svg+xml</dc:format>
        <dc:type
           rdf:resource="http://purl.org/dc/dcmitype/StillImage" />
        <dc:title />
      </cc:Work>
    </rdf:RDF>
  </metadata>
  <g
     inkscape:label="Layer 1"
     inkscape:groupmode="layer"
     id="layer1"
     transform="translate(0,-166.53543)">
    <path
       style="fill:#ffffff;fill-opacity:1;fill-rule:evenodd;stroke:none;stroke-width:14.28416252;stroke-linecap:butt;stroke-linejoin:miter;stroke-miterlimit:4;stroke-dasharray:none;stroke-opacity:1"
       d="m 727.58257,824.11852 c -23.59075,-49.88671 -45.54654,-58.56021 -67.71014,-72.47215 -9.35379,-3.66827 -17.76438,-9.55553 -29.16746,-8.40254 -18.46786,-2.468 -45.31812,-4.00304 -105.21113,-31.50962 -9.20226,-18.81365 -4.10917,-53.2267 -0.5572,-78.15124 12.01542,-18.50742 12.09885,-25.99376 15.49224,-44.32109 3.99485,0.63119 14.39287,-20.70072 24.81628,-34.74307 5.24076,-15.93213 5.97298,-38.1143 -10.38994,-29.40007 5.74223,-25.22668 11.55472,-32.22428 4.8705,-78.6147 5.41564,-16.91194 -11.77801,-22.06837 -10.2729,-38.31247 -4.66494,-7.03976 -4.71918,-13.23425 -17.84916,-21.82582 -8.03155,-11.14019 -1.89669,-31.47798 -41.52743,-29.63991 -11.42736,-1.67526 -16.7474,-7.73872 -38.73474,-3.32973 -22.31357,-1.52146 -25.1034,2.01474 -44.51216,12.0302 l -20.74523,19.15151 c -22.67323,21.52987 -27.10988,34.63238 -38.74227,62.59468 -2.92275,29.42541 -0.50146,51.65467 4.55839,79.9362 -17.54542,-3.27436 -12.69174,14.11977 -7.57257,25.58013 6.96184,10.46845 4.88161,23.67199 20.88559,31.40538 0.49285,13.31449 3.62461,37.22184 10.42478,46.07046 5.94139,6.6562 -1.28853,65.82093 -2.2316,72.11664 -1.08896,7.26981 -34.97429,20.55944 -34.97429,20.55944 l -103.51938,21.4534 c -8.46011,0.73743 -17.72024,0.46662 -22.96896,5.25158 -42.66131,16.94372 -74.64951,36.96282 -74.78803,75.28643"
       id="path4147-2"
       inkscape:connector-curvature="0"
       sodipodi:nodetypes="ccccccccccccccccccccscccc" />
  </g>
</svg>
