<?xml version="1.0" encoding="UTF-8" standalone="no"?>
<!-- Created with Inkscape (http://www.inkscape.org/) -->

<svg
   xmlns:dc="http://purl.org/dc/elements/1.1/"
   xmlns:cc="http://creativecommons.org/ns#"
   xmlns:rdf="http://www.w3.org/1999/02/22-rdf-syntax-ns#"
   xmlns:svg="http://www.w3.org/2000/svg"
   xmlns="http://www.w3.org/2000/svg"
   xmlns:sodipodi="http://sodipodi.sourceforge.net/DTD/sodipodi-0.dtd"
   xmlns:inkscape="http://www.inkscape.org/namespaces/inkscape"
   version="1.1"
   id="svg1464"
   width="225"
   height="225"
   viewBox="0 0 225 225"
   sodipodi:docname="n-logo.svg"
   inkscape:version="0.92.4 (unknown)">
  <metadata
     id="metadata1470">
    <rdf:RDF>
      <cc:Work
         rdf:about="">
        <dc:format>image/svg+xml</dc:format>
        <dc:type
           rdf:resource="http://purl.org/dc/dcmitype/StillImage" />
        <dc:title></dc:title>
      </cc:Work>
    </rdf:RDF>
  </metadata>
  <defs
     id="defs1468" />
  <sodipodi:namedview
     pagecolor="#ffffff"
     bordercolor="#666666"
     borderopacity="1"
     objecttolerance="10"
     gridtolerance="10"
     guidetolerance="10"
     inkscape:pageopacity="0"
     inkscape:pageshadow="2"
     inkscape:window-width="1920"
     inkscape:window-height="1163"
     id="namedview1466"
     showgrid="false"
     inkscape:zoom="1.0488889"
     inkscape:cx="112.5"
     inkscape:cy="112.5"
     inkscape:window-x="1920"
     inkscape:window-y="0"
     inkscape:window-maximized="1"
     inkscape:current-layer="svg1464" />
  <path
     style="fill:#ffffff;stroke-width:0.9603669;fill-opacity:1"
     d="M 47.691274,112.15215 V 5.0712281 H 64.758608 81.825941 L 99.16757,34.602509 c 42.95828,73.154231 65.00657,110.306071 66.21461,111.573071 l 1.30717,1.37096 0.556,-1.44892 c 0.3058,-0.79691 0.42973,-14.59488 0.27538,-30.66217 L 167.24011,86.222226 152.49645,61.73564 C 144.38743,48.26802 137.14868,36.080818 136.41031,34.65297 135.44745,32.79102 135.06782,28.241303 135.06782,18.564056 V 5.0712281 h 24.48092 24.48094 V 112.15215 219.23305 h -16.78596 -16.78594 l -2.26144,-3.60138 c -1.24379,-1.98075 -18.15887,-30.61169 -37.58906,-63.6243 C 72.987752,88.090371 66.916158,77.842476 66.242586,77.126553 64.590572,75.370729 64.028239,82.948829 64.01537,107.14106 l -0.01469,27.64139 1.317346,3.09036 c 0.724549,1.69968 7.959656,14.11054 16.078021,27.5797 l 14.760666,24.48935 0.315812,14.64559 0.315832,14.6456 H 72.239818 47.691283 Z"
     id="path2028"
     inkscape:connector-curvature="0" />
</svg>
