<?xml version="1.0" encoding="UTF-8" standalone="no"?>
<!-- Created with Inkscape (http://www.inkscape.org/) -->

<svg
   xmlns:dc="http://purl.org/dc/elements/1.1/"
   xmlns:cc="http://creativecommons.org/ns#"
   xmlns:rdf="http://www.w3.org/1999/02/22-rdf-syntax-ns#"
   xmlns:svg="http://www.w3.org/2000/svg"
   xmlns="http://www.w3.org/2000/svg"
   xmlns:sodipodi="http://sodipodi.sourceforge.net/DTD/sodipodi-0.dtd"
   xmlns:inkscape="http://www.inkscape.org/namespaces/inkscape"
   version="1.1"
   id="svg871"
   width="225"
   height="225"
   viewBox="0 0 225 225"
   sodipodi:docname="northwestern-logo.svg"
   inkscape:version="0.92.4 (unknown)">
  <metadata
     id="metadata877">
    <rdf:RDF>
      <cc:Work
         rdf:about="">
        <dc:format>image/svg+xml</dc:format>
        <dc:type
           rdf:resource="http://purl.org/dc/dcmitype/StillImage" />
        <dc:title></dc:title>
      </cc:Work>
    </rdf:RDF>
  </metadata>
  <defs
     id="defs875" />
  <sodipodi:namedview
     pagecolor="#ffffff"
     bordercolor="#666666"
     borderopacity="1"
     objecttolerance="10"
     gridtolerance="10"
     guidetolerance="10"
     inkscape:pageopacity="0"
     inkscape:pageshadow="2"
     inkscape:window-width="1920"
     inkscape:window-height="1163"
     id="namedview873"
     showgrid="false"
     inkscape:zoom="1.0488889"
     inkscape:cx="112.5"
     inkscape:cy="36.228814"
     inkscape:window-x="1920"
     inkscape:window-y="0"
     inkscape:window-maximized="1"
     inkscape:current-layer="svg871" />
  <path
     style="fill:#ffffff;stroke-width:0.97415805;fill-opacity:1"
     d="M 96.893237,220.08663 C 8.7744253,206.36013 -26.603071,99.84498 36.067051,36.950116 99.86795,-27.079579 210.52868,13.098378 219.07151,103.39415 c 6.45074,68.1828 -55.25439,127.11738 -122.178273,116.69248 z m 32.479843,-4.9284 C 211.87016,202.24296 244.19369,97.839117 183.83004,39.264239 118.28834,-24.335227 8.7319323,21.960169 8.7319323,113.25568 c 0,64.3622 56.3579467,111.96636 120.6411477,101.90255 z m -28.67279,-6.23694 c -1.43372,-2.18814 -1.4461,-2.66375 -0.12197,-4.68464 0.8459,-1.29101 1.25982,-3.36851 0.97157,-4.8764 -0.60342,-3.15658 1.13195,-5.53841 4.03522,-5.53841 3.87244,0 6.06341,4.8253 3.40023,7.48848 -0.76262,0.76262 -0.76262,1.24225 0,1.71357 0.58246,0.35999 1.05903,1.92833 1.05903,3.48522 0,4.98368 -6.55108,6.67485 -9.34408,2.41218 z m 7.07462,-1.05528 c 0.71324,-1.85871 -2.90783,-5.80437 -4.45138,-4.85039 -1.17135,0.72393 -1.46433,4.70198 -0.42298,5.74331 1.21591,1.21593 4.28055,0.65452 4.87436,-0.89292 z m 0.14961,-9.50059 c 0.38305,-1.97517 -2.46629,-3.26957 -3.94413,-1.79174 -0.76685,0.76686 -0.70798,1.48904 0.2117,2.59719 1.52123,1.83297 3.29497,1.45021 3.73243,-0.80545 z m 7.47772,12.01711 c -0.33845,-0.54763 0.4372,-0.97416 1.77155,-0.97416 2.96474,0 4.80802,-2.12406 4.39172,-5.06071 -0.24594,-1.73487 -0.92749,-2.23674 -2.99725,-2.20707 -2.49976,0.0359 -2.67894,-0.23292 -2.67894,-4.0184 0,-4.02912 1.63162,-5.2745 6.91031,-5.2745 1.78716,0 -0.3766,2.78288 -2.59709,3.34019 -3.16958,0.79552 -2.94956,1.72643 0.82219,3.47891 4.06973,1.89093 4.76333,5.97638 1.58839,9.35596 -2.23735,2.38155 -6.12617,3.11487 -7.21088,1.35978 z m -27.763504,-2.19775 c -2.2313,-0.68576 -2.838132,-1.18163 -1.756008,-1.43494 2.630334,-0.61572 5.886487,-12.8517 3.460784,-13.00491 -0.669733,-0.0423 0.0152,-0.52632 1.522122,-1.07562 3.77385,-1.37566 3.829435,-1.12559 1.565618,7.04366 -1.314967,4.74522 -1.644008,7.33535 -0.960792,7.56309 1.1701,0.39003 1.440234,2.18055 0.308447,2.04445 -0.40184,-0.0483 -2.264917,-0.5594 -4.140171,-1.13573 z m 46.303664,-1.79705 c 0.87772,-2.76546 -2.28758,-11.59173 -4.15706,-11.59173 -1.31938,0 -1.28731,-0.27251 0.22927,-1.94831 2.56955,-2.83932 2.8119,-2.61329 5.2223,4.87079 1.37708,4.27567 2.72031,6.8191 3.6013,6.8191 2.64443,0 1.4079,1.62055 -2.04516,2.68033 -3.19831,0.98159 -3.40645,0.92098 -2.85065,-0.83018 z M 62.310626,191.78187 c 0,-0.48537 -0.657557,-0.8825 -1.461237,-0.8825 -1.632076,0 -1.966475,-1.52108 -0.529621,-2.4091 0.512388,-0.31667 0.649491,-1.32888 0.304688,-2.24935 -0.547808,-1.46237 -0.419502,-1.50484 1.016699,-0.3366 1.393114,1.1332 1.894143,1.1332 3.287258,0 1.450735,-1.18007 1.563085,-1.12241 0.957353,0.49127 -0.377457,1.00554 -0.273378,2.32577 0.231275,2.93384 0.622507,0.75008 0.158038,1.46403 -1.444423,2.22027 -1.299098,0.61307 -2.361992,0.71755 -2.361992,0.23217 z m 98.947184,-0.0904 c -0.45045,-1.03028 -1.32431,-1.41648 -2.34262,-1.03531 -1.36646,0.5115 -1.42828,0.36677 -0.38965,-0.91219 0.67898,-0.83609 1.00407,-2.12368 0.72244,-2.86133 -0.35821,-0.93816 0.34273,-1.37104 2.33269,-1.44055 2.01525,-0.0704 2.69739,0.28467 2.33936,1.2177 -0.27798,0.72439 -0.0202,1.31708 0.57297,1.31708 0.59312,0 1.07838,0.43837 1.07838,0.97415 0,0.53579 -0.62541,0.97416 -1.38981,0.97416 -0.76439,0 -1.57329,0.76715 -1.79756,1.70478 -0.37768,1.57906 -0.46072,1.5836 -1.1262,0.0615 z M 99.09814,186.97078 C 50.786112,178.83582 22.208776,123.8562 43.850097,80.679691 72.800165,22.921546 153.74993,23.826055 180.2195,82.203441 204.70188,136.19819 157.74263,196.84555 99.09814,186.97078 Z m 30.79642,-3.83397 C 180.79279,170.11923 201.2402,107.20016 167.76228,66.613326 134.21549,25.942982 68.937307,33.781062 46.278624,81.200106 19.754219,136.70919 70.332993,198.37009 129.89456,183.13681 Z m -19.85019,-4.84842 c 0,-1.25821 -3.62626,-1.8821 -4.69977,-0.80858 -1.17064,1.17063 -12.835074,-3.1e-4 -12.835074,-1.28846 0,-0.48318 0.730618,-0.87851 1.6236,-0.87851 0.892972,0 1.353719,-0.26987 1.023879,-0.59971 -0.32984,-0.32984 -1.827608,-0.19379 -3.328367,0.30234 -4.230057,1.39839 -7.249139,0.48947 -4.135759,-1.24512 2.200166,-1.22578 2.029357,-1.28159 -2.245999,-0.73384 -3.152454,0.40389 -4.627251,0.24016 -4.627251,-0.51374 0,-0.6086 0.803681,-1.10656 1.785953,-1.10656 2.486373,0 3.268291,-1.04056 1.963406,-2.61285 -2.396477,-2.88759 0.419297,-2.48168 3.16504,0.45626 2.941714,3.14763 5.107803,4.41749 2.80764,1.64596 -2.187384,-2.63563 -0.181271,-2.70122 2.440178,-0.0798 2.894955,2.89495 3.604561,3.16778 2.802439,1.07748 -0.824956,-2.14979 1.279313,-1.77796 3.713475,0.6562 1.54413,1.54414 1.94804,1.67601 1.4918,0.48708 -0.84568,-2.20383 0.46376,-2.05122 3.60567,0.4202 2.45493,1.93106 2.78908,1.96178 5.73279,0.52719 2.70655,-1.31902 3.16816,-1.33274 3.44087,-0.10225 0.44438,2.00503 2.75191,1.76381 5.0429,-0.52719 2.37365,-2.37364 5.81986,-2.80441 3.89664,-0.48707 -0.83788,1.00957 -0.87475,1.46123 -0.11928,1.46123 0.60139,0 1.09344,-0.42827 1.09344,-0.9517 0,-1.16966 4.73723,-4.37736 5.43466,-3.67994 0.27668,0.27669 -0.20668,1.21282 -1.07415,2.08027 -1.17631,1.17632 -1.24682,1.57721 -0.27739,1.57721 0.71491,0 1.73255,-0.98377 2.26144,-2.18616 1.12959,-2.56805 5.02166,-3.83655 4.0568,-1.32219 -0.32924,0.85802 -0.17402,1.56004 0.34494,1.56004 0.51898,0 0.94359,-0.64214 0.94359,-1.42697 0,-0.78483 0.84793,-1.88076 1.88428,-2.43539 2.66587,-1.42674 3.28568,-1.25936 2.57865,0.69635 -0.33898,0.93762 0.52264,0.28007 1.9147,-1.46124 2.61355,-3.26928 4.97352,-4.27865 3.98583,-1.70478 -0.73656,1.91945 -0.38941,1.84596 2.3006,-0.48708 2.42763,-2.10547 4.87079,-2.57051 4.87079,-0.92713 0,0.56165 -1.31213,1.57289 -2.91584,2.2472 -2.11067,0.88747 -2.62159,1.52027 -1.85025,2.2916 1.4028,1.4028 -2.18012,2.60284 -5.21903,1.74803 -1.72909,-0.48636 -1.88335,-0.39739 -0.73062,0.42143 1.29887,0.92265 1.29887,1.14456 0,1.99722 -1.81488,1.19139 -4.59953,1.27195 -5.03315,0.1456 -0.1786,-0.4639 -1.20146,-0.49472 -2.27304,-0.0685 -1.86901,0.74345 -1.86143,0.77778 0.18605,0.84346 1.1739,0.0377 2.44129,0.56509 2.81642,1.17206 0.49185,0.79584 -0.91828,0.95492 -5.05684,0.57048 -3.15639,-0.29322 -4.75256,-0.32097 -3.54704,-0.0617 1.20552,0.25929 2.19186,0.87932 2.19186,1.37784 0,1.22115 -5.57229,1.16153 -6.33203,-0.0677 -0.33113,-0.53579 -1.06824,-0.97416 -1.63801,-0.97416 -0.65326,0 -0.58796,0.53979 0.17678,1.46124 1.03308,1.2448 0.77068,1.46123 -1.77155,1.46123 -1.64134,0 -3.25519,-0.43837 -3.58632,-0.97415 -0.87639,-1.41802 -4.38372,-1.19418 -4.38372,0.27977 0,0.68966 -0.87674,1.31998 -1.94831,1.4007 -1.07158,0.0808 -1.94832,-0.21325 -1.94832,-0.65324 z m -33.851992,-7.51735 c -1.797292,-0.72522 -1.479035,-2.26512 0.487079,-2.35677 1.050542,-0.049 0.518389,-0.59914 -1.386665,-1.43361 -3.805753,-1.66702 -5.004854,-3.35772 -2.381407,-3.35772 1.071574,0 2.217787,0.43602 2.547141,0.96892 0.329353,0.5329 1.560747,1.48142 2.736419,2.10781 1.943514,1.03548 2.014442,0.98959 0.78109,-0.50539 -0.746088,-0.90434 -1.037128,-1.96245 -0.646763,-2.35134 0.390365,-0.38889 1.548609,0.38885 2.573872,1.72832 1.025262,1.33947 2.388713,3.057 3.029885,3.81673 0.964075,1.14234 0.79576,1.28458 -0.972843,0.82207 -1.176238,-0.3076 -2.384106,-0.16205 -2.684157,0.32344 -0.583666,0.9444 -2.111614,1.03327 -4.083651,0.23754 z M 98.55497,164.05487 C 59.404303,153.51693 46.044466,104.87923 74.487748,76.435946 107.49232,43.431381 163.6804,66.744789 163.6115,113.41493 c -0.0499,33.79822 -32.82992,59.31416 -65.05653,50.63994 z m 28.66689,-3.4653 c 23.10008,-7.13489 37.98637,-32.22155 33.28389,-56.09069 C 152.88481,65.81606 107.00247,49.962763 78.37948,76.122562 38.38467,112.67557 75.354174,176.60986 127.22186,160.58957 Z m -17.26283,-5.43301 c -0.22617,-14.99743 -1.10602,-16.28946 -4.18531,-6.14599 -1.54518,5.08998 -3.15448,9.63636 -3.57622,10.10307 -0.734,0.81228 -0.6274,-0.64528 0.97047,-13.26908 0.93759,-7.40748 0.37267,-7.0988 -4.79629,2.62071 -5.140751,9.66645 -5.740355,9.87056 -3.0079,1.02391 3.25594,-10.5415 1.891854,-11.23083 -4.80257,-2.42692 -5.519853,7.25922 -6.503733,7.40724 -2.712865,0.40816 4.006254,-7.39676 2.600593,-8.74098 -4.041733,-3.86507 -5.38875,3.95571 -6.606292,3.47401 -2.109198,-0.83447 6.189069,-5.92951 4.524545,-8.68797 -2.955352,-4.89763 -6.842185,3.4672 -6.833252,2.46112 0.02767,-3.1154 3.209724,-2.60884 5.860768,-5.29132 5.891201,-5.96106 0.06878,-1.51292 0.923736,-1.63567 -8.186376,1.17529 -9.67679,2.9858 -9.899677,2.76982 -1.715726,-1.66252 9.567976,-5.18191 11.462031,-6.8479 7.03496,-6.18787 -14.34251,2.13832 -16.364774,1.66964 -7.002375,-1.62291 10.474995,-3.68383 10.525827,-4.58295 0.264445,-4.67806 -10.736128,-0.0995 -13.045028,-1.43016 -3.977809,-2.29247 14.826676,-1.41006 15.310482,-1.84701 4.870791,-4.39904 -5.089976,-1.24426 -9.641554,-2.61393 -10.114625,-3.04369 -0.755654,-0.68649 10.70213,-0.36946 16.690192,0.4618 4.184924,0.58096 2.146888,-0.9896 -6.109433,-4.70807 -12.673981,-5.708093 -10.388275,-6.034585 6.596512,-0.94225 3.649995,1.09433 1.399475,-1.76885 -5.11433,-6.506587 -8.425863,-6.128458 -8.469243,-6.43652 -0.396268,-2.814423 8.508822,3.817653 10.321253,2.305567 4.209064,-3.51158 -4.821839,-4.589092 -5.913704,-7.3614 -1.604877,-4.074898 4.164828,3.176667 4.611187,3.254863 4.611187,0.807808 0,-1.026924 0.525568,-2.042324 1.167918,-2.256443 0.794475,-0.264824 0.482988,-1.3512 -0.974158,-3.397575 -3.541269,-4.97325 -2.419516,-4.917543 1.998096,0.09923 6.33043,7.189027 9.308606,6.320725 6.010185,-1.7523 -3.176564,-7.774786 -2.44955,-7.766363 2.437655,0.02824 5.236899,8.35234 6.629629,7.472031 4.685559,-2.961619 -1.63904,-8.796634 -0.97496,-8.50895 2.65078,1.148324 3.01386,8.027512 4.39711,8.925486 4.5018,2.922474 0.2027,-11.621615 1.3524,-13.463911 2.73236,-4.378351 1.32153,8.700905 2.57664,11.334625 3.49821,7.340667 0.28322,-1.227434 1.14434,-5.016101 1.9136,-8.419262 2.04454,-9.044991 2.8299,-8.632253 2.04216,1.073235 -0.89263,10.997579 0.8599,11.593804 4.8614,1.653885 3.45866,-8.591468 4.59469,-9.446447 2.84969,-2.144684 -2.65527,11.110693 -0.82157,12.112578 5.35568,2.926194 4.06433,-6.04422 4.41314,-5.10599 0.95678,2.573647 -2.54371,5.651842 0.59373,6.277306 5.83169,1.162576 4.06239,-3.966826 6.01668,-4.661451 3.26199,-1.159434 -4.16441,5.294196 -1.67659,9.747712 3.50241,6.269756 4.52355,-3.037778 4.52355,-3.037778 -0.1037,1.762796 -7.20001,7.469687 -6.49361,9.841417 1.80981,6.076468 8.5672,-3.884555 8.69396,-3.108396 0.39371,2.410891 -3.75693,2.498189 -6.83078,4.985395 -6.83078,5.527115 0,1.01155 0.86549,0.88299 11.06704,-1.64387 8.41949,-2.085442 7.67334,-1.037505 -2.25449,3.16634 -11.06467,4.68524 -11.00708,4.9105 1.17257,4.58637 11.02206,-0.29333 10.47958,0.36204 -2.67893,3.2364 -8.78981,1.92007 -8.54028,2.12735 5.35787,4.45079 7.30618,1.22141 7.30618,1.22141 -2.18048,1.80613 -12.14893,0.74882 -12.18029,0.87799 -1.15414,4.7539 12.5652,4.41692 10.55815,4.8475 -6.6505,1.42681 -4.77091,-0.94836 -2.85501,1.2822 5.11433,5.95431 4.28629,2.51288 7.79326,4.73538 7.79326,4.93888 0,0.20349 -3.50697,-0.92308 -7.79326,-2.50348 -9.67703,-3.56804 -10.49766,-1.92679 -2.4354,4.87079 6.65964,5.61497 6.76233,6.70758 0.24354,2.59132 -3.9084,-2.46794 -5.68858,-3.06224 -7.54972,-2.5204 -2.4354,0.70903 -2.4354,0.70903 0,0.87461 2.24936,0.15292 2.28656,0.22952 0.48708,1.00278 -1.32638,0.56996 -1.48186,0.86891 -0.48708,0.93648 1.46655,0.0996 7.39725,8.8051 5.99856,8.8051 -0.41007,0 -2.23268,-1.53429 -4.05025,-3.40955 -6.49837,-6.70462 -9.00089,-4.77213 -4.74303,3.66265 3.47563,6.88516 2.07661,6.24336 -3.57035,-1.63791 -6.00579,-8.38207 -7.3996,-7.62633 -4.35067,2.35897 3.09347,10.13118 2.14216,9.97262 -2.92247,-0.48708 -5.16401,-10.66491 -5.33433,-10.51108 -4.04487,3.6531 0.91335,10.03292 0.0824,9.52232 -2.77424,-1.70478 -2.94327,-11.5674 -3.54155,-11.56539 -4.40975,0.0148 -0.77889,10.38883 -2.36371,13.35555 -2.4947,4.66996 z m 2.02511,-45.33729 c 0.01,-28.65392 0.52715,-27.42344 -10.65631,-25.343656 -3.01974,0.561579 -7.554314,0.788423 -10.076838,0.504097 -4.586414,-0.516954 -4.586414,-0.516954 -4.683752,19.823519 -0.05358,11.18726 -0.163123,22.41125 -0.24354,24.9422 -0.178777,5.62699 -0.518924,5.50022 14.21408,5.29734 l 11.43781,-0.15749 0.009,-25.06601 z m -16.701147,17.80218 c -0.185938,-0.55655 -2.114313,-1.08141 -4.285273,-1.16635 -3.947201,-0.15443 -3.947201,-0.15443 -2.961752,-3.30289 0.618746,-1.97685 1.464004,-2.96483 2.271454,-2.65498 0.805288,0.30901 1.055413,1.26971 0.66914,2.56997 -0.551832,1.85759 -0.477864,1.90867 0.701588,0.48462 1.582306,-1.91044 6.66967,-3.00456 6.69124,-1.43905 0.009,0.66703 0.31758,0.60571 0.80336,-0.15975 1.94352,-3.06246 11.97803,-2.13973 11.49024,1.05659 -0.33165,2.17317 -2.56693,3.57421 -2.56693,1.60891 0,-0.90329 -0.33529,-0.89636 -1.4515,0.03 -1.20044,0.99628 -1.61099,0.8063 -2.37364,-1.09843 -0.92216,-2.30304 -0.92216,-2.30304 -0.9839,-0.0434 -0.0486,1.77796 -0.52896,2.18958 -2.25361,1.93109 -1.22526,-0.18365 -2.90197,0.44854 -3.802101,1.43354 -0.885636,0.96913 -1.762379,1.3067 -1.948316,0.75014 z m 2.097323,-14.81619 c 0,-0.39656 -0.986335,-0.67965 -2.191855,-0.6291 -6.351813,0.26635 -7.545985,-0.12721 -7.207767,-2.37545 0.20997,-1.39571 1.125377,-2.30925 2.520215,-2.51506 1.854622,-0.27366 2.107484,0.025 1.649172,1.94831 -0.404802,1.69864 -0.256983,1.59455 0.586083,-0.41277 0.784801,-1.86859 1.630516,-2.52461 2.783043,-2.15882 1.07584,0.34146 1.606338,0.0222 1.514835,-0.91174 -0.07745,-0.79048 0.297566,-1.36627 0.833353,-1.27953 0.535785,0.0867 0.849695,0.69967 0.697585,1.36209 -0.27795,1.21035 4.50651,1.12652 6.51393,-0.11414 0.51381,-0.31756 1.22803,-0.10197 1.58713,0.47909 0.35911,0.58105 1.23799,0.83195 1.95307,0.55755 0.91148,-0.34976 1.23984,0.28561 1.09843,2.12544 -0.12111,1.57559 -0.77739,2.62436 -1.64222,2.62436 -0.79228,0 -1.76257,0.43837 -2.15621,0.97416 -0.44323,0.6033 -0.72137,0.51058 -0.73061,-0.24354 -0.008,-0.66974 -0.89166,-1.2177 -1.96323,-1.2177 -1.07158,0 -1.94832,0.63031 -1.94832,1.40069 0,0.80017 -0.8353,1.33777 -1.94832,1.25394 -1.07157,-0.0808 -1.948314,-0.47122 -1.948314,-0.86778 z M 88.095548,98.305381 c -0.728223,-1.178293 2.340229,-8.194448 3.205389,-7.32928 0.315286,0.31528 0.645623,1.775588 0.734096,3.245127 0.238883,3.968016 -2.35151,6.653542 -3.939485,4.084153 z m 4.932405,-0.74693 c 0.372226,-0.901721 0.897356,-2.406642 1.166954,-3.34427 0.551958,-1.919655 2.211251,-2.328187 2.211251,-0.544427 0,0.638191 0.657878,0.309413 1.461958,-0.730619 1.361274,-1.760748 1.530964,-1.775983 2.464184,-0.221247 0.75627,1.259954 1.54516,1.463295 3.2146,0.828577 3.60559,-1.370844 7.1594,-0.245342 6.97896,2.210252 -0.0859,1.169625 -0.93073,2.260882 -1.89489,2.447745 -1.24074,0.240464 -1.51336,-0.03898 -0.95036,-0.974159 0.65976,-1.095945 0.52571,-1.097552 -0.81612,-0.0098 -0.88306,0.715859 -2.03285,1.037487 -2.55508,0.714728 -0.52224,-0.322759 -1.17269,-0.22575 -1.44543,0.215574 -1.08129,1.749555 -10.566947,1.178285 -9.836027,-0.592373 z M 137.3208,109.97649 c 0,-25.50936 0,-25.50936 -3.82327,-24.897996 -2.10279,0.336251 -5.9848,0.112424 -8.62667,-0.497393 -11.92182,-2.751889 -11.90509,-2.787431 -11.89506,25.263749 l 0.009,25.04043 12.16802,0.30028 12.16802,0.30028 v -25.50935 z m -15.09945,15.62259 c -1.07158,-0.41655 -2.93057,-0.53332 -4.13109,-0.2595 -2.73822,0.62454 -3.85786,-1.81916 -2.34989,-5.12879 1.29322,-2.83829 4.03167,-3.12396 4.71986,-0.49237 0.27052,1.03451 1.0497,1.66685 1.7315,1.40521 0.68181,-0.26163 1.92577,0.21044 2.76437,1.04904 0.83861,0.83861 1.76651,1.13354 2.062,0.65543 1.46761,-2.37464 6.26489,-1.75018 6.07008,0.79013 -0.2053,2.677 -6.24414,3.77778 -10.86683,1.98085 z m 2.80709,-13.17003 c 0.33267,-0.86693 0.16936,-1.25795 -0.38285,-0.91667 -0.53874,0.33296 -0.963,-0.50311 -0.963,-1.89771 0,-1.84345 0.50756,-2.49289 1.94831,-2.49289 1.0824,0 1.94832,0.64944 1.94832,1.46123 0,0.80368 0.68343,1.46124 1.51873,1.46124 0.8353,0 1.24338,0.44552 0.90684,0.99005 -0.33653,0.54452 -1.02306,0.73592 -1.52561,0.42533 -0.50255,-0.31059 -1.17671,0.12063 -1.49814,0.95827 -0.32144,0.83764 -1.0228,1.52298 -1.55859,1.52298 -0.53579,0 -0.71309,-0.68032 -0.39401,-1.51183 z m -6.70372,-0.25253 c -2.9781,-0.57025 -3.87446,-1.85953 -2.46966,-3.55222 1.84774,-2.2264 4.2698,-1.92956 3.64828,0.44714 -0.28041,1.07231 -0.11236,1.70399 0.37346,1.40374 0.48583,-0.30026 0.88331,-1.39679 0.88331,-2.43674 0,-1.03995 0.43837,-1.89082 0.97416,-1.89082 0.53579,0 0.97416,1.34098 0.97416,2.97997 0,1.63898 -0.40094,2.73217 -0.89096,2.42932 -0.49002,-0.30285 -1.03798,-0.20339 -1.2177,0.22102 -0.17971,0.42441 -1.20348,0.60377 -2.27505,0.39859 z m 6.21902,-15.039864 c -0.0878,-1.70313 -0.21384,-1.803964 -0.56523,-0.452227 -0.71517,2.751221 -8.28588,2.065091 -7.88811,-0.714893 0.1824,-1.274836 1.15129,-2.121001 2.67478,-2.335994 2.19038,-0.3091 2.27268,-0.187732 0.99095,1.461237 -1.35807,1.747174 -1.33794,1.747338 0.70742,0.0057 1.40888,-1.199636 2.85337,-1.581314 4.36692,-1.153883 1.70066,0.480266 1.90621,0.394364 0.82864,-0.346308 -0.78816,-0.541752 -1.10963,-1.308393 -0.71438,-1.703646 1.33505,-1.33505 2.42872,1.07928 1.93235,4.265799 -0.56167,3.605829 -2.16319,4.274459 -2.33334,0.974158 z M 52.137201,148.79381 c -4.0754,-5.81845 3.125303,-14.0126 8.156051,-9.28128 1.065456,1.00204 1.178702,0.72637 0.639417,-1.55658 -0.482481,-2.04252 -0.322943,-2.66492 0.604845,-2.35968 0.693104,0.22802 1.394985,2.2436 1.559744,4.47905 0.202898,2.75297 0.752976,4.06446 1.704777,4.06446 0.772868,0 1.405223,0.43837 1.405223,0.97416 0,0.53579 -0.484877,0.97416 -1.077497,0.97416 -0.592619,0 -1.939548,1.09593 -2.993178,2.43539 -2.542378,3.23211 -7.824837,3.37492 -9.999382,0.27032 z m 8.030277,-0.95223 c 2.48421,-2.48421 0.732742,-7.59843 -2.602229,-7.59843 -3.381079,0 -6.548778,5.91596 -4.346762,8.11798 1.076279,1.07629 5.698757,0.73069 6.948991,-0.51955 z m 102.968512,2.00273 c -2.14315,-0.50538 -4.66378,-0.72157 -5.60141,-0.48043 -2.08033,0.53504 -2.16532,-0.3462 -0.27452,-2.84605 0.80565,-1.06516 1.44378,-1.3592 1.46124,-0.67327 0.0506,1.98783 3.74368,1.38355 4.41192,-0.7219 0.70674,-2.22675 -0.18679,-4.20421 -1.52578,-3.37667 -1.44667,0.89409 -1.05063,-0.76801 0.97426,-4.08881 1.18726,-1.9471 2.97368,-3.31462 4.87564,-3.73236 1.65102,-0.36262 2.731,-1.09754 2.39998,-1.63314 -0.33102,-0.5356 -1.64996,-0.71076 -2.93097,-0.38925 -2.57575,0.64648 -2.78282,0.29295 -1.37219,-2.34283 0.9261,-1.73044 1.07396,-1.72837 4.58969,0.064 1.99801,1.01865 4.61319,1.85209 5.81149,1.85209 2.01029,0 2.09789,0.23195 1.13295,2.99999 -1.2612,3.61784 -3.09617,4.48415 -6.09671,2.87831 -6.03574,-3.23023 -8.77526,0.98052 -4.59287,7.05941 4.62731,6.72559 4.32955,7.22121 -3.26272,5.43087 z M 46.318311,137.66832 c -0.753803,-1.96439 -0.900512,-1.84951 3.71765,-2.91095 4.209055,-0.96739 6.110193,-3.09306 5.106254,-5.70928 -0.806213,-2.10096 -7.270784,-1.43354 -8.998327,0.92901 -0.590515,0.80759 -1.359106,1.18291 -1.707972,0.83405 -0.921095,-0.92111 -0.779872,-4.41117 0.155115,-3.83331 0.434183,0.26833 2.638654,0.0185 4.898827,-0.55521 3.516691,-0.89263 4.38639,-0.79242 6.029698,0.69475 3.811763,3.4496 1.792411,8.46054 -3.914645,9.71402 -1.612874,0.35424 -2.932498,1.04762 -2.932498,1.54084 0,1.50631 -1.701153,0.99765 -2.354102,-0.70392 z M 176.28712,126.66243 c 0,-0.50416 0.43837,-1.18759 0.97416,-1.51873 1.58221,-0.97786 1.11998,-2.17002 -1.06269,-2.7408 -1.77539,-0.46429 -1.95661,-0.21296 -1.41175,1.95791 0.51073,2.03491 0.33413,2.3789 -0.9653,1.88026 -0.87472,-0.33566 -1.73269,-0.61029 -1.90661,-0.61029 -0.1739,0 -0.0754,-0.92096 0.21899,-2.04658 0.42405,-1.62155 0.15223,-1.96729 -1.30889,-1.66485 -1.26138,0.26111 -1.76616,1.0877 -1.59748,2.61587 0.15853,1.43604 -0.18947,2.08489 -0.97415,1.81637 -0.78242,-0.26776 -1.09875,-1.78393 -0.88094,-4.22238 0.42043,-4.70668 0.18791,-4.51576 3.91672,-3.21588 1.7112,0.59652 4.41251,0.8936 6.00292,0.66018 3.11247,-0.45681 3.28949,-0.0721 2.2828,4.96134 -0.53942,2.69709 -3.28778,4.47561 -3.28778,2.12758 z M 48.185334,120.09639 c -3.214722,-1.34319 -5.998125,-2.59063 -6.185349,-2.7721 -0.187223,-0.18147 2.004633,-1.51124 4.870791,-2.95504 2.866158,-1.44381 5.357314,-3.00758 5.535906,-3.47506 0.673543,-1.76297 2.110679,-0.75716 2.110679,1.47722 0,1.61843 -0.519177,2.28595 -1.704776,2.19185 -1.188717,-0.0944 -1.800235,0.69787 -2.020102,2.61703 -0.273213,2.38474 -0.01617,2.71 1.924303,2.43539 1.516491,-0.21459 2.349075,0.23351 2.578606,1.38785 0.424022,2.13245 0.05075,2.08482 -7.110058,-0.90714 z M 176.7742,114.88723 c -1.07157,-0.47856 -3.7011,-1.56795 -5.84339,-2.42086 -3.32546,-1.32398 4.2031,-8.26707 8.96417,-8.26707 1.33381,0 -0.0724,3.90395 -1.416,3.93116 -4.80638,0.0973 -6.75898,2.67697 -3.17567,4.1955 1.86995,0.79244 3.73303,1.23492 4.14017,0.98329 0.40715,-0.25163 0.74027,0.22592 0.74027,1.06122 0,1.6959 -0.57434,1.78295 -3.40955,0.51676 z M 51.605944,107.91997 c -1.333379,-0.49908 -3.845587,-0.78497 -5.582666,-0.63531 -1.73709,0.14966 -3.166764,-0.0449 -3.177071,-0.43246 -0.16774,-6.30701 1.457039,-9.411107 3.676366,-7.02359 0.378733,0.40744 0.140639,0.93649 -0.529095,1.17569 -1.684251,0.60151 -1.528697,2.86721 0.24354,3.54729 1.399066,0.53686 1.875127,-0.40387 1.533958,-3.03122 -0.188334,-1.45028 0.845725,-1.53865 2.849753,-0.24354 0.974158,0.62955 1.055335,0.9493 0.243539,0.95924 -0.669733,0.008 -1.217697,0.67247 -1.217697,1.47615 0,0.84046 0.87945,1.46124 2.070086,1.46124 1.77364,0 1.987623,-0.41232 1.494241,-2.87924 -0.454211,-2.27103 -0.274157,-2.76346 0.852389,-2.33117 1.467364,0.56308 1.8049,4.46929 0.62915,7.2809 -0.518428,1.23974 -1.188376,1.38647 -3.086493,0.67602 z M 49.88219,97.34691 c -4.809447,-1.93261 -4.515232,-12.63077 0.347366,-12.63077 2.355533,0 2.279315,1.663 -0.126456,2.75914 -4.712782,2.14729 -2.272866,7.956599 3.341791,7.956599 2.395552,0 4.330055,-3.254469 3.496185,-5.881745 -0.344141,-1.084288 -0.156703,-1.911519 0.433111,-1.911519 2.448498,0 1.406898,5.905468 -1.503418,8.523883 -2.690323,2.420479 -2.839233,2.44993 -5.988579,1.184412 z M 160.92666,85.690298 c -1.03106,-1.651009 -0.97288,-1.948316 0.38131,-1.948316 2.73439,0 8.11224,-3.861846 7.52153,-5.401222 -0.29689,-0.773681 -0.93224,-1.164155 -1.41187,-0.867718 -0.47965,0.296437 -0.87209,0.121634 -0.87209,-0.38845 0,-3.226674 3.14454,-1.607039 5.3571,2.759242 2.8554,5.634858 2.89069,5.846464 0.97493,5.846464 -0.80368,0 -1.40933,-0.328778 -1.34588,-0.730618 0.44942,-2.846319 -0.3425,-3.030335 -4.45102,-1.034266 -2.38462,1.158535 -4.11223,2.467951 -3.83914,2.909814 0.27308,0.441863 0.13772,0.803387 -0.3008,0.803387 -0.43852,0 -1.34486,-0.876743 -2.01407,-1.948317 z M 58.413993,84.932684 c -0.80368,-0.27189 -2.557164,-1.246076 -3.896632,-2.16486 -1.339467,-0.918784 -2.983359,-1.477305 -3.653093,-1.241157 -1.523252,0.537097 -1.586923,-0.922432 -0.104887,-2.404465 0.834308,-0.834308 1.919841,-0.49726 4.337448,1.346745 3.562204,2.71702 5.958399,2.730114 7.596466,0.04151 1.215291,-1.994702 -3.241248,-6.495966 -6.440578,-6.505213 -1.087083,-0.0031 -1.477564,-0.517282 -1.113482,-1.466076 0.799559,-2.083619 1.303774,-1.895532 6.171895,2.302325 5.417712,4.671772 3.263468,12.175353 -2.897137,10.091193 z m 98.682227,-11.53418 c 0.56482,-5.472687 0.56482,-5.472687 -1.78201,-3.267949 -1.29076,1.212605 -2.11529,2.579387 -1.83229,3.037292 0.77544,1.254691 -0.99243,0.999213 -2.32808,-0.336435 -1.55049,-1.550487 -1.48106,-2.727643 0.16088,-2.727643 2.29869,0 6.4634,-3.946271 6.4634,-6.124401 0,-1.815951 0.17554,-1.901482 1.35443,-0.659914 1.00171,1.054973 1.17617,2.741761 0.66988,6.477219 -0.70773,5.221733 2.25073,6.205206 3.56363,1.184651 0.54025,-2.065917 1.84221,-2.453943 2.4198,-0.721178 0.37166,1.114979 -7.0247,8.611046 -8.49651,8.611046 -0.41688,0 -0.50379,-2.46271 -0.19313,-5.472688 z m -92.097405,-1.47681 c -1.468319,-2.071432 -3.331397,-3.766241 -4.140172,-3.766241 -0.808765,0 -1.470491,-0.412499 -1.470491,-0.916666 0,-1.97015 2.112042,-2.024555 6.320795,-0.162822 2.417217,1.069251 4.390199,1.859149 4.384403,1.75533 -0.0058,-0.10382 -0.630339,-2.230983 -1.387864,-4.727029 -0.757524,-2.496047 -1.11809,-4.797496 -0.801254,-5.11433 1.004727,-1.004728 2.199658,-0.622879 2.199658,0.702917 0,1.67784 5.076504,6.514284 6.837626,6.514284 1.089829,0 1.043313,0.329824 -0.22544,1.598577 -1.481997,1.481997 -1.781959,1.393194 -4.113217,-1.217698 -2.514643,-2.816274 -2.514643,-2.816274 -1.532653,-0.07392 1.841773,5.143363 1.445349,5.750766 -2.671092,4.092748 -3.653093,-1.47139 -3.653093,-1.47139 -0.974158,0.914358 3.028297,2.696877 3.170962,3.058675 1.461237,3.705823 -0.669734,0.253503 -2.419049,-1.233896 -3.887378,-3.305329 z m 78.166935,-5.714557 c -2.51985,-2.519848 -2.45565,-3.671918 0.44229,-7.936628 1.31484,-1.934959 2.11852,-3.790204 1.78597,-4.122767 -0.93882,-0.938813 1.00978,-0.68325 2.63778,0.345951 1.28178,0.810326 1.26966,1.071456 -0.10102,2.176938 -4.73869,3.821855 -5.34831,9.536506 -1.01731,9.536506 2.00672,0 6.36652,-5.428024 5.49389,-6.839977 -0.7166,-1.159479 0.51844,-1.220625 2.26633,-0.112204 0.96823,0.614 0.39643,1.794669 -2.35167,4.855873 -4.0307,4.489951 -6.25367,4.998895 -9.15626,2.096308 z m -63.289301,0.111708 c -0.01705,-0.742242 -1.126906,-2.365202 -2.466373,-3.606578 -2.944812,-2.729157 -3.145683,-6.510581 -0.487079,-9.169185 4.646179,-4.646176 11.663526,-0.598778 10.349874,5.969496 -0.539645,2.698209 -0.388991,2.967812 1.397371,2.500668 1.271783,-0.332578 1.86561,-0.107323 1.62776,0.617451 -0.205966,0.627575 -2.068771,1.282125 -4.139578,1.454556 -2.070806,0.172432 -4.324424,1.049174 -5.008049,1.948316 -0.928908,1.221769 -1.25077,1.293844 -1.273926,0.285276 z m 4.829311,-5.456927 c 1.818022,-2.190579 0.402921,-6.209066 -2.437548,-6.92198 -3.371133,-0.846101 -5.345215,0.136979 -5.345215,2.661879 0,4.511332 5.208248,7.362204 7.782763,4.260101 z m 46.82167,-0.924657 c -0.7003,-0.843811 -0.94065,-2.248857 -0.55008,-3.215759 0.62706,-1.552345 0.77123,-1.516347 1.50196,0.37499 1.05734,2.736712 2.79626,3.752266 4.13414,2.414392 0.77884,-0.778839 0.46573,-1.715714 -1.14721,-3.432599 -2.44273,-2.600171 -2.42301,-5.189351 0.0514,-6.74746 2.24196,-1.411742 6.86652,1.60275 5.98459,3.901018 -0.55263,1.440141 -0.79328,1.382335 -2.03581,-0.489016 -1.37686,-2.073584 -4.09398,-2.935753 -4.09398,-1.299044 0,0.452747 0.89749,1.635395 1.99443,2.628107 3.08829,2.794866 2.21,6.69981 -1.59032,7.070662 -1.82056,0.17766 -3.49577,-0.297521 -4.24916,-1.205291 z M 89.698369,53.368507 c -1.639898,-3.946036 -1.827394,-5.216335 -0.860503,-5.830031 1.957755,-1.242603 2.452228,-0.967851 2.478813,1.377355 0.06595,5.82023 5.790727,10.803859 7.279611,6.337204 0.63869,-1.916078 -1.336195,-8.527474 -2.552168,-8.543977 -1.130559,-0.01534 1.298718,-1.891718 2.483788,-1.918481 1.34558,-0.03038 2.04387,10.664146 0.7946,12.169426 -2.899986,3.494274 -7.373144,1.824998 -9.624141,-3.591496 z m 14.013971,-3.238159 c 0,-6.330084 0,-6.330084 3.6531,-6.329465 2.43206,4.12e-4 3.65309,0.443877 3.65309,1.326767 0,0.889268 -0.80231,1.172778 -2.43539,0.860594 -1.75463,-0.335418 -2.4354,-0.04142 -2.4354,1.051754 0,2.155481 1.78453,2.980943 3.45222,1.596878 1.18339,-0.982121 1.41857,-0.733995 1.41857,1.496653 0,2.126488 -0.26766,2.451814 -1.30733,1.58897 -1.46733,-1.217785 -2.5893,-0.516854 -2.5893,1.617634 0,1.054204 0.74267,1.272113 2.87924,0.844799 2.27103,-0.454208 2.76346,-0.274152 2.33117,0.852389 -1.98947,5.184459 -8.61997,1.410003 -8.61997,-4.906973 z m 77.53641,125.169622 c -1.22563,-4.78216 -4.64165,-8.75455 -7.5284,-8.75455 -1.84695,0 -1.66022,-1.34739 0.45162,-3.25857 2.11774,-1.91653 3.19343,-2.07989 2.59785,-0.39452 -0.74723,2.11448 4.46996,4.96082 9.92159,5.41291 5.68849,0.47174 6.13702,0.97078 3.23392,3.59805 -1.07157,0.96976 -1.94831,1.30665 -1.94831,0.74863 0,-0.55802 -1.34763,-1.21237 -2.99475,-1.45412 -2.649,-0.38878 -2.9317,-0.20474 -2.44869,1.59421 0.30032,1.11857 0.55203,2.34877 0.55935,2.7338 0.008,0.38502 0.67085,0.44771 1.47453,0.13932 2.01727,-0.77411 1.83414,0.95659 -0.30617,2.89355 -1.67606,1.51681 -1.83178,1.34837 -3.01254,-3.25871 z m -144.571087,0.62354 c -0.282321,-0.7357 0.274245,-4.87065 1.236811,-9.18877 1.750113,-7.85114 1.750113,-7.85114 -2.026317,-5.35202 -2.145067,1.41954 -3.776431,3.28485 -3.776431,4.318 0,2.27694 -0.869086,2.31597 -2.540556,0.11408 -1.65528,-2.18055 -1.683209,-3.16601 -0.08972,-3.16601 0.696474,0 3.939057,-1.94481 7.20574,-4.3218 7.251224,-5.27633 7.297068,-5.23766 5.159161,4.35313 -1.72349,7.7317 -1.72349,7.7317 2.043423,5.06788 2.0718,-1.4651 3.776265,-3.21178 3.787712,-3.88152 0.02913,-1.7076 1.041492,-1.51509 2.561353,0.48708 1.771147,2.33319 1.668314,3.06845 -0.407266,2.9121 -2.554476,-0.19242 -10.900712,6.09542 -10.900712,8.21232 0,2.08651 -1.508971,2.38489 -2.253169,0.44553 z M 192.52309,163.94766 c -0.94541,-0.9454 -0.79627,-2.47876 0.18227,-1.87399 0.45744,0.28271 1.29249,-0.49729 1.85567,-1.73333 1.08157,-2.37378 -6.69898,-7.43313 -11.43107,-7.43313 -1.80457,0 -1.81439,-0.11683 -0.24026,-2.85959 1.56509,-2.72701 2.28376,-3.14105 2.36366,-1.36176 0.0201,0.44648 2.69884,2.23428 5.95286,3.97288 6.29214,3.36184 8.03789,2.99815 6.99059,-1.45631 -0.57899,-2.46261 0.64977,-2.89286 2.36374,-0.82765 2.23637,2.69467 -5.63063,15.97971 -8.03746,13.57288 z M 22.943817,151.8583 c -5.23042,-6.21601 -1.698065,-14.53762 6.170931,-14.53762 4.533751,0 7.432612,2.06177 8.823242,6.2754 2.979521,9.02805 -8.860163,15.55208 -14.994173,8.26222 z m 9.098237,-0.3763 c 4.238084,-2.1916 5.350417,-7.12062 2.354082,-10.43153 -2.251367,-2.48773 -5.509828,-2.22048 -9.02877,0.74051 -6.631103,5.5797 -1.048642,13.6849 6.674688,9.69102 z m 170.302056,-6.57631 c -0.66872,-1.74264 -10.97375,-4.94328 -13.41802,-4.1675 -2.25619,0.71608 -2.25132,0.73685 -0.8017,-3.42154 0.98957,-2.83865 1.26076,-3.02681 2.30475,-1.59908 1.48992,2.03758 11.69974,5.6153 13.76399,4.82318 1.24706,-0.47855 1.40738,-0.14299 0.83458,1.7469 -0.9494,3.13244 -2.06761,4.22332 -2.6836,2.61804 z M 16.188849,133.44707 c -1.672454,-8.36227 0.942858,-12.56814 6.099204,-9.80854 1.847549,0.98878 2.535577,0.70775 5.482766,-2.23943 1.85356,-1.85356 3.608807,-2.98388 3.900558,-2.51182 0.760983,1.23129 -1.098529,4.33171 -3.937206,6.56461 -1.342857,1.05629 -2.441552,2.40541 -2.441552,2.99802 0,1.62453 3.542243,1.29272 5.334675,-0.49971 1.884635,-1.88463 2.036984,-1.76378 2.909274,2.30783 0.603978,2.81921 -0.684628,4.69298 -1.587205,2.30796 -0.499071,-1.31878 -12.840397,0.99101 -14.055737,2.63065 -0.868638,1.1719 -1.185531,0.84669 -1.704777,-1.74957 z m 6.979667,-5.13736 c -0.228021,-1.60553 -0.96277,-2.19185 -2.746687,-2.19185 -1.783917,0 -2.518666,0.58632 -2.746688,2.19185 -0.266101,1.87365 0.132651,2.19186 2.746688,2.19186 2.614036,0 3.012788,-0.31821 2.746687,-2.19186 z m 179.420874,5.41642 c 0,-0.44417 0.90386,-1.37205 2.0086,-2.06197 1.39151,-0.86902 1.91525,-2.0633 1.70477,-3.88743 -0.41042,-3.55686 -2.14229,-3.31292 -4.86403,0.68512 -3.32375,4.88234 -4.97895,5.63805 -8.00546,3.655 -4.36307,-2.85879 -2.95316,-11.35686 1.8842,-11.35686 2.99746,0 3.09837,1.18042 0.20927,2.44793 -1.57226,0.68979 -2.19185,1.78775 -2.19185,3.8841 0,4.06471 2.66253,3.83201 5.57317,-0.48708 4.4584,-6.61583 11.60911,-2.92466 8.96411,4.62725 -0.8624,2.4623 -5.28278,4.54911 -5.28278,2.49394 z M 191.87365,116.8541 c 0,-1.18207 1.52904,-3.01519 3.85966,-4.62725 2.12282,-1.46833 3.8763,-3.21764 3.89664,-3.88738 0.0559,-1.8407 -4.92069,-1.46196 -6.40022,0.48708 -1.15503,1.52156 -1.29745,1.33755 -1.3251,-1.71199 -0.031,-3.41678 -0.031,-3.41678 7.76228,-3.06287 5.25688,0.23872 7.79327,0.003 7.79327,-0.72339 0,-0.59252 0.43837,-1.07731 0.97416,-1.07731 1.62804,0 1.15706,9.4195 -0.55667,11.13323 -1.90222,1.90223 -3.31156,1.92941 -5.90364,0.11384 -1.86128,-1.3037 -2.31675,-1.14793 -5.69706,1.94832 -4.29851,3.93728 -4.40332,3.97078 -4.40332,1.40772 z m 15.41074,-7.54047 c 0.26482,-1.8646 -0.13516,-2.19185 -2.67893,-2.19185 -2.25018,0 -2.99023,0.442 -2.99023,1.78595 0,3.84905 5.12802,4.21621 5.66916,0.4059 z m -193.032713,6.81911 c -1.497105,-2.48487 0.667386,-14.85591 2.599249,-14.85591 1.565082,0 1.752471,0.25978 0.84326,1.16899 -0.642944,0.64294 -1.16899,1.92316 -1.16899,2.84494 0,2.05444 12.777973,3.92465 13.430932,1.96577 0.734184,-2.20255 2.155598,-1.0446 2.155598,1.75607 0,2.74758 -1.428808,4.86904 -2.108653,3.13087 -0.179703,-0.45946 -3.285748,-1.13195 -6.90231,-1.49443 -6.858998,-0.68746 -9.073152,1.37875 -5.406577,5.04533 0.909211,0.90921 0.705515,1.16899 -0.916663,1.16899 -1.14711,0 -2.283738,-0.32878 -2.525846,-0.73062 z M 192.49337,100.03305 c -0.93553,-0.68408 -2.10479,-2.985533 -2.59834,-5.114334 -1.29057,-5.566455 -1.18347,-6.186203 0.97164,-5.622628 2.75721,0.721025 11.99763,-1.607666 13.40069,-3.377126 1.35256,-1.705772 1.36179,-1.688858 3.0613,5.610748 1.11151,4.774094 0.32896,6.508517 -2.45464,5.440353 -1.35598,-0.52034 -1.45738,-0.845331 -0.4567,-1.46378 2.19017,-1.353598 0.84849,-4.428373 -2.0798,-4.76636 -2.99005,-0.345117 -4.0021,3.268002 -1.21496,4.337528 2.0365,0.781479 0.82655,2.302744 -1.8315,2.302744 -1.92532,0 -2.15114,-0.395491 -1.75744,-3.077879 0.38163,-2.600277 0.19192,-2.978183 -1.22255,-2.435395 -0.92087,0.353366 -2.296,0.642484 -3.05586,0.642484 -2.03056,0 -1.68184,3.596349 0.56676,5.844948 3.00409,3.004087 2.08028,4.171327 -1.3286,1.678697 z M 30.869304,99.06039 C 30.202736,97.323329 19.296822,94.202934 16.98836,95.088776 c -1.497076,0.574481 -1.633449,0.28298 -1.016865,-2.173659 0.870011,-3.466426 1.424083,-4.098163 2.321204,-2.646591 2.023239,3.273674 5.576373,2.416526 6.649545,-1.604117 1.123136,-4.207829 0.696182,-4.575018 -4.78036,-4.111196 -1.399923,0.118563 -1.601632,-0.352652 -1.080662,-2.524586 0.81197,-3.3851 1.264077,-3.883326 2.17961,-2.401964 1.067015,1.726463 10.701506,4.364028 13.434926,3.677982 2.142222,-0.537663 2.282598,-0.361762 1.689774,2.117335 -0.946277,3.957123 -1.410639,4.448134 -2.662549,2.815327 -2.681477,-3.497329 -5.97872,-2.924748 -7.087906,1.230847 -1.127062,4.222543 1.003967,5.922061 5.597561,4.464112 1.670857,-0.530308 1.823975,-0.267189 1.252621,2.152503 -0.8229,3.485021 -1.935038,4.750061 -2.615955,2.975621 z M 184.78373,80.223977 c -0.386,-0.386002 1.92806,-3.440572 5.14236,-6.787934 3.21431,-3.347362 5.84419,-6.562428 5.84419,-7.144589 0,-1.914815 1.61434,-1.105115 2.74523,1.37692 0.86661,1.902014 0.8386,2.435395 -0.12789,2.435395 -0.68064,0 -3.19188,2.029774 -5.58052,4.510607 -4.343,4.510607 -4.343,4.510607 -1.05522,3.896633 1.80828,-0.337686 4.79316,-0.613975 6.63306,-0.613975 1.98212,0 3.09994,-0.396957 2.74321,-0.974158 -0.33113,-0.535787 -0.18472,-0.974158 0.32536,-0.974158 0.86065,0 2.11985,2.235578 2.1025,3.732766 -0.0104,0.89678 -17.90098,1.413792 -18.77228,0.542493 z M 29.189251,73.725163 c -3.482615,-0.53799 -6.466432,-1.086265 -6.630694,-1.21839 -0.24392,-0.196188 7.112026,-12.800653 8.135291,-13.93989 0.165032,-0.183737 1.010933,1.040616 1.879784,2.720786 1.451642,2.807159 5.514096,5.368814 7.466152,4.707921 0.447616,-0.151543 -0.605127,-2.345667 -2.339411,-4.875831 -1.734294,-2.530164 -3.701216,-4.406999 -4.37095,-4.170745 -1.488007,0.524906 -1.528181,-0.0314 -0.183697,-2.543582 0.978143,-1.82769 1.152342,-1.758464 3.22536,1.281741 1.205257,1.767578 3.888215,5.568868 5.96213,8.447311 3.770761,5.233533 3.770761,5.233533 -0.216176,4.853317 -3.923373,-0.374154 -4.570418,1.491746 -1.232651,3.554601 3.876614,2.395879 -0.78822,2.867645 -11.695138,1.182761 z m 7.35616,-3.566177 c -2.014637,-2.226147 -6.457343,-3.394258 -9.380645,-2.466436 -3.860637,1.225319 0.306665,2.95755 10.212274,4.244956 0.484878,0.06302 0.110645,-0.737316 -0.831629,-1.77852 z M 177.8604,67.702648 c -1.94865,-2.974017 -1.97301,-3.608211 -0.12451,-3.242992 2.04005,0.403069 12.17154,-6.226482 12.21683,-7.9941 0.0257,-1.00417 0.6722,-0.699458 2.06676,0.974158 1.82592,2.191298 1.86338,2.468528 0.3737,2.765958 -2.8422,0.567472 -11.89637,7.427699 -11.4743,8.693919 0.70781,2.123433 -1.43145,1.286232 -3.05848,-1.196943 z m -4.60006,-6.883874 c -0.0574,-0.519016 -0.0203,-4.231448 0.0824,-8.24985 0.18669,-7.306186 0.18669,-7.306186 -3.22951,-4.022481 -2.20389,2.118397 -3.21489,3.846924 -2.84889,4.870791 0.37628,1.052593 -0.3341,0.766904 -2.10931,-0.84831 -2.359,-2.146361 -2.46422,-2.474972 -0.88661,-2.768872 2.88877,-0.538165 10.22737,-8.191689 9.72153,-10.138722 -0.2436,-0.937628 -0.0714,-1.704777 0.38256,-1.704777 1.81479,0 2.37736,2.7923 2.0608,10.22866 -0.33176,7.793264 -0.33176,7.793264 3.1931,4.414328 1.93867,-1.858415 3.30929,-3.940678 3.04583,-4.627251 -0.72445,-1.887899 0.88204,-1.495985 2.86938,0.700002 1.3113,1.448964 1.41965,1.948316 0.42278,1.948316 -0.73725,0 -3.87378,2.506911 -6.97009,5.570915 -3.09632,3.064003 -5.6766,5.146265 -5.73397,4.627251 z M 49.646571,59.177952 c 0,-2.182884 -8.907565,-10.38892 -10.600506,-9.765647 -0.867059,0.319216 0.177015,-1.435325 2.320162,-3.898982 3.803445,-4.372249 6.245484,-5.385119 7.063104,-2.929519 0.232405,0.698006 -0.409799,1.217697 -1.504772,1.217697 -3.535502,0 -4.727122,2.729483 -2.255955,5.167446 2.193375,2.163917 5.954521,0.123241 4.402191,-2.388486 -1.015336,-1.642843 1.285966,-0.788657 3.011171,1.117673 1.712122,1.891871 1.701494,1.948316 -0.366673,1.948316 -2.872081,0 -3.674515,2.558194 -1.541673,4.914959 2.012639,2.223933 5.317899,0.32195 5.317899,-3.060134 0,-2.60402 1.713408,-3.155437 2.463305,-0.792748 0.499636,1.574217 -0.224728,2.965705 -3.05005,5.859094 -3.841612,3.934172 -5.258203,4.63741 -5.258203,2.610331 z M 59.36861,47.187513 c -1.66092,-2.001289 -0.618055,-2.821636 1.884421,-1.482348 2.818678,1.508507 5.928385,-0.274519 5.928385,-3.399176 0,-2.642378 -0.851346,-2.859108 -5.732267,-1.459279 -7.814872,2.241276 -10.711005,-6.256588 -3.285358,-9.639939 3.177499,-1.447767 3.928584,-1.323207 5.088359,0.843853 0.923969,1.726462 0.73621,1.842896 -2.202767,1.365965 -2.21883,-0.360067 -3.60155,-0.053 -4.469223,0.992464 -2.170521,2.615326 -0.330376,3.760019 4.890167,3.04201 5.629503,-0.774254 7.659405,0.405275 7.659405,4.450699 0,4.878975 -6.967441,8.651922 -9.761122,5.285751 z m 94.45968,-2.655675 c -4.44179,-2.983607 -4.78239,-6.278138 -1.26311,-12.217513 1.49469,-2.522538 2.6023,-5.134396 2.46134,-5.804129 -0.33626,-1.597679 0.84029,-1.496153 3.18133,0.27452 1.68027,1.270901 1.72424,1.565929 0.39459,2.647954 -7.04416,5.732296 -7.4472,14.368831 -0.67055,14.368831 2.99917,0 8.37509,-7.599093 7.79564,-11.019461 -0.28962,-1.709548 -0.19268,-1.713442 2.28245,-0.09167 2.11061,1.382922 2.31784,1.843179 1.12933,2.508297 -0.80057,0.448024 -2.80355,3.005316 -4.45107,5.682872 -1.64752,2.677551 -3.40205,4.868278 -3.89897,4.868278 -0.49692,0 -1.51125,0.233218 -2.25407,0.518263 -0.74281,0.285046 -2.86092,-0.496264 -4.70691,-1.736243 z M 77.490746,38.584686 c 0.481156,-1.253875 -3.84657,-12.31803 -4.818176,-12.31803 -1.603903,0 -3.542838,1.389894 -3.542838,2.539619 0,2.081605 -1.654773,1.610557 -2.242911,-0.638466 -0.435595,-1.66573 0.390764,-2.399116 5.000714,-4.438098 6.827961,-3.020006 9.235759,-3.316646 9.679507,-1.192515 0.240607,1.151731 -0.175446,1.504475 -1.421306,1.20503 -3.972597,-0.954819 -4.409536,0.931547 -1.675835,7.234927 1.432422,3.302883 3.095066,6.019184 3.694758,6.036223 1.495751,0.0425 -2.38244,2.891493 -3.936037,2.891493 -0.684463,0 -1.016505,-0.594082 -0.737876,-1.320183 z m 11.596777,-3.570755 c -0.267718,-0.433182 -0.08173,-0.934638 0.413335,-1.114347 1.123594,-0.407871 -1.72614,-13.477876 -2.938655,-13.477876 -2.874886,0 -0.09206,-1.954095 4.046955,-2.841752 6.562942,-1.407499 6.771158,-1.376357 6.771158,1.012716 0,1.587695 -0.2944,1.823266 -1.268392,1.014928 -2.140615,-1.776559 -5.800927,-0.238759 -5.155469,2.165961 0.303772,1.131734 0.5583,2.345438 0.565616,2.697118 0.02036,0.976957 3.909929,-0.256712 3.909929,-1.240114 0,-1.944236 1.783265,-0.676625 2.377199,1.689804 0.727481,2.898529 -0.121088,4.394692 -1.357694,2.393821 -1.222237,-1.977621 -3.941979,-0.481075 -3.941979,2.169086 0,3.69284 4.786214,3.969297 6.989854,0.40374 0.38361,-0.620697 1.03459,-0.791432 1.44661,-0.37941 1.57216,1.572169 -1.54212,4.109666 -6.356939,5.179583 -2.758124,0.612891 -5.23381,0.759925 -5.501528,0.326742 z m 44.096927,-1.205914 c -0.78485,-1.200921 -2.40262,-4.098725 -3.59505,-6.439567 -2.61251,-5.128615 -4.21093,-4.302031 -4.35108,2.250061 -0.0845,3.94809 -0.30156,4.354225 -2.04281,3.821402 -2.63768,-0.80713 -3.06406,-1.309097 -1.79389,-2.111895 1.96585,-1.242488 3.77293,-11.801772 2.39681,-14.005282 -1.05115,-1.683167 -0.97826,-1.893577 0.55469,-1.601134 0.97067,0.185177 3.51834,3.290765 5.66149,6.901306 2.14315,3.610541 4.18689,6.56498 4.54162,6.565422 1.32312,0.0017 1.98876,-7.840912 0.78829,-9.287394 -0.99767,-1.202116 -0.70443,-1.427544 1.857,-1.427544 2.86276,0 4.03136,1.221718 2.2322,2.333663 -0.44525,0.275183 -1.39607,3.608746 -2.11292,7.407917 -1.47676,7.826492 -2.11378,8.687855 -4.13635,5.593045 z m -29.95918,-1.638921 c 0,-0.504166 0.42951,-1.182122 0.95448,-1.506569 1.1621,-0.718215 0.16877,-12.147612 -1.20752,-13.893912 -1.30079,-1.650506 9.12501,-1.697641 10.77394,-0.04871 1.47357,1.473574 1.5122,4.917248 0.0713,6.358135 -1.20141,1.201414 2.06819,7.545288 4.30058,8.344229 0.64944,0.23243 0.88507,0.741826 0.52361,1.131992 -1.23862,1.336984 -4.21412,-0.451929 -6.41439,-3.856429 -2.6996,-4.177106 -4.13122,-4.344436 -4.13122,-0.482862 0,1.607361 0.43837,2.922474 0.97415,2.922474 0.53579,0 0.97416,0.438372 0.97416,0.974159 0,0.535786 -1.5343,0.974158 -3.40955,0.974158 -1.87526,0 -3.40955,-0.4125 -3.40955,-0.916667 z m 8.28034,-11.747388 c 0,-1.790786 -0.58566,-2.518513 -2.2127,-2.74942 -1.93278,-0.274299 -2.18346,0.06969 -1.98159,2.719133 0.30064,3.945426 4.19429,3.973541 4.19429,0.03029 z"
     id="path1424"
     inkscape:connector-curvature="0" />
</svg>
