<?xml version="1.0" encoding="UTF-8" standalone="no"?>
<!-- Created with Inkscape (http://www.inkscape.org/) -->

<svg
   xmlns:dc="http://purl.org/dc/elements/1.1/"
   xmlns:cc="http://creativecommons.org/ns#"
   xmlns:rdf="http://www.w3.org/1999/02/22-rdf-syntax-ns#"
   xmlns:svg="http://www.w3.org/2000/svg"
   xmlns="http://www.w3.org/2000/svg"
   xmlns:sodipodi="http://sodipodi.sourceforge.net/DTD/sodipodi-0.dtd"
   xmlns:inkscape="http://www.inkscape.org/namespaces/inkscape"
   version="1.1"
   id="svg2"
   width="163"
   height="142.82516"
   viewBox="0 0 163 142.82516"
   sodipodi:docname="nu-helix-logo.svg"
   inkscape:version="0.92.4 (unknown)">
  <metadata
     id="metadata8">
    <rdf:RDF>
      <cc:Work
         rdf:about="">
        <dc:format>image/svg+xml</dc:format>
        <dc:type
           rdf:resource="http://purl.org/dc/dcmitype/StillImage" />
        <dc:title></dc:title>
      </cc:Work>
    </rdf:RDF>
  </metadata>
  <defs
     id="defs6">
    <clipPath
       clipPathUnits="userSpaceOnUse"
       id="clipPath819">
      <rect
         style="fill:#ffffff;fill-opacity:1;stroke:#ff0000;stroke-width:12.59200001;stroke-linecap:round;stroke-miterlimit:4;stroke-dasharray:none;stroke-opacity:1"
         id="rect821"
         width="209.57265"
         height="181.62962"
         x="431.37036"
         y="-6.4330492" />
    </clipPath>
  </defs>
  <sodipodi:namedview
     pagecolor="#ffffff"
     bordercolor="#666666"
     borderopacity="1"
     objecttolerance="10"
     gridtolerance="10"
     guidetolerance="10"
     inkscape:pageopacity="0"
     inkscape:pageshadow="2"
     inkscape:window-width="1920"
     inkscape:window-height="1163"
     id="namedview4"
     showgrid="false"
     inkscape:zoom="3.2390797"
     inkscape:cx="94.647404"
     inkscape:cy="70.076763"
     inkscape:window-x="1920"
     inkscape:window-y="0"
     inkscape:window-maximized="1"
     inkscape:current-layer="g823" />
  <g
     id="g823"
     transform="translate(-216.79227,-5.7650871)">
    <path
       style="fill:#ffffff;fill-opacity:1;stroke-width:0.98703045"
       d="m 363.34989,147.22027 c -24.92618,-4.52312 -41.48867,-16.33387 -58.27253,-41.55429 -6.68092,-10.03916 -5.77977,-9.989044 -11.89534,-0.66154 -18.18405,27.73437 -39.9278,41.72621 -65.39244,42.07924 -8.38976,0.11631 -8.38976,0.11631 -8.69991,-4.2146 -0.62385,-8.71105 1.91769,-11.25833 12.91852,-12.94779 21.65831,-3.32617 37.1071,-16.66632 54.57831,-47.128743 2.28771,-3.988794 1.64448,-5.994375 -5.62353,-17.53411 C 266.39738,42.132013 252.98623,31.495201 233.71176,27.782006 220.43042,25.223374 218.90631,23.794784 218.90631,13.90443 c 0,-5.3822243 0,-5.3822243 5.34184,-5.3822243 26.07636,0 50.93286,15.0458663 68.19193,41.2772083 7.04085,10.701104 7.08928,10.713687 11.80864,3.067729 22.65822,-36.709216 81.69843,-62.0776114 74.11019,-31.843663 -0.6351,2.530465 -5.14046,5.265274 -8.67407,5.265274 -18.6287,0 -38.89198,15.593922 -54.71241,42.104779 -6.48901,10.873868 -6.88383,8.802304 5.15575,27.051809 13.83376,20.969108 28.06742,31.623268 45.3915,33.976418 11.35357,1.54217 14.27259,4.11844 14.27259,12.59665 0,7.07464 -2.23135,7.78058 -16.44238,5.20184 z m -134.00926,-39.572 c -4.4504,-4.45041 0.80015,-12.240166 6.21217,-9.216444 1.65315,0.92362 2.71745,2.462314 2.92135,4.223444 0.61194,5.28591 -5.49962,8.6269 -9.13352,4.993 z m 132.90472,0.0145 c -4.31832,-3.02464 -2.34849,-9.320803 2.91612,-9.320803 5.72712,0 7.04774,7.061483 1.84167,9.847683 -2.3744,1.27074 -2.15698,1.29483 -4.75779,-0.52685 z M 253.64978,94.196449 c -3.43476,-3.434758 -0.69761,-9.672899 4.24423,-9.672899 3.87454,0 5.42867,1.55413 5.42867,5.428668 0,4.941845 -6.23814,7.678988 -9.6729,4.244231 z m 83.27717,-0.366612 c -2.20101,-2.201007 -1.99241,-7.026562 0.35812,-8.284528 6.04875,-3.237196 11.70117,3.134453 6.9741,7.861515 -2.37112,2.371125 -5.21977,2.53547 -7.33222,0.423013 z M 229.98327,82.987036 c -4.28243,-2.999524 -1.9888,-10.307851 3.23498,-10.307851 5.22378,0 7.51741,7.308327 3.23498,10.307851 -1.20652,0.845083 -2.66227,1.536514 -3.23498,1.536514 -0.57272,0 -2.02847,-0.691431 -3.23498,-1.536514 z M 361.2361,82.352083 c -1.81329,-1.813285 -1.40983,-6.201881 0.74985,-8.156359 4.46918,-4.044548 10.88645,1.755618 7.55976,6.832787 -1.7873,2.727748 -6.20221,3.430966 -8.30961,1.323572 z M 254.09887,70.874162 c -3.14385,-3.473913 -0.91611,-10.039342 3.40648,-10.039342 2.80618,0 5.81733,3.015209 5.81733,5.825173 0,5.197359 -5.89616,7.89119 -9.22381,4.214169 z m 82.46147,-0.366444 c -0.65144,-0.65144 -1.18444,-2.339262 -1.18444,-3.750716 0,-5.304079 6.49912,-6.997977 9.46756,-2.467576 3.13405,4.783166 -4.20711,10.294307 -8.28312,6.218292 z M 229.51688,57.794668 c -2.16244,-1.259511 -2.32354,-7.080634 -0.24371,-8.806736 3.90671,-3.242288 9.37375,-0.600098 9.37375,4.530289 0,4.672547 -4.68355,6.866289 -9.13004,4.276447 z M 361.60271,57.30971 c -2.20101,-2.201006 -1.99241,-7.026562 0.35812,-8.284528 6.04875,-3.237195 11.70117,3.134453 6.97411,7.861516 -2.37113,2.371124 -5.21978,2.53547 -7.33223,0.423012 z"
       id="path829"
       inkscape:connector-curvature="0"
       sodipodi:nodetypes="cssssssssssssssssssccsscscscccsssscssccscscccccssssssssscsscssc" />
  </g>
</svg>
