<?xml version="1.0" encoding="UTF-8" standalone="no"?>
<!-- Created with Inkscape (http://www.inkscape.org/) -->

<svg
   xmlns:dc="http://purl.org/dc/elements/1.1/"
   xmlns:cc="http://creativecommons.org/ns#"
   xmlns:rdf="http://www.w3.org/1999/02/22-rdf-syntax-ns#"
   xmlns:svg="http://www.w3.org/2000/svg"
   xmlns="http://www.w3.org/2000/svg"
   xmlns:sodipodi="http://sodipodi.sourceforge.net/DTD/sodipodi-0.dtd"
   xmlns:inkscape="http://www.inkscape.org/namespaces/inkscape"
   width="105.75317mm"
   height="95.354477mm"
   viewBox="0 0 105.75318 95.354478"
   version="1.1"
   id="svg2133"
   inkscape:version="0.92.4 (unknown)"
   sodipodi:docname="nutango-logo.svg">
  <defs
     id="defs2127" />
  <sodipodi:namedview
     id="base"
     pagecolor="#ffffff"
     bordercolor="#666666"
     borderopacity="1.0"
     inkscape:pageopacity="0.0"
     inkscape:pageshadow="2"
     inkscape:zoom="0.7"
     inkscape:cx="-307.14059"
     inkscape:cy="150.26106"
     inkscape:document-units="mm"
     inkscape:current-layer="g2707"
     showgrid="false"
     inkscape:window-width="1853"
     inkscape:window-height="1136"
     inkscape:window-x="67"
     inkscape:window-y="27"
     inkscape:window-maximized="1" />
  <metadata
     id="metadata2130">
    <rdf:RDF>
      <cc:Work
         rdf:about="">
        <dc:format>image/svg+xml</dc:format>
        <dc:type
           rdf:resource="http://purl.org/dc/dcmitype/StillImage" />
        <dc:title></dc:title>
      </cc:Work>
    </rdf:RDF>
  </metadata>
  <g
     inkscape:label="Layer 1"
     inkscape:groupmode="layer"
     id="layer1"
     transform="translate(-52.916067,-93.235429)">
    <g
       id="g2707"
       transform="translate(89.580357,0.75595238)">
      <path
         style="fill:#ffffff;fill-opacity:1;stroke-width:0.26458332"
         d="m 13.346649,187.35672 c -24.889857,-2.85434 -41.798337,-15.59343 -48.974515,-36.89809 -1.114015,-3.30729 -1.114015,-3.30729 -0.970812,-10.05417 0.446196,-21.02225 6.530088,-33.84618 19.098379,-40.25651 26.1598084,-13.342541 52.064898,-9.190441 73.645498,11.804 12.60216,12.25989 15.92779,26.39894 10.30174,43.79834 -7.49654,23.18419 -26.72744,34.63083 -53.10029,31.60643 z m 11.91614,-1.06802 c 0.63676,-0.22982 2.43416,-0.50585 3.99422,-0.6134 2.01677,-0.13904 2.97254,-0.31836 3.30729,-0.6205 0.25895,-0.23372 1.20781,-0.50804 2.10858,-0.6096 0.95742,-0.10795 1.69292,-0.32838 1.77053,-0.53064 0.073,-0.19028 0.66746,-0.42615 1.32099,-0.52416 0.65353,-0.098 1.25018,-0.33962 1.3259,-0.53693 0.0764,-0.19918 0.73551,-0.43804 1.48185,-0.53705 2.27347,-0.30158 1.29184,-0.42833 -3.6191,-0.46729 -4.88793,-0.0388 -6.43147,-0.43294 -6.43147,-1.64236 0,-0.17317 -0.24,-0.4782 -0.53332,-0.67785 -0.81438,-0.5543 -0.88351,-4.04685 -0.0927,-4.68336 0.30212,-0.24318 0.61806,-0.63927 0.70208,-0.88021 0.084,-0.24094 0.51801,-0.51829 0.9644,-0.61634 0.93356,-0.20504 0.97439,-0.31157 0.37375,-0.97528 -0.32165,-0.35541 -0.81869,-0.48385 -1.87244,-0.48385 -1.38288,0 -2.98135,-0.94797 -2.98135,-1.76809 0,-0.12171 -0.23812,-0.37 -0.52916,-0.55176 -0.46543,-0.29067 -0.52917,-0.61701 -0.52917,-2.70948 0,-2.20262 0.0392,-2.37901 0.52917,-2.37901 0.29104,0 0.52916,-0.15668 0.52916,-0.34819 0,-0.39511 1.75698,-2.03306 2.18081,-2.03306 0.15274,0 -0.008,-0.29098 -0.35624,-0.64662 -1.82139,-1.85783 -1.69228,-1.40952 -1.69228,-5.87584 0,-3.60275 0.0565,-4.14484 0.46302,-4.44209 0.25467,-0.18622 0.46406,-0.44451 0.46532,-0.57399 0.001,-0.12948 0.40509,-0.66029 0.89739,-1.17957 0.4923,-0.51929 0.94264,-1.17413 1.00074,-1.45521 0.0737,-0.35656 0.29284,-0.49014 0.72486,-0.44187 0.34058,0.038 0.76219,-0.12633 0.93693,-0.3653 0.20131,-0.2753 0.84288,-0.48067 1.75118,-0.56055 0.81952,-0.0721 1.56706,-0.29452 1.74536,-0.51938 0.4266,-0.538 4.2517,-0.52089 4.68322,0.0209 0.16311,0.20481 0.93776,0.42873 1.72145,0.49762 0.94526,0.0831 1.50631,0.27074 1.66679,0.55751 0.13305,0.23775 0.37216,0.43227 0.53135,0.43227 0.40261,0 2.05926,1.64687 2.0627,2.05052 0.002,0.1819 0.24094,0.33073 0.53199,0.33073 0.42734,0 0.52916,0.17639 0.52916,0.91673 0,0.63556 0.15697,1.00074 0.51177,1.19063 0.72084,0.38578 0.73285,0.37736 0.92538,-0.64894 0.0995,-0.53051 0.40213,-1.04538 0.71181,-1.21112 0.29628,-0.15856 0.65978,-0.63566 0.80778,-1.06021 0.22644,-0.64956 0.37276,-0.7459 0.92312,-0.60776 0.48054,0.12061 0.75413,0.0212 1.03141,-0.37464 0.77008,-1.09946 8.3179,-1.15568 8.3179,-0.062 0,0.28813 0.2619,0.54272 0.66146,0.643 0.3638,0.0913 0.66145,0.33432 0.66145,0.54002 0,0.2057 0.23813,0.44958 0.52917,0.54196 0.29104,0.0924 0.52917,0.27048 0.52917,0.3958 0,0.12532 0.19625,0.42411 0.43612,0.66398 0.52824,0.52825 0.84751,2.05721 0.9113,4.36418 0.0262,0.94588 0.0993,1.42213 0.16253,1.05833 0.0632,-0.3638 0.2983,-0.80326 0.52235,-0.97657 0.26525,-0.20518 0.45682,-0.94363 0.54909,-2.11667 0.078,-0.99085 0.36246,-2.21651 0.63225,-2.72367 0.62245,-1.17013 0.66089,-4.31868 0.0777,-6.36241 -0.22707,-0.7957 -0.50576,-1.95218 -0.61932,-2.56995 -0.11357,-0.61778 -0.40404,-1.34153 -0.64549,-1.60834 -0.24146,-0.2668 -0.43901,-0.60717 -0.43901,-0.75636 0,-0.14919 -0.26789,-0.56749 -0.59531,-0.92955 -0.32743,-0.36207 -0.92366,-1.0343 -1.32496,-1.49385 -0.40131,-0.45955 -0.89458,-0.83555 -1.09618,-0.83555 -0.20158,0 -0.42928,-0.16356 -0.50599,-0.36346 -0.0767,-0.19991 -0.55374,-0.44118 -1.06006,-0.53617 -0.50632,-0.095 -1.06618,-0.34815 -1.24415,-0.56258 -0.46301,-0.55789 -3.39869,-0.53898 -3.81076,0.0246 -0.16667,0.22793 -0.80002,0.48108 -1.40744,0.56255 -0.60742,0.0815 -1.30631,0.37124 -1.55308,0.64391 -0.24677,0.27268 -0.79839,0.49578 -1.22583,0.49578 -0.42743,0 -1.07988,0.23812 -1.44988,0.52917 -0.97541,0.76725 -4.27263,0.76725 -4.96699,0 -0.27192,-0.30048 -0.81491,-0.52917 -1.2564,-0.52917 -0.54244,0 -0.81742,-0.1526 -0.90949,-0.50471 -0.0726,-0.27758 -0.3591,-0.56409 -0.63669,-0.63668 -0.27759,-0.0726 -0.50471,-0.31371 -0.50471,-0.5358 0,-0.2221 -0.22563,-0.47543 -0.50141,-0.56296 -0.32042,-0.1017 -0.56727,-0.51404 -0.68385,-1.14231 -0.10034,-0.54074 -0.35967,-1.18078 -0.57631,-1.4223 -0.92864,-1.03535 0.11061,-7.52678 1.3127,-8.1995 0.24688,-0.13816 0.44887,-0.48341 0.44887,-0.76722 0,-0.28381 0.12308,-0.51602 0.27351,-0.51602 0.15043,0 0.5119,-0.40405 0.80327,-0.89789 0.29137,-0.49384 0.88267,-1.04406 1.31399,-1.22272 0.43133,-0.17866 0.78423,-0.41526 0.78423,-0.52578 0,-1.47512 10.52709,-2.55147 12.47452,-1.27546 0.37251,0.24407 1.10363,0.52376 1.62471,0.62151 0.52109,0.0978 1.15226,0.40407 1.40261,0.68071 0.25034,0.27663 0.67384,0.50296 0.94109,0.50296 0.26726,0 0.63463,0.23813 0.81639,0.52917 0.44998,0.72053 0.73235,0.66465 0.73235,-0.14495 0,-0.7503 -2.18788,-3.03005 -2.90794,-3.03005 -0.72847,0 -1.58998,-0.79662 -1.58998,-1.47021 0,-0.41512 -0.15089,-0.64646 -0.42164,-0.64646 -0.23191,0 -0.48289,-0.23418 -0.55774,-0.5204 -0.0748,-0.28623 -0.3485,-0.58783 -0.60812,-0.67022 -0.25962,-0.0824 -0.53327,-0.384 -0.60812,-0.67023 -0.0748,-0.28622 -0.32583,-0.5204 -0.55773,-0.5204 -0.23191,0 -0.42165,-0.13082 -0.42165,-0.29072 0,-0.27489 -1.50194,-1.82595 -1.76812,-1.82595 -0.21567,0 -1.67138,-1.53615 -1.67313,-1.76558 -0.002,-0.32527 -1.54839,-1.14483 -2.15942,-1.14483 -0.34435,0 -0.63385,-0.27326 -0.82443,-0.77815 -0.17024,-0.45103 -0.54987,-0.84244 -0.90306,-0.93108 -0.33513,-0.0841 -0.60934,-0.32926 -0.60934,-0.54477 0,-0.21551 -0.21499,-0.39184 -0.47776,-0.39184 -0.26277,0 -0.88121,-0.29765 -1.37432,-0.66145 -0.49311,-0.36381 -1.05202,-0.66146 -1.24203,-0.66146 -0.19001,0 -0.34547,-0.10614 -0.34547,-0.23586 0,-0.12972 -0.46077,-0.42021 -1.02392,-0.64554 -0.56316,-0.22533 -1.0952,-0.59545 -1.18232,-0.82248 -0.0968,-0.25214 -0.48018,-0.41279 -0.98523,-0.41279 -0.60431,0 -0.86406,-0.14241 -0.9652,-0.52917 -0.10256,-0.39217 -0.3609,-0.52916 -0.99788,-0.52916 -0.47273,0 -1.14345,-0.22291 -1.4905,-0.495361 -0.34704,-0.27245 -1.13015,-0.57941 -1.74024,-0.68214 -0.61009,-0.10273 -1.2449,-0.35023 -1.4107,-0.55001 -0.1658,-0.19977 -0.85726,-0.44315 -1.53658,-0.54085 -0.67933,-0.0977 -1.43286,-0.35048 -1.67452,-0.56174 -0.24166,-0.21127 -1.0751,-0.4721 -1.85209,-0.57961 -0.77698,-0.10752 -1.7054,-0.35429 -2.06316,-0.54838 -0.35775,-0.19409 -1.59105,-0.44771 -2.74067,-0.56361 -1.35759,-0.13686 -2.26508,-0.36897 -2.58915,-0.66225 -0.84102,-0.76111 -17.1750326,-0.65422 -19.47751265,0.12746 -0.904915,0.30722 -2.29971095,0.55857 -3.09954595,0.55857 -1.151861,0 -1.50953,0.1033 -1.720117,0.49679 -0.203095,0.37949 -0.649508,0.52454 -1.890636,0.61431 -1.13215,0.0819 -1.697466,0.24744 -1.864553,0.546 -0.135097,0.24141 -0.757672,0.50614 -1.425964,0.60636 -0.727125,0.10904 -1.1861784,0.3152 -1.1861784,0.53272 0,0.1986 -0.423706,0.43433 -0.962286,0.53537 -0.529258,0.0993 -1.184102,0.40234 -1.455209,0.67345 -0.271107,0.271101 -0.777839,0.492921 -1.126072,0.492921 -0.348233,0 -0.702369,0.18038 -0.78697,0.40084 -0.0846,0.22047 -0.42476,0.5186 -0.755911,0.66251 -0.331151,0.14391 -1.137874,0.67 -1.792718,1.16909 -0.654844,0.49908 -1.309687,0.91739 -1.455208,0.92956 -0.145521,0.0122 -0.544971,0.31774 -0.887667,0.67903 -0.342695,0.36128 -0.834825,0.65688 -1.09362,0.65688 -0.258796,0 -0.532809,0.23813 -0.608918,0.52917 -0.07611,0.29104 -0.320097,0.52917 -0.542195,0.52917 -0.222099,0 -0.479394,0.23812 -0.571767,0.52916 -0.09237,0.29105 -0.341468,0.52917 -0.553545,0.52917 -0.212076,0 -0.498762,0.29766 -0.63708,0.66146 -0.138317,0.3638 -0.403261,0.66239 -0.588764,0.66352 -0.185502,10e-4 -0.483311,0.31661 -0.661797,0.70105 -0.373295,0.80404 3.672397,0.7861 5.880769,-0.0261 2.833788,-1.04219 5.919446,-0.34353 6.559613,1.48524 0.197357,0.56379 1.157928,0.348 1.527866,-0.34324 0.166174,-0.3105 0.553389,-0.49612 1.0349524,-0.49612 0.497951,0 0.916617,-0.21004 1.186572,-0.59531 0.645144,-0.92072 8.86983595,-0.92072 10.040082,0 0.416158,0.32742 0.989868,0.59531 1.274908,0.59531 0.295741,0 0.57767,0.2272 0.656635,0.52917 0.07611,0.29104 0.348732,0.52917 0.60583,0.52917 0.257098,0 0.52972,0.23812 0.60583,0.52916 0.07611,0.29105 0.32812,0.52917 0.560025,0.52917 0.261395,0 0.421645,0.2272 0.421645,0.59781 0,0.3288 0.238125,0.74653 0.529167,0.92829 0.291041,0.18176 0.529166,0.49292 0.529166,0.69147 0,0.19855 0.239263,0.90189 0.531696,1.56299 0.512175,1.15785 0.529175,1.6764 0.463021,14.12269 l -0.06867,12.92071 -2.645833,0.0703 c -3.022333,0.0803 -3.548153,0.19152 -3.086952,0.65272 0.454456,0.45445 0.39429,3.25473 -0.08012,3.72914 -0.34221,0.34221 -0.127598,0.40012 1.785937,0.48192 2.224074,0.0951 4.159261,0.99965 4.159261,1.94419 0,0.18326 0.247684,0.49765 0.550414,0.69866 0.68938,0.45773 1.08029,12.48295 0.44547,13.70355 -0.4117,0.7916 -1.725478,1.20316 -2.307149,0.72276 -1.108355,-0.9154 -1.752444,-0.96427 -3.866398,-0.29334 -2.46898605,0.78362 -2.75632305,0.79208 -4.01365,0.11819 -0.54302,-0.29104 -1.137901,-0.52916 -1.321956,-0.52916 -0.184057,0 -0.334648,-0.14996 -0.334648,-0.33323 0,-0.18328 -0.238125,-0.48195 -0.529166,-0.6637 -0.291042,-0.18176 -0.529167,-0.5761 -0.529167,-0.8763 0,-0.3002 -0.178594,-0.72442 -0.396875,-0.9427 -0.50469,-0.50468 -0.508421,-1.43337 -0.0084,-2.09444 0.213651,-0.28248 0.392245,-0.88821 0.396875,-1.34608 0.0062,-0.61041 0.249862,-1.04448 0.913527,-1.62719 0.910225,-0.79918 0.566783,-1.90595 -0.591436,-1.90595 -0.540658,0 -0.41029,-3.58517 0.151156,-4.15688 1.666018,-1.69646 1.66569,-1.69799 -0.345646,-1.6111 -1.838979,0.0794 -1.838979,0.0794 -1.885098,6.16486 -0.02537,3.34698 -0.04976,6.49682 -0.0542,6.99964 -0.01233,1.39584 0.442404,5.86606 0.614214,6.03787 0.366035,0.36603 4.20108,0.0446 4.51010595,-0.37805 1.162465,-1.58976 4.05067805,-0.37154 4.29120505,1.81 0.135922,1.23279 -1.789641,3.91908 -2.80924205,3.91908 -0.239382,0 -0.630775,0.22837 -0.869762,0.50748 -0.294968,0.34451 -0.92992095,0.55914 -1.97702995,0.6683 -0.848379,0.0884 -2.16901,0.29616 -2.934732,0.46158 -1.007219,0.21758 -1.55598,0.22135 -1.984375,0.0136 -0.325684,-0.15793 -1.291291,-0.34877 -2.145797,-0.4241 -1.0657904,-0.094 -1.7357944,-0.30809 -2.1337194,-0.68192 -0.319041,-0.29973 -0.688438,-0.54496 -0.820883,-0.54496 -0.48644,0 -1.974043,-1.96453 -1.974043,-2.60692 0,-0.36229 -0.20836,-0.8888 -0.463021,-1.17003 -0.418758,-0.46244 -0.475668,-1.47617 -0.595313,-10.60416 -0.132291,-10.09285 -0.132291,-10.09285 -1.536278,-10.17334 -2.551791,-0.14629 -3.763481,-2.97176 -2.021478,-4.71377 0.94016,-0.94016 0.94016,-0.94016 -1.256771,-0.89074 -5.369492,0.12079 -6.024537,0.0542 -6.288201,-0.6393 -0.132943,-0.34966 -0.368121,-0.71388 -0.522618,-0.80936 -0.421329,-0.2604 -0.338069,-1.88223 0.115972,-2.25905 0.218281,-0.18115 0.396875,-0.4892 0.396875,-0.68454 0,-0.52068 0.87676,-0.90296 2.070965,-0.90296 0.686964,0 1.09983,-0.13658 1.199715,-0.39687 0.08376,-0.21828 0.329231,-0.39688 0.545485,-0.39688 0.640847,0 0.713228,-1.23272 0.629185,-10.71562 -0.09356,-10.55717 -0.184561,-10.94221 -2.593267,-10.97306 -1.419572,-0.0182 -1.646061,-0.14599 -2.210159,-1.24714 -0.593878,-1.15929 -0.920729,-1.29173 -1.223371,-0.49572 -0.141647,0.37256 -0.370088,0.67738 -0.507649,0.67738 -0.13756,0 -0.328528,0.35704 -0.424374,0.79342 -0.09584,0.43638 -0.386965,0.9424 -0.646933,1.12449 -0.259967,0.18209 -0.555471,0.70807 -0.656675,1.16885 -0.101205,0.46078 -0.355326,0.90352 -0.564715,0.98387 -0.234338,0.0899 -0.380707,0.51484 -0.380707,1.10521 0,0.73261 -0.123428,0.99139 -0.522647,1.09579 -0.350611,0.0917 -0.580956,0.45367 -0.699792,1.09971 -0.09743,0.52967 -0.398019,1.24698 -0.667978,1.59403 -0.269958,0.34704 -0.490833,1.03165 -0.490833,1.52135 0,0.53758 -0.209666,1.10003 -0.529167,1.41953 -0.386194,0.38619 -0.529166,0.88194 -0.529166,1.83486 0,1.36254 -0.368275,2.66468 -0.835261,2.95329 -0.519846,0.32128 -0.346096,15.56876 0.181811,15.95478 0.309224,0.22611 0.484925,0.87378 0.585778,2.1593 0.09484,1.20887 0.31182,2.05191 0.635034,2.4673 0.305495,0.39262 0.490971,1.06379 0.490971,1.77663 0,0.87485 0.125077,1.21257 0.529167,1.42884 0.296725,0.1588 0.529166,0.55399 0.529166,0.89967 0,0.33905 0.230745,0.90981 0.512765,1.26834 0.282021,0.35853 0.59691,0.98713 0.699753,1.39689 0.102843,0.40976 0.40788,0.96591 0.67786,1.23589 0.269979,0.26998 0.490872,0.72481 0.490872,1.01073 0,0.28592 0.238125,0.6473 0.529167,0.80306 0.291041,0.15576 0.529166,0.41785 0.529166,0.58243 0,0.16457 0.181332,0.4878 0.402959,0.71829 0.683198,0.71052 1.978291,2.46494 1.978291,2.67993 0,0.59408 7.920016,8.45477 8.518581,8.45477 0.116968,0 0.212669,0.15467 0.212669,0.34372 0,0.18905 0.424491,0.49722 0.943314,0.68483 0.518823,0.18761 1.007811,0.50918 1.086641,0.71461 0.07883,0.20543 0.308173,0.3735 0.509652,0.3735 0.201479,0 0.515037,0.23813 0.696796,0.52917 0.181758,0.29104 0.538946,0.52917 0.79375,0.52917 0.254804,0 0.611991,0.23812 0.79375,0.52916 0.181758,0.29105 0.594848,0.52917 0.917976,0.52917 0.323129,0 0.800505,0.22847 1.060835,0.5077 0.26033,0.27924 0.830515,0.59505 1.2670774,0.70181 0.436563,0.10675 1.077699,0.41407 1.424745,0.68292 0.347046,0.26885 0.834609,0.48882 1.083471,0.48882 0.248864,0 0.667978,0.23813 0.931368,0.52917 0.26339,0.29104 0.801565,0.52916 1.195951,0.52916 0.394382,0 1.019789,0.23813 1.389787,0.52917 0.369999,0.29104 0.951603,0.52961 1.292453,0.53016 0.340849,5.3e-4 0.980993,0.22129 1.42254,0.49056 0.44154995,0.26927 1.35454695,0.57232 2.02888595,0.67344 0.67434105,0.10112 1.35823505,0.34311 1.51976905,0.53774 0.161536,0.19464 1.086535,0.43879 2.055558,0.54257 0.969024,0.10377 2.024349,0.36067 2.345172,0.57088 0.341413,0.2237 1.774685,0.47986 3.4561846,0.61771 1.58008,0.12953 3.28959,0.41726 3.79891,0.63941 1.35235,0.58984 9.5161,0.5948 11.14538,0.007 z m -15.18028,-21.74319 c -1.3739096,-0.85183 -0.5959496,-3.50355 1.02787,-3.50355 0.29145,0 0.3612,-0.89415 0.3612,-4.63021 0,-4.63021 0,-4.63021 -0.61089,-4.63021 -1.4314596,0 -2.1953596,-1.76959 -1.2711196,-2.94457 0.9659296,-1.22797 5.9136696,-1.75501 6.9304496,-0.73823 0.52981,0.52981 0.56384,0.5323 0.90455,0.0661 0.3695,-0.50554 4.41955,-0.86819 5.76299,-0.51602 0.93198,0.24431 2.57152,1.96203 2.57152,2.69414 0,0.35464 0.23812,0.88292 0.52916,1.17396 0.49692,0.49692 0.52917,0.88194 0.52917,6.3186 0,6.58052 -0.24911,7.17515 -3.00585,7.17515 -2.10858,0 -2.28582,-0.47839 -2.28582,-6.16985 0,-6.13295 -0.31558,-7.05932 -2.40485,-7.05932 -0.91201,0 -1.29931,0.10608 -1.29931,0.35587 0,0.19573 -0.23813,0.57137 -0.52917,0.83476 -0.48952,0.44301 -0.52917,0.81491 -0.52917,4.96375 0,4.43294 -0.008,4.49423 -0.68146,5.29473 -1.44658,1.71917 -4.32844,2.35078 -5.99927,1.31486 z m 7.13307,-20.50168 c -1.18587,-0.13184 -2.08419,-0.40212 -2.64258,-0.79508 -0.94458,-0.66474 -3.09423,-2.8674 -3.0986,-3.17502 -0.002,-0.10914 -0.24095,-0.43656 -0.53199,-0.7276 -0.31389,-0.3139 -0.52917,-0.88195 -0.52917,-1.39634 0,-0.47694 -0.20836,-1.16155 -0.4630196,-1.52135 -0.46147,-0.652 -0.88902,-20.74319 -0.47646,-22.38973 0.32441,-1.2947 7.2894796,-1.76617 7.2894796,-0.49342 0,0.18496 0.24078,0.49964 0.53506,0.69929 0.82123,0.55715 1.08179,3.04228 1.31416,12.53384 0.21738,8.87963 0.2767,9.40196 1.16913,10.29439 0.76207,0.76207 4.3066,0.75365 5.11602,-0.0122 0.28638,-0.27096 0.88566,-0.78126 1.33173,-1.13402 0.51902,-0.41044 0.87422,-0.98202 0.98653,-1.5875 0.0965,-0.52037 0.33722,-1.12661 0.5349,-1.34719 0.28156,-0.31417 0.37702,-2.0941 0.44064,-8.21538 0.0911,-8.76546 0.21266,-9.2548 2.73183,-10.9965 1.34277,-0.92836 9.21124,-1.34589 9.89257,-0.52494 0.80365,0.96836 0.58278,3.86602 -0.29469,3.86602 -0.16532,0 -0.50165,0.18195 -0.74738,0.40434 -0.24574,0.22239 -0.96949,0.49355 -1.60834,0.60257 -1.16153,0.19821 -1.16153,0.19821 -1.23122,9.30762 -0.0764,9.99373 -0.0133,10.32297 1.98058,10.32297 1.2928,0 2.45473,1.23939 2.45473,2.61836 0,2.01663 -0.37595,2.3115 -3.14867,2.46959 -1.58947,0.0906 -2.50635,0.26469 -2.76693,0.52527 -1.35391,1.35391 -6.83829,0.71088 -7.1793,-0.84176 -0.20671,-0.94111 -0.40895,-0.99329 -1.06031,-0.27355 -0.26339,0.29105 -0.6801,0.52917 -0.92604,0.52917 -0.24593,0 -0.65372,0.22826 -0.90621,0.50725 -0.7345,0.81162 -4.5032,1.15813 -8.16645,0.75087 z m 26.20443,36.92408 c -0.25466,-0.0666 -0.67138,-0.0666 -0.92604,0 -0.25466,0.0666 -0.0463,0.121 0.46302,0.121 0.50932,0 0.71768,-0.0545 0.46302,-0.121 z m 2.11667,-1.04271 c 0.32742,-0.0877 0.59531,-0.32425 0.59531,-0.52556 0,-0.2013 0.23538,-0.36601 0.52307,-0.36601 0.28769,0 0.7181,-0.29766 0.95647,-0.66146 0.29652,-0.45256 0.67448,-0.66146 1.19672,-0.66146 0.58694,0 0.76332,-0.12228 0.76332,-0.52917 0,-0.35277 0.17639,-0.52916 0.52917,-0.52916 0.35278,0 0.52917,-0.17639 0.52917,-0.52917 0,-0.29104 0.17258,-0.52917 0.3835,-0.52917 0.67298,0 5.24946,-4.70516 5.10686,-5.25045 -0.10149,-0.38809 -0.003,-0.45965 0.49894,-0.36364 0.44411,0.0849 0.62528,-0.002 0.62528,-0.29888 0,-0.23012 0.23813,-0.54585 0.52917,-0.70161 0.29104,-0.15576 0.52916,-0.511 0.52916,-0.78943 0,-0.27842 0.29766,-0.8274 0.66146,-1.21995 0.36381,-0.39255 0.66146,-0.85648 0.66146,-1.03096 0,-0.17447 0.23813,-0.53273 0.52917,-0.79612 0.29104,-0.26339 0.52916,-0.64019 0.52916,-0.83735 0,-0.19715 0.23813,-0.56234 0.52917,-0.81154 0.29104,-0.2492 0.52917,-0.75077 0.52917,-1.11461 0,-0.66153 0,-0.66153 -0.41188,-0.0735 -0.22653,0.32343 -0.56766,0.58804 -0.75807,0.58804 -0.1904,0 -0.68675,0.26789 -1.103,0.59532 -0.98794,0.77711 -6.79286,0.91547 -7.33894,0.17492 -0.17049,-0.23121 -0.72671,-0.62133 -1.23603,-0.86693 -1.0939,-0.52748 -2.57451,-2.60078 -2.69391,-3.77228 -0.13197,-1.29482 -1.27484,-0.77671 -1.27484,0.57793 0,0.72132 -0.12522,0.99208 -0.5047,1.09132 -0.27759,0.0726 -0.5641,0.3591 -0.63669,0.63668 -0.0726,0.27759 -0.3137,0.50471 -0.5358,0.50471 -0.2221,0 -0.47939,0.23813 -0.57177,0.52917 -0.0924,0.29104 -0.39213,0.52916 -0.66614,0.52916 -0.274,0 -0.59495,0.17291 -0.71322,0.38424 -0.31104,0.55581 -3.96649,1.72842 -5.39485,1.73059 -0.66987,0.001 -1.97956,0.0864 -2.91041,0.18981 -2.11238,0.2346 -0.70869,0.54682 2.67317,0.59458 1.29728,0.0183 2.1622,0.16253 2.49796,0.41649 0.28248,0.21365 1.00885,0.38846 1.61417,0.38846 1.23149,0 2.76703,0.45485 2.76703,0.81963 0,0.13129 0.18154,0.2387 0.40343,0.2387 0.22188,0 0.51659,0.29766 0.65491,0.66146 0.13831,0.3638 0.425,0.66146 0.63707,0.66146 0.21208,0 0.46877,0.26789 0.57043,0.59531 0.10166,0.32742 0.40775,0.91192 0.6802,1.29889 0.92247,1.31022 0.67725,6.30788 -0.30951,6.30788 -0.1404,0 -0.25528,0.23394 -0.25528,0.51986 0,0.28592 -0.23812,0.6473 -0.52916,0.80306 -0.29105,0.15576 -0.52917,0.43462 -0.52917,0.61969 0,0.18507 -0.32742,0.46587 -0.72761,0.62401 -0.79962,0.31596 -0.54513,0.42949 0.39688,0.17704 z m -6.90363,-1.05194 c 0.31397,-0.0842 0.63024,-0.38026 0.70284,-0.65784 0.0768,-0.29382 0.36344,-0.50471 0.68591,-0.50471 0.30467,0 0.55394,-0.16254 0.55394,-0.36119 0,-0.19866 0.23813,-0.66392 0.52917,-1.03392 0.65191,-0.82877 0.72084,-2.30906 0.10752,-2.30906 -0.2319,0 -0.48392,-0.23812 -0.56003,-0.52916 -0.10239,-0.39157 -0.36089,-0.52917 -0.99408,-0.52917 -0.47063,0 -1.23993,-0.13394 -1.70955,-0.29766 -0.66726,-0.2326 -1.00836,-0.21858 -1.56084,0.0642 -0.66735,0.34154 -0.58985,0.36935 1.38233,0.49609 2.94343,0.18915 3.64273,1.84888 1.2095,2.87066 -0.74212,0.31164 -1.04525,0.59906 -1.04716,0.99291 -0.002,0.30487 -0.24082,0.76981 -0.53186,1.0332 -0.92931,0.84101 -0.36214,1.19341 1.23231,0.76567 z m -5.46564,-0.63338 c 0.78587,-0.78587 0.70971,-1.85209 -0.13229,-1.85209 -0.60757,0 -0.66146,0.097 -0.66146,1.19063 0,1.34886 0.058,1.3972 0.79375,0.66146 z m 2.11667,-6.08542 c 0,-0.14552 -0.38696,-0.26276 -0.8599,-0.26053 -0.65252,0.003 -0.76419,0.0659 -0.46302,0.26053 0.52003,0.33607 1.32292,0.33607 1.32292,0 z m 22.07375,-12.10469 c 1.02557,-1.08203 1.02184,-1.05908 0.94659,-5.82527 -0.08,-5.06675 -4.50271,-4.98838 -4.91238,0.087 -0.18631,2.30833 -0.18688,2.16586 0.0137,3.42313 0.31229,1.95734 0.40791,2.24896 0.73743,2.24896 0.1805,0 0.4769,0.23812 0.65866,0.52916 0.51887,0.83085 1.4977,0.65354 2.55599,-0.46302 z m 5.35356,0.13229 c -0.0734,-0.1819 -0.13346,-0.0331 -0.13346,0.33073 0,0.36381 0.0601,0.51263 0.13346,0.33073 0.0734,-0.1819 0.0734,-0.47955 0,-0.66146 z m -59.7332026,-0.0925 c 0.775888,-0.38706 0.841489,-0.51678 0.768255,-1.51907 -0.09466,-1.29542 -0.755346,-1.60167 -1.569673,-0.7276 -0.283464,0.30427 -0.616908,0.55321 -0.740984,0.55321 -0.311608,0 -0.58229005,1.18908 -0.386707,1.69876 0.204417,0.53271 0.854231,0.53092 1.929109,-0.005 z m 36.8533026,-1.89088 c 1.2048,-2.60298 0.40844,-7.17039 -1.32612,-7.60573 -0.95183,-0.2389 -2.95671,0.12998 -2.95671,0.544 0,0.19453 -0.20836,0.47051 -0.46302,0.61329 -0.71346,0.40002 -0.66333,6.87868 0.0588,7.6057 1.68759,1.69892 3.58144,1.23131 4.687,-1.15726 z M 3.7081954,152.978 c -0.350758,-2.55906 -2.55537,-3.26027 -2.55537,-0.81276 0,1.09427 -0.11167,1.50711 -0.46302005,1.71175 -0.347366,0.20232 -0.0079,0.27169 1.35887805,0.27773 1.821903,0.008 1.821903,0.008 1.659512,-1.17672 z M -14.060716,141.46279 c 0.09237,-0.29104 0.338522,-0.52916 0.546997,-0.52916 0.208474,0 0.380355,-0.20836 0.381957,-0.46302 0.0016,-0.25467 0.07671,-0.90951 0.16691,-1.45521 0.108808,-0.65829 0.06331,-0.99219 -0.135203,-0.99219 -0.164562,0 -0.304159,0.32742 -0.310216,0.7276 -0.01376,0.9091 -1.5152,2.66158 -2.544837,2.97033 -0.672832,0.20176 -0.621835,0.22772 0.4875,0.24808 1.017843,0.0187 1.268913,-0.0717 1.406892,-0.50643 z m 13.0568654,-0.46302 c -0.620689,-0.99097 -0.62161,-1.00582 -0.75374,-12.15595 -0.132202,-11.15626 -0.132691,-11.16414 -0.727604,-11.71812 -0.327422,-0.3049 -0.595313,-0.63971 -0.595313,-0.74404 0,-0.20042 -0.890164,-0.63529 -2.309926,-1.12846 -0.699921,-0.24313 -0.929071,-0.22254 -1.265274,0.11366 -0.225809,0.22581 -0.846995,0.49244 -1.380416,0.59251 -1.141267,0.2141 -3.2464674,2.13729 -3.2464674,2.96578 0,0.29669 -0.208359,0.74763 -0.463021,1.0021 -0.418656,0.41834 -0.468933,1.26308 -0.524728,8.8163 -0.05501,7.44716 -0.02051,8.26031 0.317957,7.49372 0.379664,-0.85989 0.379664,-0.85989 2.7668934,-0.85989 3.009897,0 3.194566,0.2363 3.194566,4.0879 0,2.52668 0,2.52668 2.80426,2.52668 2.80425795,0 2.80425795,0 2.182813,-0.99219 z"
         id="path2713"
         inkscape:connector-curvature="0" />
    </g>
  </g>
</svg>
