<?xml version="1.0" encoding="UTF-8" standalone="no"?>
<!-- Created with Inkscape (http://www.inkscape.org/) -->

<svg
   xmlns:dc="http://purl.org/dc/elements/1.1/"
   xmlns:cc="http://creativecommons.org/ns#"
   xmlns:rdf="http://www.w3.org/1999/02/22-rdf-syntax-ns#"
   xmlns:svg="http://www.w3.org/2000/svg"
   xmlns="http://www.w3.org/2000/svg"
   xmlns:sodipodi="http://sodipodi.sourceforge.net/DTD/sodipodi-0.dtd"
   xmlns:inkscape="http://www.inkscape.org/namespaces/inkscape"
   version="1.1"
   id="svg7816"
   width="146.78159"
   height="146.71655"
   viewBox="0 0 146.78159 146.71655"
   sodipodi:docname="opploans-logo.svg"
   inkscape:version="0.92.4 (unknown)">
  <metadata
     id="metadata7822">
    <rdf:RDF>
      <cc:Work
         rdf:about="">
        <dc:format>image/svg+xml</dc:format>
        <dc:type
           rdf:resource="http://purl.org/dc/dcmitype/StillImage" />
        <dc:title></dc:title>
      </cc:Work>
    </rdf:RDF>
  </metadata>
  <defs
     id="defs7820" />
  <sodipodi:namedview
     pagecolor="#ffffff"
     bordercolor="#666666"
     borderopacity="1"
     objecttolerance="10"
     gridtolerance="10"
     guidetolerance="10"
     inkscape:pageopacity="0"
     inkscape:pageshadow="2"
     inkscape:window-width="1299"
     inkscape:window-height="704"
     id="namedview7818"
     showgrid="false"
     inkscape:zoom="1.1132075"
     inkscape:cx="72.150519"
     inkscape:cy="46.798166"
     inkscape:window-x="67"
     inkscape:window-y="27"
     inkscape:window-maximized="1"
     inkscape:current-layer="g8369" />
  <g
     id="g8369"
     transform="translate(-48.658303,-0.26871541)">
    <path
       style="fill:#ffffff;stroke-width:0.87759978;fill-opacity:1;stroke:none;stroke-opacity:1"
       d="m 104.63065,135.41144 c -7.440364,-2.12715 -17.403786,-7.14737 -21.685307,-10.92647 -4.159769,-3.67164 -2.939551,-4.0208 3.192401,-0.9135 10.567112,5.35476 26.601526,7.12586 38.444996,4.2465 10.40014,-2.52847 18.11749,-6.97121 26.49255,-15.25127 6.20999,-6.13955 8.20846,-8.82089 11.1366,-14.941846 4.64703,-9.714152 6.72923,-19.901918 5.9579,-29.150813 -3.1147,-37.347884 -39.12917,-61.6458829 -74.65158,-50.365417 -3.838838,1.219058 -7.121312,2.074862 -7.294388,1.901786 -0.173075,-0.173076 0.994745,-1.303037 2.595157,-2.511025 7.738868,-5.841287 24.783161,-9.9914469 37.002821,-9.0099169 10.12481,0.813263 15.10345,2.0541819 23.06214,5.7481989 14.2974,6.636131 24.16113,16.218898 31.3528,30.459744 8.11926,16.07764 8.30474,38.018839 0.46866,55.438209 -7.50698,16.68776 -24.63476,31.00469 -42.59047,35.60093 -7.65377,1.95917 -26.12147,1.77987 -33.48428,-0.32511 z m -5.327395,-10.9969 C 83.543872,120.82902 69.600015,109.75667 62.802902,95.430854 58.780769,86.953671 57.518247,81.039823 57.650637,71.29686 58.045796,42.216106 81.524936,19.113385 110.59721,19.199126 c 17.94885,0.05294 34.56934,8.94546 44.39951,23.755239 4.01055,6.042155 8.48581,18.522465 8.04983,22.448845 l -0.31336,2.822051 -1.10106,-2.6328 c -5.915,-14.14361 -14.33995,-22.754115 -27.13302,-27.730613 -3.94687,-1.535332 -6.92807,-1.971726 -13.8095,-2.021462 -10.73613,-0.0776 -18.09192,2.141314 -25.724083,7.759791 -28.316309,20.845281 -22.043429,64.481473 10.937933,76.087773 2.8229,0.9934 8.48937,2.09016 12.59215,2.43725 7.06347,0.59755 7.31979,0.69003 4.8268,1.74143 -4.05973,1.71215 -17.54947,2.01987 -24.019155,0.54791 z"
       id="path8371"
       inkscape:connector-curvature="0"
       sodipodi:nodetypes="sccsscsssssssscssssssccsssscccs" />
  </g>
</svg>
