<?xml version="1.0" encoding="UTF-8" standalone="no"?>
<!-- Created with Inkscape (http://www.inkscape.org/) -->

<svg
   xmlns:dc="http://purl.org/dc/elements/1.1/"
   xmlns:cc="http://creativecommons.org/ns#"
   xmlns:rdf="http://www.w3.org/1999/02/22-rdf-syntax-ns#"
   xmlns:svg="http://www.w3.org/2000/svg"
   xmlns="http://www.w3.org/2000/svg"
   xmlns:sodipodi="http://sodipodi.sourceforge.net/DTD/sodipodi-0.dtd"
   xmlns:inkscape="http://www.inkscape.org/namespaces/inkscape"
   version="1.1"
   id="svg8727"
   width="498.42566"
   height="771.81891"
   viewBox="0 0 498.42566 771.81891"
   sodipodi:docname="pandas-logo.svg"
   inkscape:version="0.92.4 (unknown)">
  <metadata
     id="metadata8733">
    <rdf:RDF>
      <cc:Work
         rdf:about="">
        <dc:format>image/svg+xml</dc:format>
        <dc:type
           rdf:resource="http://purl.org/dc/dcmitype/StillImage" />
        <dc:title></dc:title>
      </cc:Work>
    </rdf:RDF>
  </metadata>
  <defs
     id="defs8731" />
  <sodipodi:namedview
     pagecolor="#ffffff"
     bordercolor="#666666"
     borderopacity="1"
     objecttolerance="10"
     gridtolerance="10"
     guidetolerance="10"
     inkscape:pageopacity="0"
     inkscape:pageshadow="2"
     inkscape:window-width="1299"
     inkscape:window-height="704"
     id="namedview8729"
     showgrid="false"
     inkscape:zoom="0.24375"
     inkscape:cx="217.33333"
     inkscape:cy="398.12225"
     inkscape:window-x="67"
     inkscape:window-y="27"
     inkscape:window-maximized="1"
     inkscape:current-layer="g9280" />
  <g
     id="g9280"
     transform="translate(-876,-63.995676)">
    <path
       style="fill:#ffffff;fill-opacity:1;stroke-width:1.17032635"
       d="m 918.06156,801.96277 c -11.88872,-1.25398 -13.34361,-1.87897 -13.34361,-5.73213 0,-1.79162 0.57411,-4.90435 1.27578,-6.91719 1.47573,-4.23327 6.15549,-6.0357 15.69395,-6.04456 6.07057,-0.006 89.04082,-4.9255 118.78812,-7.04373 9.3332,-0.66461 24.606,-1.72133 33.9394,-2.34829 34.8472,-2.34077 47.438,-4.61645 61.735,-11.15807 10.8108,-4.94644 20.1322,-14.02547 24.9331,-24.28462 7.0012,-14.96125 13.4441,-54.08553 16.5161,-100.29336 1.9468,-29.28446 1.9171,-133.57132 -0.054,-190.62463 -0.8641,-25.00669 -1.0397,-43.00998 -0.4256,-43.62421 1.2307,-1.23065 59.1448,0.11982 61.2623,1.42855 1.1062,0.68369 0.9803,7.92491 -0.572,32.87764 -2.7518,44.23364 -1.2565,52.70271 11.1767,63.30216 14.6392,12.47996 16.2035,14.13394 17.3319,18.32482 2.0377,7.56719 -0.3596,12.94232 -12.4779,27.97724 -3.3598,4.16837 -6.5897,9.66354 -7.4171,12.61888 -1.9452,6.94711 -0.8338,87.13235 1.6934,122.19195 3.9626,54.96982 6.5973,68.47069 14.6913,75.28136 1.7609,1.48167 10.0671,5.72792 18.4583,9.43614 8.3912,3.70822 16.3005,7.71468 17.5763,8.90329 1.637,1.52508 2.7338,4.99334 3.7268,11.78483 1.5197,10.39264 0.9057,12.07473 -4.0269,11.03343 -8.9405,-1.88735 -71.6404,-3.43917 -135.1824,-3.34574 -60.4827,0.0889 -80.0339,0.53893 -112.9365,2.59942 -75.4037,4.72209 -112.5362,5.74796 -132.36197,3.65682 z M 951.531,771.21924 c -2.52921,-1.27471 -2.97329,-2.37926 -3.27601,-8.14849 -0.29074,-5.54071 0.42988,-8.61578 4.24418,-18.11111 4.32132,-10.75752 7.22412,-21.18044 7.22412,-25.93929 0,-1.15413 -3.73601,-7.0327 -8.30222,-13.06349 -15.02631,-19.84584 -20.95595,-35.57416 -20.95595,-55.58553 0,-28.19588 9.56623,-52.63644 37.08328,-94.74338 7.15273,-10.94521 13.84338,-22.53144 14.86807,-25.74718 1.0247,-3.21571 3.44473,-14.79975 5.37784,-25.7423 1.93311,-10.94255 4.89503,-24.10872 6.58204,-29.25816 4.49442,-13.71872 5.10256,-33.35985 1.66188,-53.67357 -1.40229,-8.27904 -2.8348,-15.79601 -3.18338,-16.70438 -0.34856,-0.90837 -4.44248,-3.41132 -9.09758,-5.56212 -7.4656,-3.44931 -8.55382,-4.36053 -9.22694,-7.72616 -1.91652,-9.5826 -0.40183,-11.39298 22.05823,-26.36423 20.72964,-13.81782 29.12394,-17.88821 39.85914,-19.32757 11.4183,-1.53097 14.4045,-2.43314 29.2304,-8.8309 12.3815,-5.34303 19.6239,-7.09876 24.3692,-5.90774 5.0613,1.2703 8.3894,15.77919 5.4143,23.60412 -0.6544,1.72108 -4.5244,7.29708 -8.6001,12.39109 -7.021,8.77521 -10.1056,15.11716 -10.1056,20.777 0,1.38549 1.8053,8.17081 4.0119,15.07846 2.2064,6.90765 5.6865,18.87912 7.7335,26.60328 5.0314,18.98674 8.9809,27.26376 17.0409,35.71389 5.8884,6.17345 7.2103,7.00302 11.1583,7.00302 7.333,0 19.2823,-4.56678 24.9092,-9.51981 7.2552,-6.38623 8.8751,-11.40554 9.9352,-30.78537 0.9648,-17.63887 2.1051,-21.47562 8.0102,-26.95113 6.3291,-5.86868 7.5321,-3.87584 10.4384,17.29202 2.7129,19.75827 3.0278,85.98199 0.4238,89.12434 -0.946,1.14165 -12.4237,9.16026 -25.506,17.81914 -16.2102,10.72912 -24.844,17.20398 -27.108,20.32927 -2.2457,3.10015 -4.3745,8.85618 -6.5707,17.76631 -7.8992,32.04803 -15.3176,45.10148 -43.7393,76.96319 l -14.0936,15.7994 -0.025,6.4368 c -0.014,3.54022 0.7859,10.64995 1.777,15.79939 1.9285,10.02031 2.3916,22.52243 1.0424,28.14676 -0.4554,1.89863 -4.4417,11.39523 -8.8583,21.10357 -4.4168,9.70833 -8.0304,18.97261 -8.0304,20.58729 0,2.32319 1.2373,3.60916 5.9293,6.16288 5.4168,2.94822 9.4712,7.88166 7.8279,9.52501 -0.3669,0.36683 -12.1703,1.66531 -26.2298,2.8855 -30.08834,2.61127 -70.8311,3.03339 -75.30181,0.78018 z m 237.6395,-380.08083 c -18.7357,-2.34119 -31.2628,-7.3662 -37.6719,-15.11132 -6.0356,-7.29369 -8.0992,-16.7332 -8.8353,-40.4156 -1.2413,-39.93903 2.9587,-59.02485 14.7352,-66.96109 7.5316,-5.07556 10.768,-5.46511 46.9229,-5.64828 34.6219,-0.17541 44.525,-1.06211 53.4333,-4.78424 12.4154,-5.1875 18.1917,-14.86512 20.8651,-34.9577 0.9421,-7.08047 2.0311,-15.93062 2.4202,-19.667 0.6222,-5.97507 1.0839,-6.94064 3.8336,-8.01574 5.4902,-2.1467 22.4466,-0.5227 29.8285,2.85684 16.4307,7.52224 25.6658,24.83466 27.3373,51.2473 1.0713,16.92747 -3.0706,40.98794 -9.0852,52.77763 -3.6455,7.14574 -11.1607,14.63453 -17.8697,17.80677 -10.649,5.03517 -22.0433,5.91758 -46.9114,3.63299 -27.0055,-2.48093 -44.9863,-2.05826 -51.4575,1.20964 -10.7316,5.41946 -1.615,7.78775 29.4781,7.65779 27.4568,-0.11481 25.4785,-1.1163 25.3236,12.81966 -0.2588,23.28411 -11.1932,38.11056 -32.4959,44.06262 -7.4502,2.08162 -37.8455,2.98994 -49.8509,1.48973 z m 60.8517,-21.61751 c 3.8275,-1.97926 4.451,-5.69266 2.2725,-13.53506 -1.8975,-6.83079 -9.1075,-8.91615 -15.3814,-4.44877 -2.862,2.03799 -3.3511,3.05525 -2.8138,5.85164 0.3577,1.86163 0.9568,4.9705 1.3313,6.90859 0.4212,2.1795 1.8722,4.17073 3.8036,5.21962 4.0452,2.19684 6.5455,2.19777 10.7878,0.004 z m -148.7958,-48.01594 c -7.6401,-2.35351 -15.5485,-9.77055 -19.673,-18.45079 -5.3294,-11.21558 -7.3839,-23.32396 -7.3835,-43.51388 4e-4,-27.64171 3.5345,-41.08641 13.6397,-51.88958 11.26,-12.03782 26.316,-15.45417 58.3987,-13.25115 28.1325,1.93175 43.3262,1.70874 50.506,-0.74135 3.4576,-1.17989 5.8516,-2.6997 5.8516,-3.71483 0,-3.3416 -8.6791,-4.53639 -33.6246,-4.62886 -24.1898,-0.0897 -24.2635,-0.0978 -24.7943,-2.72318 -3.743,-18.51342 0.9529,-38.54664 10.8784,-46.40778 11.9506,-9.46507 34.3759,-12.61518 67.4361,-9.47286 24.7066,2.34832 36.9434,7.56039 43.4964,18.52662 5.5617,9.30719 6.5661,17.87575 5.9655,50.89115 -0.6037,33.19147 -2.125,40.41128 -10.4083,49.39761 -8.0052,8.68462 -10.0814,9.05966 -54.853,9.90838 -36.4123,0.69025 -39.7769,0.93138 -47.2183,3.38406 -15.9093,5.24374 -21.0358,14.21566 -24.8207,43.43867 -2.9506,22.78164 -1.6544,21.0816 -15.9991,20.98436 -6.8102,-0.0463 -14.3548,-0.79925 -17.3976,-1.73659 z m 74.5655,-154.90214 c 2.9083,-1.77335 3.8129,-3.28444 4.43,-7.39955 0.4266,-2.84412 0.4298,-6.07202 0.01,-7.17309 -0.8481,-2.20605 -6.3347,-5.42637 -9.2467,-5.42637 -5.2487,0 -11.135,7.71354 -11.135,14.59149 0,6.91647 8.6544,9.85188 15.9429,5.40752 z"
       id="path9284"
       inkscape:connector-curvature="0"
       sodipodi:nodetypes="csccsccccscscscscsccccssscccsssssscscsccsssscccscscsscccscccscccccsccsccccccsscccccccscccccccccccccccccscssccscccscccccccssc" />
    <path
       style="fill:#ffffff;fill-opacity:1;stroke-width:1.17032635"
       d="m 951.531,771.21924 c -2.52921,-1.27471 -2.97329,-2.37926 -3.27601,-8.14849 -0.29074,-5.54071 0.42988,-8.61578 4.24418,-18.11111 4.32132,-10.75752 7.22412,-21.18044 7.22412,-25.93929 0,-1.15413 -3.73601,-7.0327 -8.30222,-13.06349 -15.02631,-19.84584 -20.95595,-35.57416 -20.95595,-55.58553 0,-28.19588 9.56623,-52.63644 37.08328,-94.74338 7.15273,-10.94521 13.84338,-22.53144 14.86807,-25.74718 1.0247,-3.21571 3.44473,-14.79975 5.37784,-25.7423 1.93311,-10.94255 4.89503,-24.10872 6.58204,-29.25816 4.49442,-13.71872 5.10256,-33.35985 1.66188,-53.67357 -1.40229,-8.27904 -2.8348,-15.79601 -3.18338,-16.70438 -0.34856,-0.90837 -4.44248,-3.41132 -9.09758,-5.56212 -7.4656,-3.44931 -8.55382,-4.36053 -9.22694,-7.72616 -1.91652,-9.5826 -0.40183,-11.39298 22.05823,-26.36423 20.72964,-13.81782 29.12394,-17.88821 39.85914,-19.32757 11.4183,-1.53097 14.4045,-2.43314 29.2304,-8.8309 12.3815,-5.34303 19.6239,-7.09876 24.3692,-5.90774 5.0613,1.2703 8.3894,15.77919 5.4143,23.60412 -0.6544,1.72108 -4.5244,7.29708 -8.6001,12.39109 -7.021,8.77521 -10.1056,15.11716 -10.1056,20.777 0,1.38549 1.8053,8.17081 4.0119,15.07846 2.2064,6.90765 5.6865,18.87912 7.7335,26.60328 5.0314,18.98674 8.9809,27.26376 17.0409,35.71389 5.8884,6.17345 7.2103,7.00302 11.1583,7.00302 7.333,0 19.2823,-4.56678 24.9092,-9.51981 7.2552,-6.38623 8.8751,-11.40554 9.9352,-30.78537 0.9648,-17.63887 2.1051,-21.47562 8.0102,-26.95113 6.3291,-5.86868 7.5321,-3.87584 10.4384,17.29202 2.7129,19.75827 3.0278,85.98199 0.4238,89.12434 -0.946,1.14165 -12.4237,9.16026 -25.506,17.81914 -16.2102,10.72912 -24.844,17.20398 -27.108,20.32927 -2.2457,3.10015 -4.3745,8.85618 -6.5707,17.76631 -7.8992,32.04803 -15.3176,45.10148 -43.7393,76.96319 l -14.0936,15.7994 -0.025,6.4368 c -0.014,3.54022 0.7859,10.64995 1.777,15.79939 1.9285,10.02031 2.3916,22.52243 1.0424,28.14676 -0.4554,1.89863 -4.4417,11.39523 -8.8583,21.10357 -4.4168,9.70833 -8.0304,18.97261 -8.0304,20.58729 0,2.32319 1.2373,3.60916 5.9293,6.16288 5.4168,2.94822 9.4712,7.88166 7.8279,9.52501 -0.3669,0.36683 -12.1703,1.66531 -26.2298,2.8855 -30.08834,2.61127 -70.8311,3.03339 -75.30181,0.78018 z m 149.6954,-449.71428 c -7.6401,-2.35351 -15.5485,-9.77055 -19.673,-18.45079 -5.3294,-11.21558 -7.3839,-23.32396 -7.3835,-43.51388 4e-4,-27.64171 3.5345,-41.08641 13.6397,-51.88958 11.26,-12.03782 26.316,-15.45417 58.3987,-13.25115 28.1325,1.93175 43.3262,1.70874 50.506,-0.74135 3.4576,-1.17989 5.8516,-2.6997 5.8516,-3.71483 0,-3.3416 -8.6791,-4.53639 -33.6246,-4.62886 -24.1898,-0.0897 -24.2635,-0.0978 -24.7943,-2.72318 -3.743,-18.51342 0.9529,-38.54664 10.8784,-46.40778 11.9506,-9.46507 34.3759,-12.61518 67.4361,-9.47286 24.7066,2.34832 36.9434,7.56039 43.4964,18.52662 5.5617,9.30719 6.5661,17.87575 5.9655,50.89115 -0.6037,33.19147 -2.125,40.41128 -10.4083,49.39761 -8.0052,8.68462 -10.0814,9.05966 -54.853,9.90838 -36.4123,0.69025 -39.7769,0.93138 -47.2183,3.38406 -15.9093,5.24374 -21.0358,14.21566 -24.8207,43.43867 -2.9506,22.78164 -1.6544,21.0816 -15.9991,20.98436 -6.8102,-0.0463 -14.3548,-0.79925 -17.3976,-1.73659 z m 74.5655,-154.90214 c 2.9083,-1.77335 3.8129,-3.28444 4.43,-7.39955 0.4266,-2.84412 0.4298,-6.07202 0.01,-7.17309 -0.8481,-2.20605 -6.3347,-5.42637 -9.2467,-5.42637 -5.2487,0 -11.135,7.71354 -11.135,14.59149 0,6.91647 8.6544,9.85188 15.9429,5.40752 z"
       id="path9282"
       inkscape:connector-curvature="0"
       sodipodi:nodetypes="csssssscscsccsssscccscscsscccscccscccccsccsccccccscssccscccscccccccssc" />
  </g>
</svg>
