<?xml version="1.0" encoding="UTF-8" standalone="no"?>
<!-- Created with Inkscape (http://www.inkscape.org/) -->

<svg
   xmlns:dc="http://purl.org/dc/elements/1.1/"
   xmlns:cc="http://creativecommons.org/ns#"
   xmlns:rdf="http://www.w3.org/1999/02/22-rdf-syntax-ns#"
   xmlns:svg="http://www.w3.org/2000/svg"
   xmlns="http://www.w3.org/2000/svg"
   xmlns:sodipodi="http://sodipodi.sourceforge.net/DTD/sodipodi-0.dtd"
   xmlns:inkscape="http://www.inkscape.org/namespaces/inkscape"
   version="1.1"
   id="svg3763"
   width="216.8033"
   height="136.33871"
   viewBox="0 0 216.8033 136.33871"
   sodipodi:docname="pipeline-logo.svg"
   inkscape:version="0.92.4 (unknown)">
  <metadata
     id="metadata3769">
    <rdf:RDF>
      <cc:Work
         rdf:about="">
        <dc:format>image/svg+xml</dc:format>
        <dc:type
           rdf:resource="http://purl.org/dc/dcmitype/StillImage" />
        <dc:title></dc:title>
      </cc:Work>
    </rdf:RDF>
  </metadata>
  <defs
     id="defs3767" />
  <sodipodi:namedview
     pagecolor="#ffffff"
     bordercolor="#666666"
     borderopacity="1"
     objecttolerance="10"
     gridtolerance="10"
     guidetolerance="10"
     inkscape:pageopacity="0"
     inkscape:pageshadow="2"
     inkscape:window-width="1920"
     inkscape:window-height="1163"
     id="namedview3765"
     showgrid="false"
     inkscape:zoom="1.5446355"
     inkscape:cx="109.77761"
     inkscape:cy="49.767553"
     inkscape:window-x="1920"
     inkscape:window-y="0"
     inkscape:window-maximized="1"
     inkscape:current-layer="svg3763" />
  <g
     id="g3773"
     transform="translate(-4.0957364,-46.986831)"
     style="fill:#ffffff">
    <path
       style="fill:#ffffff"
       d="m 44.166154,182.32478 c -1.879143,-0.64636 -4.916077,-2.62854 -6.748742,-4.40483 -7.095913,-6.87763 -14.467579,-27.27775 -15.895715,-43.9893 -1.081856,-12.6595 -0.428552,-11.80497 -9.28023,-12.13874 L 4.5,121.5 4.2067939,114.2799 C 3.870657,106.00264 3.6021929,106.22492 14.5,105.7574 L 20.5,105.5 21.226876,98 C 23.42039,75.367031 31.33031,55.7804 40.810561,49.506667 l 3.807729,-2.519836 72.94085,0.256585 c 61.50671,0.216362 72.94086,0.474638 72.94086,1.647598 0,0.765057 -0.9,1.888927 -2,2.497488 C 180.66856,55.72115 176.31537,61.973022 172.05926,75 c -2.25278,6.895247 -5.04852,22.278828 -5.05524,27.81642 -0.004,3.02874 0.23453,3.28898 2.74598,3 2.3875,-0.27471 2.79091,-0.81074 3.06037,-4.06642 0.1707,-2.0625 0.79217,-3.75 1.38104,-3.75 1.52431,0 25.34355,13.73473 26.74248,15.42034 1.3812,1.66425 2.55383,0.80002 -13.90426,10.24741 -6.86772,3.94227 -12.83392,6.95321 -13.2582,6.69099 C 173.34714,130.09651 173,128.82033 173,127.52277 173,123.83735 171.9559,122 169.86163,122 c -1.05842,0 -2.2157,0.75912 -2.57173,1.68693 -0.80651,2.10171 1.13706,17.63182 3.29304,26.31307 3.31153,13.33422 12.14837,28 16.87134,28 1.97709,0 4.04412,2.9016 2.88953,4.05619 -1.50731,1.50731 -141.826862,1.76514 -146.177656,0.26859 z m 62.208776,-4.12241 c 0.29514,-0.47755 -0.60916,-2.55444 -2.00956,-4.6153 C 98.265703,164.6106 94.011295,150.71206 91.714583,132.25876 L 90.5,122.5 h -4.954915 c -4.461197,0 -5.013721,0.24911 -5.545085,2.5 -0.794817,3.3669 -4.368368,3.43168 -4.840811,0.0878 -0.187447,-1.32673 -0.974947,-3.04637 -1.75,-3.82143 -2.441614,-2.44161 -1.804836,-11.21981 1.126862,-15.5342 C 77.418038,101.49091 78.477438,101.15507 80,104 c 0.844418,1.57781 2.093823,2 5.918687,2 h 4.848319 l 0.693181,-6.75 c 1.658032,-16.145439 6.861271,-33.491105 12.594903,-41.986741 2.4131,-3.575536 2.7942,-4.75496 1.76199,-5.453021 -0.72439,-0.489891 -14.446671,-0.760105 -30.493948,-0.600475 -33.21955,0.330452 -31.875875,3.91e-4 -38.067687,9.350956 C 31.679577,68.981115 26.123925,89.127665 26.034888,101.25 L 26,106 h 4.5 c 4.092748,0 4.5,-0.21885 4.5,-2.41821 0,-3.29332 0.980005,-5.592467 2.356989,-5.52963 2.265344,0.103376 26.140443,14.57673 26.417329,16.01448 0.185774,0.96465 -4.29573,4.10035 -12.995378,9.09285 C 36.48487,131.36248 35,131.57121 35,125.37756 35,122.05063 34.933788,122 30.583333,122 c -2.429166,0 -4.585626,0.50688 -4.792131,1.1264 -0.709514,2.12854 1.275042,17.38222 3.366243,25.8736 3.575812,14.51969 8.762497,24.1563 15.064217,27.98861 2.696128,1.63961 5.871078,1.83128 32.303324,1.95018 16.122327,0.0725 29.554804,-0.25887 29.849944,-0.73642 z M 62.238729,174.83873 C 60.71105,173.31105 63.71646,168 66.108619,168 c 2.614537,0 2.981612,2.61557 0.762925,5.43618 -2.256723,2.86895 -2.955009,3.08036 -4.632815,1.40255 z m 7.146207,-15.27799 C 68.617979,157.56209 71.209584,152.5 72.99978,152.5 c 1.901599,0 2.34956,2.45097 1.06532,5.82877 -1.092346,2.87309 -3.779022,3.58031 -4.680164,1.23197 z m 4.645118,-16.02453 c -1.392837,-1.67826 -0.284604,-6.5013 1.665842,-7.24976 2.240598,-0.85979 3.389609,1.03602 2.70439,4.46212 -0.704804,3.52402 -2.701875,4.79789 -4.370232,2.78764 z M 73.629459,90.897294 C 72.893608,87.218039 73.46965,86 75.945518,86 c 1.293688,0 1.971902,0.949302 2.321912,3.25 0.59252,3.894782 0.196159,4.75 -2.201447,4.75 -1.231117,0 -2.015838,-0.999275 -2.436524,-3.102706 z M 70.593292,75.82973 c -2.028074,-2.895481 -2.039421,-5.721304 -0.02608,-6.493897 2.196939,-0.843045 3.586765,0.887413 3.773443,4.698271 0.195431,3.989548 -1.606062,4.852769 -3.747368,1.795626 z M 62.748848,59.151979 c -1.581982,-2.678082 -1.592413,-3.036919 -0.123713,-4.255832 1.377487,-1.143212 1.94732,-0.931948 4.036065,1.496363 2.719303,3.161379 2.635294,4.965347 -0.251278,5.39582 -1.258646,0.187701 -2.536384,-0.732402 -3.661074,-2.636351 z M 176.49127,178.01413 c 0.36913,-0.59726 -0.69762,-3.21897 -2.37056,-5.82602 -5.95053,-9.27309 -10.36082,-24.75142 -11.90382,-41.7776 L 161.5,122.5 l -4.67073,-0.30155 c -4.26254,-0.2752 -4.78806,-0.0567 -6.01347,2.5 -1.62524,3.39095 -4.19322,3.66624 -4.64241,0.49767 -0.18918,-1.33442 -1.34636,-2.69158 -2.75,-3.22525 -2.20334,-0.8377 -2.42339,-1.48196 -2.42339,-7.0951 0,-5.7871 0.22802,-6.39518 3.64096,-9.70979 l 3.64096,-3.53605 1.81515,2.24162 c 1.50262,1.85565 2.63409,2.18883 6.5714,1.93503 l 4.75625,-0.30658 1.19861,-9.58111 c 0.65923,-5.26961 1.96329,-12.69461 2.89789,-16.5 1.6663,-6.784579 7.8047,-20.764565 11.0326,-25.126319 1.56185,-2.110488 1.5241,-2.234911 -0.85966,-2.833195 -1.37129,-0.344172 -15.10605,-0.475829 -30.5217,-0.292571 -26.59883,0.3162 -28.1724,0.439947 -30.85046,2.426105 -5.29153,3.924408 -9.18439,10.270633 -12.33673,20.111601 -3.137509,9.794664 -6.500426,28.510629 -5.562169,30.955689 0.295378,0.76974 2.016662,1.3398 4.045519,1.3398 3.37517,0 3.53138,-0.15621 3.53138,-3.53138 0,-2.02801 0.5701,-3.750159 1.33916,-4.045273 1.77429,-0.68086 27.8459,14.506273 27.38634,15.952993 C 132.23583,115.91783 108.02076,130 105.85974,130 c -1.28768,0 -1.81956,-0.97325 -2.04937,-3.75 -0.273,-3.29848 -0.65615,-3.78951 -3.18219,-4.07818 -1.579505,-0.1805 -3.303595,0.10359 -3.831314,0.63131 -2.363181,2.36319 3.116055,30.4106 8.180064,41.87254 2.31322,5.23578 9.45925,13.08725 12.34501,13.56367 1.19793,0.19777 14.85009,0.47234 30.33812,0.61015 19.43379,0.17293 28.36804,-0.0859 28.83121,-0.83536 z m -44.09864,-3.43334 C 131.69772,172.7699 134.78094,168 136.64639,168 c 2.25724,0 2.65062,2.61707 0.81459,5.41921 -1.85748,2.83488 -4.2186,3.376 -5.06835,1.16158 z m 8.09229,-14.60519 c -0.9346,-1.51221 0.43593,-6.73125 1.91687,-7.29954 2.2786,-0.87438 3.86545,0.90099 3.08283,3.44909 -1.32,4.29778 -3.62576,6.07353 -4.9997,3.85045 z m 4.59971,-15.9233 C 142.9236,142.71671 144.55908,136 147.04531,136 c 1.55377,0 1.95469,0.69277 1.95469,3.37756 0,3.76294 -1.83867,5.95821 -3.91537,4.67474 z m -0.47764,-51.634087 c -1.05354,-2.745466 -0.65971,-6.184005 0.77115,-6.733079 C 147.46247,84.885304 149,87.014192 149,90.7 c 0,2.571164 -0.41809,3.3 -1.89301,3.3 -1.04116,0 -2.16616,-0.711804 -2.5,-1.581787 z m -3.6346,-16.469798 C 139.52487,73.243693 140.11363,69.5 141.98653,69.5 c 2.27522,0 4.47966,5.233348 2.97044,7.051847 -1.64117,1.977494 -2.68817,1.818936 -3.98458,-0.603432 z M 133.53902,59.419212 C 131.68471,56.589177 132.10176,54 134.41191,54 136.20929,54 139,57.784852 139,60.222506 c 0,2.689973 -3.51044,2.173597 -5.46098,-0.803294 z M 192.5,182 c -0.9233,-1.49394 0.36137,-3 2.55902,-3 1.27431,0 1.94098,0.68694 1.94098,2 0,2.12106 -3.34741,2.86493 -4.5,1 z m 10.84138,-7.55276 c -1.24979,-3.25691 3.56187,-7.94399 5.82838,-5.67748 0.9664,0.9664 0.80115,1.79224 -0.78332,3.91447 -2.52661,3.38412 -4.19875,3.96845 -5.04506,1.76301 z m 7.04356,-14.8865 c -0.76988,-2.00625 1.82764,-7.06074 3.62853,-7.06074 1.8729,0 2.46166,3.74369 1.01414,6.44842 -1.2694,2.37189 -3.83749,2.71059 -4.64267,0.61232 z m 5.30256,-15.20657 c -1.37465,-1.37465 -0.7128,-7.40723 0.87972,-8.01834 2.58332,-0.99131 3.86165,1.17761 2.82482,4.79282 -0.92294,3.21808 -2.41385,4.51621 -3.70454,3.22552 z m 1.525,-17.54167 C 214.78758,124.38758 216.13369,119 219.16449,119 c 1.67148,0 1.90652,0.59685 1.64301,4.17228 -0.32385,4.39409 -1.57462,5.6606 -3.595,3.64022 z m -0.72455,-18.86738 c -0.50132,-2.2825 -0.2498,-3.61184 0.90117,-4.76281 2.21425,-2.21425 3.8439,-0.34796 3.43372,3.93234 -0.44219,4.61444 -3.38017,5.17729 -4.33489,0.83047 z M 214.93444,91.327551 C 213.66214,87.981149 214.3721,86 216.84362,86 c 1.33222,0 2.09327,0.934459 2.52692,3.102706 0.3413,1.706488 0.37099,3.506488 0.066,4 -1.10403,1.78636 -3.50845,0.838306 -4.50208,-1.775155 z m -2.70396,-14.54984 c -0.58833,-0.708895 -1.3786,-2.519689 -1.75616,-4.023988 -0.51723,-2.06083 -0.27396,-2.893379 0.98683,-3.377188 2.29796,-0.881811 3.69003,0.789439 3.87951,4.657569 0.17088,3.488453 -1.36649,4.844627 -3.11018,2.743607 z m -8.19438,-17.21025 c -1.43184,-2.675424 -0.72141,-5.962564 1.15358,-5.337568 1.93899,0.646329 5.10743,5.480349 4.37202,6.670276 -1.18261,1.913494 -4.17447,1.191891 -5.5256,-1.332708 z M 192.5,50 c -0.9233,-1.493938 0.36137,-3 2.55902,-3 1.27431,0 1.94098,0.686937 1.94098,2 0,2.121059 -3.34741,2.864928 -4.5,1 z"
       id="path3775"
       inkscape:connector-curvature="0" />
  </g>
</svg>
