<?xml version="1.0" encoding="UTF-8" standalone="no"?>
<!-- Created with Inkscape (http://www.inkscape.org/) -->

<svg
   xmlns:dc="http://purl.org/dc/elements/1.1/"
   xmlns:cc="http://creativecommons.org/ns#"
   xmlns:rdf="http://www.w3.org/1999/02/22-rdf-syntax-ns#"
   xmlns:svg="http://www.w3.org/2000/svg"
   xmlns="http://www.w3.org/2000/svg"
   xmlns:sodipodi="http://sodipodi.sourceforge.net/DTD/sodipodi-0.dtd"
   xmlns:inkscape="http://www.inkscape.org/namespaces/inkscape"
   version="1.1"
   id="svg11454"
   width="221"
   height="228"
   viewBox="0 0 221 228"
   sodipodi:docname="postgres-logo.svg"
   inkscape:version="0.92.4 (unknown)">
  <metadata
     id="metadata11460">
    <rdf:RDF>
      <cc:Work
         rdf:about="">
        <dc:format>image/svg+xml</dc:format>
        <dc:type
           rdf:resource="http://purl.org/dc/dcmitype/StillImage" />
        <dc:title></dc:title>
      </cc:Work>
    </rdf:RDF>
  </metadata>
  <defs
     id="defs11458" />
  <sodipodi:namedview
     pagecolor="#ffffff"
     bordercolor="#666666"
     borderopacity="1"
     objecttolerance="10"
     gridtolerance="10"
     guidetolerance="10"
     inkscape:pageopacity="0"
     inkscape:pageshadow="2"
     inkscape:window-width="1920"
     inkscape:window-height="1163"
     id="namedview11456"
     showgrid="false"
     inkscape:zoom="1.0350877"
     inkscape:cx="110.5"
     inkscape:cy="114"
     inkscape:window-x="1920"
     inkscape:window-y="0"
     inkscape:window-maximized="1"
     inkscape:current-layer="svg11454" />
  <g
     id="g12007"
     transform="matrix(0.91074575,0,0,0.91074575,-505.39354,255.19711)"
     style="fill:#ffffff;fill-opacity:1">
    <path
       style="fill:#ffffff;fill-opacity:1"
       d="m 690.856,-42.736033 c -2.04149,-0.54282 -5.69129,-2.72936 -8.11065,-4.85897 -2.5546,-2.24865 -5.30007,-5.96697 -6.54843,-8.86885 -1.18227,-2.74826 -2.85446,-7.74826 -3.71598,-11.1111 -0.86152,-3.36285 -1.86942,-11.59373 -2.23977,-18.29084 -0.67337,-12.17658 -0.67337,-12.17658 -3.17337,-11.81983 -1.375,0.19621 -7.225,0.41089 -13,0.47706 -8.94708,0.10252 -11.16554,-0.20538 -15,-2.08184 -2.475,-1.211187 -5.23587,-2.740997 -6.13526,-3.399567 -1.31039,-0.95953 -2.63853,-0.76582 -6.68538,0.97509 -2.77757,1.19488 -6.73713,2.172507 -8.79902,2.172507 -2.06189,0 -5.67579,-0.932787 -8.03088,-2.072867 -2.35509,-1.14008 -6.49353,-4.49266 -9.19653,-7.45017 -2.76652,-3.02702 -6.92752,-9.44201 -9.52011,-14.67713 -2.53307,-5.11491 -6.81727,-16.04983 -9.52046,-24.29983 -2.70319,-8.25 -6.28618,-21.075 -7.9622,-28.5 -1.67603,-7.425 -3.57965,-17.55 -4.23027,-22.5 -0.66848,-5.08584 -0.92545,-13.13162 -0.59087,-18.5 0.32565,-5.225 1.32776,-11.975 2.22691,-15 0.89915,-3.025 3.01961,-8.11567 4.71213,-11.31259 1.69252,-3.19693 5.3339,-7.84147 8.09197,-10.3212 2.75806,-2.47974 6.35362,-5.20102 7.99014,-6.0473 1.63652,-0.84627 5.48971,-2.42173 8.56266,-3.50102 3.26346,-1.1462 9.6264,-2.19986 15.29921,-2.53344 5.86919,-0.34512 12.7865,-0.0751 17.4821,0.68235 4.27353,0.68939 10.98417,2.0953 14.91252,3.12423 7.14247,1.87079 7.14247,1.87079 13.32967,-0.64329 3.40297,-1.38275 9.64691,-2.99856 13.87544,-3.59069 5.12237,-0.71731 10.67665,-0.76667 16.64261,-0.14792 7.05021,0.73121 10.23999,0.61062 15,-0.56704 3.82023,-0.94516 11.19902,-1.52029 20.04562,-1.56244 8.57028,-0.0408 16.1331,0.45527 19.5,1.27915 3.025,0.74022 9.23734,3.12469 13.8052,5.29882 5.99861,2.85512 10.3586,5.9035 15.69879,10.97616 4.12118,3.91472 8.4121,9.0908 9.6948,11.6947 2.04064,4.14256 2.2956,6.0869 2.25169,17.17152 -0.0318,8.03555 -0.69185,15.53582 -1.84798,21 -0.98915,4.675 -3.58651,13.9 -5.77191,20.5 -2.1854,6.6 -7.08637,18.46347 -10.89104,26.36326 -3.80468,7.89979 -6.71356,14.69338 -6.46419,15.09687 0.24937,0.40349 2.60693,0.37934 5.23902,-0.0537 2.63209,-0.43299 6.88859,-0.81408 9.45889,-0.84687 3.61047,-0.046 5.36527,0.52266 7.716,2.50067 1.80242,1.51664 3.30078,3.93584 3.67579,5.93482 0.34819,1.856 0.10709,4.96827 -0.53577,6.91615 -0.66202,2.00594 -3.19823,5.33143 -5.84906,7.66934 -2.57413,2.27025 -6.71277,5.16024 -9.19698,6.42221 -2.48421,1.26197 -6.48709,2.82505 -8.89529,3.47351 -2.4082,0.64847 -8.02566,1.48157 -12.48325,1.85136 -8.10471,0.67238 -8.10471,0.67238 -9.32388,13.172377 -0.67054,6.875 -1.92547,15.36184 -2.78872,18.85965 -0.86325,3.4978 -2.72368,8.6728 -4.13428,11.5 -1.41061,2.82719 -4.20569,6.86673 -6.21129,8.97675 -2.0056,2.11002 -5.77542,4.92573 -8.37738,6.25714 -2.60197,1.3314 -7.55197,3.08587 -11,3.89882 -3.44804,0.81294 -8.29416,1.43822 -10.76916,1.38951 -2.475,-0.0487 -6.17031,-0.5327 -8.2118,-1.07553 z m 23.60976,-7.85405 c 3.17128,-1.18652 7.28683,-3.49266 9.14566,-5.12473 1.85883,-1.63208 4.28527,-4.43267 5.39209,-6.22353 1.10681,-1.79086 2.6664,-6.1469 3.46575,-9.68007 0.79935,-3.53318 2.4208,-14.07123 3.60323,-23.4179 1.18242,-9.346667 2.33349,-17.177567 2.55792,-17.402007 0.22444,-0.22443 3.51127,-0.31744 7.30408,-0.2067 3.79282,0.11075 9.9436,-0.50542 13.66841,-1.36926 3.72481,-0.86384 8.98418,-2.77443 11.68749,-4.24576 2.70331,-1.47132 6.23413,-4.17741 7.84626,-6.01353 1.61213,-1.83612 2.93115,-4.19059 2.93115,-5.23217 0,-1.04157 -0.74787,-2.64164 -1.66193,-3.5557 -1.19552,-1.19552 -2.66891,-1.50444 -5.25,-1.10076 -1.97344,0.30864 -7.027,0.86034 -11.23014,1.22599 -4.20315,0.36566 -8.81565,0.37028 -10.25,0.0103 -1.43436,-0.36 -2.60793,-1.32991 -2.60793,-2.15536 0,-0.82545 1.08489,-3.2194 2.41087,-5.31989 1.32598,-2.10049 4.8644,-8.72905 7.86315,-14.73013 2.99875,-6.00108 7.10917,-15.12191 9.13425,-20.2685 2.02509,-5.14659 5.07509,-14.59659 6.77777,-21 2.65312,-9.97776 3.11139,-13.50147 3.20488,-24.64256 0.0975,-11.61823 -0.12563,-13.4388 -2.09916,-17.12831 -1.21453,-2.27057 -4.88489,-6.55054 -8.15635,-9.51104 -3.27147,-2.9605 -8.87446,-6.83912 -12.4511,-8.61916 -3.57664,-1.78005 -9.35629,-4.00362 -12.84365,-4.94128 -4.24066,-1.1402 -10.14941,-1.70471 -17.84066,-1.70445 -6.325,2e-4 -14.2,0.62933 -17.5,1.39805 -3.82642,0.89135 -12.15847,1.41732 -23,1.45192 -17,0.0542 -17,0.0542 -23.81356,3.28145 -6.81356,3.2272 -6.81356,3.2272 -15.13953,0.81443 -4.57929,-1.32702 -12.88609,-2.98187 -18.45956,-3.67744 -7.90337,-0.98635 -11.8981,-1.0075 -18.15114,-0.0961 -4.79437,0.69879 -10.55669,2.38039 -14.33356,4.18292 -3.62,1.72767 -8.05427,4.90015 -10.38829,7.43226 -2.23975,2.42985 -5.00639,6.24892 -6.14809,8.48682 -1.14169,2.23791 -2.70253,6.47508 -3.46852,9.41594 -0.766,2.94087 -1.6975,8.69209 -2.06999,12.7805 -0.45513,4.99539 -0.14847,10.9515 0.93497,18.15958 0.88673,5.89935 3.36645,17.82435 5.51049,26.5 2.14405,8.67565 5.54499,20.49069 7.55765,26.25566 2.01266,5.76497 4.9393,13.30456 6.50365,16.75465 1.56435,3.45009 4.75966,9.00347 7.10069,12.34085 2.43653,3.47351 6.02741,7.10582 8.39846,8.49534 2.27812,1.33507 5.35793,2.4274 6.84402,2.4274 1.48609,0 4.40201,-0.86729 6.47983,-1.92731 2.07781,-1.06002 5.86588,-4.46364 8.41793,-7.56359 2.55205,-3.09995 6.9284,-8.14005 9.72523,-11.20022 5.08514,-5.56395 5.08514,-5.56395 11.04223,-4.29977 4.42587,0.93923 5.95709,1.69833 5.95709,2.95322 0,0.92897 -1.0125,2.63673 -2.25,3.79502 -1.2375,1.15829 -5.57356,3.02498 -9.63568,4.14821 -4.06212,1.12322 -8.44962,2.73934 -9.75,3.59138 -1.30038,0.85204 -2.36432,2.40199 -2.36432,3.44433 0,1.04233 0.2805,2.62613 0.62333,3.51954 0.34284,0.89341 2.48034,2.60201 4.75,3.79688 3.37673,1.7777 5.85309,2.17885 13.62667,2.20741 8.55019,0.0314 9.98749,-0.24004 14.37595,-2.7151 2.68178,-1.5125 5.26928,-2.75 5.75,-2.75 0.48073,0 0.88185,5.2875 0.89138,11.749997 0.01,6.4625 0.46116,15.9638 1.00363,21.114 0.54247,5.15019 1.86882,11.35906 2.94745,13.79749 1.07863,2.43842 2.89354,5.61885 4.03314,7.06761 1.13959,1.44876 3.03258,3.30693 4.20664,4.12927 1.17405,0.82234 3.745,2.09947 5.71323,2.83805 2.21227,0.83018 5.89459,1.16541 9.64458,0.87804 3.3363,-0.25566 8.66068,-1.43564 11.83196,-2.62217 z m -21.08865,-4.41822 c -1.75489,-0.76321 -4.53498,-3.24338 -6.178,-5.5115 -1.64302,-2.26812 -3.51607,-6.46356 -4.16233,-9.32321 -0.64627,-2.85965 -1.4678,-16.89936 -1.82563,-31.199357 -0.56743,-22.67613 -0.88009,-26.33864 -2.44572,-28.64887 -0.98732,-1.45688 -3.01069,-3.1022 -4.49638,-3.65627 -1.48569,-0.55406 -3.48875,-1.26045 -4.45125,-1.56974 -0.9625,-0.30929 -1.75,-1.27695 -1.75,-2.15034 0,-0.8734 1.63299,-5.50002 3.62886,-10.28139 1.99588,-4.78136 4.24054,-10.94339 4.98814,-13.69339 0.74759,-2.75 1.3646,-8.89792 1.37113,-13.66203 0.007,-4.76412 -0.64818,-12.11182 -1.45491,-16.32823 -0.80674,-4.2164 -2.38883,-9.15808 -3.51577,-10.9815 -1.12694,-1.82343 -3.70406,-4.10071 -5.72694,-5.06063 -2.25317,-1.06919 -5.8724,-1.71419 -9.34271,-1.66498 -3.11561,0.0442 -8.30033,1.00665 -11.52161,2.13884 -3.22128,1.13219 -6.27193,2.05853 -6.77922,2.05853 -0.52889,0 -0.64851,-2.32988 -0.28041,-5.46183 0.35307,-3.00401 1.78446,-9.07855 3.18087,-13.49899 1.45103,-4.59332 4.36944,-10.71565 6.81092,-14.28817 2.50347,-3.66321 6.50147,-7.81207 9.65744,-10.02185 2.96199,-2.07396 7.62684,-4.43646 10.36633,-5.25 2.73949,-0.81354 8.70206,-1.47916 13.25016,-1.47916 4.5481,0 10.65393,0.49054 13.5685,1.09009 2.91457,0.59955 9.12422,2.91329 13.79922,5.14165 6.70258,3.19481 10.10347,5.66043 16.0828,11.65991 4.17054,4.18459 9.41466,10.75835 11.65359,14.60835 2.23893,3.85 4.34857,7.94655 4.68807,9.10344 0.57258,1.95112 0.1323,2.14874 -6.07979,2.72883 -3.84997,0.35952 -8.61242,1.59092 -11.20243,2.89656 -2.8709,1.44724 -5.16504,3.53523 -6.32379,5.75557 -1.18406,2.26881 -1.81845,5.6335 -1.81845,9.64466 0,3.38815 0.90342,9.08521 2.0076,12.66013 1.10419,3.57493 5.21359,12.73483 9.13201,20.35534 3.91842,7.62051 8.415,15.73655 9.9924,18.03565 1.57739,2.29909 2.86798,4.54909 2.86796,5 -2e-5,0.4509 -1.55527,2.06075 -3.45612,3.57744 -2.27874,1.81821 -3.62452,3.86215 -3.95054,6 -0.27195,1.78331 -1.44943,11.56738 -2.61663,21.74238 -1.16719,10.174997 -2.77269,22.246597 -3.56776,26.825767 -0.79507,4.57918 -2.32715,10.05378 -3.40461,12.16579 -1.07747,2.112 -3.3605,4.83794 -5.0734,6.05763 -1.7129,1.2197 -5.81318,3.05759 -9.11173,4.08422 -3.29855,1.02662 -7.64478,1.84898 -9.65827,1.82745 -2.0135,-0.0215 -5.09672,-0.66359 -6.8516,-1.42679 z m -47.23517,-55.411327 c -1.33423,-0.37285 -2.6037,-1.2114 -2.82104,-1.86344 -0.21735,-0.65205 0.87429,-1.46707 2.42586,-1.81116 1.55157,-0.3441 4.89771,-1.27666 7.43587,-2.07236 3.23867,-1.0153 6.17006,-3.07626 9.83018,-6.91125 2.86845,-3.00549 6.05376,-5.46453 7.07847,-5.46453 1.02471,0 2.56363,1.00013 3.41982,2.22251 0.85618,1.22237 1.5567,3.20913 1.5567,4.41501 0,1.34071 -1.72528,3.71116 -4.44082,6.10148 -2.44246,2.14993 -6.20717,4.43817 -8.36603,5.08498 -2.15885,0.64681 -6.12298,1.13116 -8.80917,1.07634 -2.68619,-0.0548 -5.97562,-0.40474 -7.30984,-0.77758 z m -34.99413,-5.66942 c -2.27327,-2.05376 -5.81355,-7.21021 -8.41053,-12.25 -2.46663,-4.78683 -6.1253,-13.42821 -8.13038,-19.20307 -2.00508,-5.77487 -4.95306,-15.44987 -6.55108,-21.5 -1.59802,-6.05014 -3.91418,-15.95025 -5.14704,-22.00025 -1.57565,-7.73222 -2.21743,-14.26778 -2.16036,-22 0.0631,-8.55015 0.57216,-12.44764 2.28568,-17.5 1.21248,-3.575 3.36109,-8.075 4.7747,-10 1.4136,-1.925 3.51267,-4.30351 4.66459,-5.28558 1.15192,-0.98207 4.1375,-2.85431 6.63461,-4.16054 2.49712,-1.30623 7.19227,-2.86521 10.43366,-3.46442 3.2414,-0.5992 8.17331,-1.07376 10.9598,-1.05457 2.78648,0.0192 8.44134,0.64175 12.56634,1.38347 4.125,0.74172 9.4125,1.86837 11.75,2.50366 2.3375,0.63528 4.25,1.58668 4.25,2.11421 0,0.52752 -1.52114,3.09768 -3.38031,5.71145 -1.85917,2.61378 -4.37668,6.73022 -5.59447,9.14765 -1.21779,2.41743 -3.32994,8.71743 -4.69368,14 -2.18485,8.46322 -2.5364,12.33805 -2.95814,32.60467 -0.26323,12.65 -0.4336,25.24127 -0.3786,27.98059 0.0602,2.99919 1.11584,7.24417 2.65346,10.67044 1.4044,3.12941 3.63307,6.70409 4.95259,7.94372 1.31953,1.23963 2.39915,2.6695 2.39915,3.17748 0,0.50798 -4.32189,5.8388 -9.60419,11.84626 -5.28231,6.00746 -10.42772,11.3634 -11.43426,11.90209 -1.00654,0.53868 -2.75836,0.97942 -3.89293,0.97942 -1.13457,0 -3.82945,-1.59601 -5.98861,-3.54668 z m 129.16999,-3.1156 c -0.6875,-0.27741 -1.25,-1.81689 -1.25,-3.42105 0,-1.60417 0.9,-3.81667 2,-4.91667 1.1,-1.1 2.62004,-2 3.37788,-2 0.75783,0 3.0932,0.71671 5.18971,1.59269 2.77795,1.1607 6.17866,1.49974 12.53809,1.25 4.79944,-0.18848 9.01274,-0.0565 9.36289,0.29324 0.35015,0.34977 -0.87539,1.57041 -2.72342,2.71256 -1.84802,1.14214 -6.01623,2.76847 -9.26269,3.61406 -3.24646,0.8456 -8.62061,1.50192 -11.94256,1.4585 -3.32194,-0.0434 -6.6024,-0.30592 -7.2899,-0.58333 z m -88.99836,-19.41747 c -2.33659,-1.17019 -5.44527,-3.54347 -6.90816,-5.27394 -1.4629,-1.73047 -3.5216,-5.08572 -4.57489,-7.4561 -1.05329,-2.37039 -1.94106,-6.42039 -1.97281,-9 -0.0317,-2.57962 0.20438,-11.44021 0.52474,-19.69021 0.32035,-8.25 0.60429,-15.32992 0.63097,-15.73316 0.0267,-0.40323 2.32242,-1.88543 5.10165,-3.29377 2.77923,-1.40834 7.47641,-3.00859 10.43817,-3.5561 4.22259,-0.78059 6.13958,-0.68021 8.88044,0.465 1.92248,0.80326 4.15837,2.7425 4.96867,4.30942 0.81028,1.56693 1.96517,5.51003 2.56641,8.76244 0.60124,3.25242 1.08368,9.99334 1.07208,14.97983 -0.0164,7.05163 -0.55337,10.51076 -2.41638,15.56634 -1.31741,3.575 -3.68404,9.875 -5.25917,14 -2.60947,6.83376 -3.12768,7.52433 -5.83362,7.77394 -1.63336,0.15067 -4.8815,-0.68349 -7.2181,-1.85369 z m 14.74836,-57.00322 c 0,-1.11164 -1.23543,-2.16966 -3.34738,-2.86666 -1.84106,-0.60761 -4.11485,-0.81023 -5.05287,-0.45028 -1.02289,0.39252 -1.58428,1.49405 -1.40263,2.75215 0.16658,1.15373 1.37968,2.63251 2.69577,3.28618 1.74577,0.86708 3.03034,0.89805 4.75,0.11452 1.29641,-0.59069 2.35711,-1.86684 2.35711,-2.83591 z m 80.46803,51.33297 c 0.3751,-0.9625 1.38697,-4.45 2.24859,-7.75 1.36106,-5.21285 1.40516,-7.70769 0.33615,-19.01669 -0.96542,-10.21317 -0.9704,-14.79503 -0.0231,-21.27356 0.66402,-4.54128 1.01541,-10.90989 0.78087,-14.15245 -0.30217,-4.17738 -1.49446,-8.03208 -4.09106,-13.22644 -2.01553,-4.03197 -5.94383,-10.34305 -8.72955,-14.02461 -2.78572,-3.68156 -7.86057,-8.90762 -11.27744,-11.61345 -3.41686,-2.70584 -7.70368,-5.68255 -9.52626,-6.61491 -1.82258,-0.93237 -3.13722,-2.2249 -2.92142,-2.87229 0.2158,-0.6474 2.382,-1.54894 4.81378,-2.00344 2.43178,-0.4545 8.24642,-0.58452 12.92142,-0.28893 4.675,0.2956 10.975,1.26646 14,2.15749 3.025,0.89102 8.07658,2.98399 11.22573,4.65104 3.14915,1.66706 8.00727,5.21854 10.79582,7.89218 2.78856,2.67364 5.72448,6.42731 6.52428,8.34149 0.8408,2.01232 1.45417,6.69658 1.45417,11.10537 0,4.19376 -0.91829,12.13117 -2.04065,17.63866 -1.12236,5.5075 -3.64178,14.80319 -5.59873,20.65709 -1.95694,5.85389 -5.7814,15.36845 -8.49878,21.14345 -2.71739,5.775 -6.36804,12.8625 -8.11256,15.75 -1.74452,2.8875 -3.57492,5.25 -4.06756,5.25 -0.49263,0 -0.5888,-0.7875 -0.21369,-1.75 z m -8.75248,-9.5 c -1.36098,-2.3375 -4.49033,-8.3 -6.95413,-13.25 -2.46379,-4.95 -5.27078,-11.41244 -6.23775,-14.36097 -0.96696,-2.94854 -1.78603,-7.44854 -1.82013,-10 -0.0341,-2.55147 0.48448,-5.65153 1.15241,-6.88903 0.66793,-1.2375 2.24214,-2.92339 3.49823,-3.74642 1.2561,-0.82302 4.95277,-1.74632 8.21482,-2.05177 3.26205,-0.30545 6.57587,-0.1171 7.36404,0.41855 1.22535,0.83277 1.25069,2.36764 0.17487,10.59057 -0.99904,7.63611 -1.00834,12.2345 -0.0452,22.32786 0.9338,9.78529 0.94222,13.68949 0.0366,16.96121 -0.64703,2.3375 -1.56632,4.25 -2.04286,4.25 -0.47654,0 -1.97996,-1.9125 -3.34093,-4.25 z m -2.64981,-41.78519 c 1.06384,-0.56935 1.93426,-1.91935 1.93426,-3 0,-1.56527 -0.68683,-1.96481 -3.37756,-1.96481 -1.88332,0 -3.96802,0.71147 -4.71225,1.60821 -1.13401,1.3664 -1.0485,1.81748 0.56869,3 1.04686,0.76548 2.29695,1.39179 2.77799,1.39179 0.48104,0 1.74503,-0.46584 2.80887,-1.03519 z"
       id="path12013"
       inkscape:connector-curvature="0" />
  </g>
</svg>
