<?xml version="1.0" encoding="UTF-8" standalone="no"?>
<!-- Created with Inkscape (http://www.inkscape.org/) -->

<svg
   xmlns:dc="http://purl.org/dc/elements/1.1/"
   xmlns:cc="http://creativecommons.org/ns#"
   xmlns:rdf="http://www.w3.org/1999/02/22-rdf-syntax-ns#"
   xmlns:svg="http://www.w3.org/2000/svg"
   xmlns="http://www.w3.org/2000/svg"
   xmlns:sodipodi="http://sodipodi.sourceforge.net/DTD/sodipodi-0.dtd"
   xmlns:inkscape="http://www.inkscape.org/namespaces/inkscape"
   version="1.1"
   id="svg3557"
   width="247.97473"
   height="193.23746"
   viewBox="0 0 247.97473 193.23746"
   sodipodi:docname="project-management-logo.svg"
   inkscape:version="0.92.4 (unknown)">
  <metadata
     id="metadata3563">
    <rdf:RDF>
      <cc:Work
         rdf:about="">
        <dc:format>image/svg+xml</dc:format>
        <dc:type
           rdf:resource="http://purl.org/dc/dcmitype/StillImage" />
        <dc:title></dc:title>
      </cc:Work>
    </rdf:RDF>
  </metadata>
  <defs
     id="defs3561" />
  <sodipodi:namedview
     pagecolor="#ffffff"
     bordercolor="#666666"
     borderopacity="1"
     objecttolerance="10"
     gridtolerance="10"
     guidetolerance="10"
     inkscape:pageopacity="0"
     inkscape:pageshadow="2"
     inkscape:window-width="1920"
     inkscape:window-height="1163"
     id="namedview3559"
     showgrid="false"
     inkscape:zoom="1.1859296"
     inkscape:cx="123.13349"
     inkscape:cy="97.929187"
     inkscape:window-x="1920"
     inkscape:window-y="0"
     inkscape:window-maximized="1"
     inkscape:current-layer="svg3557" />
  <g
     id="g4116"
     transform="translate(-516.88769,-88.513762)"
     style="fill:#ffffff">
    <path
       style="fill:#ffffff"
       d="m 540.65045,280.6176 c -9.987,-3.26309 -16.08563,-8.47423 -21.06748,-18.00169 -2.27536,-4.35145 -2.67421,-6.36558 -2.69461,-13.60744 -0.0201,-7.13862 0.40069,-9.40578 2.62741,-14.15538 3.30151,-7.04218 9.66992,-13.36415 16.84864,-16.72579 4.53828,-2.12518 6.98628,-2.57931 14,-2.59718 7.28384,-0.0186 9.30474,0.37355 14.12453,2.74052 6.6438,3.26271 14.15284,10.92008 17.18124,17.5206 3.2766,7.14149 3.07501,18.8346 -0.45453,26.36519 -5.46968,11.67004 -16.32853,18.90065 -29.29655,19.50775 -4.19055,0.19618 -8.76553,-0.22873 -11.26865,-1.04658 z m 20.25482,-10.976 c 16.81917,-7.83202 18.01818,-31.21029 2.10527,-41.04849 -12.03898,-7.44313 -28.37938,-2.798 -34.20998,9.72496 -9.59927,20.61729 11.30238,41.01036 32.10471,31.32353 z m -12.48457,-5.52795 c -0.55774,-1.04215 -2.40872,-2.38099 -4.11328,-2.9752 -2.17354,-0.7577 -2.99005,-1.61049 -2.73372,-2.85519 0.29356,-1.42553 1.21628,-1.71957 4.68877,-1.4942 4.07931,0.26476 7.10194,-0.96362 7.10194,-2.88619 0,-0.47339 -2.23385,-1.99268 -4.9641,-3.37621 -4.89763,-2.48181 -7.0359,-4.89687 -7.0359,-7.94664 0,-1.61215 8.23752,-10.57155 9.71977,-10.57155 0.45966,0 1.60635,0.9 2.5482,2 0.94185,1.1 2.42315,2 3.29179,2 1.06603,0 1.47528,0.73129 1.25918,2.25 -0.26913,1.89136 -0.85769,2.20689 -3.69243,1.97953 -3.48514,-0.27952 -6.52723,1.31308 -5.54473,2.90279 0.30786,0.49814 2.72175,2.00128 5.3642,3.34031 7.79972,3.95242 8.07551,7.60112 1.10164,14.57499 -2.72381,2.72381 -5.18298,4.95238 -5.46482,4.95238 -0.28184,0 -0.96877,-0.85267 -1.52651,-1.89482 z m 172.80687,16.38772 c -18.76738,-6.0203 -28.77509,-27.33957 -21.0411,-44.82354 2.84394,-6.42919 10.39575,-14.13767 17.0534,-17.40719 4.80244,-2.35844 6.86692,-2.76217 14.12454,-2.76217 7.27027,0 9.31881,0.4021 14.15966,2.77935 7.44026,3.65377 13.4171,9.5863 16.68898,16.56527 2.21779,4.73056 2.65103,7.04538 2.64937,14.15538 -0.002,7.77087 -0.29417,9.03915 -3.4081,14.78522 -4.01244,7.40408 -8.45068,11.57496 -15.98958,15.02639 -6.82052,3.12253 -17.4465,3.85964 -24.23717,1.68129 z m 20.67508,-10.61588 c 19.25451,-9.05069 17.18947,-37.20127 -3.22316,-43.93805 -1.93986,-0.64021 -6.14449,-0.97469 -9.34362,-0.74329 -19.28009,1.3946 -28.69305,24.09741 -16.16454,38.98671 6.17744,7.34147 19.57756,9.99741 28.73132,5.69463 z m -5.53824,-14.30655 -7.5,-2.26257 v -12.40395 c 0,-12.04323 0.0644,-12.41311 2.21465,-12.71887 2.70928,-0.38525 3.1848,1.26333 3.5335,12.25045 l 0.25185,7.93553 7,2.09774 c 6.20788,1.86036 7,2.37688 7,4.56447 0,3.31319 -2.88683,3.43725 -12.5,0.5372 z m -146.77278,-0.82047 c -0.5805,-0.71304 -0.73321,-2.96828 -0.35548,-5.25 l 0.66218,-4 h 50.96608 50.96607 l 0.66219,4 c 0.37772,2.28172 0.22502,4.53696 -0.35549,5.25 -0.78964,0.96992 -12.2781,1.25 -51.27277,1.25 -38.99467,0 -50.48314,-0.28008 -51.27278,-1.25 z m 90.02278,-65.15324 c -12.2375,-17.26736 -22.25,-32.07886 -22.25,-32.91443 0,-0.83556 1.61191,-2.51542 3.58203,-3.73302 3.03427,-1.87528 3.7816,-2.00244 4.88708,-0.83156 2.00568,2.12434 43.69001,61.13334 44.29063,62.69851 0.59113,1.54049 -4.4188,6.0939 -6.75974,6.14377 -0.8471,0.0181 -11.18474,-13.63341 -23.75,-31.36327 z m -106.5,28.30993 c -1.5125,-1.14043 -2.75,-2.53288 -2.75,-3.09435 0,-1.12551 40.09919,-58.15105 43.06445,-61.24247 1.82059,-1.89804 1.90987,-1.89864 5.3686,-0.036 1.93447,1.04178 3.71379,2.40639 3.95403,3.03245 0.64026,1.6685 -43.13663,62.88815 -45.17422,63.17377 -0.94208,0.13205 -2.95036,-0.69299 -4.46286,-1.83341 z m 57.20056,-64.20515 c -9.05983,-2.56994 -18.14969,-10.53805 -22.27472,-19.52587 -3.25761,-7.09783 -3.04714,-18.81329 0.47291,-26.32363 3.37239,-7.19528 9.51348,-13.334696 16.70329,-16.698739 4.7138,-2.205541 7.05629,-2.643509 14.16277,-2.647961 7.59679,-0.0048 9.22993,0.346389 15.14773,3.256984 7.92098,3.895827 8.85922,5.561756 5.25252,9.326336 l -2.64713,2.76302 -5.75767,-2.92584 c -17.61029,-8.948903 -37.38534,3.479 -35.80765,22.50382 0.94961,11.45104 10.20431,20.53816 21.76885,21.37466 14.66989,1.06112 25.99342,-9.34877 26.01877,-23.91946 0.0113,-6.51586 2.78348,-11.20743 6.31606,-10.68928 4.62515,0.6784 4.91757,15.36613 0.49692,24.95981 -6.72888,14.60299 -24.53742,22.89052 -39.85265,18.54615 z m 1.55245,-27.82867 c -4.12665,-3.91992 -7.50301,-7.90017 -7.50301,-8.84501 0,-0.94483 0.86257,-2.49849 1.91681,-3.45257 2.35048,-2.12715 3.9859,-1.3819 9.53614,4.34555 2.17412,2.24354 4.43037,4.07916 5.01389,4.07916 0.58352,0 7.12344,-6.075 14.53316,-13.5 7.40972,-7.425 14.19622,-13.499995 15.08112,-13.499995 1.69625,0 4.92659,3.013725 4.90784,4.578741 -0.0154,1.283584 -33.58002,33.421254 -34.90522,33.421254 -0.59274,0 -4.45407,-3.2072 -8.58073,-7.12713 z"
       id="path4120"
       inkscape:connector-curvature="0" />
  </g>
</svg>
