<?xml version="1.0" encoding="UTF-8" standalone="no"?>
<!-- Created with Inkscape (http://www.inkscape.org/) -->

<svg
   xmlns:dc="http://purl.org/dc/elements/1.1/"
   xmlns:cc="http://creativecommons.org/ns#"
   xmlns:rdf="http://www.w3.org/1999/02/22-rdf-syntax-ns#"
   xmlns:svg="http://www.w3.org/2000/svg"
   xmlns="http://www.w3.org/2000/svg"
   xmlns:sodipodi="http://sodipodi.sourceforge.net/DTD/sodipodi-0.dtd"
   xmlns:inkscape="http://www.inkscape.org/namespaces/inkscape"
   version="1.1"
   id="svg9044"
   width="225"
   height="225"
   viewBox="0 0 225 225"
   sodipodi:docname="python-logo.svg"
   inkscape:version="0.92.4 (unknown)">
  <metadata
     id="metadata9050">
    <rdf:RDF>
      <cc:Work
         rdf:about="">
        <dc:format>image/svg+xml</dc:format>
        <dc:type
           rdf:resource="http://purl.org/dc/dcmitype/StillImage" />
        <dc:title></dc:title>
      </cc:Work>
    </rdf:RDF>
  </metadata>
  <defs
     id="defs9048" />
  <sodipodi:namedview
     pagecolor="#ffffff"
     bordercolor="#666666"
     borderopacity="1"
     objecttolerance="10"
     gridtolerance="10"
     guidetolerance="10"
     inkscape:pageopacity="0"
     inkscape:pageshadow="2"
     inkscape:window-width="1920"
     inkscape:window-height="1163"
     id="namedview9046"
     showgrid="false"
     inkscape:zoom="1.0488889"
     inkscape:cx="112.5"
     inkscape:cy="112.5"
     inkscape:window-x="1920"
     inkscape:window-y="0"
     inkscape:window-maximized="1"
     inkscape:current-layer="g9597" />
  <g
     id="g9597"
     transform="translate(1.9067756,1.9067793)">
    <path
       style="fill:#fffff7;stroke-width:0.95756668;fill-opacity:1"
       d="m 99.859991,217.27232 c -4.83973,-0.43156 -11.48799,-1.4813 -14.773917,-2.33277 -3.285925,-0.85147 -8.037571,-2.59361 -10.559213,-3.87142 -2.521642,-1.27781 -6.026909,-3.7654 -7.789482,-5.52798 -1.762573,-1.76257 -3.931502,-4.73633 -4.81984,-6.60838 -1.408044,-2.96723 -1.615162,-7.23885 -1.615162,-33.31123 0,-18.72558 0.38833,-31.20367 1.038639,-33.37421 0.571251,-1.90666 2.187145,-5.1521 3.590875,-7.21206 1.616719,-2.37253 4.833697,-5.00349 8.776419,-7.17766 6.224183,-3.43227 6.224183,-3.43227 40.69658,-3.97658 28.5828,-0.45131 35.1616,-0.80999 38.50633,-2.09943 2.21867,-0.85533 5.33771,-2.51906 6.93122,-3.6972 1.5935,-1.17813 4.02184,-3.7648 5.39633,-5.74817 1.37447,-1.98337 3.17767,-5.461009 4.00712,-7.728089 1.03989,-2.842274 1.6796,-9.175773 2.06054,-20.400598 0.55246,-16.278634 0.55246,-16.278634 11.3143,-16.549286 9.25653,-0.232795 11.42818,0.016 15.52576,1.778734 2.68449,1.154837 6.62117,4.034933 9.01882,6.598218 2.3402,2.501859 5.10206,6.225931 6.13747,8.275716 1.03542,2.049787 2.69129,6.312314 3.67973,9.472284 1.52395,4.87198 1.79715,8.875156 1.79715,26.333081 0,17.67811 -0.25537,21.33199 -1.80701,25.8543 -0.99385,2.89664 -2.64036,6.92535 -3.65891,8.95269 -1.01853,2.02734 -3.51612,5.49155 -5.5502,7.69827 -2.03407,2.2067 -5.77387,5.07247 -8.31068,6.36837 -4.61237,2.35619 -4.61237,2.35619 -45.78773,2.83497 -41.17537,0.47879 -41.17537,0.47879 -41.17537,3.83027 0,3.35148 0,3.35148 25.46791,3.60623 25.46791,0.25476 25.46791,0.25476 26.03567,11.96959 0.31227,6.44316 0.22404,13.5286 -0.19607,15.74544 -0.4201,2.21683 -1.48679,5.13399 -2.37042,6.48257 -0.88363,1.34859 -3.38343,3.73912 -5.55513,5.31228 -2.17169,1.57317 -7.28022,3.91278 -11.35229,5.19915 -4.4281,1.39883 -11.96763,2.73922 -18.75915,3.33499 -6.24547,0.54789 -12.6481,0.94134 -14.22809,0.87435 -1.57998,-0.067 -6.83247,-0.47489 -11.672199,-0.90644 z m 47.044539,-18.22908 c 1.42702,-1.12248 3.00623,-3.12363 3.50936,-4.44698 0.60744,-1.59768 0.55661,-3.4914 -0.15127,-5.6363 -0.63845,-1.93457 -2.16724,-3.79965 -3.81145,-4.6499 -1.50996,-0.78084 -3.88526,-1.4197 -5.27843,-1.4197 -1.39317,0 -3.76837,0.87963 -5.2782,1.95473 -1.70677,1.21532 -2.97304,3.16936 -3.34757,5.16579 -0.34692,1.8492 -0.11158,4.16758 0.55489,5.46641 0.63651,1.24045 2.0764,2.99985 3.19975,3.9098 1.12335,0.90994 3.38478,1.66403 5.0254,1.67574 1.64063,0.0117 4.15051,-0.89711 5.57752,-2.01959 z M 27.65809,162.26703 c -2.417838,-0.75339 -6.363465,-3.10157 -8.768061,-5.21818 -2.404595,-2.1166 -5.444146,-5.67853 -6.754555,-7.91538 -1.31041,-2.23685 -3.264497,-6.75446 -4.342417,-10.03916 C 6.715137,135.80962 5.320032,128.70801 4.692823,123.31295 4.0181525,117.50964 3.8090814,109.53416 4.1808723,103.78348 4.526509,98.437331 5.465665,91.534536 6.267885,88.443928 c 0.802219,-3.090606 2.485397,-7.867775 3.740394,-10.61593 1.254997,-2.748155 4.266638,-7.118585 6.692536,-9.712068 2.486634,-2.658413 6.588615,-5.700217 9.403252,-6.972937 4.954034,-2.240111 5.30445,-2.2598 45.449718,-2.553622 40.457195,-0.296106 40.457195,-0.296106 40.457195,-3.590875 0,-3.29477 0,-3.29477 -24.657345,-3.309433 C 73.792097,51.680963 62.221855,51.357819 61.641987,50.970888 61.0205,50.556185 60.35779,45.278694 60.027689,38.115419 59.702012,31.048163 59.869322,24.508896 60.427543,22.487185 c 0.527915,-1.911952 2.434255,-5.10827 4.23631,-7.102929 1.802054,-1.994659 5.860055,-4.7861 9.017779,-6.2032028 3.157725,-1.417102 8.656847,-3.193812 12.220273,-3.948244 3.563425,-0.754432 11.649816,-1.654148 17.969755,-1.9993686 7.09379,-0.3874916 15.33819,-0.182199 21.54525,0.5364946 5.52995,0.640294 13.32364,2.241272 17.31931,3.557731 3.99567,1.316459 9.35067,3.9756078 11.90001,5.9092188 2.54933,1.933612 5.65216,5.445351 6.89518,7.803865 2.26002,4.288207 2.26002,4.288207 1.9847,35.90875 -0.24517,28.158227 -0.46366,31.998796 -1.99545,35.075039 -0.94607,1.899972 -3.10059,4.876062 -4.78783,6.613542 -1.68724,1.737479 -5.43768,4.276549 -8.33432,5.642379 -5.26662,2.48335 -5.26662,2.48335 -40.2178,2.96526 -34.951183,0.48192 -34.951183,0.48192 -39.871019,3.07381 -2.70591,1.42554 -6.452941,4.38298 -8.326736,6.57209 -1.873794,2.1891 -4.140845,5.97675 -5.037892,8.41699 -1.191334,3.2408 -1.786128,8.954 -2.206498,21.19422 -0.575505,16.75741 -0.575505,16.75741 -10.629955,16.9457 -6.533791,0.12236 -11.593775,-0.29136 -14.45052,-1.1815 z M 88.274332,35.523086 c 2.546627,-2.275411 3.105435,-3.481579 3.105435,-6.702967 0,-3.000683 -0.616661,-4.544922 -2.611544,-6.539806 -1.994884,-1.994883 -3.539123,-2.611544 -6.539806,-2.611544 -3.221388,0 -4.427556,0.558808 -6.702967,3.105435 -1.665298,1.863792 -2.76114,4.15227 -2.740775,5.723638 0.01866,1.44001 0.604724,3.648033 1.302359,4.906717 0.697635,1.258683 2.29826,2.859308 3.556943,3.556943 1.258684,0.697635 3.466707,1.283696 4.906717,1.302359 1.571368,0.02037 3.859846,-1.075477 5.723638,-2.740775 z"
       id="path9601"
       inkscape:connector-curvature="0" />
    <path
       style="fill:#ffffff;stroke-width:0.95756668;fill-opacity:1"
       d="m 27.65809,162.26703 c -2.417838,-0.75339 -6.363465,-3.10157 -8.768061,-5.21818 -2.404595,-2.1166 -5.444146,-5.67853 -6.754555,-7.91538 -1.31041,-2.23685 -3.264497,-6.75446 -4.342417,-10.03916 C 6.715137,135.80962 5.320032,128.70801 4.692823,123.31295 4.0181525,117.50964 3.8090814,109.53416 4.1808723,103.78348 4.526509,98.437331 5.465665,91.534536 6.267885,88.443928 c 0.802219,-3.090606 2.485397,-7.867775 3.740394,-10.61593 1.254997,-2.748155 4.266638,-7.118585 6.692536,-9.712068 2.486634,-2.658413 6.588615,-5.700217 9.403252,-6.972937 4.954034,-2.240111 5.30445,-2.2598 45.449718,-2.553622 40.457195,-0.296106 40.457195,-0.296106 40.457195,-3.590875 0,-3.29477 0,-3.29477 -24.657345,-3.309433 C 73.792097,51.680963 62.221855,51.357819 61.641987,50.970888 61.0205,50.556185 60.35779,45.278694 60.027689,38.115419 59.702012,31.048163 59.869322,24.508896 60.427543,22.487185 c 0.527915,-1.911952 2.434255,-5.10827 4.23631,-7.102929 1.802054,-1.994659 5.860055,-4.7861 9.017779,-6.2032028 3.157725,-1.417102 8.656847,-3.193812 12.220273,-3.948244 3.563425,-0.754432 11.649816,-1.654148 17.969755,-1.9993686 7.09379,-0.3874916 15.33819,-0.182199 21.54525,0.5364946 5.52995,0.640294 13.32364,2.241272 17.31931,3.557731 3.99567,1.316459 9.35067,3.9756078 11.90001,5.9092188 2.54933,1.933612 5.65216,5.445351 6.89518,7.803865 2.26002,4.288207 2.26002,4.288207 1.9847,35.90875 -0.24517,28.158227 -0.46366,31.998796 -1.99545,35.075039 -0.94607,1.899972 -3.10059,4.876062 -4.78783,6.613542 -1.68724,1.737479 -5.43768,4.276549 -8.33432,5.642379 -5.26662,2.48335 -5.26662,2.48335 -40.2178,2.96526 -34.951183,0.48192 -34.951183,0.48192 -39.871019,3.07381 -2.70591,1.42554 -6.452941,4.38298 -8.326736,6.57209 -1.873794,2.1891 -4.140845,5.97675 -5.037892,8.41699 -1.191334,3.2408 -1.786128,8.954 -2.206498,21.19422 -0.575505,16.75741 -0.575505,16.75741 -10.629955,16.9457 -6.533791,0.12236 -11.593775,-0.29136 -14.45052,-1.1815 z M 88.274332,35.523086 c 2.546627,-2.275411 3.105435,-3.481579 3.105435,-6.702967 0,-3.000683 -0.616661,-4.544922 -2.611544,-6.539806 -1.994884,-1.994883 -3.539123,-2.611544 -6.539806,-2.611544 -3.221388,0 -4.427556,0.558808 -6.702967,3.105435 -1.665298,1.863792 -2.76114,4.15227 -2.740775,5.723638 0.01866,1.44001 0.604724,3.648033 1.302359,4.906717 0.697635,1.258683 2.29826,2.859308 3.556943,3.556943 1.258684,0.697635 3.466707,1.283696 4.906717,1.302359 1.571368,0.02037 3.859846,-1.075477 5.723638,-2.740775 z"
       id="path9599"
       inkscape:connector-curvature="0" />
  </g>
</svg>
