<?xml version="1.0" encoding="UTF-8" standalone="no"?>
<!-- Created with Inkscape (http://www.inkscape.org/) -->

<svg
   xmlns:dc="http://purl.org/dc/elements/1.1/"
   xmlns:cc="http://creativecommons.org/ns#"
   xmlns:rdf="http://www.w3.org/1999/02/22-rdf-syntax-ns#"
   xmlns:svg="http://www.w3.org/2000/svg"
   xmlns="http://www.w3.org/2000/svg"
   xmlns:sodipodi="http://sodipodi.sourceforge.net/DTD/sodipodi-0.dtd"
   xmlns:inkscape="http://www.inkscape.org/namespaces/inkscape"
   version="1.1"
   id="svg896"
   width="154.82724"
   height="138.39226"
   viewBox="0 0 154.82724 138.39226"
   sodipodi:docname="react-js-logo.svg"
   inkscape:version="0.92.4 (unknown)">
  <metadata
     id="metadata902">
    <rdf:RDF>
      <cc:Work
         rdf:about="">
        <dc:format>image/svg+xml</dc:format>
        <dc:type
           rdf:resource="http://purl.org/dc/dcmitype/StillImage" />
        <dc:title></dc:title>
      </cc:Work>
    </rdf:RDF>
  </metadata>
  <defs
     id="defs900" />
  <sodipodi:namedview
     pagecolor="#ffffff"
     bordercolor="#666666"
     borderopacity="1"
     objecttolerance="10"
     gridtolerance="10"
     guidetolerance="10"
     inkscape:pageopacity="0"
     inkscape:pageshadow="2"
     inkscape:window-width="1299"
     inkscape:window-height="704"
     id="namedview898"
     showgrid="false"
     inkscape:zoom="1.2486772"
     inkscape:cx="176.75279"
     inkscape:cy="39.135754"
     inkscape:window-x="67"
     inkscape:window-y="27"
     inkscape:window-maximized="1"
     inkscape:current-layer="svg896" />
  <g
     id="g1449"
     transform="translate(-56.052296,-24.87485)"
     style="fill:#ffffff;fill-opacity:1">
    <path
       style="fill:#ffffff;fill-opacity:1"
       d="m 94.181971,160.96959 c -6.559703,-3.99932 -9.55981,-17.16224 -7.267235,-31.88488 1.350609,-8.67345 1.62361,-8.25206 -8.078694,-12.46982 -31.031027,-13.48972 -30.288558,-32.792975 1.763445,-45.847312 7.481161,-3.046974 7.481161,-3.046974 6.690837,-7.657276 -6.254357,-36.484373 11.050314,-48.482869 39.165036,-27.155758 4.51999,3.428748 7.36794,4.97316 8.13371,4.410806 11.8728,-8.719052 15.45479,-11.017205 20.2386,-12.984815 20.16849,-8.295424 28.20155,3.920625 24.94167,37.929354 -0.25128,2.621464 0.2042,2.99508 6.79238,5.57157 30.63565,11.980929 32.56026,31.204051 4.43828,44.329821 -4.675,2.18203 -9.175,4.32366 -10,4.75919 -1.11346,0.58781 -1.37115,1.91767 -1,5.1607 4.3812,38.2815 -11.45763,48.86302 -39.8664,26.63372 -6.3664,-4.98158 -6.3664,-4.98158 -9,-2.87364 -16.44578,13.16324 -28.63639,17.14797 -36.951629,12.07834 z m 18.408309,-7.93213 c 3.25034,-1.62939 8.09535,-4.89189 10.76668,-7.25 L 128.21391,141.5 121.96207,134 c -7.53083,-9.03434 -6.44706,-8.40915 -17.26699,-9.9608 -10.286101,-1.4751 -9.410868,-1.92432 -10.809602,5.54799 -4.036423,21.56334 3.534552,31.0551 18.704802,23.45027 z m 57.34479,1.02747 c 4.32995,-4.32995 5.61083,-26.85236 1.74688,-30.71632 -3.6468,-3.64679 -19.78755,2.47681 -26.01899,9.87128 -6.69394,7.94329 -6.8111,8.712 -1.91296,12.55178 12.12607,9.50596 21.88238,12.59595 26.18507,8.29326 z m -31.97701,-22.66994 c 1.74088,-1.98276 2.9375,-3.83276 2.65915,-4.11112 -0.66006,-0.66005 -13.57436,-0.66005 -14.23442,0 C 125.61393,128.05274 132.02195,135 133.5,135 c 0.71105,0 2.71718,-1.62226 4.45806,-3.60501 z m 5.2023,-12.38398 c 7.97174,-0.0188 20.46453,-21.857717 16.74191,-29.266851 C 149.67241,69.383693 149.18407,69 133.5,69 c -15.68407,0 -16.17241,0.383693 -26.40227,20.744159 -2.31871,4.614934 4.00911,20.021281 11.60547,28.255841 0.74298,0.8054 12.48079,1.81461 16.2968,1.40119 1.925,-0.20855 5.59716,-0.38413 8.16036,-0.39018 z m -18.61321,-14.10375 c -9.46146,-8.307278 -5.29448,-23.279698 6.86027,-24.649714 14.65355,-1.651668 22.05992,14.978861 10.99673,24.692474 -5.04705,4.43136 -12.78235,4.41284 -17.857,-0.0428 z M 108,115.89738 c 0,-6.12311 -7.26453,-12.44591 -8.902175,-7.74816 -1.648063,4.72764 -1.340082,6.81785 1.152175,7.81962 3.18185,1.27894 7.75,1.23682 7.75,-0.0715 z m 58.4349,0.12737 c 2.81919,-1.07185 3.17441,-2.97845 1.46727,-7.87553 -1.51928,-4.35823 -2.95055,-3.95129 -6.15217,1.74918 -4.02664,7.16942 -2.68232,8.92736 4.6849,6.12635 z M 93.582957,103.35379 C 100.21829,85.636673 92.257231,72.850843 78.661928,79.38992 c -20.443168,9.832769 -20.53195,19.215321 -0.275899,29.1572 11.452039,5.62077 11.102096,5.74036 15.196928,-5.19333 z m 94.974273,5.19526 c 15.21825,-7.40325 18.96231,-13.962842 11.96408,-20.961076 -6.41337,-6.413365 -21.40645,-13.63622 -23.37705,-11.261793 -3.27155,3.941967 -7.26798,18.534257 -5.84595,21.345439 0.7869,1.555609 2.22662,5.30338 3.19936,8.32838 2.78741,8.66816 1.83569,8.49561 14.05956,2.54905 z m -81.9477,-32.809245 c 2.10827,-4.65389 1.68093,-5.111733 -3.76951,-4.038623 -5.10619,1.00533 -5.840318,2.971091 -3.341158,8.946552 1.826998,4.368323 3.400358,3.282354 7.110668,-4.907929 z m 61.48612,3.335265 c 1.58771,-5.299292 0.82591,-6.67209 -4.14346,-7.466725 -5.65292,-0.903938 -5.87446,-0.388042 -2.55557,5.950963 3.37769,6.451311 5.10333,6.841762 6.69903,1.515762 z M 106.91123,63.892212 c 8.08687,-1.23796 8.08687,-1.23796 14.08782,-8.549515 7.41941,-9.039809 7.41602,-9.239793 -0.24905,-14.66658 C 100.24023,26.155411 91.842027,29.984613 93.311696,53.18675 c 0.580947,9.171604 1.966806,13.304092 4.177171,12.455896 0.734516,-0.281861 4.974583,-1.069555 9.422363,-1.750434 z M 171.86186,64.25 c 3.33251,-6.255844 2.37573,-24.625762 -1.524,-29.260323 C 165.96144,29.7886 154.16515,33.1435 143.15502,42.72056 l -4.34498,3.77944 6.53069,7.99715 c 6.53069,7.99715 6.53069,7.99715 15.34498,9.617383 4.84786,0.891128 9.13596,1.67991 9.52911,1.75285 0.39315,0.07294 1.13432,-0.654883 1.64704,-1.617383 z M 140.39424,61.171131 C 141.09323,60.040135 135.17978,53 133.53079,53 c -1.771,0 -7.73047,6.867894 -6.99379,8.05987 0.71614,1.158729 13.14817,1.258546 13.85724,0.111261 z"
       id="path1451"
       inkscape:connector-curvature="0" />
  </g>
</svg>
