<?xml version="1.0" encoding="UTF-8" standalone="no"?>
<!-- Created with Inkscape (http://www.inkscape.org/) -->

<svg
   xmlns:dc="http://purl.org/dc/elements/1.1/"
   xmlns:cc="http://creativecommons.org/ns#"
   xmlns:rdf="http://www.w3.org/1999/02/22-rdf-syntax-ns#"
   xmlns:svg="http://www.w3.org/2000/svg"
   xmlns="http://www.w3.org/2000/svg"
   xmlns:sodipodi="http://sodipodi.sourceforge.net/DTD/sodipodi-0.dtd"
   xmlns:inkscape="http://www.inkscape.org/namespaces/inkscape"
   version="1.1"
   id="svg2182"
   width="351.8168"
   height="123.14761"
   viewBox="0 0 351.8168 123.14761"
   sodipodi:docname="ruby-on-rails-log.svg"
   inkscape:version="0.92.4 (unknown)">
  <metadata
     id="metadata2188">
    <rdf:RDF>
      <cc:Work
         rdf:about="">
        <dc:format>image/svg+xml</dc:format>
        <dc:type
           rdf:resource="http://purl.org/dc/dcmitype/StillImage" />
        <dc:title></dc:title>
      </cc:Work>
    </rdf:RDF>
  </metadata>
  <defs
     id="defs2186" />
  <sodipodi:namedview
     pagecolor="#ffffff"
     bordercolor="#666666"
     borderopacity="1"
     objecttolerance="10"
     gridtolerance="10"
     guidetolerance="10"
     inkscape:pageopacity="0"
     inkscape:pageshadow="2"
     inkscape:window-width="1299"
     inkscape:window-height="704"
     id="namedview2184"
     showgrid="false"
     inkscape:zoom="0.95901639"
     inkscape:cx="166.53992"
     inkscape:cy="123.66898"
     inkscape:window-x="67"
     inkscape:window-y="27"
     inkscape:window-maximized="1"
     inkscape:current-layer="svg2182" />
  <g
     id="g2735"
     transform="translate(-16.460082,-69.521368)"
     style="fill:#ffffff;fill-opacity:1">
    <path
       style="fill:#ffffff;fill-opacity:1"
       d="m 22.342594,189.77137 c 0.0034,-12.93404 14.868525,-47.45956 28.141491,-65.3608 42.086724,-56.762363 101.849125,-61.004603 159.857795,-11.34753 8.08007,6.91678 7.81396,11.49735 -0.3327,5.72669 C 148.8673,75.480034 88.181615,105.21373 90.6497,177.27137 l 0.522336,15.25 H 56.756958 c -34.415078,0 -34.415078,0 -34.414364,-2.75 z m 107.234986,-28.45933 0.2643,-31.29067 17,-0.28234 c 18.4648,-0.30666 22.61185,0.48124 28.46764,5.40857 9.6835,8.14812 7.56535,30.57125 -3.3784,35.7644 -4.94608,2.34707 -4.68323,3.06872 4.41076,12.10937 10.02935,9.97052 10.21651,9.5 -3.77889,9.5 H 160.7841 l -6.44222,-6.5 c -7.88248,-7.95317 -7.83541,-7.95174 -8.20228,-0.25 l -0.29772,6.25 -8.2643,0.29067 -8.26431,0.29068 z m 32.72912,-3.72493 c 3.87541,-7.24128 -9.4e-4,-12.29629 -9.09959,-11.86645 l -6.36523,0.30071 -0.29569,6.75 -0.29569,6.75 h 7.51051 c 6.40196,0 7.66329,-0.2855 8.54569,-1.93426 z m 28.03518,10.40214 c 0,-36.3075 3.17529,-40.2559 30.69957,-38.17424 17.75515,1.34282 18.72566,3.18643 19.09705,36.27737 l 0.29662,26.42899 h -8.04662 c -8.04662,0 -8.04662,0 -8.04662,-4.37756 0,-5.87142 -1.36872,-6.7811 -9.65999,-6.42018 -6.84001,0.29774 -6.84001,0.29774 -7.14227,5.54774 l -0.30226,5.25 h -8.44774 -8.44774 z m 33,-12.99263 c 0,-9.47169 -0.79925,-10.47525 -8.34259,-10.47525 -6.0709,0 -7.65741,2.15268 -7.65741,10.39003 0,8.90118 -0.29313,8.60997 8.66667,8.60997 h 7.33333 z m 25.66667,36.85808 c -1.27976,-1.27976 -0.76896,-59.83105 0.53333,-61.13333 1.24225,-1.24225 12.39391,-1.6768 15.21821,-0.59301 1.39515,0.53537 1.58179,4.2521 1.58179,31.5 v 30.89301 h -8.33333 c -4.58334,0 -8.63334,-0.3 -9,-0.66667 z m 25.33333,-30.20605 c 0,-35.13137 -0.87725,-32.12728 9.38179,-32.12728 8.93052,0 8.61821,-0.89393 8.61821,24.66826 v 22.26827 l 11.75,0.28173 11.75,0.28174 v 7.5 7.5 l -20.75,0.27029 -20.75,0.27029 z m 48.41714,29.51739 c -0.28605,-0.74543 -0.38442,-4.23293 -0.21861,-7.75 l 0.30147,-6.39467 14.23782,-0.27738 c 14.2334,-0.2773 14.23801,-0.27816 14.86167,-2.76299 1.06706,-4.25153 -0.84696,-5.23807 -10.89305,-5.61458 -13.94498,-0.52264 -19.63331,-5.97941 -19.68448,-18.88316 -0.0591,-14.91242 7.22199,-19.89321 29.14625,-19.93804 15.40962,-0.0315 14.83179,-0.36173 14.83179,8.47615 0,8.86999 0.68101,8.5 -15.64515,8.5 -12.48157,0 -12.48157,0 -12.16821,3.25 0.31336,3.25 0.31336,3.25 9.81336,3.81869 10.56284,0.63232 12.37229,1.31342 16.75726,6.30763 7.42206,8.45325 4.47826,26.43685 -5.06915,30.96739 -4.67541,2.21863 -35.43714,2.47388 -36.27097,0.30096 z M 99.59188,187.5483 c -4.09441,-1.85852 -4.25,-2.09568 -4.25,-6.47804 0,-8.45559 8.73292,-5.09805 9.72916,3.74057 0.5989,5.31339 0.40697,5.40928 -5.47916,2.73747 z m -80.5,-29.18921 c -3.124945,-1.14133 -3.329927,-2.20831 -1.338186,-6.9656 1.993156,-4.76066 2.238499,-4.86988 7.167224,-3.19049 4.881812,1.6634 5.209725,2.59646 2.73575,7.78444 -1.794493,3.76309 -3.478368,4.22937 -8.564788,2.37165 z m 79.372528,-4.2073 c -2.268058,-2.41423 -2.219441,-6.3855 0.114491,-9.35233 1.472761,-1.87213 5.695821,1.61532 5.717901,4.72191 0.0493,6.9381 -2.07788,8.62691 -5.832392,4.63042 z m 12.068612,-28.11026 c -1.68351,-3.6949 2.51068,-8.67548 5.11368,-6.07248 2.01739,2.01738 2.12374,4.40397 0.30313,6.80232 -1.87556,2.47074 -4.09476,2.17174 -5.41681,-0.72984 z M 48.030422,114.49101 c -3.292271,-2.5897 -3.36891,-3.98184 -0.374091,-6.79533 2.957655,-2.77857 3.811653,-2.73344 6.712895,0.3548 3.707791,3.94676 -2.059513,9.80663 -6.338804,6.44053 z m 84.300398,-3.99031 c -1.36199,-2.54491 -0.75808,-3.51556 3.00303,-4.82669 2.54852,-0.88842 3.14584,-0.76367 4.00184,0.83579 1.50231,2.8071 1.25817,3.57573 -1.54086,4.85105 -3.48885,1.58963 -4.21403,1.47547 -5.46401,-0.86015 z m 29.26106,-2.99165 c -2.47223,-1.01442 -2.52151,-1.11657 -1.64301,-3.4059 1.26179,-3.28818 8.88697,-1.40019 8.23119,2.03804 -0.40742,2.13609 -3.26832,2.73008 -6.58818,1.36786 z M 81.927061,84.339518 c -1.704874,-2.434048 -0.820562,-4.29128 2.553112,-5.362042 4.145323,-1.315675 6.745482,4.465359 2.927448,6.508708 -2.803011,1.500127 -3.768106,1.298205 -5.48056,-1.146666 z m 81.164819,-2.984817 c -2.65421,-0.965166 -3.94499,-4.976753 -1.99009,-6.184947 1.89321,-1.170073 7.38161,2.331279 7.062,4.50525 -0.38865,2.643661 -1.4523,2.995918 -5.07191,1.679697 z m -44.08333,-7.5 c -2.15575,-2.155744 -0.53444,-4.333333 3.22634,-4.333333 3.81038,0 5.91188,1.888646 4.55122,4.090242 -0.64742,1.047539 -6.7814,1.23926 -7.77756,0.243091 z"
       id="path2737"
       inkscape:connector-curvature="0" />
  </g>
</svg>
