<?xml version="1.0" encoding="UTF-8" standalone="no"?>
<!-- Created with Inkscape (http://www.inkscape.org/) -->

<svg
   xmlns:dc="http://purl.org/dc/elements/1.1/"
   xmlns:cc="http://creativecommons.org/ns#"
   xmlns:rdf="http://www.w3.org/1999/02/22-rdf-syntax-ns#"
   xmlns:svg="http://www.w3.org/2000/svg"
   xmlns="http://www.w3.org/2000/svg"
   xmlns:sodipodi="http://sodipodi.sourceforge.net/DTD/sodipodi-0.dtd"
   xmlns:inkscape="http://www.inkscape.org/namespaces/inkscape"
   version="1.1"
   id="svg4689"
   width="273.07843"
   height="168.04561"
   viewBox="0 0 273.07843 168.04561"
   sodipodi:docname="spectral-analysis-logo.svg"
   inkscape:version="0.92.4 (unknown)">
  <metadata
     id="metadata4695">
    <rdf:RDF>
      <cc:Work
         rdf:about="">
        <dc:format>image/svg+xml</dc:format>
        <dc:type
           rdf:resource="http://purl.org/dc/dcmitype/StillImage" />
        <dc:title></dc:title>
      </cc:Work>
    </rdf:RDF>
  </metadata>
  <defs
     id="defs4693" />
  <sodipodi:namedview
     pagecolor="#ffffff"
     bordercolor="#666666"
     borderopacity="1"
     objecttolerance="10"
     gridtolerance="10"
     guidetolerance="10"
     inkscape:pageopacity="0"
     inkscape:pageshadow="2"
     inkscape:window-width="773"
     inkscape:window-height="480"
     id="namedview4691"
     showgrid="false"
     inkscape:zoom="1.2826087"
     inkscape:cx="127.1611"
     inkscape:cy="125.18285"
     inkscape:window-x="67"
     inkscape:window-y="27"
     inkscape:window-maximized="0"
     inkscape:current-layer="g5242" />
  <g
     id="g5242"
     transform="translate(0.01702886,-10.933849)">
    <path
       style="fill:#ffffff;fill-opacity:1"
       d="m 6.6916139,175.75 c -3.6152216,-4.87496 -6.94490084,-12.20298 -6.52021658,-14.34981 0.24182289,-1.22245 1.20059978,0.29463 2.68813018,4.25343 5.5826301,14.85721 9.4686955,13.97874 17.1971205,-3.88751 6.688714,-15.46269 9.715419,-15.35887 17.355864,0.59532 8.53892,17.83032 9.69619,17.90566 18.087488,1.17748 9.365778,-18.67083 10.192721,-18.51661 20.744117,3.86856 5.386389,11.42742 8.000426,11.43085 13.460986,0.0177 10.738447,-22.44458 11.411417,-22.57007 20.794897,-3.87754 8.49235,16.91735 9.19596,16.84347 18.5,-1.94245 7.62322,-15.39216 10.63697,-15.15193 17.49891,1.39486 7.41801,17.88769 10.11736,17.74079 18.3752,-1 7.12539,-16.17074 9.66141,-15.85621 18.62589,2.31011 7.66383,15.53057 9.37161,15.5252 16.64868,-0.0524 8.86179,-18.96986 10.84571,-18.9963 19.33838,-0.25775 7.21677,15.92338 8.80401,15.88505 17.01294,-0.41084 9.02611,-17.91809 10.00951,-17.91959 19,-0.0289 7.62926,15.18189 10.0709,15.98037 15.10499,4.93974 1.25389,-2.75 2.30572,-4.14929 2.3374,-3.10953 0.0732,2.40206 -3.76032,10.13479 -6.05293,12.20956 -3.34036,3.02299 -5.6012,0.87827 -10.9822,-10.41812 -8.53737,-17.92261 -13.5893,-18.26262 -18.99892,-1.27867 -4.87745,15.31315 -10.36496,16.3807 -16.48569,3.20713 -9.96863,-21.45536 -10.82635,-21.61121 -19.49433,-3.54212 C 192.35854,183.43264 191.12316,183.37843 182,164.73774 174.07582,148.54686 171.89252,148.7039 164.45149,166 c -7.17174,16.67013 -10.79879,16.73434 -17.81975,0.31547 -7.58241,-17.73182 -9.63565,-17.91555 -17.63174,-1.57773 -9.04495,18.48088 -10.58174,18.63991 -18.46885,1.91115 C 102.09632,148.75841 99.520972,148.52411 92.407073,165 84.465332,183.39318 81.626606,183.54553 73.918854,165.99218 66.250187,148.52784 63.937088,148.52884 55.759832,166 47.847875,182.90434 46.225982,182.85647 37.5,165.46109 28.91093,148.33865 27.281037,148.38763 19.567303,166 13.760421,179.25856 10.899891,181.42467 6.6916139,175.75 Z M 19.201656,142.87079 C 14.948866,140.76571 0.88638581,125.60066 0.15709343,122.33304 -0.4277149,119.71278 2.2606305,122.00358 8.9675032,129.84058 22.391418,145.52645 25.214805,145.28262 43.031881,126.89874 59.47569,109.93181 60.38093,109.96032 78,128 c 17.268405,17.68064 19.426238,17.68872 34.44426,0.12898 15.22881,-17.80622 20.85582,-17.83761 35.93999,-0.20052 14.5274,16.98609 20.73212,17.31825 33.38669,1.78728 15.95615,-19.583 20.32217,-19.8927 36.43178,-2.58426 16.90883,18.16714 20.26139,18.37873 34.40152,2.17125 C 260.9834,119.69852 266.81226,115 270.34786,115 c 3.9846,0 3.21634,1.25287 -2.32792,3.79635 -3.77701,1.73274 -7.02913,4.66463 -13.46229,12.13669 -15.52032,18.02672 -20.75265,18.02606 -36.1734,-0.005 -14.91212,-17.43592 -17.34101,-17.47122 -33.81657,-0.49149 -18.50401,19.07027 -20.42976,19.03423 -37.96588,-0.7105 -14.34403,-16.15062 -18.49306,-15.95049 -33.51931,1.61684 -14.872746,17.38786 -19.967917,17.51844 -34.751276,0.89062 C 61.369008,113.15542 58.580898,113.09935 42.323872,131.50985 30.79724,144.56335 26.694034,146.57943 19.201656,142.87079 Z M 43,110.10863 C 37.743902,108.41201 32.218779,104.93851 24.5,98.478181 14.324206,89.961417 9.3234959,86.513364 4.1387427,84.438837 -0.0527402,82.761738 -1.5055754,80 1.8036557,80 5.3027659,80 13.607429,85.071384 23,92.943907 44.497955,110.96274 50.881443,110.98612 71.974749,93.123289 92.763429,75.51843 100.14562,75.494797 121,92.966342 c 21.55883,18.061728 27.44117,18.061728 49,0 20.96571,-17.564815 28.13431,-17.487715 49.52841,0.532693 20.02345,16.865895 27.4739,17.189295 45.42515,1.971749 C 268.50303,92.461853 271.79852,90 272.27689,90 c 4.23062,0 -9.59929,13.06811 -18.77361,17.73951 -10.83348,5.51619 -17.89457,3.37165 -34.88169,-10.593994 C 196.98897,79.360664 191.91444,79.344296 170.46248,96.990173 148.4744,115.07706 142.38978,115.07145 120.4323,96.944109 99.110117,79.341248 93.8825,79.347343 72.5,97 57.929706,109.02873 50.240132,112.44568 43,110.10863 Z M 0,74.746892 C 0,72.899215 2.0715343,72.000272 6.3317875,71.999211 10.74946,71.998111 19.925201,67.436769 32.55315,58.96434 59.477442,40.900112 68.344955,41.087969 96.971279,60.329026 121.30061,76.681878 130.15123,76.486678 156.5,59.016119 c 26.95777,-17.874356 35.96273,-17.859738 62.67528,0.101737 20.60585,13.855346 32.60228,16.208862 46.78842,9.179173 6.72886,-3.334373 7.69233,-3.449007 6.67352,-0.794019 C 271.21392,71.21206 259.07598,75.5 250,75.5 239.77339,75.5 234.7016,73.390274 217.5,61.980872 191.50353,44.738047 183.80802,44.863715 156.5,62.977006 129.67985,80.766696 121.62716,80.53276 92.000142,61.10324 67.277548,44.890063 59.394002,45.13833 32.5,62.977006 16.055338,73.884679 0,79.699125 0,74.746892 Z M 119.5,40.512577 C 112.20684,38.534963 106.86923,36.068787 93.696723,28.590498 60.939055,9.9933361 53.634584,10.258595 14.5,31.466498 2.137907,38.165792 0,38.936538 0,36.69396 0,35.534767 20.534953,23.647932 34.765349,16.569736 52.830833,7.5839682 66.406661,9.2768962 92.628278,23.785338 124.74707,41.556692 133.80137,42.233011 159,28.743034 201.77867,5.8416609 207.94559,5.5529167 242.05034,24.854493 c 7.83302,4.433101 17.74421,9.143657 22.47978,10.684115 C 270.13088,37.360512 273,38.798216 273,39.782835 273,43.955011 261.79813,39.604096 231.4385,23.639952 207.35982,10.978543 197.7331,11.789896 166.69988,29.096212 144.88824,41.259924 132.92617,44.153221 119.5,40.512577 Z"
       id="path5244"
       inkscape:connector-curvature="0" />
  </g>
</svg>
