<?xml version="1.0" encoding="UTF-8" standalone="no"?>
<!-- Created with Inkscape (http://www.inkscape.org/) -->

<svg
   xmlns:dc="http://purl.org/dc/elements/1.1/"
   xmlns:cc="http://creativecommons.org/ns#"
   xmlns:rdf="http://www.w3.org/1999/02/22-rdf-syntax-ns#"
   xmlns:svg="http://www.w3.org/2000/svg"
   xmlns="http://www.w3.org/2000/svg"
   xmlns:sodipodi="http://sodipodi.sourceforge.net/DTD/sodipodi-0.dtd"
   xmlns:inkscape="http://www.inkscape.org/namespaces/inkscape"
   version="1.1"
   id="svg1678"
   width="110.65781"
   height="111.45335"
   viewBox="0 0 110.65781 111.45335"
   sodipodi:docname="sumologic-logo.svg"
   inkscape:version="0.92.4 (unknown)">
  <metadata
     id="metadata1684">
    <rdf:RDF>
      <cc:Work
         rdf:about="">
        <dc:format>image/svg+xml</dc:format>
        <dc:type
           rdf:resource="http://purl.org/dc/dcmitype/StillImage" />
        <dc:title></dc:title>
      </cc:Work>
    </rdf:RDF>
  </metadata>
  <defs
     id="defs1682" />
  <sodipodi:namedview
     pagecolor="#ffffff"
     bordercolor="#666666"
     borderopacity="1"
     objecttolerance="10"
     gridtolerance="10"
     guidetolerance="10"
     inkscape:pageopacity="0"
     inkscape:pageshadow="2"
     inkscape:window-width="1920"
     inkscape:window-height="1163"
     id="namedview1680"
     showgrid="false"
     inkscape:zoom="4.1955556"
     inkscape:cx="68.676346"
     inkscape:cy="68.868609"
     inkscape:window-x="1920"
     inkscape:window-y="0"
     inkscape:window-maximized="1"
     inkscape:current-layer="svg1678" />
  <g
     id="g2237"
     transform="matrix(0.97846085,0,0,0.97846085,-54.509613,-35.245062)"
     style="fill:#ffffff;fill-opacity:1;stroke:none;stroke-opacity:1">
    <path
       style="fill:#ffffff;fill-opacity:1;stroke:none;stroke-opacity:1"
       d="m 58.241373,148.17034 c -0.991722,-0.62959 -1.203783,-12.4487 -1,-55.734689 L 57.5,37.5 h 55 55 l 0.25863,54.935651 c 0.20378,43.285989 -0.008,55.105099 -1,55.734689 -1.64453,1.04402 -106.872729,1.04402 -108.517257,0 z m 80.326737,-27.63435 c 8.5038,-3.55312 8.47614,-17.91446 -0.0423,-21.95672 C 130.22013,94.63797 122,99.921131 122,109.20057 c 0,10.0313 7.46528,15.13883 16.56811,11.33542 z m -8.3456,-5.09269 c -4.67696,-3.27587 -2.02984,-13.4433 3.5,-13.4433 2.50589,0 5.27749,3.93879 5.27749,7.5 0,6.0146 -4.41128,9.00151 -8.77749,5.9433 z m -42.829499,3.97491 C 87.726855,118.54823 88,114.73906 88,110.9534 c 0,-5.93064 0.285583,-7.03587 2.063922,-7.98761 3.592069,-1.92242 4.934095,0.35612 4.951391,8.40665 0.01699,7.90937 0.812259,9.99796 3.604514,9.46645 1.592133,-0.30306 1.956773,-1.53881 2.380173,-8.06635 0.57385,-8.84699 2.29728,-11.75417 5.84311,-9.8565 1.80219,0.9645 2.11478,2.19913 2.36667,9.34762 L 109.5,120.5 h 2.5 2.5 l 0.29059,-8.86358 c 0.21643,-6.60172 -0.0939,-9.45039 -1.21612,-11.1631 -1.99493,-3.044657 -6.65909,-4.016812 -10.24853,-2.136114 -2.46213,1.29004 -3.14562,1.290282 -5.63689,0.002 -1.923527,-0.994694 -3.856481,-1.21944 -6.012039,-0.699024 C 89.929655,98.06204 87.15,98.428081 85.5,98.453601 l -3,0.0464 -0.288369,9.928819 c -0.158603,5.46085 -0.06023,10.52335 0.218615,11.25 0.706326,1.84066 4.227388,1.65576 4.962765,-0.26061 z M 98.685549,85.825686 c 4.805951,-4.514958 2.287691,-9.802297 -5.781342,-12.138499 -2.862013,-0.82863 -4.5178,-1.919255 -4.750823,-3.129247 -0.325448,-1.689912 0.141831,-1.798606 5.184411,-1.20595 3.614521,0.424816 5.778042,0.269599 6.220476,-0.446274 1.200169,-1.941914 -2.273869,-4.17211 -7.233603,-4.643688 C 85.975594,63.658349 82,66.459786 82,71.537396 c 0,3.74198 1.300674,4.808048 8.359674,6.851818 2.415045,0.699221 4.262922,1.8896 4.451235,2.86743 0.483002,2.508028 -3.968246,3.230474 -7.77504,1.261905 C 83.912555,80.90342 81,81.661955 81,84.090507 c 0,3.85357 13.971494,5.224352 17.685549,1.735179 z m 44.411831,0.556978 c 0.53763,-0.647808 0.84816,-5.61142 0.69007,-11.030248 L 143.5,65.5 140.75,65.183578 138,64.867155 v 7.132164 C 138,80.223168 136.88612,83 133.58726,83 130.03001,83 129.1234,81.09855 128.79795,72.955318 L 128.5,65.5 h -2.5 -2.5 l -0.28629,8.569002 c -0.24939,7.464365 -0.0141,8.915055 1.82528,11.253437 l 2.11158,2.684436 7.48465,-0.223189 c 4.25519,-0.126888 7.90642,-0.731398 8.46216,-1.401022 z"
       id="path2239"
       inkscape:connector-curvature="0"
       sodipodi:nodetypes="sscccscssssssssscssscscscccscsccscsccsssssssssssscccccssscccsccsc" />
  </g>
</svg>
