<?xml version="1.0" encoding="UTF-8" standalone="no"?>
<!-- Created with Inkscape (http://www.inkscape.org/) -->

<svg
   xmlns:dc="http://purl.org/dc/elements/1.1/"
   xmlns:cc="http://creativecommons.org/ns#"
   xmlns:rdf="http://www.w3.org/1999/02/22-rdf-syntax-ns#"
   xmlns:svg="http://www.w3.org/2000/svg"
   xmlns="http://www.w3.org/2000/svg"
   xmlns:sodipodi="http://sodipodi.sourceforge.net/DTD/sodipodi-0.dtd"
   xmlns:inkscape="http://www.inkscape.org/namespaces/inkscape"
   version="1.1"
   id="svg5874"
   width="266.66666"
   height="266.66666"
   viewBox="0 0 266.66666 266.66666"
   sodipodi:docname="tango-image-ccby.svg"
   inkscape:version="0.92.4 (unknown)">
  <metadata
     id="metadata5880">
    <rdf:RDF>
      <cc:Work
         rdf:about="">
        <dc:format>image/svg+xml</dc:format>
        <dc:type
           rdf:resource="http://purl.org/dc/dcmitype/StillImage" />
        <dc:title></dc:title>
      </cc:Work>
    </rdf:RDF>
  </metadata>
  <defs
     id="defs5878" />
  <sodipodi:namedview
     pagecolor="#ffffff"
     bordercolor="#666666"
     borderopacity="1"
     objecttolerance="10"
     gridtolerance="10"
     guidetolerance="10"
     inkscape:pageopacity="0"
     inkscape:pageshadow="2"
     inkscape:window-width="1299"
     inkscape:window-height="704"
     id="namedview5876"
     showgrid="false"
     inkscape:zoom="0.88500003"
     inkscape:cx="-19.774011"
     inkscape:cy="133.33333"
     inkscape:window-x="67"
     inkscape:window-y="27"
     inkscape:window-maximized="1"
     inkscape:current-layer="svg5874" />
  <path
     style="fill:#000000;stroke-width:1.07658029"
     d="m 35.313217,234.23095 c -14.490259,-5.32797 -5.523455,-20.44575 13.489473,-22.74288 5.938914,-0.71753 14.657111,-2.22402 19.373775,-3.34776 4.716662,-1.12375 8.652803,-1.96032 8.746981,-1.85907 0.305914,0.32891 -31.04897,25.98212 -33.403879,27.3296 -2.407154,1.37739 -5.509307,1.6118 -8.20635,0.62011 z m 51.675852,-1.04159 C 69.366355,227.67579 75.707937,208.06173 98.03403,199.0281 c 12.349,-4.99666 20.20941,-9.74806 28.45045,-17.19749 5.01479,-4.5331 11.10386,-6.26551 11.10386,-3.1592 0,1.24265 -39.530894,51.38839 -41.448338,52.57806 -2.709383,1.68105 -7.042385,2.59959 -9.150933,1.93989 z m 133.814061,-0.66677 c -13.17328,-7.32252 -41.33763,-57.12308 -48.69899,-86.11017 -2.47398,-9.74186 -0.96157,-10.58255 -15.8526,8.81193 -0.18364,0.23916 -3.62097,-1.08028 -7.63852,-2.93209 -4.01756,-1.85182 -9.14592,-4.0044 -11.39635,-4.7835 -5.21643,-1.80598 -5.2248,-1.77067 2.99458,-12.636 6.81752,-9.01219 11.37264,-20.12061 11.37264,-27.73409 0,-1.39677 0.82194,-2.7586 1.88401,-3.12154 7.56895,-2.58644 17.99322,-8.67208 23.6805,-13.824562 7.29937,-6.61295 6.63309,-6.4791 17.90943,-3.59783 4.7965,1.22557 4.94556,8.642062 0.60617,30.160332 -4.5189,22.40844 10.66195,60.34434 36.7868,91.92769 12.58911,15.21946 4.10045,32.59362 -11.64767,23.83983 z m -91.4431,-1.82512 c -8.94788,-3.61091 -7.85168,-9.44498 6.00159,-31.94095 13.28028,-21.56553 12.91979,-19.97757 4.96834,-21.8851 -7.15054,-1.71539 -7.24711,-2.1173 -1.52066,-6.32859 12.96202,-9.53237 29.53197,-10.14639 33.22476,-1.23119 1.98092,4.78235 1.77691,5.21659 -16.11655,34.30481 -17.18614,27.93836 -19.24089,30.03363 -26.55748,27.08102 z M 40.094888,207.44575 c 11.290846,-17.46128 35.570537,-41.78011 53.635714,-53.72217 5.21622,-3.44821 6.500958,-4.95286 8.074348,-9.45647 1.94961,-5.58044 2.94298,-6.352 10.69518,-8.30696 5.05384,-1.27449 8.93951,-5.34309 8.93951,-9.36039 0,-6.68854 -6.2578,-12.0077 -12.33282,-10.48297 -2.81845,0.70739 -2.94246,0.58347 -2.3621,-2.36025 0.33689,-1.70876 0.9328,-6.0136 1.32425,-9.56632 2.03365,-18.457172 13.71593,-26.013297 24.94213,-16.132612 2.96237,2.60732 2.96237,2.60732 -3.62107,2.64134 -8.25032,0.0426 -12.25671,2.65725 -12.25671,7.998852 0,6.69477 3.39576,8.38708 16.03016,7.98882 13.5218,-0.42622 16.48552,13.84041 3.96218,19.073 -7.71259,3.22252 -8.97156,22.02927 -1.57375,23.50884 3.96088,0.79216 20.85202,8.58394 21.74673,10.03162 0.34773,0.56266 -2.85478,2.1403 -7.11672,3.50588 -9.23592,2.95929 -11.40226,4.40468 -23.45874,15.6517 -17.39839,16.2303 -47.668582,27.92252 -81.177025,31.35556 -7.477496,0.7661 -7.477496,0.7661 -5.451267,-2.36747 z m 60.272962,-72.69997 c -1.385451,-2.2417 -2.516528,-9.01075 -1.910816,-11.43545 0.592202,-2.37062 3.071446,-3.45698 11.934946,-5.22968 7.04792,-1.40959 11.83486,8.3727 6.47219,13.22619 -3.81673,3.45434 -15.04071,5.79417 -16.49632,3.43894 z m 20.6104,-31.70903 c -5.44037,-5.44038 -0.7994,-10.150622 10.00132,-10.150622 14.67483,0 27.74757,-4.74949 37.35766,-13.572508 5.8225,-5.345642 5.85484,-5.362256 5.85484,-3.00813 0,0.946674 1.45298,3.078508 3.22884,4.737411 8.33251,7.783737 -22.0667,23.629949 -45.40772,23.669699 -7.07428,0.0121 -9.754,-0.39492 -11.03494,-1.67585 z m 16.12024,-14.403422 c -4.06559,-4.49242 6.29762,-20.983633 13.42413,-21.362133 8.26506,-0.43897 15.66356,12.111611 9.40303,15.951003 -9.13467,5.602 -20.26639,8.24075 -22.82716,5.41113 z m 69.39099,-1.82598 c -24.47202,-4.643618 -30.14425,-7.146209 -30.14425,-13.299665 0,-7.797685 4.43962,-9.019964 19.57938,-5.390443 9.80816,2.351348 11.64333,2.564749 11.63768,1.353268 -0.005,-1.070639 -19.99138,-5.664971 -24.61238,-5.657727 -3.41075,0.0054 -10.911,6.074221 -10.911,8.828705 0,0.476408 -0.36334,0.865596 -0.80744,0.864864 -0.44409,-7.33e-4 -0.7752,-3.513076 -0.73581,-7.805207 0.13324,-14.5157 8.14556,-15.054316 34.6029,-2.326128 23.83153,11.464944 24.80563,27.875323 1.39092,23.432333 z M 97.216582,82.580464 C 78.249593,72.715915 84.350896,44.440017 105.44644,44.440017 c 16.01116,0 25.44311,17.866181 16.55539,31.359546 -4.82847,7.330585 -17.21342,10.718935 -24.785248,6.780901 z M 142.13956,62.616531 c -18.20218,-9.009905 -16.39198,-35.26132 2.87634,-41.7126 14.16391,-4.742257 29.17617,6.260076 29.17617,21.382926 0,16.451511 -17.484,27.540943 -32.05251,20.329674 z"
     id="path5884"
     inkscape:connector-curvature="0" />
</svg>
