<?xml version="1.0" encoding="UTF-8" standalone="no"?>
<!-- Created with Inkscape (http://www.inkscape.org/) -->

<svg
   xmlns:dc="http://purl.org/dc/elements/1.1/"
   xmlns:cc="http://creativecommons.org/ns#"
   xmlns:rdf="http://www.w3.org/1999/02/22-rdf-syntax-ns#"
   xmlns:svg="http://www.w3.org/2000/svg"
   xmlns="http://www.w3.org/2000/svg"
   xmlns:sodipodi="http://sodipodi.sourceforge.net/DTD/sodipodi-0.dtd"
   xmlns:inkscape="http://www.inkscape.org/namespaces/inkscape"
   version="1.1"
   id="svg5874"
   width="266.66666"
   height="266.66666"
   viewBox="0 0 266.66666 266.66666"
   sodipodi:docname="tango-image-ccby.svg"
   inkscape:version="0.92.4 (unknown)">
  <metadata
     id="metadata5880">
    <rdf:RDF>
      <cc:Work
         rdf:about="">
        <dc:format>image/svg+xml</dc:format>
        <dc:type
           rdf:resource="http://purl.org/dc/dcmitype/StillImage" />
        <dc:title />
      </cc:Work>
    </rdf:RDF>
  </metadata>
  <defs
     id="defs5878" />
  <sodipodi:namedview
     pagecolor="#ffffff"
     bordercolor="#666666"
     borderopacity="1"
     objecttolerance="10"
     gridtolerance="10"
     guidetolerance="10"
     inkscape:pageopacity="0"
     inkscape:pageshadow="2"
     inkscape:window-width="1299"
     inkscape:window-height="704"
     id="namedview5876"
     showgrid="false"
     inkscape:zoom="0.88500003"
     inkscape:cx="94.91525"
     inkscape:cy="133.33333"
     inkscape:window-x="67"
     inkscape:window-y="27"
     inkscape:window-maximized="1"
     inkscape:current-layer="svg5874" />
  <path
     style="fill:#fffffe;fill-opacity:1;stroke-width:0.8704465"
     d="m 54.081209,209.76316 c -11.715796,-4.30781 -4.465874,-16.53098 10.906632,-18.38828 4.801785,-0.58014 11.850702,-1.79818 15.664262,-2.70676 3.813559,-0.90858 6.996043,-1.58498 7.072189,-1.50312 0.24734,0.26594 -25.103997,21.00731 -27.00801,22.09678 -1.946254,1.11367 -4.454435,1.30319 -6.635073,0.50138 z m 41.781432,-0.84215 c -14.248478,-4.45788 -9.121124,-20.31642 8.930179,-27.62038 9.98453,-4.03994 16.3399,-7.88159 23.00301,-13.90466 4.05461,-3.66515 8.97781,-5.06585 8.97781,-2.55431 0,1.00472 -31.96189,41.549 -33.5122,42.51089 -2.19062,1.35918 -5.693977,2.10184 -7.398799,1.56846 z m 108.192569,-0.5391 c -10.65098,-5.92048 -33.42267,-46.18568 -39.37455,-69.62258 -2.00028,-7.87659 -0.77745,-8.5563 -12.81729,7.1247 -0.14847,0.19336 -2.92766,-0.87344 -6.17597,-2.37069 -3.2483,-1.49724 -7.39473,-3.23767 -9.21427,-3.86759 -4.21764,-1.46019 -4.22441,-1.43164 2.4212,-10.21657 5.51217,-7.28663 9.19511,-16.26811 9.19511,-22.42382 0,-1.12934 0.66456,-2.23041 1.52328,-2.52386 6.11972,-2.09121 14.54804,-7.01163 19.14637,-11.17756 5.90176,-5.34676 5.36305,-5.238537 14.4803,-2.90895 3.87811,0.99091 3.99863,6.98735 0.49011,24.38551 -3.65367,18.11787 8.62049,48.79015 29.7432,74.32621 10.17866,12.30537 3.31533,26.35289 -9.41749,19.2752 z m -73.93441,-1.47567 c -7.23462,-2.91952 -6.34831,-7.63654 4.85246,-25.82519 10.7375,-17.43635 10.44603,-16.15244 4.01705,-17.69473 -5.78141,-1.38695 -5.8595,-1.7119 -1.22949,-5.11686 10.48017,-7.70719 23.87745,-8.20365 26.86318,-0.99545 1.60163,3.86667 1.43669,4.21776 -13.0307,27.73644 -13.89549,22.58898 -15.55682,24.28306 -21.4725,21.89579 z M 57.94733,188.10655 c 9.128977,-14.11795 28.759815,-33.78044 43.36604,-43.43594 4.21746,-2.78798 5.25621,-4.00453 6.52834,-7.64583 1.57632,-4.51195 2.3795,-5.13578 8.64738,-6.71642 4.08617,-1.03047 7.22785,-4.32004 7.22785,-7.56815 0,-5.40788 -5.05961,-9.70857 -9.97145,-8.47578 -2.2788,0.57194 -2.37906,0.47174 -1.90982,-1.90833 0.27238,-1.38159 0.75419,-4.86218 1.07069,-7.73465 1.64427,-14.923165 11.08973,-21.032506 20.16644,-13.04369 2.39516,2.1081 2.39516,2.1081 -2.92774,2.1356 -6.67062,0.0344 -9.90991,2.14846 -9.90991,6.46731 0,5.41291 2.74557,6.78119 12.96086,6.45918 10.93276,-0.3446 13.32902,11.19039 3.20354,15.42108 -6.23586,2.60551 -7.25377,17.81131 -1.27243,19.00759 3.20249,0.64048 16.85947,6.94036 17.58286,8.11085 0.28115,0.45493 -2.30816,1.73049 -5.75407,2.83461 -7.46751,2.39267 -9.21906,3.56131 -18.96708,12.65486 -14.0671,13.12266 -38.54144,22.57617 -65.633992,25.35188 -6.045774,0.61941 -6.045774,0.61941 -4.407508,-1.91417 z m 48.73245,-58.78004 c -1.12018,-1.81249 -2.03469,-7.28546 -1.54495,-9.2459 0.47881,-1.91671 2.48335,-2.79507 9.64976,-4.22834 5.69844,-1.1397 9.56883,6.76956 5.23295,10.69376 -3.08593,2.79293 -12.16086,4.68475 -13.33776,2.78048 z m 16.66412,-25.63768 c -4.39871,-4.3987 -0.64635,-8.20708 8.08635,-8.20708 11.86503,0 22.43472,-3.84009 30.20476,-10.973753 4.70765,-4.322108 4.7338,-4.33554 4.7338,-2.432161 0,0.765413 1.17479,2.489063 2.61062,3.830335 6.73707,6.293369 -17.84157,19.105499 -36.71347,19.137639 -5.71976,0.01 -7.88639,-0.31931 -8.92206,-1.35498 z m 13.03367,-11.64559 c -3.28714,-3.632244 5.09182,-16.965867 10.8538,-17.271894 6.68255,-0.354921 12.66445,9.79259 7.60263,12.89685 -7.38565,4.529374 -16.38596,6.662884 -18.45643,4.375044 z m 56.10464,-1.47635 c -19.78634,-3.754496 -24.3725,-5.777914 -24.3725,-10.753162 0,-6.304656 3.58956,-7.292904 15.8305,-4.358331 7.93018,1.901134 9.41397,2.073675 9.4094,1.094157 -0.004,-0.865643 -16.16361,-4.580294 -19.89983,-4.574437 -2.75769,0.0043 -8.82185,4.911185 -8.82185,7.138265 0,0.38519 -0.29378,0.69986 -0.65284,0.699268 -0.35907,-5.92e-4 -0.62678,-2.840425 -0.59493,-6.310737 0.10772,-11.736367 6.58592,-12.171853 27.97745,-1.880742 19.26849,9.269741 20.05608,22.537999 1.1246,18.945719 z m -88.35032,-3.417554 c -15.33537,-7.975775 -10.402288,-30.837663 6.65407,-30.837663 12.9455,0 20.57151,14.445327 13.38553,25.355107 -3.90397,5.926991 -13.91756,8.66656 -20.0396,5.482556 z m 36.32154,-16.141422 c -14.71699,-7.284771 -13.2534,-28.509805 2.3256,-33.725852 11.45194,-3.834254 23.58978,5.061454 23.58978,17.288719 0,13.301525 -14.13632,22.267654 -25.91538,16.437133 z"
     id="path5884"
     inkscape:connector-curvature="0" />
</svg>
