<?xml version="1.0" encoding="UTF-8" standalone="no"?>
<!-- Created with Inkscape (http://www.inkscape.org/) -->

<svg
   xmlns:dc="http://purl.org/dc/elements/1.1/"
   xmlns:cc="http://creativecommons.org/ns#"
   xmlns:rdf="http://www.w3.org/1999/02/22-rdf-syntax-ns#"
   xmlns:svg="http://www.w3.org/2000/svg"
   xmlns="http://www.w3.org/2000/svg"
   xmlns:sodipodi="http://sodipodi.sourceforge.net/DTD/sodipodi-0.dtd"
   xmlns:inkscape="http://www.inkscape.org/namespaces/inkscape"
   version="1.1"
   id="svg9816"
   width="138.77081"
   height="217.35147"
   viewBox="0 0 138.77081 217.35147"
   sodipodi:docname="ultrasound-logo.svg"
   inkscape:version="0.92.4 (unknown)">
  <metadata
     id="metadata9822">
    <rdf:RDF>
      <cc:Work
         rdf:about="">
        <dc:format>image/svg+xml</dc:format>
        <dc:type
           rdf:resource="http://purl.org/dc/dcmitype/StillImage" />
        <dc:title></dc:title>
      </cc:Work>
    </rdf:RDF>
  </metadata>
  <defs
     id="defs9820" />
  <sodipodi:namedview
     pagecolor="#ffffff"
     bordercolor="#666666"
     borderopacity="1"
     objecttolerance="10"
     gridtolerance="10"
     guidetolerance="10"
     inkscape:pageopacity="0"
     inkscape:pageshadow="2"
     inkscape:window-width="1920"
     inkscape:window-height="1163"
     id="namedview9818"
     showgrid="false"
     inkscape:zoom="1.0488889"
     inkscape:cx="68.557266"
     inkscape:cy="110.35851"
     inkscape:window-x="1920"
     inkscape:window-y="0"
     inkscape:window-maximized="1"
     inkscape:current-layer="svg9816" />
  <path
     style="fill:#fffffb;fill-opacity:1"
     d="m 62.012186,1.2727355 c 8.27397,3.08309 14.24859,10.0696205 16.7644,19.6037705 0.96655,3.66289 3.24152,6.57926 12.58173,16.12897 l 11.401844,11.65758 v 23.7199 c 0,29.371034 1.27098,32.826364 12.93243,35.158654 5.23445,1.04688 13.37563,24.84901 9.93389,29.04337 -7.1889,8.7609 -42.773014,17.63063 -61.430334,15.31218 -14.513678,-1.80353 -36.256348,-10.75437 -38.157348,-15.70829 -2.00938,-5.23637 6.06317,-28.28375 9.90663,-28.28375 3.52728,0 9.49251,-4.08195 11.69684,-8.004041 l 2.11789,-3.76827 V 72.429446 48.726086 l 11.499998,-11.86329 c 12.09723,-12.47939 12.46193,-13.15313 9.88303,-18.25734 -10.95354,-21.6794205 -31.382928,-14.9526205 -46.679708,15.37025 -8.35034,16.55292 -8.17913,15.91243 -10.64361,39.81684 -1.56335,15.16393 -7.4266403,27.252094 -11.8682503,24.468403 -2.49351998,-1.56276 -2.60605998,-4.948923 -0.28906,-8.697903 2.69332,-4.3579 4.75197,-13.91052 5.54915,-25.74943 1.4303,-21.24122 17.2984903,-52.98939 30.2903003,-60.6031005 5.57394,-3.26655005 18.25389,-4.26903 24.510178,-1.93778 z m 3.94524,41.0355005 -9.09667,9.40313 -0.3003,24.51351 -0.3003,24.513514 -3.033618,4.33337 c -2.14038,3.05741 -4.84365,5.21671 -9.18079,7.33336 -13.73379,6.7025 -1.27379,15.85882 23.434198,17.22079 26.30472,1.45 61.103164,-11.38221 43.345004,-15.98381 C 99.138686,110.61389 95.760156,101.46702 95.760156,72.856376 v -21.1631 l -8.62314,-9.39408 c -10.55884,-11.50283 -10.04269,-11.50305 -21.17959,0.009 z m 12.60273,36.79688 c 2.044,2.044 1.64874,29.690574 -0.43592,30.490534 -4.07892,1.56523 -4.84993,-0.70753 -5.14303,-15.160444 -0.31525,-15.54484 1.20015,-19.70889 5.57895,-15.33009 z m 27.756884,52.303704 c -24.174214,8.26003 -48.356274,8.20577 -64.836712,-0.14551 -5.48123,-2.77754 -8.02514,-2.49749 -7.54031,0.83009 0.87929,6.03488 23.691478,13.3827 40.820138,13.14818 17.32315,-0.23718 44.000004,-8.60624 44.000004,-13.80368 0,-4.34979 0.20069,-4.34932 -12.44312,-0.0291 z m 1.13366,27.13222 c 2.56532,6.68512 -15.252974,15.715 -31.190544,15.8066 -15.18065,0.0873 -35.115058,-10.38171 -30.456548,-15.99488 1.83224,-2.20771 3.37045,-1.796 9.60393,2.57057 14.208018,9.95275 31.085698,9.301 44.679352,-1.72534 3.31163,-2.6862 6.47676,-2.96857 7.36381,-0.65695 z m 15.25227,15.2572 c 4.28486,8.00635 -25.166044,22.42682 -45.942814,22.49564 -19.87252,0.0658 -49.730538,-13.8307 -46.697738,-21.73406 1.26865,-3.30604 3.56066,-2.81535 10.0375,2.14888 22.724268,17.4172 51.417208,17.36316 72.903052,-0.1373 6.26477,-5.10273 8.16284,-5.64537 9.7,-2.77316 z m 15.01737,14.55889 c 8.15399,9.82495 -32.93332,29.05172 -61.960184,28.99421 l -16.5,-0.0327 -9.499998,-3.18305 c -19.31848,-6.47282 -38.96934,-21.11827 -34.42857,-25.65904 2.21938,-2.21939 2.31297,-2.18014 9.47501,3.97341 28.79456,24.74002 71.328808,25.14296 102.014922,0.96641 9.03255,-7.11644 9.14729,-7.1697 10.89882,-5.05924 z"
     id="path10369"
     inkscape:connector-curvature="0" />
</svg>
