<?xml version="1.0" encoding="UTF-8" standalone="no"?>
<!-- Created with Inkscape (http://www.inkscape.org/) -->

<svg
   xmlns:dc="http://purl.org/dc/elements/1.1/"
   xmlns:cc="http://creativecommons.org/ns#"
   xmlns:rdf="http://www.w3.org/1999/02/22-rdf-syntax-ns#"
   xmlns:svg="http://www.w3.org/2000/svg"
   xmlns="http://www.w3.org/2000/svg"
   xmlns:sodipodi="http://sodipodi.sourceforge.net/DTD/sodipodi-0.dtd"
   xmlns:inkscape="http://www.inkscape.org/namespaces/inkscape"
   version="1.1"
   id="svg2"
   width="123.03326"
   height="79.234116"
   viewBox="0 0 123.03326 79.234116"
   sodipodi:docname="vai-logo.svg"
   inkscape:version="0.92.4 (unknown)">
  <metadata
     id="metadata8">
    <rdf:RDF>
      <cc:Work
         rdf:about="">
        <dc:format>image/svg+xml</dc:format>
        <dc:type
           rdf:resource="http://purl.org/dc/dcmitype/StillImage" />
        <dc:title></dc:title>
      </cc:Work>
    </rdf:RDF>
  </metadata>
  <defs
     id="defs6" />
  <sodipodi:namedview
     pagecolor="#ffffff"
     bordercolor="#666666"
     borderopacity="1"
     objecttolerance="10"
     gridtolerance="10"
     guidetolerance="10"
     inkscape:pageopacity="0"
     inkscape:pageshadow="2"
     inkscape:window-width="1299"
     inkscape:window-height="704"
     id="namedview4"
     showgrid="false"
     inkscape:zoom="3.4712515"
     inkscape:cx="74.649925"
     inkscape:cy="40.054094"
     inkscape:window-x="67"
     inkscape:window-y="27"
     inkscape:window-maximized="1"
     inkscape:current-layer="g817" />
  <g
     id="g817"
     transform="translate(-16.886628,126.23558)">
    <path
       style="fill:#ffffff;fill-opacity:1"
       d="M 20.703125,3.3203125 C 19.257603,3.3303155 17.590677,3.5655425 15.648438,3.96875 5.1607865,6.14598 3.1853372,11.043756 3.0351562,35.25 3.0001933,40.885434 5.3809135,43.429784 7.4921875,40.013672 15.59106,26.909419 32.450665,40.795738 36.863281,64.205078 40.884674,85.538941 43.28345,84.834859 58.259766,57.912109 71.922119,33.351456 72.938474,32.26903 75.896484,39.160156 80.09058,48.930934 79.141338,52 71.927734,52 c -4.151186,0 -4.907544,0.941648 -2.417968,3.007812 0.830267,0.689061 4.074029,4.682262 7.208984,8.873047 7.274459,9.724439 10.58778,12.848573 16.78125,15.824219 15.13224,7.270268 29.47309,0.118325 31.44336,-15.679687 2.22874,-17.870466 0.96991,-33.302218 -2.23633,-27.416016 -4.66769,8.569205 -13.40801,12.931893 -22.52734,11.246094 C 85.330353,45.11042 80.286708,38.519694 75.574219,15.705078 71.851136,-2.3195217 69.275556,-0.99984 54.505859,26.5 39.259809,54.886777 37.703379,54.480993 31.470703,20.5 29.07902,7.4603744 26.967053,3.2769661 20.703125,3.3203125 Z M 102.46875,7.0605469 C 93.156068,6.7607163 83.686092,13.142399 83.558594,25 c -0.08154,7.58306 2.734157,12.824157 8.460937,15.75 15.409959,7.873031 32.036009,-4.433465 27.423829,-20.298828 -2.58228,-8.882716 -9.73141,-13.1574236 -16.97461,-13.3906251 z m -1.60937,5.3867191 c 7.23658,-0.130314 14.70798,0.828766 15.40429,2.910156 1.49221,4.61558 -29.406409,4.528447 -29.400389,0.716797 -0.24274,-2.276875 6.759484,-3.49664 13.996099,-3.626953 z m 0.16796,9.564453 c 8.75812,-0.130314 17.80182,0.828766 18.64454,2.910156 1.80593,4.61558 -35.589322,4.528447 -35.582036,0.716797 -0.293777,-2.276875 8.179387,-3.49664 16.937496,-3.626953 z m -0.0625,10.228515 c 7.2366,-0.130313 14.70799,0.828767 15.4043,2.910157 1.49221,4.61558 -29.40641,4.528447 -29.40039,0.716797 -0.24274,-2.276875 6.759496,-3.49664 13.99609,-3.626954 z"
       transform="translate(13.851852,-129.55556)"
       id="path823"
       inkscape:connector-curvature="0" />
  </g>
</svg>
