<?xml version="1.0" encoding="UTF-8" standalone="no"?>
<!-- Created with Inkscape (http://www.inkscape.org/) -->

<svg
   xmlns:dc="http://purl.org/dc/elements/1.1/"
   xmlns:cc="http://creativecommons.org/ns#"
   xmlns:rdf="http://www.w3.org/1999/02/22-rdf-syntax-ns#"
   xmlns:svg="http://www.w3.org/2000/svg"
   xmlns="http://www.w3.org/2000/svg"
   xmlns:sodipodi="http://sodipodi.sourceforge.net/DTD/sodipodi-0.dtd"
   xmlns:inkscape="http://www.inkscape.org/namespaces/inkscape"
   version="1.1"
   id="svg5276"
   width="225"
   height="225"
   viewBox="0 0 225 225"
   sodipodi:docname="volunteer.svg"
   inkscape:version="0.92.4 (unknown)">
  <metadata
     id="metadata5282">
    <rdf:RDF>
      <cc:Work
         rdf:about="">
        <dc:format>image/svg+xml</dc:format>
        <dc:type
           rdf:resource="http://purl.org/dc/dcmitype/StillImage" />
      </cc:Work>
    </rdf:RDF>
  </metadata>
  <defs
     id="defs5280" />
  <sodipodi:namedview
     pagecolor="#ffffff"
     bordercolor="#666666"
     borderopacity="1"
     objecttolerance="10"
     gridtolerance="10"
     guidetolerance="10"
     inkscape:pageopacity="0"
     inkscape:pageshadow="2"
     inkscape:window-width="1299"
     inkscape:window-height="704"
     id="namedview5278"
     showgrid="false"
     inkscape:zoom="0.74167645"
     inkscape:cx="-144.4604"
     inkscape:cy="112.5"
     inkscape:window-x="67"
     inkscape:window-y="27"
     inkscape:window-maximized="1"
     inkscape:current-layer="g5286" />
  <g
     id="g5286"
     transform="translate(5.7203392,9.5338981)">
    <path
       style="fill:#fffff4;fill-opacity:1;stroke-width:0.76675498"
       d="M 93.741295,170.78389 C 83.17979,169.2782 78.990516,166.83301 56.745904,149.1906 35.651624,132.46051 39.128435,111.13361 39.127607,103.08097 39.126307,91.85621 44.85927,88.661258 56.257842,90.98984 c 1.827118,0.37325 3.733401,1.21329 6.731092,11.83539 0.478898,1.69695 1.301718,4.49173 2.090202,6.76428 0.942652,2.7169 1.060867,4.42894 1.259011,2.88471 0.105429,0.007 0.191689,-13.11235 0.191689,-29.15433 0,-32.51998 5.37e-4,-32.523585 5.482129,-37.136045 3.949072,-3.322921 10.279577,-4.656157 14.997873,-3.158628 1.133594,0.359789 1.653937,-0.116016 2.408301,-2.202181 3.607735,-9.977005 16.841731,-11.658522 25.953321,-3.297639 1.12179,1.029375 2.14835,1.356893 3.06702,0.978507 10.28003,-4.234249 22.46659,2.711008 22.46659,12.803966 0,2.522499 0,2.522499 5.94235,2.522499 15.16671,0 16.55468,4.258069 16.10278,49.400851 -0.58438,58.37818 -17.53179,74.92003 -69.208905,67.55267 z M 131.704,158.67039 c 18.25934,-7.36303 20.70239,-14.28709 20.70239,-58.67438 0,-36.818163 0.0351,-36.581204 -5.41599,-36.581204 -5.216,0 -5.67646,1.361672 -5.94011,17.566109 -0.23817,14.637595 -0.23817,14.637595 -5.1756,14.637595 -4.93743,0 -4.93743,0 -4.93743,-22.132485 0,-24.850508 -0.2758,-26.173073 -5.45779,-26.173073 -5.77779,0 -6.04354,1.144814 -6.04354,26.034816 0,22.270742 0,22.270742 -4.98391,22.270742 -4.98391,0 -4.98391,0 -4.98391,-24.816127 0,-28.132334 -0.14435,-28.856716 -5.75066,-28.856716 -5.606303,0 -5.75066,0.724382 -5.75066,28.856716 0,24.816127 0,24.816127 -4.983908,24.816127 -4.983907,0 -4.983907,0 -4.983907,-19.5871 0,-21.863897 -0.380893,-23.351173 -5.980344,-23.351173 -5.200477,0 -5.095189,-0.746474 -5.520981,39.140743 -0.265014,24.82593 -1.211333,31.74966 -6.020936,31.90005 -2.148125,0.0672 -3.774632,-1.47528 -7.489098,-5.70343 -2.039504,-2.32156 -6.492976,-17.86376 -6.492976,-17.86376 -0.473569,-2.84143 -6.117694,-4.01998 -7.99258,-0.82661 -3.42285,5.82993 -6.701238,24.93008 16.710092,43.47174 23.2179,18.38846 22.258751,18.01334 45.406088,17.75803 15.39203,-0.16977 17.23777,-0.33491 21.08576,-1.88661 z m -27.19405,-23.43448 c -7.442806,-7.97344 -10.045188,-12.8294 -10.045188,-18.74403 0,-10.2869 10.983288,-10.82769 14.396068,-0.70884 1.09231,3.23871 1.09231,3.23871 1.65452,0.73372 1.49816,-6.67519 8.99997,-10.08515 13.12094,-5.96417 4.36914,4.36914 1.5854,13.5935 -7.0135,23.24028 -6.57507,7.37634 -6.57446,7.37626 -12.11284,1.44304 z"
       id="path5288"
       inkscape:connector-curvature="0"
       sodipodi:nodetypes="sscssscscscsssssssssssssssssssssssscsssssssccss" />
  </g>
</svg>
