<?xml version="1.0" encoding="UTF-8" standalone="no"?>
<!-- Created with Inkscape (http://www.inkscape.org/) -->

<svg
   xmlns:dc="http://purl.org/dc/elements/1.1/"
   xmlns:cc="http://creativecommons.org/ns#"
   xmlns:rdf="http://www.w3.org/1999/02/22-rdf-syntax-ns#"
   xmlns:svg="http://www.w3.org/2000/svg"
   xmlns="http://www.w3.org/2000/svg"
   xmlns:sodipodi="http://sodipodi.sourceforge.net/DTD/sodipodi-0.dtd"
   xmlns:inkscape="http://www.inkscape.org/namespaces/inkscape"
   version="1.1"
   id="svg5276"
   width="225"
   height="225"
   viewBox="0 0 225 225"
   sodipodi:docname="volunteer.svg"
   inkscape:version="0.92.4 (unknown)">
  <metadata
     id="metadata5282">
    <rdf:RDF>
      <cc:Work
         rdf:about="">
        <dc:format>image/svg+xml</dc:format>
        <dc:type
           rdf:resource="http://purl.org/dc/dcmitype/StillImage" />
      </cc:Work>
    </rdf:RDF>
  </metadata>
  <defs
     id="defs5280" />
  <sodipodi:namedview
     pagecolor="#ffffff"
     bordercolor="#666666"
     borderopacity="1"
     objecttolerance="10"
     gridtolerance="10"
     guidetolerance="10"
     inkscape:pageopacity="0"
     inkscape:pageshadow="2"
     inkscape:window-width="1299"
     inkscape:window-height="704"
     id="namedview5278"
     showgrid="false"
     inkscape:zoom="0.74167645"
     inkscape:cx="94.862288"
     inkscape:cy="112.5"
     inkscape:window-x="67"
     inkscape:window-y="27"
     inkscape:window-maximized="1"
     inkscape:current-layer="g5286" />
  <g
     id="g5286"
     transform="translate(5.7203392,9.5338981)">
    <path
       style="fill:#000000;fill-opacity:1"
       d="M 94.41951,188.28435 C 80.64522,186.32062 75.18158,183.13162 46.17021,160.12243 18.6591,138.30309 23.193549,110.4886 23.192469,99.986363 23.190769,85.34706 30.66769,81.180207 45.53368,84.217132 c 2.382924,0.4868 4.869093,1.582377 8.778675,15.435705 0.624576,2.213143 1.697697,5.858093 2.726036,8.821953 1.229405,3.54337 1.38358,5.7762 1.641999,3.76223 0.1375,0.009 0.25,-17.101103 0.25,-38.023012 0,-42.412479 7e-4,-42.417181 7.14978,-48.43274 5.15037,-4.333745 13.4066,-6.07255 19.56019,-4.119476 1.47843,0.469237 2.15706,-0.151307 3.1409,-2.872079 4.7052,-13.0119859 21.96494,-15.2050169 33.84825,-4.300773 1.46305,1.342509 2.80189,1.769657 4,1.276168 13.4072,-5.522298 29.30088,3.53569 29.30088,16.6989 0,3.289838 0,3.289838 7.75,3.289838 19.78038,0 21.59057,5.553363 21.00121,64.428474 -0.76215,76.13667 -22.86493,97.71051 -90.26209,88.10203 z m 49.51088,-15.7984 c 23.81378,-9.60285 27,-18.63319 27,-76.522983 0,-48.018163 0.0457,-47.709121 -7.06353,-47.709121 -6.80269,0 -7.40322,1.775889 -7.74708,22.909677 -0.31061,19.090324 -0.31061,19.090324 -6.75,19.090324 -6.43939,0 -6.43939,0 -6.43939,-28.865142 0,-32.409972 -0.35969,-34.134859 -7.11803,-34.134859 -7.53538,0 -7.88197,1.493064 -7.88197,33.954545 0,29.045456 0,29.045456 -6.5,29.045456 -6.5,0 -6.5,0 -6.5,-32.365142 0,-36.690122 -0.18827,-37.634859 -7.5,-37.634859 -7.31173,0 -7.5,0.944737 -7.5,37.634859 0,32.365142 0,32.365142 -6.5,32.365142 -6.5,0 -6.5,0 -6.5,-25.545456 0,-28.514843 -0.49676,-30.454545 -7.79955,-30.454545 -6.78245,0 -6.645134,-0.97355 -7.20045,51.047261 -0.34563,32.377913 -1.579817,41.407843 -7.852491,41.603973 -2.801579,0.0876 -4.922865,-1.92405 -9.767264,-7.4384 C 51.65072,116.43891 45.842512,96.168801 45.842512,96.168801 45.224884,92.46303 37.86383,90.925952 35.418608,95.09075 c -4.464072,7.60338 -8.739738,32.51375 21.793262,56.69573 30.28073,23.98219 29.02981,23.49296 59.21852,23.15998 20.07424,-0.22141 22.48144,-0.43679 27.5,-2.46051 z m -35.46643,-30.5632 c -9.706886,-10.39893 -13.100906,-16.73207 -13.100906,-24.44591 0,-13.41615 14.324386,-14.12145 18.775316,-0.92446 1.42459,4.22391 1.42459,4.22391 2.15782,0.9569 1.9539,-8.70575 11.73774,-13.15302 17.11231,-7.77844 5.69822,5.69821 2.06767,17.7286 -9.14699,30.30991 -8.5752,9.6202 -8.57441,9.6201 -15.79755,1.882 z"
       id="path5288"
       inkscape:connector-curvature="0"
       sodipodi:nodetypes="sscssscscscsssssssssssssssssssssssscsssssssccss" />
  </g>
</svg>
