<?xml version="1.0" encoding="UTF-8" standalone="no"?>
<!DOCTYPE svg PUBLIC "-//W3C//DTD SVG 1.1//EN"
 "http://www.w3.org/Graphics/SVG/1.1/DTD/svg11.dtd">
<!-- Generated by graphviz version 2.43.0 (0)
 -->
<!-- Title: %3 Pages: 1 -->
<svg width="2113pt" height="777pt"
 viewBox="0.00 0.00 2113.00 776.90" xmlns="http://www.w3.org/2000/svg" xmlns:xlink="http://www.w3.org/1999/xlink">
<g id="graph0" class="graph" transform="scale(1 1) rotate(0) translate(4 772.9)">
<title>%3</title>
<polygon fill="white" stroke="transparent" points="-4,4 -4,-772.9 2109,-772.9 2109,4 -4,4"/>
<g id="clust1" class="cluster">
<title>cluster15059</title>
<polygon fill="#03c2fc" stroke="black" points="8,-251.51 8,-455.21 222,-455.21 222,-251.51 8,-251.51"/>
<text text-anchor="middle" x="115" y="-440.01" font-family="Monospace" font-size="14.00">:core&#45;api</text>
</g>
<g id="clust2" class="cluster">
<title>cluster15062</title>
<polygon fill="#03c2fc" stroke="black" points="63,-473.81 63,-566.55 289,-566.55 289,-473.81 63,-473.81"/>
<text text-anchor="middle" x="176" y="-551.35" font-family="Monospace" font-size="14.00">:virtual&#45;hosting</text>
</g>
<g id="clust3" class="cluster">
<title>cluster15064</title>
<polygon fill="#03c2fc" stroke="black" points="297,-129.56 297,-566.55 588,-566.55 588,-129.56 297,-129.56"/>
<text text-anchor="middle" x="442.5" y="-551.35" font-family="Monospace" font-size="14.00">:blogging&#45;app</text>
</g>
<g id="clust4" class="cluster">
<title>cluster15072</title>
<polygon fill="#03c2fc" stroke="black" points="1036,-685.9 1036,-760.9 1209,-760.9 1209,-685.9 1036,-685.9"/>
<text text-anchor="middle" x="1122.5" y="-745.7" font-family="Monospace" font-size="14.00">kaleidoscope.clj.main</text>
</g>
<g id="clust5" class="cluster">
<title>cluster15074</title>
<polygon fill="#03c2fc" stroke="black" points="596,-463.21 596,-577.16 1127,-577.16 1127,-463.21 596,-463.21"/>
<text text-anchor="middle" x="861.5" y="-561.96" font-family="Monospace" font-size="14.00">:persistence.filesystem</text>
</g>
<g id="clust6" class="cluster">
<title>cluster15078</title>
<polygon fill="#03c2fc" stroke="black" points="1007,-585.16 1007,-677.9 1238,-677.9 1238,-585.16 1007,-585.16"/>
<text text-anchor="middle" x="1122.5" y="-662.7" font-family="Monospace" font-size="14.00">kaleidoscope.clj.init.config</text>
</g>
<g id="clust7" class="cluster">
<title>cluster15080</title>
<polygon fill="#03c2fc" stroke="black" points="1135,-129.56 1135,-566.55 1393,-566.55 1393,-129.56 1135,-129.56"/>
<text text-anchor="middle" x="1264" y="-551.35" font-family="Monospace" font-size="14.00">:wedding&#45;app</text>
</g>
<g id="clust8" class="cluster">
<title>cluster15088</title>
<polygon fill="#03c2fc" stroke="black" points="1401,-8 1401,-232.91 2097,-232.91 2097,-8 1401,-8"/>
<text text-anchor="middle" x="1749" y="-217.71" font-family="Monospace" font-size="14.00">:persistence.rdbms</text>
</g>
<g id="clust9" class="cluster">
<title>cluster15094</title>
<polygon fill="#03c2fc" stroke="black" points="1401,-240.91 1401,-577.16 1615,-577.16 1615,-240.91 1401,-240.91"/>
<text text-anchor="middle" x="1508" y="-561.96" font-family="Monospace" font-size="14.00">:http.auth</text>
</g>
<g id="clust10" class="cluster">
<title>cluster15098</title>
<polygon fill="#03c2fc" stroke="black" points="596,-362.47 596,-455.21 978,-455.21 978,-362.47 596,-362.47"/>
<text text-anchor="middle" x="787" y="-440.01" font-family="Monospace" font-size="14.00">:http.common&#45;routes</text>
</g>
<g id="clust11" class="cluster">
<title>cluster15102</title>
<polygon fill="#03c2fc" stroke="black" points="1639,-362.47 1639,-566.55 1841,-566.55 1841,-362.47 1639,-362.47"/>
<text text-anchor="middle" x="1740" y="-551.35" font-family="Monospace" font-size="14.00">:http.utilities</text>
</g>
<!-- node15060 -->
<g id="node1" class="node">
<title>node15060</title>
<ellipse fill="none" stroke="black" cx="115" cy="-286.38" rx="98.99" ry="26.74"/>
<text text-anchor="middle" x="115" y="-290.18" font-family="Monospace" font-size="14.00">api</text>
<text text-anchor="middle" x="115" y="-275.18" font-family="Monospace" font-size="14.00">.authentication</text>
</g>
<!-- node15061 -->
<g id="node2" class="node">
<title>node15061</title>
<ellipse fill="none" stroke="black" cx="112" cy="-397.34" rx="93.18" ry="26.74"/>
<text text-anchor="middle" x="112" y="-401.14" font-family="Monospace" font-size="14.00">api</text>
<text text-anchor="middle" x="112" y="-386.14" font-family="Monospace" font-size="14.00">.authorization</text>
</g>
<!-- node15061&#45;&gt;node15060 -->
<g id="edge16" class="edge">
<title>node15061&#45;&gt;node15060</title>
<path fill="none" stroke="black" d="M112.72,-370.24C113.1,-356.22 113.59,-338.73 114.01,-323.44"/>
<polygon fill="black" stroke="black" points="117.51,-323.36 114.29,-313.27 110.51,-323.17 117.51,-323.36"/>
</g>
<!-- node15063 -->
<g id="node3" class="node">
<title>node15063</title>
<ellipse fill="none" stroke="black" cx="176" cy="-508.68" rx="105.22" ry="26.74"/>
<text text-anchor="middle" x="176" y="-512.48" font-family="Monospace" font-size="14.00">http&#45;api</text>
<text text-anchor="middle" x="176" y="-497.48" font-family="Monospace" font-size="14.00">.virtual&#45;hosting</text>
</g>
<!-- node15065 -->
<g id="node4" class="node">
<title>node15065</title>
<ellipse fill="none" stroke="black" cx="369" cy="-397.34" rx="64.19" ry="26.74"/>
<text text-anchor="middle" x="369" y="-401.14" font-family="Monospace" font-size="14.00">http&#45;api</text>
<text text-anchor="middle" x="369" y="-386.14" font-family="Monospace" font-size="14.00">.articles</text>
</g>
<!-- node15065&#45;&gt;node15060 -->
<g id="edge2" class="edge">
<title>node15065&#45;&gt;node15060</title>
<path fill="none" stroke="black" d="M325.05,-377.48C283.73,-359.76 221.54,-333.09 175.55,-313.35"/>
<polygon fill="black" stroke="black" points="176.85,-310.11 166.28,-309.38 174.09,-316.54 176.85,-310.11"/>
</g>
<!-- node15067 -->
<g id="node6" class="node">
<title>node15067</title>
<ellipse fill="none" stroke="black" cx="369" cy="-286.38" rx="64.19" ry="26.74"/>
<text text-anchor="middle" x="369" y="-290.18" font-family="Monospace" font-size="14.00">api</text>
<text text-anchor="middle" x="369" y="-275.18" font-family="Monospace" font-size="14.00">.articles</text>
</g>
<!-- node15065&#45;&gt;node15067 -->
<g id="edge1" class="edge">
<title>node15065&#45;&gt;node15067</title>
<path fill="none" stroke="black" d="M369,-370.24C369,-356.22 369,-338.73 369,-323.44"/>
<polygon fill="black" stroke="black" points="372.5,-323.27 369,-313.27 365.5,-323.27 372.5,-323.27"/>
</g>
<!-- node15066 -->
<g id="node5" class="node">
<title>node15066</title>
<ellipse fill="none" stroke="black" cx="504" cy="-508.68" rx="75.82" ry="26.74"/>
<text text-anchor="middle" x="504" y="-512.48" font-family="Monospace" font-size="14.00">http&#45;api</text>
<text text-anchor="middle" x="504" y="-497.48" font-family="Monospace" font-size="14.00">.andrewslai</text>
</g>
<!-- node15066&#45;&gt;node15065 -->
<g id="edge6" class="edge">
<title>node15066&#45;&gt;node15065</title>
<path fill="none" stroke="black" d="M473.15,-483.85C461.73,-474.95 448.71,-464.69 437,-455.21 426.32,-446.56 414.83,-437.04 404.38,-428.29"/>
<polygon fill="black" stroke="black" points="406.53,-425.53 396.62,-421.78 402.03,-430.89 406.53,-425.53"/>
</g>
<!-- node15071 -->
<g id="node10" class="node">
<title>node15071</title>
<ellipse fill="none" stroke="black" cx="510" cy="-397.34" rx="70.01" ry="26.74"/>
<text text-anchor="middle" x="510" y="-401.14" font-family="Monospace" font-size="14.00">http&#45;api</text>
<text text-anchor="middle" x="510" y="-386.14" font-family="Monospace" font-size="14.00">.portfolio</text>
</g>
<!-- node15066&#45;&gt;node15071 -->
<g id="edge9" class="edge">
<title>node15066&#45;&gt;node15071</title>
<path fill="none" stroke="black" d="M505.42,-481.77C506.19,-467.71 507.16,-450.1 508.01,-434.69"/>
<polygon fill="black" stroke="black" points="511.51,-434.62 508.57,-424.44 504.52,-434.24 511.51,-434.62"/>
</g>
<!-- node15099 -->
<g id="node31" class="node">
<title>node15099</title>
<ellipse fill="none" stroke="black" cx="787" cy="-397.34" rx="58.88" ry="26.74"/>
<text text-anchor="middle" x="787" y="-401.14" font-family="Monospace" font-size="14.00">http&#45;api</text>
<text text-anchor="middle" x="787" y="-386.14" font-family="Monospace" font-size="14.00">.admin</text>
</g>
<!-- node15066&#45;&gt;node15099 -->
<g id="edge7" class="edge">
<title>node15066&#45;&gt;node15099</title>
<path fill="none" stroke="black" d="M541.67,-485.14C557.57,-476.73 576.64,-468.06 595,-463.21 622.77,-455.87 697.52,-466.34 724,-455.21 737.44,-449.55 749.91,-439.77 760.14,-429.9"/>
<polygon fill="black" stroke="black" points="762.66,-432.33 767.18,-422.75 757.67,-427.42 762.66,-432.33"/>
</g>
<!-- node15100 -->
<g id="node32" class="node">
<title>node15100</title>
<ellipse fill="none" stroke="black" cx="911" cy="-397.34" rx="58.88" ry="26.74"/>
<text text-anchor="middle" x="911" y="-401.14" font-family="Monospace" font-size="14.00">http&#45;api</text>
<text text-anchor="middle" x="911" y="-386.14" font-family="Monospace" font-size="14.00">.ping</text>
</g>
<!-- node15066&#45;&gt;node15100 -->
<g id="edge8" class="edge">
<title>node15066&#45;&gt;node15100</title>
<path fill="none" stroke="black" d="M541.15,-485.09C557.14,-476.57 576.4,-467.82 595,-463.21 622.3,-456.44 821.91,-465.72 848,-455.21 861.53,-449.76 874.01,-440.02 884.24,-430.13"/>
<polygon fill="black" stroke="black" points="886.77,-432.55 891.27,-422.95 881.77,-427.65 886.77,-432.55"/>
</g>
<!-- node15101 -->
<g id="node33" class="node">
<title>node15101</title>
<ellipse fill="none" stroke="black" cx="663" cy="-397.34" rx="58.88" ry="26.74"/>
<text text-anchor="middle" x="663" y="-401.14" font-family="Monospace" font-size="14.00">http&#45;api</text>
<text text-anchor="middle" x="663" y="-386.14" font-family="Monospace" font-size="14.00">.swagger</text>
</g>
<!-- node15066&#45;&gt;node15101 -->
<g id="edge10" class="edge">
<title>node15066&#45;&gt;node15101</title>
<path fill="none" stroke="black" d="M542.19,-485.25C557.02,-476.24 574.01,-465.55 589,-455.21 601.57,-446.53 614.91,-436.54 626.76,-427.37"/>
<polygon fill="black" stroke="black" points="628.96,-430.09 634.69,-421.18 624.65,-424.57 628.96,-430.09"/>
</g>
<!-- node15070 -->
<g id="node9" class="node">
<title>node15070</title>
<ellipse fill="none" stroke="black" cx="371" cy="-164.43" rx="58.88" ry="26.74"/>
<text text-anchor="middle" x="371" y="-168.23" font-family="Monospace" font-size="14.00">entities</text>
<text text-anchor="middle" x="371" y="-153.23" font-family="Monospace" font-size="14.00">.article</text>
</g>
<!-- node15067&#45;&gt;node15070 -->
<g id="edge11" class="edge">
<title>node15067&#45;&gt;node15070</title>
<path fill="none" stroke="black" d="M369.43,-259.36C369.72,-242.46 370.09,-220.2 370.4,-201.59"/>
<polygon fill="black" stroke="black" points="373.9,-201.46 370.57,-191.41 366.9,-201.35 373.9,-201.46"/>
</g>
<!-- node15068 -->
<g id="node7" class="node">
<title>node15068</title>
<ellipse fill="none" stroke="black" cx="510" cy="-286.38" rx="70.01" ry="26.74"/>
<text text-anchor="middle" x="510" y="-290.18" font-family="Monospace" font-size="14.00">api</text>
<text text-anchor="middle" x="510" y="-275.18" font-family="Monospace" font-size="14.00">.portfolio</text>
</g>
<!-- node15069 -->
<g id="node8" class="node">
<title>node15069</title>
<ellipse fill="none" stroke="black" cx="510" cy="-164.43" rx="70.01" ry="26.74"/>
<text text-anchor="middle" x="510" y="-168.23" font-family="Monospace" font-size="14.00">entities</text>
<text text-anchor="middle" x="510" y="-153.23" font-family="Monospace" font-size="14.00">.portfolio</text>
</g>
<!-- node15068&#45;&gt;node15069 -->
<g id="edge20" class="edge">
<title>node15068&#45;&gt;node15069</title>
<path fill="none" stroke="black" d="M510,-259.36C510,-242.46 510,-220.2 510,-201.59"/>
<polygon fill="black" stroke="black" points="513.5,-201.41 510,-191.41 506.5,-201.41 513.5,-201.41"/>
</g>
<!-- node15092 -->
<g id="node26" class="node">
<title>node15092</title>
<ellipse fill="none" stroke="black" cx="1485" cy="-53.48" rx="75.82" ry="26.74"/>
<text text-anchor="middle" x="1485" y="-57.28" font-family="Monospace" font-size="14.00">persistence</text>
<text text-anchor="middle" x="1485" y="-42.28" font-family="Monospace" font-size="14.00">.rdbms</text>
</g>
<!-- node15069&#45;&gt;node15092 -->
<g id="edge21" class="edge">
<title>node15069&#45;&gt;node15092</title>
<path fill="none" stroke="black" d="M576.63,-155.98C749.94,-136.62 1214.41,-84.71 1403.36,-63.6"/>
<polygon fill="black" stroke="black" points="1403.96,-67.05 1413.51,-62.47 1403.18,-60.1 1403.96,-67.05"/>
</g>
<!-- node15070&#45;&gt;node15092 -->
<g id="edge25" class="edge">
<title>node15070&#45;&gt;node15092</title>
<path fill="none" stroke="black" d="M403.14,-141.7C413.24,-135.91 424.72,-130.32 436,-126.95 615.61,-73.32 1182.12,-59.09 1399.2,-55.57"/>
<polygon fill="black" stroke="black" points="1399.33,-59.06 1409.27,-55.41 1399.21,-52.07 1399.33,-59.06"/>
</g>
<!-- node15071&#45;&gt;node15068 -->
<g id="edge37" class="edge">
<title>node15071&#45;&gt;node15068</title>
<path fill="none" stroke="black" d="M510,-370.24C510,-356.22 510,-338.73 510,-323.44"/>
<polygon fill="black" stroke="black" points="513.5,-323.27 510,-313.27 506.5,-323.27 513.5,-323.27"/>
</g>
<!-- node15073 -->
<g id="node11" class="node">
<title>node15073</title>
<ellipse fill="none" stroke="black" cx="1122" cy="-711.9" rx="32.49" ry="18"/>
<text text-anchor="middle" x="1122" y="-708.2" font-family="Monospace" font-size="14.00">main</text>
</g>
<!-- node15079 -->
<g id="node15" class="node">
<title>node15079</title>
<ellipse fill="none" stroke="black" cx="1122" cy="-620.03" rx="52.15" ry="26.74"/>
<text text-anchor="middle" x="1122" y="-623.83" font-family="Monospace" font-size="14.00">init</text>
<text text-anchor="middle" x="1122" y="-608.83" font-family="Monospace" font-size="14.00">.config</text>
</g>
<!-- node15073&#45;&gt;node15079 -->
<g id="edge15" class="edge">
<title>node15073&#45;&gt;node15079</title>
<path fill="none" stroke="black" d="M1122,-693.57C1122,-683.29 1122,-669.86 1122,-657.36"/>
<polygon fill="black" stroke="black" points="1125.5,-657.16 1122,-647.16 1118.5,-657.16 1125.5,-657.16"/>
</g>
<!-- node15075 -->
<g id="node12" class="node">
<title>node15075</title>
<ellipse fill="none" stroke="black" cx="1043" cy="-508.68" rx="75.82" ry="37.45"/>
<text text-anchor="middle" x="1043" y="-519.98" font-family="Monospace" font-size="14.00">persistence</text>
<text text-anchor="middle" x="1043" y="-504.98" font-family="Monospace" font-size="14.00">.filesystem</text>
<text text-anchor="middle" x="1043" y="-489.98" font-family="Monospace" font-size="14.00">.s3&#45;impl</text>
</g>
<!-- node15076 -->
<g id="node13" class="node">
<title>node15076</title>
<ellipse fill="none" stroke="black" cx="885" cy="-508.68" rx="75.82" ry="37.45"/>
<text text-anchor="middle" x="885" y="-519.98" font-family="Monospace" font-size="14.00">persistence</text>
<text text-anchor="middle" x="885" y="-504.98" font-family="Monospace" font-size="14.00">.filesystem</text>
<text text-anchor="middle" x="885" y="-489.98" font-family="Monospace" font-size="14.00">.url&#45;utils</text>
</g>
<!-- node15077 -->
<g id="node14" class="node">
<title>node15077</title>
<ellipse fill="none" stroke="black" cx="703" cy="-508.68" rx="98.99" ry="37.45"/>
<text text-anchor="middle" x="703" y="-519.98" font-family="Monospace" font-size="14.00">persistence</text>
<text text-anchor="middle" x="703" y="-504.98" font-family="Monospace" font-size="14.00">.filesystem</text>
<text text-anchor="middle" x="703" y="-489.98" font-family="Monospace" font-size="14.00">.in&#45;memory&#45;impl</text>
</g>
<!-- node15079&#45;&gt;node15061 -->
<g id="edge32" class="edge">
<title>node15079&#45;&gt;node15061</title>
<path fill="none" stroke="black" d="M1069.6,-618.95C860.75,-618.39 97.24,-613.82 62,-577.16 26.9,-540.65 45.67,-511.15 62,-463.21 65.87,-451.86 72.61,-440.95 79.91,-431.42"/>
<polygon fill="black" stroke="black" points="82.82,-433.39 86.42,-423.43 77.39,-428.97 82.82,-433.39"/>
</g>
<!-- node15079&#45;&gt;node15063 -->
<g id="edge26" class="edge">
<title>node15079&#45;&gt;node15063</title>
<path fill="none" stroke="black" d="M1069.58,-619.49C911.62,-620.4 442.04,-619.38 296,-577.16 268.43,-569.19 240.33,-553.85 218.25,-539.81"/>
<polygon fill="black" stroke="black" points="220.09,-536.83 209.8,-534.31 216.27,-542.7 220.09,-536.83"/>
</g>
<!-- node15079&#45;&gt;node15066 -->
<g id="edge29" class="edge">
<title>node15079&#45;&gt;node15066</title>
<path fill="none" stroke="black" d="M1069.72,-618.52C954.25,-616.81 680.94,-609.38 595,-577.16 573.63,-569.15 552.94,-554.54 536.71,-540.96"/>
<polygon fill="black" stroke="black" points="538.97,-538.29 529.11,-534.41 534.4,-543.59 538.97,-538.29"/>
</g>
<!-- node15079&#45;&gt;node15075 -->
<g id="edge28" class="edge">
<title>node15079&#45;&gt;node15075</title>
<path fill="none" stroke="black" d="M1104.27,-594.49C1095.3,-582.07 1084.14,-566.63 1073.82,-552.34"/>
<polygon fill="black" stroke="black" points="1076.55,-550.15 1067.86,-544.09 1070.88,-554.25 1076.55,-550.15"/>
</g>
<!-- node15079&#45;&gt;node15076 -->
<g id="edge31" class="edge">
<title>node15079&#45;&gt;node15076</title>
<path fill="none" stroke="black" d="M1072.21,-611.54C1040.27,-605.37 998.64,-594.7 965,-577.16 950.99,-569.86 937.27,-559.73 925.26,-549.54"/>
<polygon fill="black" stroke="black" points="927.45,-546.81 917.62,-542.86 922.85,-552.08 927.45,-546.81"/>
</g>
<!-- node15085 -->
<g id="node20" class="node">
<title>node15085</title>
<ellipse fill="none" stroke="black" cx="1202" cy="-508.68" rx="58.88" ry="26.74"/>
<text text-anchor="middle" x="1202" y="-512.48" font-family="Monospace" font-size="14.00">http&#45;api</text>
<text text-anchor="middle" x="1202" y="-497.48" font-family="Monospace" font-size="14.00">.wedding</text>
</g>
<!-- node15079&#45;&gt;node15085 -->
<g id="edge34" class="edge">
<title>node15079&#45;&gt;node15085</title>
<path fill="none" stroke="black" d="M1139.95,-594.49C1151.09,-579.26 1165.55,-559.5 1177.71,-542.88"/>
<polygon fill="black" stroke="black" points="1180.75,-544.66 1183.83,-534.52 1175.1,-540.52 1180.75,-544.66"/>
</g>
<!-- node15089 -->
<g id="node23" class="node">
<title>node15089</title>
<ellipse fill="none" stroke="black" cx="1679" cy="-164.43" rx="111.03" ry="37.45"/>
<text text-anchor="middle" x="1679" y="-175.73" font-family="Monospace" font-size="14.00">persistence</text>
<text text-anchor="middle" x="1679" y="-160.73" font-family="Monospace" font-size="14.00">.rdbms</text>
<text text-anchor="middle" x="1679" y="-145.73" font-family="Monospace" font-size="14.00">.embedded&#45;h2&#45;impl</text>
</g>
<!-- node15079&#45;&gt;node15089 -->
<g id="edge27" class="edge">
<title>node15079&#45;&gt;node15089</title>
<path fill="none" stroke="black" d="M1174.53,-618.3C1295.35,-616.09 1585.01,-607.64 1616,-577.16 1650.6,-543.12 1630.54,-407.82 1638,-359.86 1645.93,-308.9 1658.58,-251.16 1667.73,-211.93"/>
<polygon fill="black" stroke="black" points="1671.16,-212.66 1670.04,-202.13 1664.34,-211.06 1671.16,-212.66"/>
</g>
<!-- node15093 -->
<g id="node27" class="node">
<title>node15093</title>
<ellipse fill="none" stroke="black" cx="1943" cy="-164.43" rx="145.83" ry="37.45"/>
<text text-anchor="middle" x="1943" y="-175.73" font-family="Monospace" font-size="14.00">persistence</text>
<text text-anchor="middle" x="1943" y="-160.73" font-family="Monospace" font-size="14.00">.rdbms</text>
<text text-anchor="middle" x="1943" y="-145.73" font-family="Monospace" font-size="14.00">.embedded&#45;postgres&#45;impl</text>
</g>
<!-- node15079&#45;&gt;node15093 -->
<g id="edge35" class="edge">
<title>node15079&#45;&gt;node15093</title>
<path fill="none" stroke="black" d="M1174.53,-619.51C1331.78,-620.47 1791.06,-619.56 1842,-577.16 1950.85,-486.56 1953.13,-299.53 1947.55,-212.23"/>
<polygon fill="black" stroke="black" points="1951.03,-211.82 1946.83,-202.09 1944.04,-212.31 1951.03,-211.82"/>
</g>
<!-- node15097 -->
<g id="node30" class="node">
<title>node15097</title>
<ellipse fill="none" stroke="black" cx="1508" cy="-508.68" rx="98.99" ry="37.45"/>
<text text-anchor="middle" x="1508" y="-519.98" font-family="Monospace" font-size="14.00">http&#45;api</text>
<text text-anchor="middle" x="1508" y="-504.98" font-family="Monospace" font-size="14.00">.auth</text>
<text text-anchor="middle" x="1508" y="-489.98" font-family="Monospace" font-size="14.00">.buddy&#45;backends</text>
</g>
<!-- node15079&#45;&gt;node15097 -->
<g id="edge33" class="edge">
<title>node15079&#45;&gt;node15097</title>
<path fill="none" stroke="black" d="M1174.06,-616.89C1229.9,-613.26 1320.45,-603.48 1394,-577.16 1414.56,-569.8 1435.56,-558.62 1453.83,-547.46"/>
<polygon fill="black" stroke="black" points="1455.95,-550.27 1462.57,-542 1452.24,-544.33 1455.95,-550.27"/>
</g>
<!-- node15103 -->
<g id="node34" class="node">
<title>node15103</title>
<ellipse fill="none" stroke="black" cx="1731" cy="-508.68" rx="75.82" ry="26.74"/>
<text text-anchor="middle" x="1731" y="-512.48" font-family="Monospace" font-size="14.00">http&#45;api</text>
<text text-anchor="middle" x="1731" y="-497.48" font-family="Monospace" font-size="14.00">.middleware</text>
</g>
<!-- node15079&#45;&gt;node15103 -->
<g id="edge30" class="edge">
<title>node15079&#45;&gt;node15103</title>
<path fill="none" stroke="black" d="M1174.2,-618.11C1286.72,-615.59 1548.67,-606.65 1632,-577.16 1655.13,-568.98 1677.96,-554.01 1695.85,-540.25"/>
<polygon fill="black" stroke="black" points="1698.04,-542.99 1703.71,-534.04 1693.7,-537.5 1698.04,-542.99"/>
</g>
<!-- node15081 -->
<g id="node16" class="node">
<title>node15081</title>
<ellipse fill="none" stroke="black" cx="1202" cy="-164.43" rx="58.88" ry="26.74"/>
<text text-anchor="middle" x="1202" y="-168.23" font-family="Monospace" font-size="14.00">entities</text>
<text text-anchor="middle" x="1202" y="-153.23" font-family="Monospace" font-size="14.00">.album</text>
</g>
<!-- node15081&#45;&gt;node15092 -->
<g id="edge4" class="edge">
<title>node15081&#45;&gt;node15092</title>
<path fill="none" stroke="black" d="M1235.66,-142.23C1244.96,-136.85 1255.2,-131.35 1265,-126.95 1314.12,-104.93 1372.03,-86.12 1416.11,-73.18"/>
<polygon fill="black" stroke="black" points="1417.23,-76.5 1425.86,-70.35 1415.28,-69.78 1417.23,-76.5"/>
</g>
<!-- node15082 -->
<g id="node17" class="node">
<title>node15082</title>
<ellipse fill="none" stroke="black" cx="1202" cy="-286.38" rx="52.15" ry="26.74"/>
<text text-anchor="middle" x="1202" y="-290.18" font-family="Monospace" font-size="14.00">api</text>
<text text-anchor="middle" x="1202" y="-275.18" font-family="Monospace" font-size="14.00">.albums</text>
</g>
<!-- node15082&#45;&gt;node15081 -->
<g id="edge5" class="edge">
<title>node15082&#45;&gt;node15081</title>
<path fill="none" stroke="black" d="M1202,-259.36C1202,-242.46 1202,-220.2 1202,-201.59"/>
<polygon fill="black" stroke="black" points="1205.5,-201.41 1202,-191.41 1198.5,-201.41 1205.5,-201.41"/>
</g>
<!-- node15083 -->
<g id="node18" class="node">
<title>node15083</title>
<ellipse fill="none" stroke="black" cx="1202" cy="-397.34" rx="58.88" ry="26.74"/>
<text text-anchor="middle" x="1202" y="-401.14" font-family="Monospace" font-size="14.00">http&#45;api</text>
<text text-anchor="middle" x="1202" y="-386.14" font-family="Monospace" font-size="14.00">.album</text>
</g>
<!-- node15083&#45;&gt;node15082 -->
<g id="edge13" class="edge">
<title>node15083&#45;&gt;node15082</title>
<path fill="none" stroke="black" d="M1202,-370.24C1202,-356.22 1202,-338.73 1202,-323.44"/>
<polygon fill="black" stroke="black" points="1205.5,-323.27 1202,-313.27 1198.5,-323.27 1205.5,-323.27"/>
</g>
<!-- node15084 -->
<g id="node19" class="node">
<title>node15084</title>
<ellipse fill="none" stroke="black" cx="1326" cy="-164.43" rx="58.88" ry="26.74"/>
<text text-anchor="middle" x="1326" y="-168.23" font-family="Monospace" font-size="14.00">entities</text>
<text text-anchor="middle" x="1326" y="-153.23" font-family="Monospace" font-size="14.00">.photo</text>
</g>
<!-- node15084&#45;&gt;node15092 -->
<g id="edge18" class="edge">
<title>node15084&#45;&gt;node15092</title>
<path fill="none" stroke="black" d="M1357.79,-141.64C1382.24,-124.89 1416.25,-101.59 1442.95,-83.29"/>
<polygon fill="black" stroke="black" points="1445.07,-86.08 1451.34,-77.54 1441.11,-80.31 1445.07,-86.08"/>
</g>
<!-- node15085&#45;&gt;node15083 -->
<g id="edge22" class="edge">
<title>node15085&#45;&gt;node15083</title>
<path fill="none" stroke="black" d="M1202,-481.77C1202,-467.71 1202,-450.1 1202,-434.69"/>
<polygon fill="black" stroke="black" points="1205.5,-434.44 1202,-424.44 1198.5,-434.44 1205.5,-434.44"/>
</g>
<!-- node15086 -->
<g id="node21" class="node">
<title>node15086</title>
<ellipse fill="none" stroke="black" cx="1326" cy="-397.34" rx="58.88" ry="26.74"/>
<text text-anchor="middle" x="1326" y="-401.14" font-family="Monospace" font-size="14.00">http&#45;api</text>
<text text-anchor="middle" x="1326" y="-386.14" font-family="Monospace" font-size="14.00">.photo</text>
</g>
<!-- node15085&#45;&gt;node15086 -->
<g id="edge24" class="edge">
<title>node15085&#45;&gt;node15086</title>
<path fill="none" stroke="black" d="M1229.15,-484.57C1239.76,-475.48 1252,-464.9 1263,-455.21 1272.77,-446.6 1283.3,-437.15 1292.91,-428.48"/>
<polygon fill="black" stroke="black" points="1295.31,-431.02 1300.38,-421.72 1290.61,-425.83 1295.31,-431.02"/>
</g>
<!-- node15085&#45;&gt;node15100 -->
<g id="edge23" class="edge">
<title>node15085&#45;&gt;node15100</title>
<path fill="none" stroke="black" d="M1169.8,-485.92C1157.15,-478.02 1142.26,-469.5 1128,-463.21 1077.5,-440.91 1017.14,-423.56 972.91,-412.44"/>
<polygon fill="black" stroke="black" points="973.71,-409.03 963.16,-410.02 972.02,-415.82 973.71,-409.03"/>
</g>
<!-- node15087 -->
<g id="node22" class="node">
<title>node15087</title>
<ellipse fill="none" stroke="black" cx="1326" cy="-286.38" rx="52.15" ry="26.74"/>
<text text-anchor="middle" x="1326" y="-290.18" font-family="Monospace" font-size="14.00">api</text>
<text text-anchor="middle" x="1326" y="-275.18" font-family="Monospace" font-size="14.00">.photos</text>
</g>
<!-- node15086&#45;&gt;node15087 -->
<g id="edge36" class="edge">
<title>node15086&#45;&gt;node15087</title>
<path fill="none" stroke="black" d="M1326,-370.24C1326,-356.22 1326,-338.73 1326,-323.44"/>
<polygon fill="black" stroke="black" points="1329.5,-323.27 1326,-313.27 1322.5,-323.27 1329.5,-323.27"/>
</g>
<!-- node15087&#45;&gt;node15084 -->
<g id="edge39" class="edge">
<title>node15087&#45;&gt;node15084</title>
<path fill="none" stroke="black" d="M1326,-259.36C1326,-242.46 1326,-220.2 1326,-201.59"/>
<polygon fill="black" stroke="black" points="1329.5,-201.41 1326,-191.41 1322.5,-201.41 1329.5,-201.41"/>
</g>
<!-- node15090 -->
<g id="node24" class="node">
<title>node15090</title>
<ellipse fill="none" stroke="black" cx="1813" cy="-53.48" rx="116.85" ry="37.45"/>
<text text-anchor="middle" x="1813" y="-64.78" font-family="Monospace" font-size="14.00">persistence</text>
<text text-anchor="middle" x="1813" y="-49.78" font-family="Monospace" font-size="14.00">.rdbms</text>
<text text-anchor="middle" x="1813" y="-34.78" font-family="Monospace" font-size="14.00">.embedded&#45;db&#45;utils</text>
</g>
<!-- node15089&#45;&gt;node15090 -->
<g id="edge3" class="edge">
<title>node15089&#45;&gt;node15090</title>
<path fill="none" stroke="black" d="M1720.66,-129.55C1734.02,-118.69 1748.96,-106.55 1762.86,-95.25"/>
<polygon fill="black" stroke="black" points="1765.35,-97.73 1770.9,-88.71 1760.93,-92.3 1765.35,-97.73"/>
</g>
<!-- node15091 -->
<g id="node25" class="node">
<title>node15091</title>
<ellipse fill="none" stroke="black" cx="1485" cy="-164.43" rx="75.82" ry="37.45"/>
<text text-anchor="middle" x="1485" y="-175.73" font-family="Monospace" font-size="14.00">persistence</text>
<text text-anchor="middle" x="1485" y="-160.73" font-family="Monospace" font-size="14.00">.rdbms</text>
<text text-anchor="middle" x="1485" y="-145.73" font-family="Monospace" font-size="14.00">.migrations</text>
</g>
<!-- node15091&#45;&gt;node15092 -->
<g id="edge14" class="edge">
<title>node15091&#45;&gt;node15092</title>
<path fill="none" stroke="black" d="M1485,-126.85C1485,-115.2 1485,-102.33 1485,-90.71"/>
<polygon fill="black" stroke="black" points="1488.5,-90.47 1485,-80.47 1481.5,-90.47 1488.5,-90.47"/>
</g>
<!-- node15093&#45;&gt;node15090 -->
<g id="edge38" class="edge">
<title>node15093&#45;&gt;node15090</title>
<path fill="none" stroke="black" d="M1901.15,-128.36C1888.61,-117.85 1874.75,-106.23 1861.8,-95.38"/>
<polygon fill="black" stroke="black" points="1863.79,-92.48 1853.88,-88.74 1859.3,-97.85 1863.79,-92.48"/>
</g>
<!-- node15095 -->
<g id="node28" class="node">
<title>node15095</title>
<ellipse fill="none" stroke="black" cx="1508" cy="-286.38" rx="58.88" ry="37.45"/>
<text text-anchor="middle" x="1508" y="-297.68" font-family="Monospace" font-size="14.00">http&#45;api</text>
<text text-anchor="middle" x="1508" y="-282.68" font-family="Monospace" font-size="14.00">.auth</text>
<text text-anchor="middle" x="1508" y="-267.68" font-family="Monospace" font-size="14.00">.jwt</text>
</g>
<!-- node15096 -->
<g id="node29" class="node">
<title>node15096</title>
<ellipse fill="none" stroke="black" cx="1508" cy="-397.34" rx="64.19" ry="37.45"/>
<text text-anchor="middle" x="1508" y="-408.64" font-family="Monospace" font-size="14.00">http&#45;api</text>
<text text-anchor="middle" x="1508" y="-393.64" font-family="Monospace" font-size="14.00">.auth</text>
<text text-anchor="middle" x="1508" y="-378.64" font-family="Monospace" font-size="14.00">.keycloak</text>
</g>
<!-- node15096&#45;&gt;node15095 -->
<g id="edge17" class="edge">
<title>node15096&#45;&gt;node15095</title>
<path fill="none" stroke="black" d="M1508,-359.75C1508,-351.58 1508,-342.8 1508,-334.27"/>
<polygon fill="black" stroke="black" points="1511.5,-334.06 1508,-324.06 1504.5,-334.06 1511.5,-334.06"/>
</g>
<!-- node15097&#45;&gt;node15096 -->
<g id="edge19" class="edge">
<title>node15097&#45;&gt;node15096</title>
<path fill="none" stroke="black" d="M1508,-470.97C1508,-462.76 1508,-453.95 1508,-445.4"/>
<polygon fill="black" stroke="black" points="1511.5,-445.14 1508,-435.14 1504.5,-445.14 1511.5,-445.14"/>
</g>
<!-- node15104 -->
<g id="node35" class="node">
<title>node15104</title>
<ellipse fill="none" stroke="black" cx="1740" cy="-397.34" rx="93.18" ry="26.74"/>
<text text-anchor="middle" x="1740" y="-401.14" font-family="Monospace" font-size="14.00">http&#45;api</text>
<text text-anchor="middle" x="1740" y="-386.14" font-family="Monospace" font-size="14.00">.cache&#45;control</text>
</g>
<!-- node15103&#45;&gt;node15104 -->
<g id="edge12" class="edge">
<title>node15103&#45;&gt;node15104</title>
<path fill="none" stroke="black" d="M1733.13,-481.77C1734.29,-467.71 1735.74,-450.1 1737.01,-434.69"/>
<polygon fill="black" stroke="black" points="1740.52,-434.7 1737.85,-424.44 1733.54,-434.12 1740.52,-434.7"/>
</g>
</g>
</svg>
