<?xml version="1.0" encoding="UTF-8" standalone="no"?>
<!DOCTYPE svg PUBLIC "-//W3C//DTD SVG 1.1//EN"
 "http://www.w3.org/Graphics/SVG/1.1/DTD/svg11.dtd">
<!-- Generated by graphviz version 2.43.0 (0)
 -->
<!-- Title: %3 Pages: 1 -->
<svg width="3383pt" height="772pt"
 viewBox="0.00 0.00 3383.00 771.54" xmlns="http://www.w3.org/2000/svg" xmlns:xlink="http://www.w3.org/1999/xlink">
<g id="graph0" class="graph" transform="scale(1 1) rotate(0) translate(4 767.54)">
<title>%3</title>
<polygon fill="white" stroke="transparent" points="-4,4 -4,-767.54 3379,-767.54 3379,4 -4,4"/>
<g id="clust1" class="cluster">
<title>cluster12606</title>
<polygon fill="#03c2fc" stroke="black" points="413,-140.56 413,-387.07 644,-387.07 644,-140.56 413,-140.56"/>
<text text-anchor="middle" x="528.5" y="-371.87" font-family="Monospace" font-size="14.00">:content&#45;management.access</text>
</g>
<g id="clust2" class="cluster">
<title>cluster12609</title>
<polygon fill="#03c2fc" stroke="black" points="2048,-140.56 2048,-254.51 2254,-254.51 2254,-140.56 2048,-140.56"/>
<text text-anchor="middle" x="2151" y="-239.31" font-family="Monospace" font-size="14.00">:persistence.filesystem</text>
</g>
<g id="clust3" class="cluster">
<title>cluster12611</title>
<polygon fill="#03c2fc" stroke="black" points="1568,-662.8 1568,-755.54 1748,-755.54 1748,-662.8 1568,-662.8"/>
<text text-anchor="middle" x="1658" y="-740.34" font-family="Monospace" font-size="14.00">kaleidoscope.main</text>
</g>
<g id="clust4" class="cluster">
<title>cluster12613</title>
<polygon fill="#03c2fc" stroke="black" points="1165,-140.56 1165,-254.51 1858,-254.51 1858,-140.56 1165,-140.56"/>
<text text-anchor="middle" x="1511.5" y="-239.31" font-family="Monospace" font-size="14.00">:content&#45;management.core</text>
</g>
<g id="clust5" class="cluster">
<title>cluster12618</title>
<polygon fill="#03c2fc" stroke="black" points="2044,-262.51 2044,-397.68 2600,-397.68 2600,-262.51 2044,-262.51"/>
<text text-anchor="middle" x="2322" y="-382.48" font-family="Monospace" font-size="14.00">:persistence.filesystem.impl</text>
</g>
<g id="clust6" class="cluster">
<title>cluster12622</title>
<polygon fill="#03c2fc" stroke="black" points="1421,-8 1421,-121.95 1601,-121.95 1601,-8 1421,-8"/>
<text text-anchor="middle" x="1511" y="-106.75" font-family="Monospace" font-size="14.00">:persistence.rdbms</text>
</g>
<g id="clust7" class="cluster">
<title>cluster12624</title>
<polygon fill="#03c2fc" stroke="black" points="2608,-129.95 2608,-532.85 2822,-532.85 2822,-129.95 2608,-129.95"/>
<text text-anchor="middle" x="2715" y="-517.65" font-family="Monospace" font-size="14.00">:http.auth</text>
</g>
<g id="clust8" class="cluster">
<title>cluster12628</title>
<polygon fill="#03c2fc" stroke="black" points="2830,-262.51 2830,-532.85 3367,-532.85 3367,-262.51 2830,-262.51"/>
<text text-anchor="middle" x="3098.5" y="-517.65" font-family="Monospace" font-size="14.00">:persistence.rdbms.impl</text>
</g>
<g id="clust9" class="cluster">
<title>cluster12632</title>
<polygon fill="#03c2fc" stroke="black" points="8,-273.12 8,-522.24 405,-522.24 405,-273.12 8,-273.12"/>
<text text-anchor="middle" x="206.5" y="-507.04" font-family="Monospace" font-size="14.00">:http.utilities</text>
</g>
<g id="clust10" class="cluster">
<title>cluster12636</title>
<polygon fill="#03c2fc" stroke="black" points="2149,-540.85 2149,-654.8 2339,-654.8 2339,-540.85 2149,-540.85"/>
<text text-anchor="middle" x="2244" y="-639.6" font-family="Monospace" font-size="14.00">kaleidoscope.init.env</text>
</g>
<g id="clust11" class="cluster">
<title>cluster12638</title>
<polygon fill="#03c2fc" stroke="black" points="652,-273.12 652,-522.24 2029,-522.24 2029,-273.12 652,-273.12"/>
<text text-anchor="middle" x="1340.5" y="-507.04" font-family="Monospace" font-size="14.00">:http.routes</text>
</g>
<!-- node12607 -->
<g id="node1" class="node">
<title>node12607</title>
<ellipse fill="none" stroke="black" cx="540" cy="-318.6" rx="93.18" ry="37.45"/>
<text text-anchor="middle" x="540" y="-329.9" font-family="Monospace" font-size="14.00">kaleidoscope</text>
<text text-anchor="middle" x="540" y="-314.9" font-family="Monospace" font-size="14.00">.api</text>
<text text-anchor="middle" x="540" y="-299.9" font-family="Monospace" font-size="14.00">.authorization</text>
</g>
<!-- node12608 -->
<g id="node2" class="node">
<title>node12608</title>
<ellipse fill="none" stroke="black" cx="537" cy="-186.04" rx="98.99" ry="37.45"/>
<text text-anchor="middle" x="537" y="-197.34" font-family="Monospace" font-size="14.00">kaleidoscope</text>
<text text-anchor="middle" x="537" y="-182.34" font-family="Monospace" font-size="14.00">.api</text>
<text text-anchor="middle" x="537" y="-167.34" font-family="Monospace" font-size="14.00">.authentication</text>
</g>
<!-- node12607&#45;&gt;node12608 -->
<g id="edge23" class="edge">
<title>node12607&#45;&gt;node12608</title>
<path fill="none" stroke="black" d="M539.16,-280.88C538.82,-266.42 538.44,-249.63 538.09,-234.28"/>
<polygon fill="black" stroke="black" points="541.58,-233.85 537.85,-223.93 534.58,-234.01 541.58,-233.85"/>
</g>
<!-- node12610 -->
<g id="node3" class="node">
<title>node12610</title>
<ellipse fill="none" stroke="black" cx="2151" cy="-186.04" rx="82.05" ry="37.45"/>
<text text-anchor="middle" x="2151" y="-197.34" font-family="Monospace" font-size="14.00">kaleidoscope</text>
<text text-anchor="middle" x="2151" y="-182.34" font-family="Monospace" font-size="14.00">.persistence</text>
<text text-anchor="middle" x="2151" y="-167.34" font-family="Monospace" font-size="14.00">.filesystem</text>
</g>
<!-- node12612 -->
<g id="node4" class="node">
<title>node12612</title>
<ellipse fill="none" stroke="black" cx="1658" cy="-697.67" rx="82.05" ry="26.74"/>
<text text-anchor="middle" x="1658" y="-701.47" font-family="Monospace" font-size="14.00">kaleidoscope</text>
<text text-anchor="middle" x="1658" y="-686.47" font-family="Monospace" font-size="14.00">.main</text>
</g>
<!-- node12633 -->
<g id="node19" class="node">
<title>node12633</title>
<ellipse fill="none" stroke="black" cx="98" cy="-453.76" rx="82.05" ry="37.45"/>
<text text-anchor="middle" x="98" y="-465.06" font-family="Monospace" font-size="14.00">kaleidoscope</text>
<text text-anchor="middle" x="98" y="-450.06" font-family="Monospace" font-size="14.00">.http&#45;api</text>
<text text-anchor="middle" x="98" y="-435.06" font-family="Monospace" font-size="14.00">.middleware</text>
</g>
<!-- node12612&#45;&gt;node12633 -->
<g id="edge27" class="edge">
<title>node12612&#45;&gt;node12633</title>
<path fill="none" stroke="black" d="M1576.57,-694.19C1305.49,-684.91 436.43,-646.77 184,-532.85 165.22,-524.37 147.73,-510.22 133.49,-496.27"/>
<polygon fill="black" stroke="black" points="135.86,-493.7 126.35,-489.03 130.88,-498.61 135.86,-493.7"/>
</g>
<!-- node12637 -->
<g id="node22" class="node">
<title>node12637</title>
<ellipse fill="none" stroke="black" cx="2244" cy="-586.32" rx="82.05" ry="37.45"/>
<text text-anchor="middle" x="2244" y="-597.62" font-family="Monospace" font-size="14.00">kaleidoscope</text>
<text text-anchor="middle" x="2244" y="-582.62" font-family="Monospace" font-size="14.00">.init</text>
<text text-anchor="middle" x="2244" y="-567.62" font-family="Monospace" font-size="14.00">.env</text>
</g>
<!-- node12612&#45;&gt;node12637 -->
<g id="edge26" class="edge">
<title>node12612&#45;&gt;node12637</title>
<path fill="none" stroke="black" d="M1728.1,-683.59C1836,-663.46 2042.43,-624.94 2158.79,-603.22"/>
<polygon fill="black" stroke="black" points="2159.54,-606.64 2168.73,-601.37 2158.26,-599.76 2159.54,-606.64"/>
</g>
<!-- node12614 -->
<g id="node5" class="node">
<title>node12614</title>
<ellipse fill="none" stroke="black" cx="1597" cy="-186.04" rx="82.05" ry="37.45"/>
<text text-anchor="middle" x="1597" y="-197.34" font-family="Monospace" font-size="14.00">kaleidoscope</text>
<text text-anchor="middle" x="1597" y="-182.34" font-family="Monospace" font-size="14.00">.api</text>
<text text-anchor="middle" x="1597" y="-167.34" font-family="Monospace" font-size="14.00">.groups</text>
</g>
<!-- node12623 -->
<g id="node12" class="node">
<title>node12623</title>
<ellipse fill="none" stroke="black" cx="1511" cy="-53.48" rx="82.05" ry="37.45"/>
<text text-anchor="middle" x="1511" y="-64.78" font-family="Monospace" font-size="14.00">kaleidoscope</text>
<text text-anchor="middle" x="1511" y="-49.78" font-family="Monospace" font-size="14.00">.persistence</text>
<text text-anchor="middle" x="1511" y="-34.78" font-family="Monospace" font-size="14.00">.rdbms</text>
</g>
<!-- node12614&#45;&gt;node12623 -->
<g id="edge2" class="edge">
<title>node12614&#45;&gt;node12623</title>
<path fill="none" stroke="black" d="M1573.95,-150.05C1563.45,-134.1 1550.9,-115.04 1539.78,-98.16"/>
<polygon fill="black" stroke="black" points="1542.53,-95.99 1534.11,-89.56 1536.69,-99.84 1542.53,-95.99"/>
</g>
<!-- node12615 -->
<g id="node6" class="node">
<title>node12615</title>
<ellipse fill="none" stroke="black" cx="1426" cy="-186.04" rx="82.05" ry="37.45"/>
<text text-anchor="middle" x="1426" y="-197.34" font-family="Monospace" font-size="14.00">kaleidoscope</text>
<text text-anchor="middle" x="1426" y="-182.34" font-family="Monospace" font-size="14.00">.api</text>
<text text-anchor="middle" x="1426" y="-167.34" font-family="Monospace" font-size="14.00">.articles</text>
</g>
<!-- node12615&#45;&gt;node12623 -->
<g id="edge14" class="edge">
<title>node12615&#45;&gt;node12623</title>
<path fill="none" stroke="black" d="M1449,-149.71C1459.3,-133.89 1471.55,-115.07 1482.43,-98.36"/>
<polygon fill="black" stroke="black" points="1485.46,-100.13 1487.98,-89.84 1479.59,-96.31 1485.46,-100.13"/>
</g>
<!-- node12616 -->
<g id="node7" class="node">
<title>node12616</title>
<ellipse fill="none" stroke="black" cx="1768" cy="-186.04" rx="82.05" ry="37.45"/>
<text text-anchor="middle" x="1768" y="-197.34" font-family="Monospace" font-size="14.00">kaleidoscope</text>
<text text-anchor="middle" x="1768" y="-182.34" font-family="Monospace" font-size="14.00">.api</text>
<text text-anchor="middle" x="1768" y="-167.34" font-family="Monospace" font-size="14.00">.albums</text>
</g>
<!-- node12616&#45;&gt;node12623 -->
<g id="edge25" class="edge">
<title>node12616&#45;&gt;node12623</title>
<path fill="none" stroke="black" d="M1723.26,-154.54C1710.21,-146.15 1695.75,-137.33 1682,-129.95 1649.74,-112.64 1612.7,-95.92 1581.36,-82.64"/>
<polygon fill="black" stroke="black" points="1582.4,-79.29 1571.83,-78.64 1579.69,-85.74 1582.4,-79.29"/>
</g>
<!-- node12617 -->
<g id="node8" class="node">
<title>node12617</title>
<ellipse fill="none" stroke="black" cx="1255" cy="-186.04" rx="82.05" ry="37.45"/>
<text text-anchor="middle" x="1255" y="-197.34" font-family="Monospace" font-size="14.00">kaleidoscope</text>
<text text-anchor="middle" x="1255" y="-182.34" font-family="Monospace" font-size="14.00">.api</text>
<text text-anchor="middle" x="1255" y="-167.34" font-family="Monospace" font-size="14.00">.portfolio</text>
</g>
<!-- node12617&#45;&gt;node12623 -->
<g id="edge31" class="edge">
<title>node12617&#45;&gt;node12623</title>
<path fill="none" stroke="black" d="M1299.75,-154.56C1312.81,-146.17 1327.26,-137.35 1341,-129.95 1372.95,-112.76 1409.61,-96.11 1440.69,-82.85"/>
<polygon fill="black" stroke="black" points="1442.3,-85.97 1450.14,-78.85 1439.57,-79.52 1442.3,-85.97"/>
</g>
<!-- node12619 -->
<g id="node9" class="node">
<title>node12619</title>
<ellipse fill="none" stroke="black" cx="2339" cy="-318.6" rx="82.05" ry="48.17"/>
<text text-anchor="middle" x="2339" y="-337.4" font-family="Monospace" font-size="14.00">kaleidoscope</text>
<text text-anchor="middle" x="2339" y="-322.4" font-family="Monospace" font-size="14.00">.persistence</text>
<text text-anchor="middle" x="2339" y="-307.4" font-family="Monospace" font-size="14.00">.filesystem</text>
<text text-anchor="middle" x="2339" y="-292.4" font-family="Monospace" font-size="14.00">.s3&#45;impl</text>
</g>
<!-- node12619&#45;&gt;node12610 -->
<g id="edge18" class="edge">
<title>node12619&#45;&gt;node12610</title>
<path fill="none" stroke="black" d="M2286.63,-281.23C2260.65,-263.19 2229.35,-241.45 2203.37,-223.41"/>
<polygon fill="black" stroke="black" points="2205.35,-220.52 2195.14,-217.69 2201.36,-226.27 2205.35,-220.52"/>
</g>
<!-- node12620 -->
<g id="node10" class="node">
<title>node12620</title>
<ellipse fill="none" stroke="black" cx="2510" cy="-318.6" rx="82.05" ry="48.17"/>
<text text-anchor="middle" x="2510" y="-337.4" font-family="Monospace" font-size="14.00">kaleidoscope</text>
<text text-anchor="middle" x="2510" y="-322.4" font-family="Monospace" font-size="14.00">.persistence</text>
<text text-anchor="middle" x="2510" y="-307.4" font-family="Monospace" font-size="14.00">.filesystem</text>
<text text-anchor="middle" x="2510" y="-292.4" font-family="Monospace" font-size="14.00">.local</text>
</g>
<!-- node12620&#45;&gt;node12610 -->
<g id="edge20" class="edge">
<title>node12620&#45;&gt;node12610</title>
<path fill="none" stroke="black" d="M2458.19,-280.91C2447.23,-274.16 2435.5,-267.64 2424,-262.51 2363.55,-235.54 2291.18,-216.06 2236.15,-203.66"/>
<polygon fill="black" stroke="black" points="2236.6,-200.17 2226.08,-201.42 2235.08,-207.01 2236.6,-200.17"/>
</g>
<!-- node12621 -->
<g id="node11" class="node">
<title>node12621</title>
<ellipse fill="none" stroke="black" cx="2151" cy="-318.6" rx="98.99" ry="48.17"/>
<text text-anchor="middle" x="2151" y="-337.4" font-family="Monospace" font-size="14.00">kaleidoscope</text>
<text text-anchor="middle" x="2151" y="-322.4" font-family="Monospace" font-size="14.00">.persistence</text>
<text text-anchor="middle" x="2151" y="-307.4" font-family="Monospace" font-size="14.00">.filesystem</text>
<text text-anchor="middle" x="2151" y="-292.4" font-family="Monospace" font-size="14.00">.in&#45;memory&#45;impl</text>
</g>
<!-- node12621&#45;&gt;node12610 -->
<g id="edge30" class="edge">
<title>node12621&#45;&gt;node12610</title>
<path fill="none" stroke="black" d="M2151,-270.46C2151,-258.6 2151,-245.87 2151,-234.01"/>
<polygon fill="black" stroke="black" points="2154.5,-233.86 2151,-223.86 2147.5,-233.86 2154.5,-233.86"/>
</g>
<!-- node12625 -->
<g id="node13" class="node">
<title>node12625</title>
<ellipse fill="none" stroke="black" cx="2715" cy="-186.04" rx="82.05" ry="48.17"/>
<text text-anchor="middle" x="2715" y="-204.84" font-family="Monospace" font-size="14.00">kaleidoscope</text>
<text text-anchor="middle" x="2715" y="-189.84" font-family="Monospace" font-size="14.00">.http&#45;api</text>
<text text-anchor="middle" x="2715" y="-174.84" font-family="Monospace" font-size="14.00">.auth</text>
<text text-anchor="middle" x="2715" y="-159.84" font-family="Monospace" font-size="14.00">.jwt</text>
</g>
<!-- node12626 -->
<g id="node14" class="node">
<title>node12626</title>
<ellipse fill="none" stroke="black" cx="2715" cy="-318.6" rx="82.05" ry="48.17"/>
<text text-anchor="middle" x="2715" y="-337.4" font-family="Monospace" font-size="14.00">kaleidoscope</text>
<text text-anchor="middle" x="2715" y="-322.4" font-family="Monospace" font-size="14.00">.http&#45;api</text>
<text text-anchor="middle" x="2715" y="-307.4" font-family="Monospace" font-size="14.00">.auth</text>
<text text-anchor="middle" x="2715" y="-292.4" font-family="Monospace" font-size="14.00">.keycloak</text>
</g>
<!-- node12626&#45;&gt;node12625 -->
<g id="edge19" class="edge">
<title>node12626&#45;&gt;node12625</title>
<path fill="none" stroke="black" d="M2715,-270.46C2715,-262.06 2715,-253.23 2715,-244.58"/>
<polygon fill="black" stroke="black" points="2718.5,-244.54 2715,-234.54 2711.5,-244.54 2718.5,-244.54"/>
</g>
<!-- node12627 -->
<g id="node15" class="node">
<title>node12627</title>
<ellipse fill="none" stroke="black" cx="2715" cy="-453.76" rx="98.99" ry="48.17"/>
<text text-anchor="middle" x="2715" y="-472.56" font-family="Monospace" font-size="14.00">kaleidoscope</text>
<text text-anchor="middle" x="2715" y="-457.56" font-family="Monospace" font-size="14.00">.http&#45;api</text>
<text text-anchor="middle" x="2715" y="-442.56" font-family="Monospace" font-size="14.00">.auth</text>
<text text-anchor="middle" x="2715" y="-427.56" font-family="Monospace" font-size="14.00">.buddy&#45;backends</text>
</g>
<!-- node12627&#45;&gt;node12626 -->
<g id="edge22" class="edge">
<title>node12627&#45;&gt;node12626</title>
<path fill="none" stroke="black" d="M2715,-405.44C2715,-396.22 2715,-386.45 2715,-376.95"/>
<polygon fill="black" stroke="black" points="2718.5,-376.77 2715,-366.77 2711.5,-376.77 2718.5,-376.77"/>
</g>
<!-- node12629 -->
<g id="node16" class="node">
<title>node12629</title>
<ellipse fill="none" stroke="black" cx="2949" cy="-453.76" rx="111.03" ry="48.17"/>
<text text-anchor="middle" x="2949" y="-472.56" font-family="Monospace" font-size="14.00">kaleidoscope</text>
<text text-anchor="middle" x="2949" y="-457.56" font-family="Monospace" font-size="14.00">.persistence</text>
<text text-anchor="middle" x="2949" y="-442.56" font-family="Monospace" font-size="14.00">.rdbms</text>
<text text-anchor="middle" x="2949" y="-427.56" font-family="Monospace" font-size="14.00">.embedded&#45;h2&#45;impl</text>
</g>
<!-- node12631 -->
<g id="node18" class="node">
<title>node12631</title>
<ellipse fill="none" stroke="black" cx="3084" cy="-318.6" rx="116.85" ry="48.17"/>
<text text-anchor="middle" x="3084" y="-337.4" font-family="Monospace" font-size="14.00">kaleidoscope</text>
<text text-anchor="middle" x="3084" y="-322.4" font-family="Monospace" font-size="14.00">.persistence</text>
<text text-anchor="middle" x="3084" y="-307.4" font-family="Monospace" font-size="14.00">.rdbms</text>
<text text-anchor="middle" x="3084" y="-292.4" font-family="Monospace" font-size="14.00">.embedded&#45;db&#45;utils</text>
</g>
<!-- node12629&#45;&gt;node12631 -->
<g id="edge1" class="edge">
<title>node12629&#45;&gt;node12631</title>
<path fill="none" stroke="black" d="M2992.83,-409.53C3005.43,-397.1 3019.3,-383.42 3032.32,-370.57"/>
<polygon fill="black" stroke="black" points="3034.8,-373.04 3039.46,-363.53 3029.89,-368.06 3034.8,-373.04"/>
</g>
<!-- node12630 -->
<g id="node17" class="node">
<title>node12630</title>
<ellipse fill="none" stroke="black" cx="3213" cy="-453.76" rx="145.83" ry="48.17"/>
<text text-anchor="middle" x="3213" y="-472.56" font-family="Monospace" font-size="14.00">kaleidoscope</text>
<text text-anchor="middle" x="3213" y="-457.56" font-family="Monospace" font-size="14.00">.persistence</text>
<text text-anchor="middle" x="3213" y="-442.56" font-family="Monospace" font-size="14.00">.rdbms</text>
<text text-anchor="middle" x="3213" y="-427.56" font-family="Monospace" font-size="14.00">.embedded&#45;postgres&#45;impl</text>
</g>
<!-- node12630&#45;&gt;node12631 -->
<g id="edge17" class="edge">
<title>node12630&#45;&gt;node12631</title>
<path fill="none" stroke="black" d="M3169.33,-407.68C3157.95,-395.93 3145.6,-383.18 3133.92,-371.13"/>
<polygon fill="black" stroke="black" points="3136.23,-368.48 3126.75,-363.73 3131.2,-373.35 3136.23,-368.48"/>
</g>
<!-- node12634 -->
<g id="node20" class="node">
<title>node12634</title>
<ellipse fill="none" stroke="black" cx="206" cy="-318.6" rx="93.18" ry="37.45"/>
<text text-anchor="middle" x="206" y="-329.9" font-family="Monospace" font-size="14.00">kaleidoscope</text>
<text text-anchor="middle" x="206" y="-314.9" font-family="Monospace" font-size="14.00">.http&#45;api</text>
<text text-anchor="middle" x="206" y="-299.9" font-family="Monospace" font-size="14.00">.cache&#45;control</text>
</g>
<!-- node12633&#45;&gt;node12634 -->
<g id="edge21" class="edge">
<title>node12633&#45;&gt;node12634</title>
<path fill="none" stroke="black" d="M125.81,-418.47C139.58,-401.49 156.34,-380.83 170.97,-362.78"/>
<polygon fill="black" stroke="black" points="173.95,-364.67 177.53,-354.7 168.51,-360.26 173.95,-364.67"/>
</g>
<!-- node12635 -->
<g id="node21" class="node">
<title>node12635</title>
<ellipse fill="none" stroke="black" cx="292" cy="-453.76" rx="105.22" ry="37.45"/>
<text text-anchor="middle" x="292" y="-465.06" font-family="Monospace" font-size="14.00">kaleidoscope</text>
<text text-anchor="middle" x="292" y="-450.06" font-family="Monospace" font-size="14.00">.http&#45;api</text>
<text text-anchor="middle" x="292" y="-435.06" font-family="Monospace" font-size="14.00">.virtual&#45;hosting</text>
</g>
<!-- node12637&#45;&gt;node12619 -->
<g id="edge7" class="edge">
<title>node12637&#45;&gt;node12619</title>
<path fill="none" stroke="black" d="M2256.91,-549.21C2272.91,-504.46 2300.34,-427.72 2319.06,-375.38"/>
<polygon fill="black" stroke="black" points="2322.37,-376.5 2322.44,-365.9 2315.78,-374.14 2322.37,-376.5"/>
</g>
<!-- node12637&#45;&gt;node12620 -->
<g id="edge8" class="edge">
<title>node12637&#45;&gt;node12620</title>
<path fill="none" stroke="black" d="M2277.42,-551.94C2323.93,-505.48 2408.46,-421.04 2461.79,-367.76"/>
<polygon fill="black" stroke="black" points="2464.5,-370 2469.1,-360.46 2459.55,-365.05 2464.5,-370"/>
</g>
<!-- node12637&#45;&gt;node12621 -->
<g id="edge11" class="edge">
<title>node12637&#45;&gt;node12621</title>
<path fill="none" stroke="black" d="M2231.36,-549.21C2215.75,-504.59 2189,-428.18 2170.69,-375.85"/>
<polygon fill="black" stroke="black" points="2173.98,-374.65 2167.37,-366.37 2167.37,-376.97 2173.98,-374.65"/>
</g>
<!-- node12637&#45;&gt;node12627 -->
<g id="edge10" class="edge">
<title>node12637&#45;&gt;node12627</title>
<path fill="none" stroke="black" d="M2313.8,-566.36C2350.23,-556.43 2395.53,-544.04 2436,-532.85 2497.38,-515.87 2566.3,-496.58 2620.28,-481.43"/>
<polygon fill="black" stroke="black" points="2621.5,-484.72 2630.18,-478.65 2619.61,-477.98 2621.5,-484.72"/>
</g>
<!-- node12637&#45;&gt;node12629 -->
<g id="edge5" class="edge">
<title>node12637&#45;&gt;node12629</title>
<path fill="none" stroke="black" d="M2325.81,-582.55C2462.94,-577.13 2733.02,-562.92 2823,-532.85 2845.01,-525.49 2867.14,-513.63 2886.58,-501.35"/>
<polygon fill="black" stroke="black" points="2888.53,-504.26 2895.03,-495.89 2884.73,-498.38 2888.53,-504.26"/>
</g>
<!-- node12637&#45;&gt;node12630 -->
<g id="edge6" class="edge">
<title>node12637&#45;&gt;node12630</title>
<path fill="none" stroke="black" d="M2326.07,-584.36C2505.19,-581.57 2926.1,-571.02 3063,-532.85 3088.46,-525.74 3114.57,-513.98 3137.72,-501.71"/>
<polygon fill="black" stroke="black" points="3139.65,-504.64 3146.78,-496.8 3136.32,-498.49 3139.65,-504.64"/>
</g>
<!-- node12637&#45;&gt;node12633 -->
<g id="edge9" class="edge">
<title>node12637&#45;&gt;node12633</title>
<path fill="none" stroke="black" d="M2162.39,-581.39C1972.32,-572.41 1485.32,-550.44 1078,-540.85 1053.17,-540.26 207.13,-541.9 184,-532.85 164.49,-525.21 146.65,-510.91 132.34,-496.62"/>
<polygon fill="black" stroke="black" points="134.64,-493.96 125.19,-489.18 129.6,-498.81 134.64,-493.96"/>
</g>
<!-- node12637&#45;&gt;node12635 -->
<g id="edge12" class="edge">
<title>node12637&#45;&gt;node12635</title>
<path fill="none" stroke="black" d="M2162.38,-581.66C1972.3,-573.26 1485.27,-552.43 1078,-540.85 983.13,-538.15 745.26,-543.87 651,-532.85 559.03,-522.09 455.92,-498.42 383.88,-479.95"/>
<polygon fill="black" stroke="black" points="384.49,-476.49 373.93,-477.38 382.74,-483.26 384.49,-476.49"/>
</g>
<!-- node12647 -->
<g id="node31" class="node">
<title>node12647</title>
<ellipse fill="none" stroke="black" cx="1341" cy="-453.76" rx="87.86" ry="37.45"/>
<text text-anchor="middle" x="1341" y="-465.06" font-family="Monospace" font-size="14.00">kaleidoscope</text>
<text text-anchor="middle" x="1341" y="-450.06" font-family="Monospace" font-size="14.00">.http&#45;api</text>
<text text-anchor="middle" x="1341" y="-435.06" font-family="Monospace" font-size="14.00">.kaleidoscope</text>
</g>
<!-- node12637&#45;&gt;node12647 -->
<g id="edge13" class="edge">
<title>node12637&#45;&gt;node12647</title>
<path fill="none" stroke="black" d="M2166.23,-574.08C2000.26,-550.08 1611.98,-493.94 1433.6,-468.15"/>
<polygon fill="black" stroke="black" points="1433.85,-464.65 1423.45,-466.68 1432.85,-471.58 1433.85,-464.65"/>
</g>
<!-- node12639 -->
<g id="node23" class="node">
<title>node12639</title>
<ellipse fill="none" stroke="black" cx="742" cy="-318.6" rx="82.05" ry="37.45"/>
<text text-anchor="middle" x="742" y="-329.9" font-family="Monospace" font-size="14.00">kaleidoscope</text>
<text text-anchor="middle" x="742" y="-314.9" font-family="Monospace" font-size="14.00">.http&#45;api</text>
<text text-anchor="middle" x="742" y="-299.9" font-family="Monospace" font-size="14.00">.ping</text>
</g>
<!-- node12640 -->
<g id="node24" class="node">
<title>node12640</title>
<ellipse fill="none" stroke="black" cx="1597" cy="-318.6" rx="82.05" ry="37.45"/>
<text text-anchor="middle" x="1597" y="-329.9" font-family="Monospace" font-size="14.00">kaleidoscope</text>
<text text-anchor="middle" x="1597" y="-314.9" font-family="Monospace" font-size="14.00">.http&#45;api</text>
<text text-anchor="middle" x="1597" y="-299.9" font-family="Monospace" font-size="14.00">.groups</text>
</g>
<!-- node12640&#45;&gt;node12608 -->
<g id="edge4" class="edge">
<title>node12640&#45;&gt;node12608</title>
<path fill="none" stroke="black" d="M1557.29,-285.77C1543.44,-276.47 1527.28,-267.48 1511,-262.51 1474.12,-251.25 1202.48,-257.02 1164,-254.51 978.7,-242.43 763.72,-216.74 639.72,-200.78"/>
<polygon fill="black" stroke="black" points="639.84,-197.26 629.48,-199.45 638.95,-204.2 639.84,-197.26"/>
</g>
<!-- node12640&#45;&gt;node12614 -->
<g id="edge3" class="edge">
<title>node12640&#45;&gt;node12614</title>
<path fill="none" stroke="black" d="M1597,-280.88C1597,-266.42 1597,-249.63 1597,-234.28"/>
<polygon fill="black" stroke="black" points="1600.5,-233.93 1597,-223.93 1593.5,-233.93 1600.5,-233.93"/>
</g>
<!-- node12641 -->
<g id="node25" class="node">
<title>node12641</title>
<ellipse fill="none" stroke="black" cx="1084" cy="-318.6" rx="82.05" ry="37.45"/>
<text text-anchor="middle" x="1084" y="-329.9" font-family="Monospace" font-size="14.00">kaleidoscope</text>
<text text-anchor="middle" x="1084" y="-314.9" font-family="Monospace" font-size="14.00">.http&#45;api</text>
<text text-anchor="middle" x="1084" y="-299.9" font-family="Monospace" font-size="14.00">.admin</text>
</g>
<!-- node12642 -->
<g id="node26" class="node">
<title>node12642</title>
<ellipse fill="none" stroke="black" cx="1939" cy="-318.6" rx="82.05" ry="37.45"/>
<text text-anchor="middle" x="1939" y="-329.9" font-family="Monospace" font-size="14.00">kaleidoscope</text>
<text text-anchor="middle" x="1939" y="-314.9" font-family="Monospace" font-size="14.00">.http&#45;api</text>
<text text-anchor="middle" x="1939" y="-299.9" font-family="Monospace" font-size="14.00">.photo</text>
</g>
<!-- node12642&#45;&gt;node12610 -->
<g id="edge16" class="edge">
<title>node12642&#45;&gt;node12610</title>
<path fill="none" stroke="black" d="M1986.43,-287.76C1999.55,-279.54 2013.81,-270.66 2027,-262.51 2048.67,-249.13 2072.56,-234.56 2093.53,-221.81"/>
<polygon fill="black" stroke="black" points="2095.6,-224.65 2102.33,-216.47 2091.97,-218.67 2095.6,-224.65"/>
</g>
<!-- node12642&#45;&gt;node12616 -->
<g id="edge15" class="edge">
<title>node12642&#45;&gt;node12616</title>
<path fill="none" stroke="black" d="M1897.61,-285.99C1873.43,-267.54 1842.79,-244.14 1817.37,-224.73"/>
<polygon fill="black" stroke="black" points="1819.38,-221.86 1809.31,-218.58 1815.13,-227.43 1819.38,-221.86"/>
</g>
<!-- node12643 -->
<g id="node27" class="node">
<title>node12643</title>
<ellipse fill="none" stroke="black" cx="1426" cy="-318.6" rx="82.05" ry="37.45"/>
<text text-anchor="middle" x="1426" y="-329.9" font-family="Monospace" font-size="14.00">kaleidoscope</text>
<text text-anchor="middle" x="1426" y="-314.9" font-family="Monospace" font-size="14.00">.http&#45;api</text>
<text text-anchor="middle" x="1426" y="-299.9" font-family="Monospace" font-size="14.00">.swagger</text>
</g>
<!-- node12644 -->
<g id="node28" class="node">
<title>node12644</title>
<ellipse fill="none" stroke="black" cx="1768" cy="-318.6" rx="82.05" ry="37.45"/>
<text text-anchor="middle" x="1768" y="-329.9" font-family="Monospace" font-size="14.00">kaleidoscope</text>
<text text-anchor="middle" x="1768" y="-314.9" font-family="Monospace" font-size="14.00">.http&#45;api</text>
<text text-anchor="middle" x="1768" y="-299.9" font-family="Monospace" font-size="14.00">.album</text>
</g>
<!-- node12644&#45;&gt;node12616 -->
<g id="edge24" class="edge">
<title>node12644&#45;&gt;node12616</title>
<path fill="none" stroke="black" d="M1768,-280.88C1768,-266.42 1768,-249.63 1768,-234.28"/>
<polygon fill="black" stroke="black" points="1771.5,-233.93 1768,-223.93 1764.5,-233.93 1771.5,-233.93"/>
</g>
<!-- node12645 -->
<g id="node29" class="node">
<title>node12645</title>
<ellipse fill="none" stroke="black" cx="1255" cy="-318.6" rx="82.05" ry="37.45"/>
<text text-anchor="middle" x="1255" y="-329.9" font-family="Monospace" font-size="14.00">kaleidoscope</text>
<text text-anchor="middle" x="1255" y="-314.9" font-family="Monospace" font-size="14.00">.http&#45;api</text>
<text text-anchor="middle" x="1255" y="-299.9" font-family="Monospace" font-size="14.00">.articles</text>
</g>
<!-- node12645&#45;&gt;node12608 -->
<g id="edge29" class="edge">
<title>node12645&#45;&gt;node12608</title>
<path fill="none" stroke="black" d="M1214.12,-286.1C1200.45,-277.06 1184.69,-268.14 1169,-262.51 1074.98,-228.8 798.58,-205.06 644.27,-194.02"/>
<polygon fill="black" stroke="black" points="644.51,-190.53 634.29,-193.32 644.02,-197.52 644.51,-190.53"/>
</g>
<!-- node12645&#45;&gt;node12615 -->
<g id="edge28" class="edge">
<title>node12645&#45;&gt;node12615</title>
<path fill="none" stroke="black" d="M1297.54,-286.37C1311.16,-276.28 1326.27,-264.99 1340,-254.51 1352.38,-245.07 1365.65,-234.75 1377.98,-225.08"/>
<polygon fill="black" stroke="black" points="1380.22,-227.77 1385.92,-218.84 1375.9,-222.27 1380.22,-227.77"/>
</g>
<!-- node12646 -->
<g id="node30" class="node">
<title>node12646</title>
<ellipse fill="none" stroke="black" cx="913" cy="-318.6" rx="82.05" ry="37.45"/>
<text text-anchor="middle" x="913" y="-329.9" font-family="Monospace" font-size="14.00">kaleidoscope</text>
<text text-anchor="middle" x="913" y="-314.9" font-family="Monospace" font-size="14.00">.http&#45;api</text>
<text text-anchor="middle" x="913" y="-299.9" font-family="Monospace" font-size="14.00">.portfolio</text>
</g>
<!-- node12646&#45;&gt;node12617 -->
<g id="edge32" class="edge">
<title>node12646&#45;&gt;node12617</title>
<path fill="none" stroke="black" d="M956.27,-286.51C969.54,-277.91 984.48,-269.14 999,-262.51 1054.42,-237.22 1120.45,-217.99 1171.56,-205.28"/>
<polygon fill="black" stroke="black" points="1172.7,-208.61 1181.58,-202.82 1171.03,-201.81 1172.7,-208.61"/>
</g>
<!-- node12647&#45;&gt;node12607 -->
<g id="edge38" class="edge">
<title>node12647&#45;&gt;node12607</title>
<path fill="none" stroke="black" d="M1253.22,-451.49C1092.95,-448.23 759.44,-436.82 651,-397.68 627.34,-389.14 604.11,-374.15 585.07,-359.56"/>
<polygon fill="black" stroke="black" points="587.2,-356.79 577.18,-353.36 582.88,-362.29 587.2,-356.79"/>
</g>
<!-- node12647&#45;&gt;node12610 -->
<g id="edge42" class="edge">
<title>node12647&#45;&gt;node12610</title>
<path fill="none" stroke="black" d="M1428.64,-451.7C1603.27,-448.72 1981.55,-437.69 2024,-397.68 2068.15,-356.07 2011.28,-314.22 2043,-262.51 2053.64,-245.16 2069.94,-230.75 2086.67,-219.34"/>
<polygon fill="black" stroke="black" points="2088.95,-222.03 2095.43,-213.64 2085.14,-216.16 2088.95,-222.03"/>
</g>
<!-- node12647&#45;&gt;node12634 -->
<g id="edge40" class="edge">
<title>node12647&#45;&gt;node12634</title>
<path fill="none" stroke="black" d="M1253.51,-450.95C1054.13,-446.27 570.98,-431.69 412,-397.68 364.74,-387.57 313.94,-368.41 274.61,-351.61"/>
<polygon fill="black" stroke="black" points="275.95,-348.37 265.38,-347.62 273.17,-354.8 275.95,-348.37"/>
</g>
<!-- node12647&#45;&gt;node12639 -->
<g id="edge33" class="edge">
<title>node12647&#45;&gt;node12639</title>
<path fill="none" stroke="black" d="M1253.75,-449.9C1127.78,-444.67 901.95,-430.89 828,-397.68 809.2,-389.24 791.71,-375.09 777.47,-361.15"/>
<polygon fill="black" stroke="black" points="779.85,-358.57 770.33,-353.9 774.86,-363.48 779.85,-358.57"/>
</g>
<!-- node12647&#45;&gt;node12640 -->
<g id="edge34" class="edge">
<title>node12647&#45;&gt;node12640</title>
<path fill="none" stroke="black" d="M1417.54,-435.42C1447.87,-426.68 1482.28,-414.33 1511,-397.68 1528.08,-387.78 1544.67,-374.04 1558.65,-360.84"/>
<polygon fill="black" stroke="black" points="1561.38,-363.06 1566.13,-353.59 1556.51,-358.03 1561.38,-363.06"/>
</g>
<!-- node12647&#45;&gt;node12641 -->
<g id="edge35" class="edge">
<title>node12647&#45;&gt;node12641</title>
<path fill="none" stroke="black" d="M1264.01,-435.49C1233.5,-426.75 1198.89,-414.39 1170,-397.68 1152.91,-387.8 1136.32,-374.06 1122.34,-360.85"/>
<polygon fill="black" stroke="black" points="1124.48,-358.05 1114.86,-353.6 1119.61,-363.08 1124.48,-358.05"/>
</g>
<!-- node12647&#45;&gt;node12642 -->
<g id="edge36" class="edge">
<title>node12647&#45;&gt;node12642</title>
<path fill="none" stroke="black" d="M1428.34,-449.88C1554.12,-444.62 1779.25,-430.81 1853,-397.68 1871.8,-389.24 1889.29,-375.09 1903.53,-361.14"/>
<polygon fill="black" stroke="black" points="1906.14,-363.48 1910.66,-353.9 1901.15,-358.57 1906.14,-363.48"/>
</g>
<!-- node12647&#45;&gt;node12643 -->
<g id="edge37" class="edge">
<title>node12647&#45;&gt;node12643</title>
<path fill="none" stroke="black" d="M1363.56,-417.43C1374.03,-401.02 1386.59,-381.35 1397.69,-363.95"/>
<polygon fill="black" stroke="black" points="1400.91,-365.41 1403.34,-355.1 1395.01,-361.64 1400.91,-365.41"/>
</g>
<!-- node12647&#45;&gt;node12644 -->
<g id="edge39" class="edge">
<title>node12647&#45;&gt;node12644</title>
<path fill="none" stroke="black" d="M1428.8,-452.2C1500.21,-448.62 1601.9,-436.24 1682,-397.68 1700.41,-388.82 1717.72,-374.73 1731.92,-360.95"/>
<polygon fill="black" stroke="black" points="1734.47,-363.36 1739.05,-353.81 1729.51,-358.41 1734.47,-363.36"/>
</g>
<!-- node12647&#45;&gt;node12645 -->
<g id="edge41" class="edge">
<title>node12647&#45;&gt;node12645</title>
<path fill="none" stroke="black" d="M1318.18,-417.43C1307.4,-400.74 1294.44,-380.67 1283.07,-363.06"/>
<polygon fill="black" stroke="black" points="1285.99,-361.14 1277.63,-354.64 1280.11,-364.94 1285.99,-361.14"/>
</g>
<!-- node12647&#45;&gt;node12646 -->
<g id="edge43" class="edge">
<title>node12647&#45;&gt;node12646</title>
<path fill="none" stroke="black" d="M1253.3,-452.26C1181.67,-448.73 1079.48,-436.4 999,-397.68 980.58,-388.82 963.27,-374.74 949.08,-360.96"/>
<polygon fill="black" stroke="black" points="951.49,-358.42 941.95,-353.81 946.53,-363.36 951.49,-358.42"/>
</g>
</g>
</svg>
