<?xml version="1.0" encoding="UTF-8" standalone="no"?>
<!-- Created with Inkscape (http://www.inkscape.org/) -->

<svg
   xmlns:dc="http://purl.org/dc/elements/1.1/"
   xmlns:cc="http://creativecommons.org/ns#"
   xmlns:rdf="http://www.w3.org/1999/02/22-rdf-syntax-ns#"
   xmlns:svg="http://www.w3.org/2000/svg"
   xmlns="http://www.w3.org/2000/svg"
   xmlns:sodipodi="http://sodipodi.sourceforge.net/DTD/sodipodi-0.dtd"
   xmlns:inkscape="http://www.inkscape.org/namespaces/inkscape"
   width="250mm"
   height="250mm"
   viewBox="0 0 885.82677 885.82676"
   id="svg2"
   version="1.1"
   inkscape:version="0.91 r13725"
   sodipodi:docname="Head_Thumbnail_BlankBackground.svg">
  <defs
     id="defs4" />
  <sodipodi:namedview
     id="base"
     pagecolor="#ffffff"
     bordercolor="#666666"
     borderopacity="1.0"
     inkscape:pageopacity="0.0"
     inkscape:pageshadow="2"
     inkscape:zoom="0.43"
     inkscape:cx="714.04836"
     inkscape:cy="411.56332"
     inkscape:document-units="px"
     inkscape:current-layer="g5415"
     showgrid="false"
     inkscape:window-width="1366"
     inkscape:window-height="705"
     inkscape:window-x="-8"
     inkscape:window-y="-8"
     inkscape:window-maximized="1" />
  <metadata
     id="metadata7">
    <rdf:RDF>
      <cc:Work
         rdf:about="">
        <dc:format>image/svg+xml</dc:format>
        <dc:type
           rdf:resource="http://purl.org/dc/dcmitype/StillImage" />
        <dc:title />
      </cc:Work>
    </rdf:RDF>
  </metadata>
  <g
     inkscape:label="Layer 1"
     inkscape:groupmode="layer"
     id="layer1"
     transform="translate(0,-166.53544)">
    <g
       transform="translate(-3293.4475,-6366.1076)"
       id="g5415">
      <path
         sodipodi:nodetypes="cccccsccccscccccccccccc"
         inkscape:connector-curvature="0"
         id="path4157-1-0-6-3-8-1-1-81-6-8-2-7-9-9-4-1-9-8-1-6"
         d="m 3725.6328,7323.7687 c -23.372,-41.556 -52.142,-79.562 -84.528,-110.758 -18.503,-6.922 -21.33,-13.845 -66.508,-20.768 -49.746,2.571 -90.442,-2.334 -97.855,-45.521 3.496,-17.131 7.39,-33.628 13.761,-41.65 0,0 -3.226,-7.651 -5.469,-8.761 -19.926,-9.867 -5.34,-30.279 12.724,-35.69 -28.352,3.579 -24.734,-17.003 -23.756,-25.645 8.597,-8.213 2.378,-22.391 2.378,-22.391 -41.76,-3.768 -35.993,-17.65 -31.547,-31.581 3.92,-12.056 13.167,-24.045 32.872,-40.505 10.21,-8.528 16.421,-19.982 26.079,-36.709 6.612,-10.205 -1.688,-24.397 -10.024,-34.383 -7.382,-34.603 10.242,-55.846 16.693,-85.996 6.044,-22.32 16.747,-41.729 30.107,-59.48 l 17.019,-33.877 c 15.543,-35.941 77.732,-55.922 77.732,-55.922 58.855,-27.292 193.102,-16.663 193.102,-16.663 67.129,15.942 86.857,31.885 117,47.827 116.567,82.116 106.699,275.573 14.22,353.572 l -8.509,21.921 c -2.366,20.151 -1.829,52.083 4.268,106.588 z"
         style="fill:none;fill-rule:evenodd;stroke:#ffffff;stroke-width:48.05207825;stroke-linecap:butt;stroke-linejoin:miter;stroke-miterlimit:4;stroke-dasharray:none;stroke-opacity:1" />
      <path
         sodipodi:nodetypes="cscsccccccscc"
         inkscape:connector-curvature="0"
         id="path4158-1-2-6-2-9-5-2-6-5-9-8-1-7-1-8-3"
         d="m 3637.4648,6744.9627 c -0.448,-9.018 -22.309,-8.165 -21.547,-17.539 4.203,-51.7 168.148,-83.202 194.492,2.664 4.185,-4.275 -2.511,-39.424 2.778,-40.526 88.477,-18.445 151.039,69.751 101.269,132.699 16.463,-3.98 25.766,-27.482 29.003,-32.919 61.831,74.43 7.611,157.341 -75.938,139.081 14.109,-18.618 6.051,-54.013 3.612,-43.478 -26.844,103.016 -189.748,77.508 -206.728,7.609 2.559,13.274 -1.578,19.852 8.493,40.64 -62.601,32.382 -143.937,-50.789 -99.579,-109.953 4.276,-5.704 21.405,10.019 27.994,4.517 -51.532,-18.626 -29.581,-106.516 36.151,-82.795 z"
         style="fill:#ffffff;fill-opacity:1;fill-rule:evenodd;stroke:none;stroke-width:8;stroke-linecap:butt;stroke-linejoin:miter;stroke-miterlimit:4;stroke-dasharray:none;stroke-opacity:1" />
      <ellipse
         ry="33.219288"
         rx="35.29549"
         cy="6976.9351"
         cx="3903.3293"
         id="path5070-4-3-7-6-8"
         style="opacity:1;fill:#ffffff;fill-opacity:1;stroke:none;stroke-width:13.44965935;stroke-miterlimit:4;stroke-dasharray:none;stroke-dashoffset:0;stroke-opacity:1" />
      <ellipse
         ry="28.266994"
         rx="30.03368"
         cy="7035.709"
         cx="3870.0557"
         id="path5070-5-1-5-1-5-0"
         style="opacity:1;fill:#ffffff;fill-opacity:1;stroke:none;stroke-width:11.44459915;stroke-miterlimit:4;stroke-dasharray:none;stroke-dashoffset:0;stroke-opacity:1" />
      <ellipse
         ry="20.911575"
         rx="22.218548"
         cy="7088.3467"
         cx="3884.1624"
         id="path5070-5-1-5-3-0-34-9"
         style="opacity:1;fill:#ffffff;fill-opacity:1;stroke:none;stroke-width:8.46657372;stroke-miterlimit:4;stroke-dasharray:none;stroke-dashoffset:0;stroke-opacity:1" />
      <ellipse
         ry="13.074512"
         rx="13.891668"
         cy="7125.7129"
         cx="3906.3843"
         id="path5070-5-1-5-3-0-3-8-2"
         style="opacity:1;fill:#ffffff;fill-opacity:1;stroke:none;stroke-width:5.29354286;stroke-miterlimit:4;stroke-dasharray:none;stroke-dashoffset:0;stroke-opacity:1" />
    </g>
  </g>
</svg>
