<?xml version="1.0" encoding="UTF-8" standalone="no"?>
<!-- Created with Inkscape (http://www.inkscape.org/) -->

<svg
   xmlns:dc="http://purl.org/dc/elements/1.1/"
   xmlns:cc="http://creativecommons.org/ns#"
   xmlns:rdf="http://www.w3.org/1999/02/22-rdf-syntax-ns#"
   xmlns:svg="http://www.w3.org/2000/svg"
   xmlns="http://www.w3.org/2000/svg"
   xmlns:sodipodi="http://sodipodi.sourceforge.net/DTD/sodipodi-0.dtd"
   xmlns:inkscape="http://www.inkscape.org/namespaces/inkscape"
   width="250mm"
   height="250mm"
   viewBox="0 0 885.82677 885.82677"
   id="svg2"
   version="1.1"
   inkscape:version="0.91 r13725"
   sodipodi:docname="Archive_Thumbnail_BlankBackground.svg">
  <defs
     id="defs4" />
  <sodipodi:namedview
     id="base"
     pagecolor="#ffffff"
     bordercolor="#666666"
     borderopacity="1.0"
     inkscape:pageopacity="0.0"
     inkscape:pageshadow="2"
     inkscape:zoom="0.59"
     inkscape:cx="373.79463"
     inkscape:cy="440.71164"
     inkscape:document-units="px"
     inkscape:current-layer="g4329-3-1"
     showgrid="false"
     inkscape:window-width="1366"
     inkscape:window-height="705"
     inkscape:window-x="-8"
     inkscape:window-y="-8"
     inkscape:window-maximized="1" />
  <metadata
     id="metadata7">
    <rdf:RDF>
      <cc:Work
         rdf:about="">
        <dc:format>image/svg+xml</dc:format>
        <dc:type
           rdf:resource="http://purl.org/dc/dcmitype/StillImage" />
        <dc:title />
      </cc:Work>
    </rdf:RDF>
  </metadata>
  <g
     inkscape:label="Layer 1"
     inkscape:groupmode="layer"
     id="layer1"
     transform="translate(0,-166.53543)">
    <g
       transform="translate(1049.7331,876.93639)"
       id="g4329-3-1">
      <rect
         style="opacity:1;fill:none;fill-opacity:1;stroke:#ffffff;stroke-width:30.74739075;stroke-miterlimit:4;stroke-dasharray:none;stroke-dashoffset:0;stroke-opacity:1"
         id="rect4143-8-6-6-8"
         width="482.98322"
         height="727.32227"
         x="-848.31146"
         y="-640.80249"
         inkscape:transform-center-x="-23.486159"
         inkscape:transform-center-y="-9.6537475" />
      <path
         style="opacity:1;fill:#ffffff;fill-opacity:1;stroke:none;stroke-width:11.95695019;stroke-miterlimit:4;stroke-dasharray:none;stroke-dashoffset:0;stroke-opacity:1"
         d="m -812.75336,-154.12133 0,206.9511 411.8672,0 0,-206.9511 -411.8672,0 z m 122.9258,21.4589 166.0156,0 0,87.7754 -166.0156,0 0,-87.7754 z m 21.8672,16.7305 0,54.3145 122.2812,0 0,-54.3145 -122.2812,0 z m 9.1406,92.5664 104,0 0,24.7246 -104,0 0,-24.7246 z"
         id="rect4168-7-4-4-4"
         inkscape:connector-curvature="0" />
      <path
         inkscape:connector-curvature="0"
         style="opacity:1;fill:#ffffff;fill-opacity:1;stroke:none;stroke-width:11.95695019;stroke-miterlimit:4;stroke-dasharray:none;stroke-dashoffset:0;stroke-opacity:1"
         d="m -812.75336,-380.90544 0,206.95111 411.8672,0 0,-206.95111 -411.8672,0 z m 122.9258,21.4589 166.0156,0 0,87.77541 -166.0156,0 0,-87.77541 z m 21.8672,16.73051 0,54.3145 122.2812,0 0,-54.3145 -122.2812,0 z m 9.1406,92.5664 104,0 0,24.7246 -104,0 0,-24.7246 z"
         id="rect4168-7-4-4-4-5" />
      <path
         inkscape:connector-curvature="0"
         style="opacity:1;fill:#ffffff;fill-opacity:1;stroke:none;stroke-width:11.95695019;stroke-miterlimit:4;stroke-dasharray:none;stroke-dashoffset:0;stroke-opacity:1"
         d="m -812.75336,-607.6895 0,206.95107 411.8672,0 0,-206.95107 -411.8672,0 z m 122.9258,21.4589 166.0156,0 0,87.7754 -166.0156,0 0,-87.7754 z m 21.8672,16.7305 0,54.3145 122.2812,0 0,-54.3145 -122.2812,0 z m 9.1406,92.5664 104,0 0,24.7246 -104,0 0,-24.7246 z"
         id="rect4168-7-4-4-4-8" />
    </g>
  </g>
</svg>
