<?xml version="1.0" encoding="UTF-8" standalone="no"?>
<!-- Created with Inkscape (http://www.inkscape.org/) -->

<svg
   xmlns:dc="http://purl.org/dc/elements/1.1/"
   xmlns:cc="http://creativecommons.org/ns#"
   xmlns:rdf="http://www.w3.org/1999/02/22-rdf-syntax-ns#"
   xmlns:svg="http://www.w3.org/2000/svg"
   xmlns="http://www.w3.org/2000/svg"
   xmlns:sodipodi="http://sodipodi.sourceforge.net/DTD/sodipodi-0.dtd"
   xmlns:inkscape="http://www.inkscape.org/namespaces/inkscape"
   width="250mm"
   height="250mm"
   viewBox="0 0 885.82677 885.82676"
   id="svg2"
   version="1.1"
   inkscape:version="0.91 r13725"
   sodipodi:docname="Neuron_Thumbnail_BlankBackground.svg">
  <defs
     id="defs4" />
  <sodipodi:namedview
     id="base"
     pagecolor="#ffffff"
     bordercolor="#666666"
     borderopacity="1.0"
     inkscape:pageopacity="0.0"
     inkscape:pageshadow="2"
     inkscape:zoom="0.3108143"
     inkscape:cx="-472.5791"
     inkscape:cy="495.48715"
     inkscape:document-units="px"
     inkscape:current-layer="layer1"
     showgrid="false"
     inkscape:window-width="1366"
     inkscape:window-height="705"
     inkscape:window-x="-8"
     inkscape:window-y="-8"
     inkscape:window-maximized="1" />
  <metadata
     id="metadata7">
    <rdf:RDF>
      <cc:Work
         rdf:about="">
        <dc:format>image/svg+xml</dc:format>
        <dc:type
           rdf:resource="http://purl.org/dc/dcmitype/StillImage" />
        <dc:title />
      </cc:Work>
    </rdf:RDF>
  </metadata>
  <g
     inkscape:label="Layer 1"
     inkscape:groupmode="layer"
     id="layer1"
     transform="translate(0,-166.53544)">
    <path
       style="fill:#ffffff;fill-opacity:1;fill-rule:evenodd;stroke:none;stroke-width:2.8850491;stroke-linecap:butt;stroke-linejoin:miter;stroke-miterlimit:4;stroke-dasharray:none;stroke-opacity:1"
       d="m 602.10113,217.09596 c -4.65528,-0.8767 -15.22298,7.9491 -24.53354,23.294 -105.06923,126.0149 -210.22816,280.13291 -328.44682,5.1521 l 0,0 c -17.31752,-41.1514 -39.55642,-50.9291 -19.51733,15.0339 22.59602,74.3794 0.57315,246.11311 -115.48122,252.65561 -21.192665,1.1945 -150.180049,13.5814 1.01062,33.4754 149.47852,4.6142 177.64057,140.5732 114.23639,165.5898 -299.334279,118.1042 -237.1275685,404.27583 247.35438,248.2906 23.86967,-7.6851 127.71644,-15.3944 190.14319,-4.927 59.81959,10.0301 102.50039,47.81803 127.0911,47.14063 4.2981,-0.1178 -1.9401,-3.34043 1.3812,-6.16363 0,0 -118.96622,-48.5836 -98.08181,-66.3342 13.2918,-11.2976 53.76506,-22.4729 55.93876,-29.9473 2.49966,-8.5961 -62.07394,12.7605 -56.34267,3.5967 17.64889,-28.2184 53.22352,-45.1457 55.40924,-53.818 6.96884,-27.6499 -77.66754,55.1489 -92.77463,63.6796 -9.33797,5.2731 -124.61621,6.888 -144.19871,11.8441 -4.90451,1.2414 -7.21798,-2.4105 -5.6316,-5.1957 40.74617,-71.5452 248.88809,-127.5705 332.32662,-225.2249 2.8339,-3.3164 1.0489,-12.9987 -11.6044,1.3658 -18.1758,20.6334 -181.00684,114.2814 -196.05295,101.2369 -4.9142,-4.2609 15.72107,-11.7908 47.47006,-51.3134 6.9515,-8.6539 16.68443,-32.4642 20.62166,-42.5028 4.63104,-11.808 -6.89816,-31.7019 -12.90159,-0.6947 -1.94489,10.0442 -56.07451,91.3661 -81.34324,100.7793 -14.22933,5.3008 -7.12315,2.607 -6.7238,-1.1875 14.05813,-133.6431 9.15642,-132.0639 46.11827,-192.6189 2.61649,-4.2871 -6.23467,-6.074 -9.82375,-4.0811 -36.01816,20.0039 -66.1556,241.8511 -74.23222,214.8168 -19.07994,-63.8637 -26.59348,-129.5707 -7.16221,-148.4903 10.08575,-9.8201 -0.77846,-20.0682 -6.48082,-14.5974 -56.49465,54.2049 -1.21986,123.3816 -23.61419,184.1615 -11.59987,31.4815 -61.19329,86.0752 -75.85954,90.0921 -523.162389,143.28363 -380.608419,-153.0725 -200.71574,-197.9004 112.32767,-123.7699 186.78758,-47.9857 203.39667,31.0943 6.24846,29.7514 31.26461,62.5368 28.0993,34.3782 -11.77124,-48.7964 -10.16733,-245.0885 177.73745,-238.381 19.56003,-4.8672 49.45523,-9.3694 2.09174,-16.6048 -137.44731,-11.4808 -241.75319,-43.8574 -80.48311,-276.52151 24.20506,-34.9204 27.19703,-50.1112 21.57868,-51.1695 z M 420.31139,488.54947 c 16.13766,3.8737 18.00442,32.8241 -1.07263,49.1348 -34.11999,25.039 -44.92742,36.959 -83.83928,36.8286 -55.40906,-9.6495 -26.46528,-42.2694 -15.75641,-47.9099 65.99038,-26.174 57.10454,-23.6698 85.65634,-35.5045 5.85769,-2.8958 10.89852,-3.5361 15.01198,-2.549 z"
       id="path4194-8-7-4-5-6-7-8-1"
       inkscape:connector-curvature="0"
       sodipodi:nodetypes="ccccsscsssccccscssccsccssssccsscsscscccscccccccc" />
  </g>
</svg>
